<svg width="975" height="247" viewBox="0 0 975 247" fill="none" xmlns="http://www.w3.org/2000/svg">
<g clip-path="url(#clip0_330_1240)">
<path d="M269.23 0.0100098V189.29H241.31C189.17 189.29 146.67 146.79 146.67 94.65C146.67 42.51 189.17 0.0100098 241.31 0.0100098H269.23Z" fill="white"/>
<path d="M27.92 0.0100098C80.06 0.0100098 122.56 42.51 122.56 94.65C122.56 146.79 80.06 189.29 27.92 189.29H0V0.0100098H27.92Z" fill="white"/>
<path d="M868.87 58.42L906.25 142.47L943.63 58.42H974.97C968.6 72.67 900.73 224.34 900.66 224.49C892.31 243.19 870.31 251.65 851.66 243.33L841.72 238.9L841.67 238.88L853.25 212.88L857.37 214.72C865.06 218.15 874.13 214.66 877.57 206.95C877.6 206.88 890.58 177.67 890.58 177.67L837.52 58.42H868.87Z" fill="white"/>
<path d="M682.55 0.0299988H653.86V189.29H682.55V0.0299988Z" fill="white"/>
<path d="M772.92 58.31C758.98 58.31 746.05 62.69 735.42 70.13V0.0299988H706.67V189.29H735.42V177.66C746.06 185.1 758.98 189.48 772.92 189.48C809.09 189.48 838.51 160.06 838.51 123.89C838.51 87.72 809.09 58.3 772.92 58.3V58.31ZM772.92 163.2C755.38 163.2 740.63 151.78 735.42 136.11C734.11 132.18 733.38 128 733.38 123.65C733.38 119.3 734.12 115.09 735.42 111.17C740.67 95.41 755.55 84.11 772.92 84.11C794.62 84.11 812.46 101.95 812.46 123.65C812.46 145.35 794.62 163.19 772.92 163.19V163.2Z" fill="white"/>
<path d="M569.71 58.3C533.54 58.3 504.12 87.72 504.12 123.89C504.12 160.06 533.54 189.48 569.71 189.48C605.88 189.48 635.29 160.06 635.29 123.89C635.29 87.72 605.87 58.3 569.71 58.3ZM569.71 163.19C547.77 163.19 530.17 145.35 530.17 123.65C530.17 101.95 548.01 84.11 569.71 84.11C591.41 84.11 609.25 101.95 609.25 123.65C609.25 145.35 591.41 163.19 569.71 163.19Z" fill="white"/>
<path d="M394.92 0H326.56V189.29H394.92C447.11 189.29 489.56 146.83 489.56 94.64C489.56 42.45 447.1 0 394.92 0ZM394.92 160.59H355.25V28.7H394.92C431.25 28.7 460.87 58.32 460.87 94.65C460.87 130.98 431.26 160.6 394.92 160.6V160.59Z" fill="white"/>
</g>
<defs>
<clipPath id="clip0_330_1240">
<rect width="974.97" height="246.53" fill="white"/>
</clipPath>
</defs>
</svg>
