<?xml version="1.0" encoding="UTF-8"?><svg id="a" xmlns="http://www.w3.org/2000/svg" viewBox="0 0 59.0001 21.0274"><path d="M6.5081,21.02c-1.758-.07-3.198-.552-4.32-1.445-.321-.2769-.6211-.577-.898-.898-.4268-.5205-.7564-1.1137-.973-1.751-.637-1.906-.309-4.408.936-7.153,1.067-2.35,2.713-4.68,5.584-7.909.5588-.6254,1.1222-1.2468,1.69-1.864.003,0-.065.119-.151.264-.748,1.2523-1.3308,2.5961-1.734,3.998-.559,2.046-.491,3.802.198,5.164.4848.9477,1.2569,1.7178,2.206,2.2,1.604.785,3.953.85,6.82.19.198-.046,9.983-2.644,21.745-5.773C49.3741,2.913,59.0001.355,59.0001.357c.004.003-27.326,11.698-41.514,17.765-2.247.96-2.848,1.203-3.904,1.574-2.7.948-5.119,1.4-7.074,1.323v.001Z" fill="#fff"/></svg>