<svg id="Illustrations" xmlns="http://www.w3.org/2000/svg" width="480" height="480" viewBox="0 0 480 480"><g><path d="M247.58,149.56c-5.69-2.06-12.07-.75-17.64,1.61-5.57,2.36-10.68,5.71-16.31,7.93-14.14,5.58-31.13,3.21-43.19-6.04,0,0-.43-17.94-15.22-19.51" fill="none" stroke="#2c3b5e" stroke-miterlimit="10" stroke-width="3"/><path d="M143.73,139.37s4.41,4.72,14.95,5.82" fill="none" stroke="#2c3b5e" stroke-miterlimit="10" stroke-width="3"/><path d="M143.73,147.13s4.41,4.72,14.95,5.82" fill="none" stroke="#2c3b5e" stroke-miterlimit="10" stroke-width="3"/><path d="M143.73,154.88s4.41,4.72,14.95,5.82" fill="none" stroke="#2c3b5e" stroke-miterlimit="10" stroke-width="3"/><path d="M143.73,162.64s2.28,2.44,7.47,4.22" fill="none" stroke="#2c3b5e" stroke-miterlimit="10" stroke-width="3"/><path d="M156.32,166.12s22.19,38.08,68.45,27.22" fill="none" stroke="#2c3b5e" stroke-miterlimit="10" stroke-width="3"/><polyline points="156.32 160.71 156.32 208.3 145.62 208.3 145.62 164.75" fill="none" stroke="#2c3b5e" stroke-miterlimit="10" stroke-width="3"/><line x1="156.32" y1="145.08" x2="156.32" y2="122.06" fill="none" stroke="#2c3b5e" stroke-miterlimit="10" stroke-width="3"/><line x1="145.62" y1="140.88" x2="145.62" y2="121.8" fill="none" stroke="#2c3b5e" stroke-miterlimit="10" stroke-width="3"/><rect x="105.02" y="64.78" width="105.44" height="58.54" fill="none" stroke="#2c3b5e" stroke-miterlimit="10" stroke-width="3"/><polyline points="119.18 115.79 133.86 94.8 155.22 111.48 166.45 87.72 182.24 98.42 195.63 81.67" fill="none" stroke="#2c3b5e" stroke-miterlimit="10" stroke-width="3"/><polyline points="183.75 80.83 196.92 80.83 198.87 90.98" fill="none" stroke="#2c3b5e" stroke-miterlimit="10" stroke-width="3"/><path d="M162.45,174.14s.41-11.49,8-21.08" fill="none" stroke="#2c3b5e" stroke-miterlimit="10" stroke-width="3"/><polyline points="251.76 153.06 243.03 224.58 211.87 218.68" fill="none" stroke="#2c3b5e" stroke-miterlimit="10" stroke-width="3"/><path d="M244.45,156.13l-10.62,9.99,7.79,4.88s-5.19,13.5,4.25,24.31" fill="none" stroke="#2c3b5e" stroke-miterlimit="10" stroke-width="3"/><line x1="269.7" y1="157.8" x2="263.8" y2="198.15" fill="none" stroke="#2c3b5e" stroke-miterlimit="10" stroke-width="3"/><path d="M282.45,151.88s53.69,17.7,53.58,53.35c-.11,37.91-32.81,47.92-77.66,21.48" fill="none" stroke="#2c3b5e" stroke-miterlimit="10" stroke-width="3"/><path d="M309.47,198.32c1.64,4.02.26,8.87-2.76,11.99-3.02,3.12-7.4,4.65-11.73,4.9s-8.65-.65-12.83-1.81c-.22-1.95-.63-4.07-1.84-5.61-1.7-2.17-4.74-2.67-7.47-3.01-.65-.08-1.35-.15-1.94.15-.82.42-1.15,1.48-1,2.4.15.91.67,1.72,1.18,2.49" fill="none" stroke="#2c3b5e" stroke-miterlimit="10" stroke-width="3"/><path d="M255.93,217.42s7.08,4.41,13.92,6.29" fill="none" stroke="#2c3b5e" stroke-miterlimit="10" stroke-width="3"/><path d="M254.83,208.77s10.5,7.71,19.83,7.71" fill="none" stroke="#2c3b5e" stroke-miterlimit="10" stroke-width="3"/><path d="M260.85,204.28s3.89,5.19,13.22,6.14" fill="none" stroke="#2c3b5e" stroke-miterlimit="10" stroke-width="3"/><path d="M277.97,157.8l7.79,14.15-7.79,2.2s-1.42,12.44-14.16,22.56" fill="none" stroke="#2c3b5e" stroke-miterlimit="10" stroke-width="3"/><path d="M228.87,220.57c0,2.36-41.07,167.59-41.07,167.59h54.76l18.29-80.26" fill="none" stroke="#2c3b5e" stroke-miterlimit="10" stroke-width="3"/><polyline points="254.83 259.28 269.86 388.17 328.48 388.17 302.04 248.9" fill="none" stroke="#2c3b5e" stroke-miterlimit="10" stroke-width="3"/><path d="M201.01,388.17l-27.07,21.87h35.88s5.04-4.72,11.02,0h14.16l-3.19-16.05" fill="none" stroke="#2c3b5e" stroke-miterlimit="10" stroke-width="3"/><path d="M285.44,388.17l-27.07,21.87h35.88s5.04-4.72,11.02,0h14.16l-3.19-16.05" fill="none" stroke="#2c3b5e" stroke-miterlimit="10" stroke-width="3"/><polyline points="261.32 117.95 256.87 130.36 266.75 131.52" fill="none" stroke="#2c3b5e" stroke-miterlimit="10" stroke-width="3"/><path d="M247.36,120.95c-.13.9-1.72,29.57,17.45,29.6,18.03.03,18.03-14.78,18.03-14.78,1.82,0,3,1.24,4.83,1.25s3.72-.72,4.78-2.21c.85-1.2,1.08-2.75,1.02-4.22-.07-1.74-.55-3.54-1.73-4.83s-3.17-1.92-4.75-1.17" fill="none" stroke="#2c3b5e" stroke-miterlimit="10" stroke-width="3"/><path d="M292.3,127.01c3.54-3.12,5.68-7.78,5.76-12.5.05-3.32-.94-6.73-3.12-9.24s-5.92-4.18-9.2-3.65c-.78-4.31-3.81-8.14-7.82-9.89-2.87-1.25-6.09-1.47-9.21-1.2-7.32.63-14.38,3.89-19.61,9.05-1.74,1.72-3.33,3.72-3.97,6.09-.64,2.37-.16,5.16,1.69,6.77,1.7,1.48,4.12,1.7,6.37,1.74,8.65.12,17.31-1.58,25.27-4.95-.71,3.25-1.72,6.65-1.11,9.92s2.93,6.46,6.21,7.03" fill="none" stroke="#2c3b5e" stroke-miterlimit="10" stroke-width="3"/><path d="M261.68,137.8c.98-.54,1.97-1.08,3.04-1.41s2.25-.41,3.3-.04,1.96,1.26,2.17,2.36c.15.85-.12,1.74-.65,2.42s-1.29,1.16-2.1,1.44c-2.51.87-5.55-.26-6.89-2.55" fill="none" stroke="#2c3b5e" stroke-miterlimit="10" stroke-width="3"/><ellipse cx="267.62" cy="122.65" rx="1.69" ry="2.09" fill="#2c3b5e"/><ellipse cx="252.9" cy="121.55" rx="1.69" ry="2.09" fill="#2c3b5e"/><g><path d="M312.38,313.59c-.82,0-1.48.66-1.48,1.48s.66,1.48,1.48,1.48,1.48-.66,1.48-1.48-.66-1.48-1.48-1.48Z" fill="#2c3b5e"/><path d="M312.38,321.05c-.82,0-1.48.66-1.48,1.48s.66,1.48,1.48,1.48,1.48-.66,1.48-1.48-.66-1.48-1.48-1.48Z" fill="#2c3b5e"/><path d="M312.38,328.51c-.82,0-1.48.66-1.48,1.48s.66,1.48,1.48,1.48,1.48-.66,1.48-1.48-.66-1.48-1.48-1.48Z" fill="#2c3b5e"/><path d="M312.38,335.97c-.82,0-1.48.66-1.48,1.48s.66,1.48,1.48,1.48,1.48-.66,1.48-1.48-.66-1.48-1.48-1.48Z" fill="#2c3b5e"/><path d="M312.38,343.43c-.82,0-1.48.66-1.48,1.48s.66,1.48,1.48,1.48,1.48-.66,1.48-1.48-.66-1.48-1.48-1.48Z" fill="#2c3b5e"/><path d="M312.38,350.89c-.82,0-1.48.66-1.48,1.48s.66,1.48,1.48,1.48,1.48-.66,1.48-1.48-.66-1.48-1.48-1.48Z" fill="#2c3b5e"/><path d="M305.55,276.28c-.82,0-1.48.66-1.48,1.48s.66,1.48,1.48,1.48,1.48-.66,1.48-1.48-.66-1.48-1.48-1.48Z" fill="#2c3b5e"/><path d="M305.55,283.74c-.82,0-1.48.66-1.48,1.48s.66,1.48,1.48,1.48,1.48-.66,1.48-1.48-.66-1.48-1.48-1.48Z" fill="#2c3b5e"/><path d="M305.55,291.2c-.82,0-1.48.66-1.48,1.48s.66,1.48,1.48,1.48,1.48-.66,1.48-1.48-.66-1.48-1.48-1.48Z" fill="#2c3b5e"/><path d="M305.55,298.66c-.82,0-1.48.66-1.48,1.48s.66,1.48,1.48,1.48,1.48-.66,1.48-1.48-.66-1.48-1.48-1.48Z" fill="#2c3b5e"/><path d="M305.55,306.12c-.82,0-1.48.66-1.48,1.48s.66,1.48,1.48,1.48,1.48-.66,1.48-1.48-.66-1.48-1.48-1.48Z" fill="#2c3b5e"/><path d="M305.55,313.59c-.82,0-1.48.66-1.48,1.48s.66,1.48,1.48,1.48,1.48-.66,1.48-1.48-.66-1.48-1.48-1.48Z" fill="#2c3b5e"/><path d="M305.55,321.05c-.82,0-1.48.66-1.48,1.48s.66,1.48,1.48,1.48,1.48-.66,1.48-1.48-.66-1.48-1.48-1.48Z" fill="#2c3b5e"/><path d="M305.55,328.51c-.82,0-1.48.66-1.48,1.48s.66,1.48,1.48,1.48,1.48-.66,1.48-1.48-.66-1.48-1.48-1.48Z" fill="#2c3b5e"/><path d="M305.55,335.97c-.82,0-1.48.66-1.48,1.48s.66,1.48,1.48,1.48,1.48-.66,1.48-1.48-.66-1.48-1.48-1.48Z" fill="#2c3b5e"/><path d="M305.55,343.43c-.82,0-1.48.66-1.48,1.48s.66,1.48,1.48,1.48,1.48-.66,1.48-1.48-.66-1.48-1.48-1.48Z" fill="#2c3b5e"/><path d="M305.55,350.89c-.82,0-1.48.66-1.48,1.48s.66,1.48,1.48,1.48,1.48-.66,1.48-1.48-.66-1.48-1.48-1.48Z" fill="#2c3b5e"/><path d="M298.72,246.44c-.82,0-1.48.66-1.48,1.48s.66,1.48,1.48,1.48,1.48-.66,1.48-1.48-.66-1.48-1.48-1.48Z" fill="#2c3b5e"/><path d="M298.72,253.9c-.82,0-1.48.66-1.48,1.48s.66,1.48,1.48,1.48,1.48-.66,1.48-1.48-.66-1.48-1.48-1.48Z" fill="#2c3b5e"/><path d="M298.72,261.36c-.82,0-1.48.66-1.48,1.48s.66,1.48,1.48,1.48,1.48-.66,1.48-1.48-.66-1.48-1.48-1.48Z" fill="#2c3b5e"/><path d="M298.72,268.82c-.82,0-1.48.66-1.48,1.48s.66,1.48,1.48,1.48,1.48-.66,1.48-1.48-.66-1.48-1.48-1.48Z" fill="#2c3b5e"/><path d="M298.72,276.28c-.82,0-1.48.66-1.48,1.48s.66,1.48,1.48,1.48,1.48-.66,1.48-1.48-.66-1.48-1.48-1.48Z" fill="#2c3b5e"/><path d="M298.72,283.74c-.82,0-1.48.66-1.48,1.48s.66,1.48,1.48,1.48,1.48-.66,1.48-1.48-.66-1.48-1.48-1.48Z" fill="#2c3b5e"/><path d="M298.72,291.2c-.82,0-1.48.66-1.48,1.48s.66,1.48,1.48,1.48,1.48-.66,1.48-1.48-.66-1.48-1.48-1.48Z" fill="#2c3b5e"/><path d="M298.72,298.66c-.82,0-1.48.66-1.48,1.48s.66,1.48,1.48,1.48,1.48-.66,1.48-1.48-.66-1.48-1.48-1.48Z" fill="#2c3b5e"/><path d="M298.72,306.12c-.82,0-1.48.66-1.48,1.48s.66,1.48,1.48,1.48,1.48-.66,1.48-1.48-.66-1.48-1.48-1.48Z" fill="#2c3b5e"/><path d="M298.72,313.59c-.82,0-1.48.66-1.48,1.48s.66,1.48,1.48,1.48,1.48-.66,1.48-1.48-.66-1.48-1.48-1.48Z" fill="#2c3b5e"/><path d="M298.72,321.05c-.82,0-1.48.66-1.48,1.48s.66,1.48,1.48,1.48,1.48-.66,1.48-1.48-.66-1.48-1.48-1.48Z" fill="#2c3b5e"/><path d="M298.72,328.51c-.82,0-1.48.66-1.48,1.48s.66,1.48,1.48,1.48,1.48-.66,1.48-1.48-.66-1.48-1.48-1.48Z" fill="#2c3b5e"/><path d="M298.72,335.97c-.82,0-1.48.66-1.48,1.48s.66,1.48,1.48,1.48,1.48-.66,1.48-1.48-.66-1.48-1.48-1.48Z" fill="#2c3b5e"/><path d="M298.72,343.43c-.82,0-1.48.66-1.48,1.48s.66,1.48,1.48,1.48,1.48-.66,1.48-1.48-.66-1.48-1.48-1.48Z" fill="#2c3b5e"/><path d="M298.72,350.89c-.82,0-1.48.66-1.48,1.48s.66,1.48,1.48,1.48,1.48-.66,1.48-1.48-.66-1.48-1.48-1.48Z" fill="#2c3b5e"/><path d="M291.89,246.44c-.82,0-1.48.66-1.48,1.48s.66,1.48,1.48,1.48,1.48-.66,1.48-1.48-.66-1.48-1.48-1.48Z" fill="#2c3b5e"/><path d="M291.89,253.9c-.82,0-1.48.66-1.48,1.48s.66,1.48,1.48,1.48,1.48-.66,1.48-1.48-.66-1.48-1.48-1.48Z" fill="#2c3b5e"/><path d="M291.89,261.36c-.82,0-1.48.66-1.48,1.48s.66,1.48,1.48,1.48,1.48-.66,1.48-1.48-.66-1.48-1.48-1.48Z" fill="#2c3b5e"/><path d="M291.89,268.82c-.82,0-1.48.66-1.48,1.48s.66,1.48,1.48,1.48,1.48-.66,1.48-1.48-.66-1.48-1.48-1.48Z" fill="#2c3b5e"/><path d="M291.89,276.28c-.82,0-1.48.66-1.48,1.48s.66,1.48,1.48,1.48,1.48-.66,1.48-1.48-.66-1.48-1.48-1.48Z" fill="#2c3b5e"/><path d="M291.89,283.74c-.82,0-1.48.66-1.48,1.48s.66,1.48,1.48,1.48,1.48-.66,1.48-1.48-.66-1.48-1.48-1.48Z" fill="#2c3b5e"/><path d="M291.89,291.2c-.82,0-1.48.66-1.48,1.48s.66,1.48,1.48,1.48,1.48-.66,1.48-1.48-.66-1.48-1.48-1.48Z" fill="#2c3b5e"/><path d="M291.89,298.66c-.82,0-1.48.66-1.48,1.48s.66,1.48,1.48,1.48,1.48-.66,1.48-1.48-.66-1.48-1.48-1.48Z" fill="#2c3b5e"/><path d="M291.89,306.12c-.82,0-1.48.66-1.48,1.48s.66,1.48,1.48,1.48,1.48-.66,1.48-1.48-.66-1.48-1.48-1.48Z" fill="#2c3b5e"/><path d="M291.89,313.59c-.82,0-1.48.66-1.48,1.48s.66,1.48,1.48,1.48,1.48-.66,1.48-1.48-.66-1.48-1.48-1.48Z" fill="#2c3b5e"/><path d="M291.89,321.05c-.82,0-1.48.66-1.48,1.48s.66,1.48,1.48,1.48,1.48-.66,1.48-1.48-.66-1.48-1.48-1.48Z" fill="#2c3b5e"/><path d="M291.89,328.51c-.82,0-1.48.66-1.48,1.48s.66,1.48,1.48,1.48,1.48-.66,1.48-1.48-.66-1.48-1.48-1.48Z" fill="#2c3b5e"/><path d="M291.89,335.97c-.82,0-1.48.66-1.48,1.48s.66,1.48,1.48,1.48,1.48-.66,1.48-1.48-.66-1.48-1.48-1.48Z" fill="#2c3b5e"/><path d="M291.89,343.43c-.82,0-1.48.66-1.48,1.48s.66,1.48,1.48,1.48,1.48-.66,1.48-1.48-.66-1.48-1.48-1.48Z" fill="#2c3b5e"/><path d="M291.89,350.89c-.82,0-1.48.66-1.48,1.48s.66,1.48,1.48,1.48,1.48-.66,1.48-1.48-.66-1.48-1.48-1.48Z" fill="#2c3b5e"/><path d="M285.06,246.44c-.82,0-1.48.66-1.48,1.48s.66,1.48,1.48,1.48,1.48-.66,1.48-1.48-.66-1.48-1.48-1.48Z" fill="#2c3b5e"/><path d="M285.06,253.9c-.82,0-1.48.66-1.48,1.48s.66,1.48,1.48,1.48,1.48-.66,1.48-1.48-.66-1.48-1.48-1.48Z" fill="#2c3b5e"/><path d="M285.06,261.36c-.82,0-1.48.66-1.48,1.48s.66,1.48,1.48,1.48,1.48-.66,1.48-1.48-.66-1.48-1.48-1.48Z" fill="#2c3b5e"/><path d="M285.06,268.82c-.82,0-1.48.66-1.48,1.48s.66,1.48,1.48,1.48,1.48-.66,1.48-1.48-.66-1.48-1.48-1.48Z" fill="#2c3b5e"/><path d="M285.06,276.28c-.82,0-1.48.66-1.48,1.48s.66,1.48,1.48,1.48,1.48-.66,1.48-1.48-.66-1.48-1.48-1.48Z" fill="#2c3b5e"/><path d="M285.06,283.74c-.82,0-1.48.66-1.48,1.48s.66,1.48,1.48,1.48,1.48-.66,1.48-1.48-.66-1.48-1.48-1.48Z" fill="#2c3b5e"/><path d="M285.06,291.2c-.82,0-1.48.66-1.48,1.48s.66,1.48,1.48,1.48,1.48-.66,1.48-1.48-.66-1.48-1.48-1.48Z" fill="#2c3b5e"/><path d="M285.06,298.66c-.82,0-1.48.66-1.48,1.48s.66,1.48,1.48,1.48,1.48-.66,1.48-1.48-.66-1.48-1.48-1.48Z" fill="#2c3b5e"/><path d="M285.06,306.12c-.82,0-1.48.66-1.48,1.48s.66,1.48,1.48,1.48,1.48-.66,1.48-1.48-.66-1.48-1.48-1.48Z" fill="#2c3b5e"/><path d="M285.06,313.59c-.82,0-1.48.66-1.48,1.48s.66,1.48,1.48,1.48,1.48-.66,1.48-1.48-.66-1.48-1.48-1.48Z" fill="#2c3b5e"/><path d="M285.06,321.05c-.82,0-1.48.66-1.48,1.48s.66,1.48,1.48,1.48,1.48-.66,1.48-1.48-.66-1.48-1.48-1.48Z" fill="#2c3b5e"/><path d="M285.06,328.51c-.82,0-1.48.66-1.48,1.48s.66,1.48,1.48,1.48,1.48-.66,1.48-1.48-.66-1.48-1.48-1.48Z" fill="#2c3b5e"/><path d="M285.06,335.97c-.82,0-1.48.66-1.48,1.48s.66,1.48,1.48,1.48,1.48-.66,1.48-1.48-.66-1.48-1.48-1.48Z" fill="#2c3b5e"/><path d="M285.06,343.43c-.82,0-1.48.66-1.48,1.48s.66,1.48,1.48,1.48,1.48-.66,1.48-1.48-.66-1.48-1.48-1.48Z" fill="#2c3b5e"/><path d="M285.06,350.89c-.82,0-1.48.66-1.48,1.48s.66,1.48,1.48,1.48,1.48-.66,1.48-1.48-.66-1.48-1.48-1.48Z" fill="#2c3b5e"/><path d="M278.23,238.98c-.82,0-1.48.66-1.48,1.48s.66,1.48,1.48,1.48,1.48-.66,1.48-1.48-.66-1.48-1.48-1.48Z" fill="#2c3b5e"/><path d="M278.23,246.44c-.82,0-1.48.66-1.48,1.48s.66,1.48,1.48,1.48,1.48-.66,1.48-1.48-.66-1.48-1.48-1.48Z" fill="#2c3b5e"/><path d="M278.23,253.9c-.82,0-1.48.66-1.48,1.48s.66,1.48,1.48,1.48,1.48-.66,1.48-1.48-.66-1.48-1.48-1.48Z" fill="#2c3b5e"/><path d="M278.23,261.36c-.82,0-1.48.66-1.48,1.48s.66,1.48,1.48,1.48,1.48-.66,1.48-1.48-.66-1.48-1.48-1.48Z" fill="#2c3b5e"/><path d="M278.23,268.82c-.82,0-1.48.66-1.48,1.48s.66,1.48,1.48,1.48,1.48-.66,1.48-1.48-.66-1.48-1.48-1.48Z" fill="#2c3b5e"/><path d="M278.23,276.28c-.82,0-1.48.66-1.48,1.48s.66,1.48,1.48,1.48,1.48-.66,1.48-1.48-.66-1.48-1.48-1.48Z" fill="#2c3b5e"/><path d="M278.23,283.74c-.82,0-1.48.66-1.48,1.48s.66,1.48,1.48,1.48,1.48-.66,1.48-1.48-.66-1.48-1.48-1.48Z" fill="#2c3b5e"/><path d="M278.23,291.2c-.82,0-1.48.66-1.48,1.48s.66,1.48,1.48,1.48,1.48-.66,1.48-1.48-.66-1.48-1.48-1.48Z" fill="#2c3b5e"/><path d="M278.23,298.66c-.82,0-1.48.66-1.48,1.48s.66,1.48,1.48,1.48,1.48-.66,1.48-1.48-.66-1.48-1.48-1.48Z" fill="#2c3b5e"/><path d="M278.23,306.12c-.82,0-1.48.66-1.48,1.48s.66,1.48,1.48,1.48,1.48-.66,1.48-1.48-.66-1.48-1.48-1.48Z" fill="#2c3b5e"/><path d="M278.23,313.59c-.82,0-1.48.66-1.48,1.48s.66,1.48,1.48,1.48,1.48-.66,1.48-1.48-.66-1.48-1.48-1.48Z" fill="#2c3b5e"/><path d="M278.23,321.05c-.82,0-1.48.66-1.48,1.48s.66,1.48,1.48,1.48,1.48-.66,1.48-1.48-.66-1.48-1.48-1.48Z" fill="#2c3b5e"/><path d="M278.23,328.51c-.82,0-1.48.66-1.48,1.48s.66,1.48,1.48,1.48,1.48-.66,1.48-1.48-.66-1.48-1.48-1.48Z" fill="#2c3b5e"/><path d="M278.23,335.97c-.82,0-1.48.66-1.48,1.48s.66,1.48,1.48,1.48,1.48-.66,1.48-1.48-.66-1.48-1.48-1.48Z" fill="#2c3b5e"/><path d="M278.23,343.43c-.82,0-1.48.66-1.48,1.48s.66,1.48,1.48,1.48,1.48-.66,1.48-1.48-.66-1.48-1.48-1.48Z" fill="#2c3b5e"/><path d="M278.23,350.89c-.82,0-1.48.66-1.48,1.48s.66,1.48,1.48,1.48,1.48-.66,1.48-1.48-.66-1.48-1.48-1.48Z" fill="#2c3b5e"/><path d="M271.39,238.98c-.82,0-1.48.66-1.48,1.48s.66,1.48,1.48,1.48,1.48-.66,1.48-1.48-.66-1.48-1.48-1.48Z" fill="#2c3b5e"/><path d="M271.39,246.44c-.82,0-1.48.66-1.48,1.48s.66,1.48,1.48,1.48,1.48-.66,1.48-1.48-.66-1.48-1.48-1.48Z" fill="#2c3b5e"/><path d="M271.39,253.9c-.82,0-1.48.66-1.48,1.48s.66,1.48,1.48,1.48,1.48-.66,1.48-1.48-.66-1.48-1.48-1.48Z" fill="#2c3b5e"/><path d="M271.39,261.36c-.82,0-1.48.66-1.48,1.48s.66,1.48,1.48,1.48,1.48-.66,1.48-1.48-.66-1.48-1.48-1.48Z" fill="#2c3b5e"/><path d="M271.39,268.82c-.82,0-1.48.66-1.48,1.48s.66,1.48,1.48,1.48,1.48-.66,1.48-1.48-.66-1.48-1.48-1.48Z" fill="#2c3b5e"/><path d="M271.39,276.28c-.82,0-1.48.66-1.48,1.48s.66,1.48,1.48,1.48,1.48-.66,1.48-1.48-.66-1.48-1.48-1.48Z" fill="#2c3b5e"/><path d="M271.39,283.74c-.82,0-1.48.66-1.48,1.48s.66,1.48,1.48,1.48,1.48-.66,1.48-1.48-.66-1.48-1.48-1.48Z" fill="#2c3b5e"/><path d="M271.39,291.2c-.82,0-1.48.66-1.48,1.48s.66,1.48,1.48,1.48,1.48-.66,1.48-1.48-.66-1.48-1.48-1.48Z" fill="#2c3b5e"/><path d="M271.39,298.66c-.82,0-1.48.66-1.48,1.48s.66,1.48,1.48,1.48,1.48-.66,1.48-1.48-.66-1.48-1.48-1.48Z" fill="#2c3b5e"/><path d="M271.39,306.12c-.82,0-1.48.66-1.48,1.48s.66,1.48,1.48,1.48,1.48-.66,1.48-1.48-.66-1.48-1.48-1.48Z" fill="#2c3b5e"/><path d="M271.39,313.59c-.82,0-1.48.66-1.48,1.48s.66,1.48,1.48,1.48,1.48-.66,1.48-1.48-.66-1.48-1.48-1.48Z" fill="#2c3b5e"/><path d="M271.39,321.05c-.82,0-1.48.66-1.48,1.48s.66,1.48,1.48,1.48,1.48-.66,1.48-1.48-.66-1.48-1.48-1.48Z" fill="#2c3b5e"/><path d="M271.39,328.51c-.82,0-1.48.66-1.48,1.48s.66,1.48,1.48,1.48,1.48-.66,1.48-1.48-.66-1.48-1.48-1.48Z" fill="#2c3b5e"/><path d="M271.39,335.97c-.82,0-1.48.66-1.48,1.48s.66,1.48,1.48,1.48,1.48-.66,1.48-1.48-.66-1.48-1.48-1.48Z" fill="#2c3b5e"/><path d="M271.39,343.43c-.82,0-1.48.66-1.48,1.48s.66,1.48,1.48,1.48,1.48-.66,1.48-1.48-.66-1.48-1.48-1.48Z" fill="#2c3b5e"/><path d="M271.39,350.89c-.82,0-1.48.66-1.48,1.48s.66,1.48,1.48,1.48,1.48-.66,1.48-1.48-.66-1.48-1.48-1.48Z" fill="#2c3b5e"/><path d="M264.56,231.52c-.82,0-1.48.66-1.48,1.48s.66,1.48,1.48,1.48,1.48-.66,1.48-1.48-.66-1.48-1.48-1.48Z" fill="#2c3b5e"/><path d="M264.56,238.98c-.82,0-1.48.66-1.48,1.48s.66,1.48,1.48,1.48,1.48-.66,1.48-1.48-.66-1.48-1.48-1.48Z" fill="#2c3b5e"/><path d="M264.56,246.44c-.82,0-1.48.66-1.48,1.48s.66,1.48,1.48,1.48,1.48-.66,1.48-1.48-.66-1.48-1.48-1.48Z" fill="#2c3b5e"/><path d="M264.56,253.9c-.82,0-1.48.66-1.48,1.48s.66,1.48,1.48,1.48,1.48-.66,1.48-1.48-.66-1.48-1.48-1.48Z" fill="#2c3b5e"/><path d="M264.56,261.36c-.82,0-1.48.66-1.48,1.48s.66,1.48,1.48,1.48,1.48-.66,1.48-1.48-.66-1.48-1.48-1.48Z" fill="#2c3b5e"/><path d="M264.56,268.82c-.82,0-1.48.66-1.48,1.48s.66,1.48,1.48,1.48,1.48-.66,1.48-1.48-.66-1.48-1.48-1.48Z" fill="#2c3b5e"/><path d="M264.56,276.28c-.82,0-1.48.66-1.48,1.48s.66,1.48,1.48,1.48,1.48-.66,1.48-1.48-.66-1.48-1.48-1.48Z" fill="#2c3b5e"/><path d="M264.56,283.74c-.82,0-1.48.66-1.48,1.48s.66,1.48,1.48,1.48,1.48-.66,1.48-1.48-.66-1.48-1.48-1.48Z" fill="#2c3b5e"/><path d="M264.56,291.2c-.82,0-1.48.66-1.48,1.48s.66,1.48,1.48,1.48,1.48-.66,1.48-1.48-.66-1.48-1.48-1.48Z" fill="#2c3b5e"/><path d="M264.56,298.66c-.82,0-1.48.66-1.48,1.48s.66,1.48,1.48,1.48,1.48-.66,1.48-1.48-.66-1.48-1.48-1.48Z" fill="#2c3b5e"/><path d="M264.56,306.12c-.82,0-1.48.66-1.48,1.48s.66,1.48,1.48,1.48,1.48-.66,1.48-1.48-.66-1.48-1.48-1.48Z" fill="#2c3b5e"/><path d="M264.56,313.59c-.82,0-1.48.66-1.48,1.48s.66,1.48,1.48,1.48,1.48-.66,1.48-1.48-.66-1.48-1.48-1.48Z" fill="#2c3b5e"/><path d="M264.56,321.05c-.82,0-1.48.66-1.48,1.48s.66,1.48,1.48,1.48,1.48-.66,1.48-1.48-.66-1.48-1.48-1.48Z" fill="#2c3b5e"/><path d="M264.56,328.51c-.82,0-1.48.66-1.48,1.48s.66,1.48,1.48,1.48,1.48-.66,1.48-1.48-.66-1.48-1.48-1.48Z" fill="#2c3b5e"/><path d="M264.56,335.97c-.82,0-1.48.66-1.48,1.48s.66,1.48,1.48,1.48,1.48-.66,1.48-1.48-.66-1.48-1.48-1.48Z" fill="#2c3b5e"/><path d="M264.56,343.43c-.82,0-1.48.66-1.48,1.48s.66,1.48,1.48,1.48,1.48-.66,1.48-1.48-.66-1.48-1.48-1.48Z" fill="#2c3b5e"/><path d="M257.73,231.52c-.82,0-1.48.66-1.48,1.48s.66,1.48,1.48,1.48,1.48-.66,1.48-1.48-.66-1.48-1.48-1.48Z" fill="#2c3b5e"/><path d="M257.73,238.98c-.82,0-1.48.66-1.48,1.48s.66,1.48,1.48,1.48,1.48-.66,1.48-1.48-.66-1.48-1.48-1.48Z" fill="#2c3b5e"/><path d="M257.73,246.44c-.82,0-1.48.66-1.48,1.48s.66,1.48,1.48,1.48,1.48-.66,1.48-1.48-.66-1.48-1.48-1.48Z" fill="#2c3b5e"/><path d="M257.73,253.9c-.82,0-1.48.66-1.48,1.48s.66,1.48,1.48,1.48,1.48-.66,1.48-1.48-.66-1.48-1.48-1.48Z" fill="#2c3b5e"/><path d="M257.73,261.36c-.82,0-1.48.66-1.48,1.48s.66,1.48,1.48,1.48,1.48-.66,1.48-1.48-.66-1.48-1.48-1.48Z" fill="#2c3b5e"/><path d="M257.73,268.82c-.82,0-1.48.66-1.48,1.48s.66,1.48,1.48,1.48,1.48-.66,1.48-1.48-.66-1.48-1.48-1.48Z" fill="#2c3b5e"/><path d="M257.73,276.28c-.82,0-1.48.66-1.48,1.48s.66,1.48,1.48,1.48,1.48-.66,1.48-1.48-.66-1.48-1.48-1.48Z" fill="#2c3b5e"/><path d="M257.73,283.74c-.82,0-1.48.66-1.48,1.48s.66,1.48,1.48,1.48,1.48-.66,1.48-1.48-.66-1.48-1.48-1.48Z" fill="#2c3b5e"/><path d="M257.73,291.2c-.82,0-1.48.66-1.48,1.48s.66,1.48,1.48,1.48,1.48-.66,1.48-1.48-.66-1.48-1.48-1.48Z" fill="#2c3b5e"/><path d="M257.73,298.66c-.82,0-1.48.66-1.48,1.48s.66,1.48,1.48,1.48,1.48-.66,1.48-1.48-.66-1.48-1.48-1.48Z" fill="#2c3b5e"/><path d="M257.73,306.12c-.82,0-1.48.66-1.48,1.48s.66,1.48,1.48,1.48,1.48-.66,1.48-1.48-.66-1.48-1.48-1.48Z" fill="#2c3b5e"/><path d="M257.73,313.59c-.82,0-1.48.66-1.48,1.48s.66,1.48,1.48,1.48,1.48-.66,1.48-1.48-.66-1.48-1.48-1.48Z" fill="#2c3b5e"/><path d="M257.73,321.05c-.82,0-1.48.66-1.48,1.48s.66,1.48,1.48,1.48,1.48-.66,1.48-1.48-.66-1.48-1.48-1.48Z" fill="#2c3b5e"/><path d="M257.73,328.51c-.82,0-1.48.66-1.48,1.48s.66,1.48,1.48,1.48,1.48-.66,1.48-1.48-.66-1.48-1.48-1.48Z" fill="#2c3b5e"/><path d="M250.9,231.52c-.82,0-1.48.66-1.48,1.48s.66,1.48,1.48,1.48,1.48-.66,1.48-1.48-.66-1.48-1.48-1.48Z" fill="#2c3b5e"/><path d="M250.9,238.98c-.82,0-1.48.66-1.48,1.48s.66,1.48,1.48,1.48,1.48-.66,1.48-1.48-.66-1.48-1.48-1.48Z" fill="#2c3b5e"/><path d="M250.9,246.44c-.82,0-1.48.66-1.48,1.48s.66,1.48,1.48,1.48,1.48-.66,1.48-1.48-.66-1.48-1.48-1.48Z" fill="#2c3b5e"/><path d="M250.9,253.9c-.82,0-1.48.66-1.48,1.48s.66,1.48,1.48,1.48,1.48-.66,1.48-1.48-.66-1.48-1.48-1.48Z" fill="#2c3b5e"/><path d="M250.9,261.36c-.82,0-1.48.66-1.48,1.48s.66,1.48,1.48,1.48,1.48-.66,1.48-1.48-.66-1.48-1.48-1.48Z" fill="#2c3b5e"/><path d="M250.9,268.82c-.82,0-1.48.66-1.48,1.48s.66,1.48,1.48,1.48,1.48-.66,1.48-1.48-.66-1.48-1.48-1.48Z" fill="#2c3b5e"/><path d="M250.9,276.28c-.82,0-1.48.66-1.48,1.48s.66,1.48,1.48,1.48,1.48-.66,1.48-1.48-.66-1.48-1.48-1.48Z" fill="#2c3b5e"/><path d="M250.9,283.74c-.82,0-1.48.66-1.48,1.48s.66,1.48,1.48,1.48,1.48-.66,1.48-1.48-.66-1.48-1.48-1.48Z" fill="#2c3b5e"/><path d="M250.9,291.2c-.82,0-1.48.66-1.48,1.48s.66,1.48,1.48,1.48,1.48-.66,1.48-1.48-.66-1.48-1.48-1.48Z" fill="#2c3b5e"/><path d="M250.9,298.66c-.82,0-1.48.66-1.48,1.48s.66,1.48,1.48,1.48,1.48-.66,1.48-1.48-.66-1.48-1.48-1.48Z" fill="#2c3b5e"/><path d="M250.9,306.12c-.82,0-1.48.66-1.48,1.48s.66,1.48,1.48,1.48,1.48-.66,1.48-1.48-.66-1.48-1.48-1.48Z" fill="#2c3b5e"/><path d="M250.9,313.59c-.82,0-1.48.66-1.48,1.48s.66,1.48,1.48,1.48,1.48-.66,1.48-1.48-.66-1.48-1.48-1.48Z" fill="#2c3b5e"/><path d="M250.9,321.05c-.82,0-1.48.66-1.48,1.48s.66,1.48,1.48,1.48,1.48-.66,1.48-1.48-.66-1.48-1.48-1.48Z" fill="#2c3b5e"/><path d="M250.9,328.51c-.82,0-1.48.66-1.48,1.48s.66,1.48,1.48,1.48,1.48-.66,1.48-1.48-.66-1.48-1.48-1.48Z" fill="#2c3b5e"/><path d="M250.9,335.97c-.82,0-1.48.66-1.48,1.48s.66,1.48,1.48,1.48,1.48-.66,1.48-1.48-.66-1.48-1.48-1.48Z" fill="#2c3b5e"/><path d="M250.9,343.43c-.82,0-1.48.66-1.48,1.48s.66,1.48,1.48,1.48,1.48-.66,1.48-1.48-.66-1.48-1.48-1.48Z" fill="#2c3b5e"/><path d="M250.9,350.89c-.82,0-1.48.66-1.48,1.48s.66,1.48,1.48,1.48,1.48-.66,1.48-1.48-.66-1.48-1.48-1.48Z" fill="#2c3b5e"/><path d="M250.9,224.11c-.82,0-1.48.66-1.48,1.48s.66,1.48,1.48,1.48,1.48-.66,1.48-1.48-.66-1.48-1.48-1.48Z" fill="#2c3b5e"/><path d="M244.07,231.52c-.82,0-1.48.66-1.48,1.48s.66,1.48,1.48,1.48,1.48-.66,1.48-1.48-.66-1.48-1.48-1.48Z" fill="#2c3b5e"/><path d="M244.07,238.98c-.82,0-1.48.66-1.48,1.48s.66,1.48,1.48,1.48,1.48-.66,1.48-1.48-.66-1.48-1.48-1.48Z" fill="#2c3b5e"/><path d="M244.07,246.44c-.82,0-1.48.66-1.48,1.48s.66,1.48,1.48,1.48,1.48-.66,1.48-1.48-.66-1.48-1.48-1.48Z" fill="#2c3b5e"/><path d="M244.07,253.9c-.82,0-1.48.66-1.48,1.48s.66,1.48,1.48,1.48,1.48-.66,1.48-1.48-.66-1.48-1.48-1.48Z" fill="#2c3b5e"/><path d="M244.07,261.36c-.82,0-1.48.66-1.48,1.48s.66,1.48,1.48,1.48,1.48-.66,1.48-1.48-.66-1.48-1.48-1.48Z" fill="#2c3b5e"/><path d="M244.07,268.82c-.82,0-1.48.66-1.48,1.48s.66,1.48,1.48,1.48,1.48-.66,1.48-1.48-.66-1.48-1.48-1.48Z" fill="#2c3b5e"/><path d="M244.07,276.28c-.82,0-1.48.66-1.48,1.48s.66,1.48,1.48,1.48,1.48-.66,1.48-1.48-.66-1.48-1.48-1.48Z" fill="#2c3b5e"/><path d="M244.07,283.74c-.82,0-1.48.66-1.48,1.48s.66,1.48,1.48,1.48,1.48-.66,1.48-1.48-.66-1.48-1.48-1.48Z" fill="#2c3b5e"/><path d="M244.07,291.2c-.82,0-1.48.66-1.48,1.48s.66,1.48,1.48,1.48,1.48-.66,1.48-1.48-.66-1.48-1.48-1.48Z" fill="#2c3b5e"/><path d="M244.07,298.66c-.82,0-1.48.66-1.48,1.48s.66,1.48,1.48,1.48,1.48-.66,1.48-1.48-.66-1.48-1.48-1.48Z" fill="#2c3b5e"/><path d="M244.07,306.12c-.82,0-1.48.66-1.48,1.48s.66,1.48,1.48,1.48,1.48-.66,1.48-1.48-.66-1.48-1.48-1.48Z" fill="#2c3b5e"/><path d="M244.07,313.59c-.82,0-1.48.66-1.48,1.48s.66,1.48,1.48,1.48,1.48-.66,1.48-1.48-.66-1.48-1.48-1.48Z" fill="#2c3b5e"/><path d="M244.07,321.05c-.82,0-1.48.66-1.48,1.48s.66,1.48,1.48,1.48,1.48-.66,1.48-1.48-.66-1.48-1.48-1.48Z" fill="#2c3b5e"/><path d="M244.07,328.51c-.82,0-1.48.66-1.48,1.48s.66,1.48,1.48,1.48,1.48-.66,1.48-1.48-.66-1.48-1.48-1.48Z" fill="#2c3b5e"/><path d="M244.07,335.97c-.82,0-1.48.66-1.48,1.48s.66,1.48,1.48,1.48,1.48-.66,1.48-1.48-.66-1.48-1.48-1.48Z" fill="#2c3b5e"/><path d="M244.07,343.43c-.82,0-1.48.66-1.48,1.48s.66,1.48,1.48,1.48,1.48-.66,1.48-1.48-.66-1.48-1.48-1.48Z" fill="#2c3b5e"/><path d="M244.07,350.89c-.82,0-1.48.66-1.48,1.48s.66,1.48,1.48,1.48,1.48-.66,1.48-1.48-.66-1.48-1.48-1.48Z" fill="#2c3b5e"/><path d="M244.07,224.11c-.82,0-1.48.66-1.48,1.48s.66,1.48,1.48,1.48,1.48-.66,1.48-1.48-.66-1.48-1.48-1.48Z" fill="#2c3b5e"/><path d="M237.24,231.52c-.82,0-1.48.66-1.48,1.48s.66,1.48,1.48,1.48,1.48-.66,1.48-1.48-.66-1.48-1.48-1.48Z" fill="#2c3b5e"/><path d="M237.24,238.98c-.82,0-1.48.66-1.48,1.48s.66,1.48,1.48,1.48,1.48-.66,1.48-1.48-.66-1.48-1.48-1.48Z" fill="#2c3b5e"/><path d="M237.24,246.44c-.82,0-1.48.66-1.48,1.48s.66,1.48,1.48,1.48,1.48-.66,1.48-1.48-.66-1.48-1.48-1.48Z" fill="#2c3b5e"/><path d="M237.24,253.9c-.82,0-1.48.66-1.48,1.48s.66,1.48,1.48,1.48,1.48-.66,1.48-1.48-.66-1.48-1.48-1.48Z" fill="#2c3b5e"/><path d="M237.24,261.36c-.82,0-1.48.66-1.48,1.48s.66,1.48,1.48,1.48,1.48-.66,1.48-1.48-.66-1.48-1.48-1.48Z" fill="#2c3b5e"/><path d="M237.24,268.82c-.82,0-1.48.66-1.48,1.48s.66,1.48,1.48,1.48,1.48-.66,1.48-1.48-.66-1.48-1.48-1.48Z" fill="#2c3b5e"/><path d="M237.24,276.28c-.82,0-1.48.66-1.48,1.48s.66,1.48,1.48,1.48,1.48-.66,1.48-1.48-.66-1.48-1.48-1.48Z" fill="#2c3b5e"/><path d="M237.24,283.74c-.82,0-1.48.66-1.48,1.48s.66,1.48,1.48,1.48,1.48-.66,1.48-1.48-.66-1.48-1.48-1.48Z" fill="#2c3b5e"/><path d="M237.24,291.2c-.82,0-1.48.66-1.48,1.48s.66,1.48,1.48,1.48,1.48-.66,1.48-1.48-.66-1.48-1.48-1.48Z" fill="#2c3b5e"/><path d="M237.24,298.66c-.82,0-1.48.66-1.48,1.48s.66,1.48,1.48,1.48,1.48-.66,1.48-1.48-.66-1.48-1.48-1.48Z" fill="#2c3b5e"/><path d="M237.24,306.12c-.82,0-1.48.66-1.48,1.48s.66,1.48,1.48,1.48,1.48-.66,1.48-1.48-.66-1.48-1.48-1.48Z" fill="#2c3b5e"/><path d="M237.24,313.59c-.82,0-1.48.66-1.48,1.48s.66,1.48,1.48,1.48,1.48-.66,1.48-1.48-.66-1.48-1.48-1.48Z" fill="#2c3b5e"/><path d="M237.24,321.05c-.82,0-1.48.66-1.48,1.48s.66,1.48,1.48,1.48,1.48-.66,1.48-1.48-.66-1.48-1.48-1.48Z" fill="#2c3b5e"/><path d="M237.24,328.51c-.82,0-1.48.66-1.48,1.48s.66,1.48,1.48,1.48,1.48-.66,1.48-1.48-.66-1.48-1.48-1.48Z" fill="#2c3b5e"/><path d="M237.24,335.97c-.82,0-1.48.66-1.48,1.48s.66,1.48,1.48,1.48,1.48-.66,1.48-1.48-.66-1.48-1.48-1.48Z" fill="#2c3b5e"/><path d="M237.24,343.43c-.82,0-1.48.66-1.48,1.48s.66,1.48,1.48,1.48,1.48-.66,1.48-1.48-.66-1.48-1.48-1.48Z" fill="#2c3b5e"/><path d="M237.24,350.89c-.82,0-1.48.66-1.48,1.48s.66,1.48,1.48,1.48,1.48-.66,1.48-1.48-.66-1.48-1.48-1.48Z" fill="#2c3b5e"/><path d="M237.24,224.11c-.82,0-1.48.66-1.48,1.48s.66,1.48,1.48,1.48,1.48-.66,1.48-1.48-.66-1.48-1.48-1.48Z" fill="#2c3b5e"/><path d="M230.4,231.52c-.82,0-1.48.66-1.48,1.48s.66,1.48,1.48,1.48,1.48-.66,1.48-1.48-.66-1.48-1.48-1.48Z" fill="#2c3b5e"/><path d="M230.4,238.98c-.82,0-1.48.66-1.48,1.48s.66,1.48,1.48,1.48,1.48-.66,1.48-1.48-.66-1.48-1.48-1.48Z" fill="#2c3b5e"/><path d="M230.4,246.44c-.82,0-1.48.66-1.48,1.48s.66,1.48,1.48,1.48,1.48-.66,1.48-1.48-.66-1.48-1.48-1.48Z" fill="#2c3b5e"/><path d="M230.4,253.9c-.82,0-1.48.66-1.48,1.48s.66,1.48,1.48,1.48,1.48-.66,1.48-1.48-.66-1.48-1.48-1.48Z" fill="#2c3b5e"/><path d="M230.4,261.36c-.82,0-1.48.66-1.48,1.48s.66,1.48,1.48,1.48,1.48-.66,1.48-1.48-.66-1.48-1.48-1.48Z" fill="#2c3b5e"/><path d="M230.4,268.82c-.82,0-1.48.66-1.48,1.48s.66,1.48,1.48,1.48,1.48-.66,1.48-1.48-.66-1.48-1.48-1.48Z" fill="#2c3b5e"/><path d="M230.4,276.28c-.82,0-1.48.66-1.48,1.48s.66,1.48,1.48,1.48,1.48-.66,1.48-1.48-.66-1.48-1.48-1.48Z" fill="#2c3b5e"/><path d="M230.4,283.74c-.82,0-1.48.66-1.48,1.48s.66,1.48,1.48,1.48,1.48-.66,1.48-1.48-.66-1.48-1.48-1.48Z" fill="#2c3b5e"/><path d="M230.4,291.2c-.82,0-1.48.66-1.48,1.48s.66,1.48,1.48,1.48,1.48-.66,1.48-1.48-.66-1.48-1.48-1.48Z" fill="#2c3b5e"/><path d="M230.4,298.66c-.82,0-1.48.66-1.48,1.48s.66,1.48,1.48,1.48,1.48-.66,1.48-1.48-.66-1.48-1.48-1.48Z" fill="#2c3b5e"/><path d="M230.4,306.12c-.82,0-1.48.66-1.48,1.48s.66,1.48,1.48,1.48,1.48-.66,1.48-1.48-.66-1.48-1.48-1.48Z" fill="#2c3b5e"/><path d="M230.4,313.59c-.82,0-1.48.66-1.48,1.48s.66,1.48,1.48,1.48,1.48-.66,1.48-1.48-.66-1.48-1.48-1.48Z" fill="#2c3b5e"/><path d="M230.4,321.05c-.82,0-1.48.66-1.48,1.48s.66,1.48,1.48,1.48,1.48-.66,1.48-1.48-.66-1.48-1.48-1.48Z" fill="#2c3b5e"/><path d="M230.4,328.51c-.82,0-1.48.66-1.48,1.48s.66,1.48,1.48,1.48,1.48-.66,1.48-1.48-.66-1.48-1.48-1.48Z" fill="#2c3b5e"/><path d="M230.4,335.97c-.82,0-1.48.66-1.48,1.48s.66,1.48,1.48,1.48,1.48-.66,1.48-1.48-.66-1.48-1.48-1.48Z" fill="#2c3b5e"/><path d="M230.4,343.43c-.82,0-1.48.66-1.48,1.48s.66,1.48,1.48,1.48,1.48-.66,1.48-1.48-.66-1.48-1.48-1.48Z" fill="#2c3b5e"/><path d="M230.4,350.89c-.82,0-1.48.66-1.48,1.48s.66,1.48,1.48,1.48,1.48-.66,1.48-1.48-.66-1.48-1.48-1.48Z" fill="#2c3b5e"/><path d="M230.4,224.11c-.82,0-1.48.66-1.48,1.48s.66,1.48,1.48,1.48,1.48-.66,1.48-1.48-.66-1.48-1.48-1.48Z" fill="#2c3b5e"/><path d="M223.57,246.44c-.82,0-1.48.66-1.48,1.48s.66,1.48,1.48,1.48,1.48-.66,1.48-1.48-.66-1.48-1.48-1.48Z" fill="#2c3b5e"/><path d="M223.57,253.9c-.82,0-1.48.66-1.48,1.48s.66,1.48,1.48,1.48,1.48-.66,1.48-1.48-.66-1.48-1.48-1.48Z" fill="#2c3b5e"/><path d="M223.57,261.36c-.82,0-1.48.66-1.48,1.48s.66,1.48,1.48,1.48,1.48-.66,1.48-1.48-.66-1.48-1.48-1.48Z" fill="#2c3b5e"/><path d="M223.57,268.82c-.82,0-1.48.66-1.48,1.48s.66,1.48,1.48,1.48,1.48-.66,1.48-1.48-.66-1.48-1.48-1.48Z" fill="#2c3b5e"/><path d="M223.57,276.28c-.82,0-1.48.66-1.48,1.48s.66,1.48,1.48,1.48,1.48-.66,1.48-1.48-.66-1.48-1.48-1.48Z" fill="#2c3b5e"/><path d="M223.57,283.74c-.82,0-1.48.66-1.48,1.48s.66,1.48,1.48,1.48,1.48-.66,1.48-1.48-.66-1.48-1.48-1.48Z" fill="#2c3b5e"/><path d="M223.57,291.2c-.82,0-1.48.66-1.48,1.48s.66,1.48,1.48,1.48,1.48-.66,1.48-1.48-.66-1.48-1.48-1.48Z" fill="#2c3b5e"/><path d="M223.57,298.66c-.82,0-1.48.66-1.48,1.48s.66,1.48,1.48,1.48,1.48-.66,1.48-1.48-.66-1.48-1.48-1.48Z" fill="#2c3b5e"/><path d="M223.57,306.12c-.82,0-1.48.66-1.48,1.48s.66,1.48,1.48,1.48,1.48-.66,1.48-1.48-.66-1.48-1.48-1.48Z" fill="#2c3b5e"/><path d="M223.57,313.59c-.82,0-1.48.66-1.48,1.48s.66,1.48,1.48,1.48,1.48-.66,1.48-1.48-.66-1.48-1.48-1.48Z" fill="#2c3b5e"/><path d="M223.57,321.05c-.82,0-1.48.66-1.48,1.48s.66,1.48,1.48,1.48,1.48-.66,1.48-1.48-.66-1.48-1.48-1.48Z" fill="#2c3b5e"/><path d="M223.57,328.51c-.82,0-1.48.66-1.48,1.48s.66,1.48,1.48,1.48,1.48-.66,1.48-1.48-.66-1.48-1.48-1.48Z" fill="#2c3b5e"/><path d="M223.57,335.97c-.82,0-1.48.66-1.48,1.48s.66,1.48,1.48,1.48,1.48-.66,1.48-1.48-.66-1.48-1.48-1.48Z" fill="#2c3b5e"/><path d="M223.57,343.43c-.82,0-1.48.66-1.48,1.48s.66,1.48,1.48,1.48,1.48-.66,1.48-1.48-.66-1.48-1.48-1.48Z" fill="#2c3b5e"/><path d="M223.57,350.89c-.82,0-1.48.66-1.48,1.48s.66,1.48,1.48,1.48,1.48-.66,1.48-1.48-.66-1.48-1.48-1.48Z" fill="#2c3b5e"/><path d="M216.74,276.28c-.82,0-1.48.66-1.48,1.48s.66,1.48,1.48,1.48,1.48-.66,1.48-1.48-.66-1.48-1.48-1.48Z" fill="#2c3b5e"/><path d="M216.74,283.74c-.82,0-1.48.66-1.48,1.48s.66,1.48,1.48,1.48,1.48-.66,1.48-1.48-.66-1.48-1.48-1.48Z" fill="#2c3b5e"/><path d="M216.74,291.2c-.82,0-1.48.66-1.48,1.48s.66,1.48,1.48,1.48,1.48-.66,1.48-1.48-.66-1.48-1.48-1.48Z" fill="#2c3b5e"/><path d="M216.74,298.66c-.82,0-1.48.66-1.48,1.48s.66,1.48,1.48,1.48,1.48-.66,1.48-1.48-.66-1.48-1.48-1.48Z" fill="#2c3b5e"/><path d="M216.74,306.12c-.82,0-1.48.66-1.48,1.48s.66,1.48,1.48,1.48,1.48-.66,1.48-1.48-.66-1.48-1.48-1.48Z" fill="#2c3b5e"/><path d="M216.74,313.59c-.82,0-1.48.66-1.48,1.48s.66,1.48,1.48,1.48,1.48-.66,1.48-1.48-.66-1.48-1.48-1.48Z" fill="#2c3b5e"/><path d="M216.74,321.05c-.82,0-1.48.66-1.48,1.48s.66,1.48,1.48,1.48,1.48-.66,1.48-1.48-.66-1.48-1.48-1.48Z" fill="#2c3b5e"/><path d="M216.74,328.51c-.82,0-1.48.66-1.48,1.48s.66,1.48,1.48,1.48,1.48-.66,1.48-1.48-.66-1.48-1.48-1.48Z" fill="#2c3b5e"/><path d="M216.74,335.97c-.82,0-1.48.66-1.48,1.48s.66,1.48,1.48,1.48,1.48-.66,1.48-1.48-.66-1.48-1.48-1.48Z" fill="#2c3b5e"/><path d="M216.74,343.43c-.82,0-1.48.66-1.48,1.48s.66,1.48,1.48,1.48,1.48-.66,1.48-1.48-.66-1.48-1.48-1.48Z" fill="#2c3b5e"/><path d="M216.74,350.89c-.82,0-1.48.66-1.48,1.48s.66,1.48,1.48,1.48,1.48-.66,1.48-1.48-.66-1.48-1.48-1.48Z" fill="#2c3b5e"/><path d="M209.91,298.66c-.82,0-1.48.66-1.48,1.48s.66,1.48,1.48,1.48,1.48-.66,1.48-1.48-.66-1.48-1.48-1.48Z" fill="#2c3b5e"/><path d="M209.91,306.12c-.82,0-1.48.66-1.48,1.48s.66,1.48,1.48,1.48,1.48-.66,1.48-1.48-.66-1.48-1.48-1.48Z" fill="#2c3b5e"/><path d="M209.91,313.59c-.82,0-1.48.66-1.48,1.48s.66,1.48,1.48,1.48,1.48-.66,1.48-1.48-.66-1.48-1.48-1.48Z" fill="#2c3b5e"/><path d="M209.91,321.05c-.82,0-1.48.66-1.48,1.48s.66,1.48,1.48,1.48,1.48-.66,1.48-1.48-.66-1.48-1.48-1.48Z" fill="#2c3b5e"/><path d="M209.91,328.51c-.82,0-1.48.66-1.48,1.48s.66,1.48,1.48,1.48,1.48-.66,1.48-1.48-.66-1.48-1.48-1.48Z" fill="#2c3b5e"/><path d="M209.91,335.97c-.82,0-1.48.66-1.48,1.48s.66,1.48,1.48,1.48,1.48-.66,1.48-1.48-.66-1.48-1.48-1.48Z" fill="#2c3b5e"/><path d="M209.91,343.43c-.82,0-1.48.66-1.48,1.48s.66,1.48,1.48,1.48,1.48-.66,1.48-1.48-.66-1.48-1.48-1.48Z" fill="#2c3b5e"/><path d="M209.91,350.89c-.82,0-1.48.66-1.48,1.48s.66,1.48,1.48,1.48,1.48-.66,1.48-1.48-.66-1.48-1.48-1.48Z" fill="#2c3b5e"/><path d="M203.08,328.51c-.82,0-1.48.66-1.48,1.48s.66,1.48,1.48,1.48,1.48-.66,1.48-1.48-.66-1.48-1.48-1.48Z" fill="#2c3b5e"/><path d="M203.08,335.97c-.82,0-1.48.66-1.48,1.48s.66,1.48,1.48,1.48,1.48-.66,1.48-1.48-.66-1.48-1.48-1.48Z" fill="#2c3b5e"/><path d="M203.08,343.43c-.82,0-1.48.66-1.48,1.48s.66,1.48,1.48,1.48,1.48-.66,1.48-1.48-.66-1.48-1.48-1.48Z" fill="#2c3b5e"/><path d="M203.08,350.89c-.82,0-1.48.66-1.48,1.48s.66,1.48,1.48,1.48,1.48-.66,1.48-1.48-.66-1.48-1.48-1.48Z" fill="#2c3b5e"/><path d="M196.25,350.89c-.82,0-1.48.66-1.48,1.48s.66,1.48,1.48,1.48,1.48-.66,1.48-1.48-.66-1.48-1.48-1.48Z" fill="#2c3b5e"/><path d="M319.22,343.43c-.82,0-1.48.66-1.48,1.48s.66,1.48,1.48,1.48,1.48-.66,1.48-1.48-.66-1.48-1.48-1.48Z" fill="#2c3b5e"/><path d="M319.22,350.89c-.82,0-1.48.66-1.48,1.48s.66,1.48,1.48,1.48,1.48-.66,1.48-1.48-.66-1.48-1.48-1.48Z" fill="#2c3b5e"/><path d="M326.05,372.06c-.82,0-1.48.66-1.48,1.48s.66,1.48,1.48,1.48,1.48-.66,1.48-1.48-.66-1.48-1.48-1.48Z" fill="#2c3b5e"/><path d="M326.05,379.52c-.82,0-1.48.66-1.48,1.48s.66,1.48,1.48,1.48,1.48-.66,1.48-1.48-.66-1.48-1.48-1.48Z" fill="#2c3b5e"/><path d="M312.38,357.14c-.82,0-1.48.66-1.48,1.48s.66,1.48,1.48,1.48,1.48-.66,1.48-1.48-.66-1.48-1.48-1.48Z" fill="#2c3b5e"/><path d="M312.38,364.6c-.82,0-1.48.66-1.48,1.48s.66,1.48,1.48,1.48,1.48-.66,1.48-1.48-.66-1.48-1.48-1.48Z" fill="#2c3b5e"/><path d="M312.38,372.06c-.82,0-1.48.66-1.48,1.48s.66,1.48,1.48,1.48,1.48-.66,1.48-1.48-.66-1.48-1.48-1.48Z" fill="#2c3b5e"/><path d="M312.38,379.52c-.82,0-1.48.66-1.48,1.48s.66,1.48,1.48,1.48,1.48-.66,1.48-1.48-.66-1.48-1.48-1.48Z" fill="#2c3b5e"/><path d="M305.55,357.14c-.82,0-1.48.66-1.48,1.48s.66,1.48,1.48,1.48,1.48-.66,1.48-1.48-.66-1.48-1.48-1.48Z" fill="#2c3b5e"/><path d="M305.55,364.6c-.82,0-1.48.66-1.48,1.48s.66,1.48,1.48,1.48,1.48-.66,1.48-1.48-.66-1.48-1.48-1.48Z" fill="#2c3b5e"/><path d="M305.55,372.06c-.82,0-1.48.66-1.48,1.48s.66,1.48,1.48,1.48,1.48-.66,1.48-1.48-.66-1.48-1.48-1.48Z" fill="#2c3b5e"/><path d="M305.55,379.52c-.82,0-1.48.66-1.48,1.48s.66,1.48,1.48,1.48,1.48-.66,1.48-1.48-.66-1.48-1.48-1.48Z" fill="#2c3b5e"/><path d="M298.72,357.14c-.82,0-1.48.66-1.48,1.48s.66,1.48,1.48,1.48,1.48-.66,1.48-1.48-.66-1.48-1.48-1.48Z" fill="#2c3b5e"/><path d="M298.72,364.6c-.82,0-1.48.66-1.48,1.48s.66,1.48,1.48,1.48,1.48-.66,1.48-1.48-.66-1.48-1.48-1.48Z" fill="#2c3b5e"/><path d="M298.72,372.06c-.82,0-1.48.66-1.48,1.48s.66,1.48,1.48,1.48,1.48-.66,1.48-1.48-.66-1.48-1.48-1.48Z" fill="#2c3b5e"/><path d="M298.72,379.52c-.82,0-1.48.66-1.48,1.48s.66,1.48,1.48,1.48,1.48-.66,1.48-1.48-.66-1.48-1.48-1.48Z" fill="#2c3b5e"/><path d="M291.89,357.14c-.82,0-1.48.66-1.48,1.48s.66,1.48,1.48,1.48,1.48-.66,1.48-1.48-.66-1.48-1.48-1.48Z" fill="#2c3b5e"/><path d="M291.89,364.6c-.82,0-1.48.66-1.48,1.48s.66,1.48,1.48,1.48,1.48-.66,1.48-1.48-.66-1.48-1.48-1.48Z" fill="#2c3b5e"/><path d="M291.89,372.06c-.82,0-1.48.66-1.48,1.48s.66,1.48,1.48,1.48,1.48-.66,1.48-1.48-.66-1.48-1.48-1.48Z" fill="#2c3b5e"/><path d="M291.89,379.52c-.82,0-1.48.66-1.48,1.48s.66,1.48,1.48,1.48,1.48-.66,1.48-1.48-.66-1.48-1.48-1.48Z" fill="#2c3b5e"/><path d="M285.06,357.14c-.82,0-1.48.66-1.48,1.48s.66,1.48,1.48,1.48,1.48-.66,1.48-1.48-.66-1.48-1.48-1.48Z" fill="#2c3b5e"/><path d="M285.06,364.6c-.82,0-1.48.66-1.48,1.48s.66,1.48,1.48,1.48,1.48-.66,1.48-1.48-.66-1.48-1.48-1.48Z" fill="#2c3b5e"/><path d="M285.06,372.06c-.82,0-1.48.66-1.48,1.48s.66,1.48,1.48,1.48,1.48-.66,1.48-1.48-.66-1.48-1.48-1.48Z" fill="#2c3b5e"/><path d="M285.06,379.52c-.82,0-1.48.66-1.48,1.48s.66,1.48,1.48,1.48,1.48-.66,1.48-1.48-.66-1.48-1.48-1.48Z" fill="#2c3b5e"/><path d="M278.23,357.14c-.82,0-1.48.66-1.48,1.48s.66,1.48,1.48,1.48,1.48-.66,1.48-1.48-.66-1.48-1.48-1.48Z" fill="#2c3b5e"/><path d="M278.23,364.6c-.82,0-1.48.66-1.48,1.48s.66,1.48,1.48,1.48,1.48-.66,1.48-1.48-.66-1.48-1.48-1.48Z" fill="#2c3b5e"/><path d="M278.23,372.06c-.82,0-1.48.66-1.48,1.48s.66,1.48,1.48,1.48,1.48-.66,1.48-1.48-.66-1.48-1.48-1.48Z" fill="#2c3b5e"/><path d="M278.23,379.52c-.82,0-1.48.66-1.48,1.48s.66,1.48,1.48,1.48,1.48-.66,1.48-1.48-.66-1.48-1.48-1.48Z" fill="#2c3b5e"/><path d="M271.39,357.14c-.82,0-1.48.66-1.48,1.48s.66,1.48,1.48,1.48,1.48-.66,1.48-1.48-.66-1.48-1.48-1.48Z" fill="#2c3b5e"/><path d="M271.39,364.6c-.82,0-1.48.66-1.48,1.48s.66,1.48,1.48,1.48,1.48-.66,1.48-1.48-.66-1.48-1.48-1.48Z" fill="#2c3b5e"/><path d="M271.39,372.06c-.82,0-1.48.66-1.48,1.48s.66,1.48,1.48,1.48,1.48-.66,1.48-1.48-.66-1.48-1.48-1.48Z" fill="#2c3b5e"/><path d="M271.39,379.52c-.82,0-1.48.66-1.48,1.48s.66,1.48,1.48,1.48,1.48-.66,1.48-1.48-.66-1.48-1.48-1.48Z" fill="#2c3b5e"/><path d="M244.07,357.14c-.82,0-1.48.66-1.48,1.48s.66,1.48,1.48,1.48,1.48-.66,1.48-1.48-.66-1.48-1.48-1.48Z" fill="#2c3b5e"/><path d="M244.07,364.6c-.82,0-1.48.66-1.48,1.48s.66,1.48,1.48,1.48,1.48-.66,1.48-1.48-.66-1.48-1.48-1.48Z" fill="#2c3b5e"/><path d="M244.07,372.06c-.82,0-1.48.66-1.48,1.48s.66,1.48,1.48,1.48,1.48-.66,1.48-1.48-.66-1.48-1.48-1.48Z" fill="#2c3b5e"/><path d="M244.07,379.52c-.82,0-1.48.66-1.48,1.48s.66,1.48,1.48,1.48,1.48-.66,1.48-1.48-.66-1.48-1.48-1.48Z" fill="#2c3b5e"/><path d="M237.24,357.14c-.82,0-1.48.66-1.48,1.48s.66,1.48,1.48,1.48,1.48-.66,1.48-1.48-.66-1.48-1.48-1.48Z" fill="#2c3b5e"/><path d="M237.24,364.6c-.82,0-1.48.66-1.48,1.48s.66,1.48,1.48,1.48,1.48-.66,1.48-1.48-.66-1.48-1.48-1.48Z" fill="#2c3b5e"/><path d="M237.24,372.06c-.82,0-1.48.66-1.48,1.48s.66,1.48,1.48,1.48,1.48-.66,1.48-1.48-.66-1.48-1.48-1.48Z" fill="#2c3b5e"/><path d="M237.24,379.52c-.82,0-1.48.66-1.48,1.48s.66,1.48,1.48,1.48,1.48-.66,1.48-1.48-.66-1.48-1.48-1.48Z" fill="#2c3b5e"/><path d="M230.4,357.14c-.82,0-1.48.66-1.48,1.48s.66,1.48,1.48,1.48,1.48-.66,1.48-1.48-.66-1.48-1.48-1.48Z" fill="#2c3b5e"/><path d="M230.4,364.6c-.82,0-1.48.66-1.48,1.48s.66,1.48,1.48,1.48,1.48-.66,1.48-1.48-.66-1.48-1.48-1.48Z" fill="#2c3b5e"/><path d="M230.4,372.06c-.82,0-1.48.66-1.48,1.48s.66,1.48,1.48,1.48,1.48-.66,1.48-1.48-.66-1.48-1.48-1.48Z" fill="#2c3b5e"/><path d="M230.4,379.52c-.82,0-1.48.66-1.48,1.48s.66,1.48,1.48,1.48,1.48-.66,1.48-1.48-.66-1.48-1.48-1.48Z" fill="#2c3b5e"/><path d="M223.57,357.14c-.82,0-1.48.66-1.48,1.48s.66,1.48,1.48,1.48,1.48-.66,1.48-1.48-.66-1.48-1.48-1.48Z" fill="#2c3b5e"/><path d="M223.57,364.6c-.82,0-1.48.66-1.48,1.48s.66,1.48,1.48,1.48,1.48-.66,1.48-1.48-.66-1.48-1.48-1.48Z" fill="#2c3b5e"/><path d="M223.57,372.06c-.82,0-1.48.66-1.48,1.48s.66,1.48,1.48,1.48,1.48-.66,1.48-1.48-.66-1.48-1.48-1.48Z" fill="#2c3b5e"/><path d="M223.57,379.52c-.82,0-1.48.66-1.48,1.48s.66,1.48,1.48,1.48,1.48-.66,1.48-1.48-.66-1.48-1.48-1.48Z" fill="#2c3b5e"/><path d="M216.74,357.14c-.82,0-1.48.66-1.48,1.48s.66,1.48,1.48,1.48,1.48-.66,1.48-1.48-.66-1.48-1.48-1.48Z" fill="#2c3b5e"/><path d="M216.74,364.6c-.82,0-1.48.66-1.48,1.48s.66,1.48,1.48,1.48,1.48-.66,1.48-1.48-.66-1.48-1.48-1.48Z" fill="#2c3b5e"/><path d="M216.74,372.06c-.82,0-1.48.66-1.48,1.48s.66,1.48,1.48,1.48,1.48-.66,1.48-1.48-.66-1.48-1.48-1.48Z" fill="#2c3b5e"/><path d="M216.74,379.52c-.82,0-1.48.66-1.48,1.48s.66,1.48,1.48,1.48,1.48-.66,1.48-1.48-.66-1.48-1.48-1.48Z" fill="#2c3b5e"/><path d="M209.91,357.14c-.82,0-1.48.66-1.48,1.48s.66,1.48,1.48,1.48,1.48-.66,1.48-1.48-.66-1.48-1.48-1.48Z" fill="#2c3b5e"/><path d="M209.91,364.6c-.82,0-1.48.66-1.48,1.48s.66,1.48,1.48,1.48,1.48-.66,1.48-1.48-.66-1.48-1.48-1.48Z" fill="#2c3b5e"/><path d="M209.91,372.06c-.82,0-1.48.66-1.48,1.48s.66,1.48,1.48,1.48,1.48-.66,1.48-1.48-.66-1.48-1.48-1.48Z" fill="#2c3b5e"/><path d="M209.91,379.52c-.82,0-1.48.66-1.48,1.48s.66,1.48,1.48,1.48,1.48-.66,1.48-1.48-.66-1.48-1.48-1.48Z" fill="#2c3b5e"/><path d="M203.08,357.14c-.82,0-1.48.66-1.48,1.48s.66,1.48,1.48,1.48,1.48-.66,1.48-1.48-.66-1.48-1.48-1.48Z" fill="#2c3b5e"/><path d="M203.08,364.6c-.82,0-1.48.66-1.48,1.48s.66,1.48,1.48,1.48,1.48-.66,1.48-1.48-.66-1.48-1.48-1.48Z" fill="#2c3b5e"/><path d="M203.08,372.06c-.82,0-1.48.66-1.48,1.48s.66,1.48,1.48,1.48,1.48-.66,1.48-1.48-.66-1.48-1.48-1.48Z" fill="#2c3b5e"/><path d="M203.08,379.52c-.82,0-1.48.66-1.48,1.48s.66,1.48,1.48,1.48,1.48-.66,1.48-1.48-.66-1.48-1.48-1.48Z" fill="#2c3b5e"/><path d="M196.25,357.14c-.82,0-1.48.66-1.48,1.48s.66,1.48,1.48,1.48,1.48-.66,1.48-1.48-.66-1.48-1.48-1.48Z" fill="#2c3b5e"/><path d="M196.25,364.6c-.82,0-1.48.66-1.48,1.48s.66,1.48,1.48,1.48,1.48-.66,1.48-1.48-.66-1.48-1.48-1.48Z" fill="#2c3b5e"/><path d="M196.25,372.06c-.82,0-1.48.66-1.48,1.48s.66,1.48,1.48,1.48,1.48-.66,1.48-1.48-.66-1.48-1.48-1.48Z" fill="#2c3b5e"/><path d="M196.25,379.52c-.82,0-1.48.66-1.48,1.48s.66,1.48,1.48,1.48,1.48-.66,1.48-1.48-.66-1.48-1.48-1.48Z" fill="#2c3b5e"/><path d="M189.41,379.52c-.82,0-1.48.66-1.48,1.48s.66,1.48,1.48,1.48,1.48-.66,1.48-1.48-.66-1.48-1.48-1.48Z" fill="#2c3b5e"/><path d="M319.22,357.14c-.82,0-1.48.66-1.48,1.48s.66,1.48,1.48,1.48,1.48-.66,1.48-1.48-.66-1.48-1.48-1.48Z" fill="#2c3b5e"/><path d="M319.22,364.6c-.82,0-1.48.66-1.48,1.48s.66,1.48,1.48,1.48,1.48-.66,1.48-1.48-.66-1.48-1.48-1.48Z" fill="#2c3b5e"/><path d="M319.22,372.06c-.82,0-1.48.66-1.48,1.48s.66,1.48,1.48,1.48,1.48-.66,1.48-1.48-.66-1.48-1.48-1.48Z" fill="#2c3b5e"/><path d="M319.22,379.52c-.82,0-1.48.66-1.48,1.48s.66,1.48,1.48,1.48,1.48-.66,1.48-1.48-.66-1.48-1.48-1.48Z" fill="#2c3b5e"/></g></g><path d="M157.51,410.04s23.64-88.12-12.86-87.5c-36.51.63-6.92,79.31,0,87.5" fill="none" stroke="#2c3b5e" stroke-miterlimit="10" stroke-width="3"/><path d="M126.77,410.04s-3.52-32.73-18.16-31.32c-14.64,1.42-2.14,23.45,9.08,31.32" fill="none" stroke="#2c3b5e" stroke-miterlimit="10" stroke-width="3"/><path d="M362.08,415.22s-36.82-93.16-6.61-121.01c30.21-27.85,24.55,85.76,14.64,121.01" fill="none" stroke="#2c3b5e" stroke-miterlimit="10" stroke-width="3"/></svg>