<svg id="Illustrations" xmlns="http://www.w3.org/2000/svg" width="480" height="480" viewBox="0 0 480 480"><path d="M169.13,192.37c-.12-4.67-.65-13.2-.65-13.2,0,0-8.17,8.9-12.36,13.2h-17.94c-2.62,0-4.75,2.13-4.75,4.75v21c0,2.62,2.13,4.75,4.75,4.75h37.04c2.62,0,4.75-2.13,4.75-4.75v-21c0-2.62-2.13-4.75-4.75-4.75h-6.09Z" fill="none" stroke="#2c3b5e" stroke-miterlimit="10" stroke-width="3"/><g><circle cx="286.18" cy="106.87" r="7.45" fill="none" stroke="#2c3b5e" stroke-miterlimit="10" stroke-width="3"/><circle cx="305.31" cy="83.84" r="5.56" fill="none" stroke="#2c3b5e" stroke-miterlimit="10" stroke-width="3"/><circle cx="311.84" cy="118.54" r="5.56" fill="none" stroke="#2c3b5e" stroke-miterlimit="10" stroke-width="3"/><line x1="290.45" y1="100.77" x2="301.63" y2="88.01" fill="none" stroke="#2c3b5e" stroke-miterlimit="10" stroke-width="3"/><line x1="292.66" y1="110.78" x2="306.28" y2="117.25" fill="none" stroke="#2c3b5e" stroke-miterlimit="10" stroke-width="3"/></g><g><path d="M209.66,156.09c.28,5.55.58,11.18,2.23,16.49,1.65,5.31,4.82,10.37,9.65,13.13,8.49,4.87,17.05,2.16,25.17-2,4.17-2.14,8.08-4.76,12.28-6.84,4.2-2.08,8.81-3.62,13.49-3.38s8.35,1.46,10.62,5.56" fill="none" stroke="#2c3b5e" stroke-miterlimit="10" stroke-width="3"/><path d="M334.65,176.82l11.54-28.91c1.34-3.35-1.13-6.99-4.73-6.99h-36.24c-4.3,0-8.17,2.62-9.76,6.61l-19.9,49.83c-1.34,3.35,1.13,6.99,4.73,6.99h39.9c2.09,0,3.96-1.27,4.73-3.21l1.23-3.08" fill="none" stroke="#2c3b5e" stroke-miterlimit="10" stroke-width="3"/><path d="M269.56,182.95c4.17,1.14,7.42,5.1,7.71,9.41" fill="none" stroke="#2c3b5e" stroke-miterlimit="10" stroke-width="3"/><path d="M264.43,189.3c2.28.24,4.42,1.61,5.6,3.58s1.38,4.5.52,6.63" fill="none" stroke="#2c3b5e" stroke-miterlimit="10" stroke-width="3"/><path d="M259.86,196.33l.11-.63c3.31,2.52,4.94,7.05,3.99,11.09" fill="none" stroke="#2c3b5e" stroke-miterlimit="10" stroke-width="3"/><path d="M210.05,130.7c-6.64,1.96-20.28,13.13-23.26,27.54-1.9,9.17-2.09,18.83.48,27.83s8.23,17.34,16.4,21.93c7.72,4.33,17.15,5.03,25.77,3.02,8.62-2.01,16.48-6.56,23.38-12.11" fill="none" stroke="#2c3b5e" stroke-miterlimit="10" stroke-width="3"/><path d="M185.56,176.34s13.01,5.08,26.7-2.64" fill="none" stroke="#2c3b5e" stroke-miterlimit="10" stroke-width="3"/><path d="M251.92,134.5c4.74-1.65,10.06.22,14.09,3.2,4.03,2.98,7.18,6.98,10.87,10.38,4.29,3.95,9.92,6.67,15.76,7.13" fill="none" stroke="#2c3b5e" stroke-miterlimit="10" stroke-width="3"/><path d="M198.91,204.35v18.52l-12.46,73.64h108.45l-19.71-74.21s-37.04.57-53.5,0" fill="none" stroke="#2c3b5e" stroke-miterlimit="10" stroke-width="3"/><path d="M271.84,296.51l4.01,92.94s22.56,9.36,27.24,21.71h-65.13" fill="none" stroke="#2c3b5e" stroke-miterlimit="10" stroke-width="3"/><path d="M237.7,404.03l.27,7.13h65.13c-2.68-7.06-11.19-13.14-18-17.05-14.56,7.4-31.09,10.85-47.4,9.92Z" fill="#2c3b5e" stroke="#2c3b5e" stroke-miterlimit="10" stroke-width="3"/><path d="M244.49,296.51l-1.06,92.94s22.56,9.36,27.24,21.71h-65.13l.82-114.65" fill="none" stroke="#2c3b5e" stroke-miterlimit="10" stroke-width="3"/><path d="M205.28,404.03l.27,7.13h65.13c-2.68-7.06-11.19-13.14-18-17.05-14.56,7.4-31.09,10.85-47.4,9.92Z" fill="#2c3b5e" stroke="#2c3b5e" stroke-miterlimit="10" stroke-width="3"/><path d="M330.45,170.49c.87,2.41,2.33,4.59,4.21,6.33,1.47,1.37,3.18,2.46,5.04,3.2" fill="none" stroke="#2c3b5e" stroke-miterlimit="10" stroke-width="3"/><path d="M326.03,176.33c1.17,1.97,2.36,3.95,3.96,5.6,1.6,1.64,3.66,2.94,5.94,3.17" fill="none" stroke="#2c3b5e" stroke-miterlimit="10" stroke-width="3"/><path d="M322.66,183.63c.68.78,1.36,1.56,2.04,2.35,1.15,1.33,2.32,2.66,3.71,3.74,1.39,1.07,3.05,1.88,4.8,1.99" fill="none" stroke="#2c3b5e" stroke-miterlimit="10" stroke-width="3"/><path d="M322.08,191.01s4.02,4.11,8.36,4.68" fill="none" stroke="#2c3b5e" stroke-miterlimit="10" stroke-width="3"/><path d="M214.84,130.7s4.13-9.32,2.24-15.1c0,0-10.73-2.36-7.67-9.09,2.15-4.72,11.09-4.72,11.33-1.77.24,2.95.59,6.84,3.42,4.25,2.83-2.6,2.83-15.22,2.83-15.22,0,0,14.51,1.77,18.76-10.27,0,0,4.72,7.2,12.51,9.79,0,0,5.07,47.91-27.85,34.69" fill="none" stroke="#2c3b5e" stroke-miterlimit="10" stroke-width="3"/><polyline points="243.95 97.78 250.27 112.53 238.2 115.13" fill="none" stroke="#2c3b5e" stroke-miterlimit="10" stroke-width="3"/><path d="M234.3,120.31s3.42,3.19,7.79,2.48" fill="none" stroke="#2c3b5e" stroke-miterlimit="10" stroke-width="3"/><path d="M258.13,100.31c2.02-2.1,4.1-6.25,3.89-9.16-2.47-34.55-52.02-23.7-57.6-2.94-1.54,5.75-.33,13.88,4.67,17.87" fill="none" stroke="#2c3b5e" stroke-miterlimit="10" stroke-width="3"/><path d="M206.29,83.71c-5.93-1.59-12.51-.54-17.64,2.82-5.13,3.36-8.73,8.98-9.64,15.05-.5,3.37-.24,6.92-1.58,10.04-1.26,2.92-3.93,5.2-7.02,5.97,7.05,2.42,14.91,2.13,21.42-1.5,6.51-3.63,11.36-10.12,13.01-17.39" fill="none" stroke="#2c3b5e" stroke-miterlimit="10" stroke-width="3"/><ellipse cx="238.69" cy="102.39" rx="2.02" ry="2.31" fill="#2c3b5e"/><ellipse cx="252.02" cy="102.39" rx="2.02" ry="2.31" fill="#2c3b5e"/><line x1="258.87" y1="153.91" x2="262.04" y2="175.84" fill="none" stroke="#2c3b5e" stroke-miterlimit="10" stroke-width="3"/><g><path d="M274.53,221.58c-.74,0-1.33.6-1.33,1.33s.6,1.33,1.33,1.33,1.33-.6,1.33-1.33-.6-1.33-1.33-1.33Z" fill="#2c3b5e"/><path d="M274.53,228.3c-.74,0-1.33.6-1.33,1.33s.6,1.33,1.33,1.33,1.33-.6,1.33-1.33-.6-1.33-1.33-1.33Z" fill="#2c3b5e"/><path d="M274.53,235.03c-.74,0-1.33.6-1.33,1.33s.6,1.33,1.33,1.33,1.33-.6,1.33-1.33-.6-1.33-1.33-1.33Z" fill="#2c3b5e"/><path d="M262.21,221.58c-.74,0-1.33.6-1.33,1.33s.6,1.33,1.33,1.33,1.33-.6,1.33-1.33-.6-1.33-1.33-1.33Z" fill="#2c3b5e"/><path d="M262.21,228.3c-.74,0-1.33.6-1.33,1.33s.6,1.33,1.33,1.33,1.33-.6,1.33-1.33-.6-1.33-1.33-1.33Z" fill="#2c3b5e"/><path d="M262.21,235.03c-.74,0-1.33.6-1.33,1.33s.6,1.33,1.33,1.33,1.33-.6,1.33-1.33-.6-1.33-1.33-1.33Z" fill="#2c3b5e"/><path d="M256.05,221.58c-.74,0-1.33.6-1.33,1.33s.6,1.33,1.33,1.33,1.33-.6,1.33-1.33-.6-1.33-1.33-1.33Z" fill="#2c3b5e"/><path d="M256.05,228.3c-.74,0-1.33.6-1.33,1.33s.6,1.33,1.33,1.33,1.33-.6,1.33-1.33-.6-1.33-1.33-1.33Z" fill="#2c3b5e"/><path d="M256.05,235.03c-.74,0-1.33.6-1.33,1.33s.6,1.33,1.33,1.33,1.33-.6,1.33-1.33-.6-1.33-1.33-1.33Z" fill="#2c3b5e"/><path d="M249.89,221.58c-.74,0-1.33.6-1.33,1.33s.6,1.33,1.33,1.33,1.33-.6,1.33-1.33-.6-1.33-1.33-1.33Z" fill="#2c3b5e"/><path d="M249.89,228.3c-.74,0-1.33.6-1.33,1.33s.6,1.33,1.33,1.33,1.33-.6,1.33-1.33-.6-1.33-1.33-1.33Z" fill="#2c3b5e"/><path d="M249.89,235.03c-.74,0-1.33.6-1.33,1.33s.6,1.33,1.33,1.33,1.33-.6,1.33-1.33-.6-1.33-1.33-1.33Z" fill="#2c3b5e"/><path d="M243.73,221.58c-.74,0-1.33.6-1.33,1.33s.6,1.33,1.33,1.33,1.33-.6,1.33-1.33-.6-1.33-1.33-1.33Z" fill="#2c3b5e"/><path d="M243.73,228.3c-.74,0-1.33.6-1.33,1.33s.6,1.33,1.33,1.33,1.33-.6,1.33-1.33-.6-1.33-1.33-1.33Z" fill="#2c3b5e"/><path d="M243.73,235.03c-.74,0-1.33.6-1.33,1.33s.6,1.33,1.33,1.33,1.33-.6,1.33-1.33-.6-1.33-1.33-1.33Z" fill="#2c3b5e"/><path d="M237.57,221.58c-.74,0-1.33.6-1.33,1.33s.6,1.33,1.33,1.33,1.33-.6,1.33-1.33-.6-1.33-1.33-1.33Z" fill="#2c3b5e"/><path d="M237.57,228.3c-.74,0-1.33.6-1.33,1.33s.6,1.33,1.33,1.33,1.33-.6,1.33-1.33-.6-1.33-1.33-1.33Z" fill="#2c3b5e"/><path d="M237.57,235.03c-.74,0-1.33.6-1.33,1.33s.6,1.33,1.33,1.33,1.33-.6,1.33-1.33-.6-1.33-1.33-1.33Z" fill="#2c3b5e"/><path d="M231.41,221.58c-.74,0-1.33.6-1.33,1.33s.6,1.33,1.33,1.33,1.33-.6,1.33-1.33-.6-1.33-1.33-1.33Z" fill="#2c3b5e"/><path d="M231.41,228.3c-.74,0-1.33.6-1.33,1.33s.6,1.33,1.33,1.33,1.33-.6,1.33-1.33-.6-1.33-1.33-1.33Z" fill="#2c3b5e"/><path d="M231.41,235.03c-.74,0-1.33.6-1.33,1.33s.6,1.33,1.33,1.33,1.33-.6,1.33-1.33-.6-1.33-1.33-1.33Z" fill="#2c3b5e"/><path d="M225.25,221.58c-.74,0-1.33.6-1.33,1.33s.6,1.33,1.33,1.33,1.33-.6,1.33-1.33-.6-1.33-1.33-1.33Z" fill="#2c3b5e"/><path d="M225.25,228.3c-.74,0-1.33.6-1.33,1.33s.6,1.33,1.33,1.33,1.33-.6,1.33-1.33-.6-1.33-1.33-1.33Z" fill="#2c3b5e"/><path d="M225.25,235.03c-.74,0-1.33.6-1.33,1.33s.6,1.33,1.33,1.33,1.33-.6,1.33-1.33-.6-1.33-1.33-1.33Z" fill="#2c3b5e"/><path d="M219.09,221.58c-.74,0-1.33.6-1.33,1.33s.6,1.33,1.33,1.33,1.33-.6,1.33-1.33-.6-1.33-1.33-1.33Z" fill="#2c3b5e"/><path d="M219.09,228.3c-.74,0-1.33.6-1.33,1.33s.6,1.33,1.33,1.33,1.33-.6,1.33-1.33-.6-1.33-1.33-1.33Z" fill="#2c3b5e"/><path d="M219.09,235.03c-.74,0-1.33.6-1.33,1.33s.6,1.33,1.33,1.33,1.33-.6,1.33-1.33-.6-1.33-1.33-1.33Z" fill="#2c3b5e"/><path d="M212.93,221.58c-.74,0-1.33.6-1.33,1.33s.6,1.33,1.33,1.33,1.33-.6,1.33-1.33-.6-1.33-1.33-1.33Z" fill="#2c3b5e"/><path d="M212.93,228.3c-.74,0-1.33.6-1.33,1.33s.6,1.33,1.33,1.33,1.33-.6,1.33-1.33-.6-1.33-1.33-1.33Z" fill="#2c3b5e"/><path d="M212.93,235.03c-.74,0-1.33.6-1.33,1.33s.6,1.33,1.33,1.33,1.33-.6,1.33-1.33-.6-1.33-1.33-1.33Z" fill="#2c3b5e"/><path d="M206.77,221.58c-.74,0-1.33.6-1.33,1.33s.6,1.33,1.33,1.33,1.33-.6,1.33-1.33-.6-1.33-1.33-1.33Z" fill="#2c3b5e"/><path d="M206.77,228.3c-.74,0-1.33.6-1.33,1.33s.6,1.33,1.33,1.33,1.33-.6,1.33-1.33-.6-1.33-1.33-1.33Z" fill="#2c3b5e"/><path d="M206.77,235.03c-.74,0-1.33.6-1.33,1.33s.6,1.33,1.33,1.33,1.33-.6,1.33-1.33-.6-1.33-1.33-1.33Z" fill="#2c3b5e"/><path d="M200.61,221.58c-.74,0-1.33.6-1.33,1.33s.6,1.33,1.33,1.33,1.33-.6,1.33-1.33-.6-1.33-1.33-1.33Z" fill="#2c3b5e"/><path d="M200.61,228.3c-.74,0-1.33.6-1.33,1.33s.6,1.33,1.33,1.33,1.33-.6,1.33-1.33-.6-1.33-1.33-1.33Z" fill="#2c3b5e"/><path d="M200.61,235.03c-.74,0-1.33.6-1.33,1.33s.6,1.33,1.33,1.33,1.33-.6,1.33-1.33-.6-1.33-1.33-1.33Z" fill="#2c3b5e"/><path d="M268.37,221.58c-.74,0-1.33.6-1.33,1.33s.6,1.33,1.33,1.33,1.33-.6,1.33-1.33-.6-1.33-1.33-1.33Z" fill="#2c3b5e"/><path d="M268.37,228.3c-.74,0-1.33.6-1.33,1.33s.6,1.33,1.33,1.33,1.33-.6,1.33-1.33-.6-1.33-1.33-1.33Z" fill="#2c3b5e"/><path d="M268.37,235.03c-.74,0-1.33.6-1.33,1.33s.6,1.33,1.33,1.33,1.33-.6,1.33-1.33-.6-1.33-1.33-1.33Z" fill="#2c3b5e"/><path d="M274.53,241.99c-.74,0-1.33.6-1.33,1.33s.6,1.33,1.33,1.33,1.33-.6,1.33-1.33-.6-1.33-1.33-1.33Z" fill="#2c3b5e"/><path d="M274.53,248.72c-.74,0-1.33.6-1.33,1.33s.6,1.33,1.33,1.33,1.33-.6,1.33-1.33-.6-1.33-1.33-1.33Z" fill="#2c3b5e"/><path d="M274.53,255.45c-.74,0-1.33.6-1.33,1.33s.6,1.33,1.33,1.33,1.33-.6,1.33-1.33-.6-1.33-1.33-1.33Z" fill="#2c3b5e"/><path d="M274.53,262.17c-.74,0-1.33.6-1.33,1.33s.6,1.33,1.33,1.33,1.33-.6,1.33-1.33-.6-1.33-1.33-1.33Z" fill="#2c3b5e"/><path d="M274.53,268.9c-.74,0-1.33.6-1.33,1.33s.6,1.33,1.33,1.33,1.33-.6,1.33-1.33-.6-1.33-1.33-1.33Z" fill="#2c3b5e"/><path d="M274.53,275.63c-.74,0-1.33.6-1.33,1.33s.6,1.33,1.33,1.33,1.33-.6,1.33-1.33-.6-1.33-1.33-1.33Z" fill="#2c3b5e"/><path d="M274.53,282.35c-.74,0-1.33.6-1.33,1.33s.6,1.33,1.33,1.33,1.33-.6,1.33-1.33-.6-1.33-1.33-1.33Z" fill="#2c3b5e"/><path d="M274.53,289.08c-.74,0-1.33.6-1.33,1.33s.6,1.33,1.33,1.33,1.33-.6,1.33-1.33-.6-1.33-1.33-1.33Z" fill="#2c3b5e"/><path d="M262.21,241.99c-.74,0-1.33.6-1.33,1.33s.6,1.33,1.33,1.33,1.33-.6,1.33-1.33-.6-1.33-1.33-1.33Z" fill="#2c3b5e"/><path d="M262.21,248.72c-.74,0-1.33.6-1.33,1.33s.6,1.33,1.33,1.33,1.33-.6,1.33-1.33-.6-1.33-1.33-1.33Z" fill="#2c3b5e"/><path d="M262.21,255.45c-.74,0-1.33.6-1.33,1.33s.6,1.33,1.33,1.33,1.33-.6,1.33-1.33-.6-1.33-1.33-1.33Z" fill="#2c3b5e"/><path d="M262.21,262.17c-.74,0-1.33.6-1.33,1.33s.6,1.33,1.33,1.33,1.33-.6,1.33-1.33-.6-1.33-1.33-1.33Z" fill="#2c3b5e"/><path d="M262.21,268.9c-.74,0-1.33.6-1.33,1.33s.6,1.33,1.33,1.33,1.33-.6,1.33-1.33-.6-1.33-1.33-1.33Z" fill="#2c3b5e"/><path d="M262.21,275.63c-.74,0-1.33.6-1.33,1.33s.6,1.33,1.33,1.33,1.33-.6,1.33-1.33-.6-1.33-1.33-1.33Z" fill="#2c3b5e"/><path d="M262.21,282.35c-.74,0-1.33.6-1.33,1.33s.6,1.33,1.33,1.33,1.33-.6,1.33-1.33-.6-1.33-1.33-1.33Z" fill="#2c3b5e"/><path d="M262.21,289.08c-.74,0-1.33.6-1.33,1.33s.6,1.33,1.33,1.33,1.33-.6,1.33-1.33-.6-1.33-1.33-1.33Z" fill="#2c3b5e"/><path d="M256.05,241.99c-.74,0-1.33.6-1.33,1.33s.6,1.33,1.33,1.33,1.33-.6,1.33-1.33-.6-1.33-1.33-1.33Z" fill="#2c3b5e"/><path d="M256.05,248.72c-.74,0-1.33.6-1.33,1.33s.6,1.33,1.33,1.33,1.33-.6,1.33-1.33-.6-1.33-1.33-1.33Z" fill="#2c3b5e"/><path d="M256.05,255.45c-.74,0-1.33.6-1.33,1.33s.6,1.33,1.33,1.33,1.33-.6,1.33-1.33-.6-1.33-1.33-1.33Z" fill="#2c3b5e"/><path d="M256.05,262.17c-.74,0-1.33.6-1.33,1.33s.6,1.33,1.33,1.33,1.33-.6,1.33-1.33-.6-1.33-1.33-1.33Z" fill="#2c3b5e"/><path d="M256.05,268.9c-.74,0-1.33.6-1.33,1.33s.6,1.33,1.33,1.33,1.33-.6,1.33-1.33-.6-1.33-1.33-1.33Z" fill="#2c3b5e"/><path d="M256.05,275.63c-.74,0-1.33.6-1.33,1.33s.6,1.33,1.33,1.33,1.33-.6,1.33-1.33-.6-1.33-1.33-1.33Z" fill="#2c3b5e"/><path d="M256.05,282.35c-.74,0-1.33.6-1.33,1.33s.6,1.33,1.33,1.33,1.33-.6,1.33-1.33-.6-1.33-1.33-1.33Z" fill="#2c3b5e"/><path d="M256.05,289.08c-.74,0-1.33.6-1.33,1.33s.6,1.33,1.33,1.33,1.33-.6,1.33-1.33-.6-1.33-1.33-1.33Z" fill="#2c3b5e"/><path d="M249.89,241.99c-.74,0-1.33.6-1.33,1.33s.6,1.33,1.33,1.33,1.33-.6,1.33-1.33-.6-1.33-1.33-1.33Z" fill="#2c3b5e"/><path d="M249.89,248.72c-.74,0-1.33.6-1.33,1.33s.6,1.33,1.33,1.33,1.33-.6,1.33-1.33-.6-1.33-1.33-1.33Z" fill="#2c3b5e"/><path d="M249.89,255.45c-.74,0-1.33.6-1.33,1.33s.6,1.33,1.33,1.33,1.33-.6,1.33-1.33-.6-1.33-1.33-1.33Z" fill="#2c3b5e"/><path d="M249.89,262.17c-.74,0-1.33.6-1.33,1.33s.6,1.33,1.33,1.33,1.33-.6,1.33-1.33-.6-1.33-1.33-1.33Z" fill="#2c3b5e"/><path d="M249.89,268.9c-.74,0-1.33.6-1.33,1.33s.6,1.33,1.33,1.33,1.33-.6,1.33-1.33-.6-1.33-1.33-1.33Z" fill="#2c3b5e"/><path d="M249.89,275.63c-.74,0-1.33.6-1.33,1.33s.6,1.33,1.33,1.33,1.33-.6,1.33-1.33-.6-1.33-1.33-1.33Z" fill="#2c3b5e"/><path d="M249.89,282.35c-.74,0-1.33.6-1.33,1.33s.6,1.33,1.33,1.33,1.33-.6,1.33-1.33-.6-1.33-1.33-1.33Z" fill="#2c3b5e"/><path d="M249.89,289.08c-.74,0-1.33.6-1.33,1.33s.6,1.33,1.33,1.33,1.33-.6,1.33-1.33-.6-1.33-1.33-1.33Z" fill="#2c3b5e"/><path d="M243.73,241.99c-.74,0-1.33.6-1.33,1.33s.6,1.33,1.33,1.33,1.33-.6,1.33-1.33-.6-1.33-1.33-1.33Z" fill="#2c3b5e"/><path d="M243.73,248.72c-.74,0-1.33.6-1.33,1.33s.6,1.33,1.33,1.33,1.33-.6,1.33-1.33-.6-1.33-1.33-1.33Z" fill="#2c3b5e"/><path d="M243.73,255.45c-.74,0-1.33.6-1.33,1.33s.6,1.33,1.33,1.33,1.33-.6,1.33-1.33-.6-1.33-1.33-1.33Z" fill="#2c3b5e"/><path d="M243.73,262.17c-.74,0-1.33.6-1.33,1.33s.6,1.33,1.33,1.33,1.33-.6,1.33-1.33-.6-1.33-1.33-1.33Z" fill="#2c3b5e"/><path d="M243.73,268.9c-.74,0-1.33.6-1.33,1.33s.6,1.33,1.33,1.33,1.33-.6,1.33-1.33-.6-1.33-1.33-1.33Z" fill="#2c3b5e"/><path d="M243.73,275.63c-.74,0-1.33.6-1.33,1.33s.6,1.33,1.33,1.33,1.33-.6,1.33-1.33-.6-1.33-1.33-1.33Z" fill="#2c3b5e"/><path d="M243.73,282.35c-.74,0-1.33.6-1.33,1.33s.6,1.33,1.33,1.33,1.33-.6,1.33-1.33-.6-1.33-1.33-1.33Z" fill="#2c3b5e"/><path d="M243.73,289.08c-.74,0-1.33.6-1.33,1.33s.6,1.33,1.33,1.33,1.33-.6,1.33-1.33-.6-1.33-1.33-1.33Z" fill="#2c3b5e"/><path d="M237.57,241.99c-.74,0-1.33.6-1.33,1.33s.6,1.33,1.33,1.33,1.33-.6,1.33-1.33-.6-1.33-1.33-1.33Z" fill="#2c3b5e"/><path d="M237.57,248.72c-.74,0-1.33.6-1.33,1.33s.6,1.33,1.33,1.33,1.33-.6,1.33-1.33-.6-1.33-1.33-1.33Z" fill="#2c3b5e"/><path d="M237.57,255.45c-.74,0-1.33.6-1.33,1.33s.6,1.33,1.33,1.33,1.33-.6,1.33-1.33-.6-1.33-1.33-1.33Z" fill="#2c3b5e"/><path d="M237.57,262.17c-.74,0-1.33.6-1.33,1.33s.6,1.33,1.33,1.33,1.33-.6,1.33-1.33-.6-1.33-1.33-1.33Z" fill="#2c3b5e"/><path d="M237.57,268.9c-.74,0-1.33.6-1.33,1.33s.6,1.33,1.33,1.33,1.33-.6,1.33-1.33-.6-1.33-1.33-1.33Z" fill="#2c3b5e"/><path d="M237.57,275.63c-.74,0-1.33.6-1.33,1.33s.6,1.33,1.33,1.33,1.33-.6,1.33-1.33-.6-1.33-1.33-1.33Z" fill="#2c3b5e"/><path d="M237.57,282.35c-.74,0-1.33.6-1.33,1.33s.6,1.33,1.33,1.33,1.33-.6,1.33-1.33-.6-1.33-1.33-1.33Z" fill="#2c3b5e"/><path d="M237.57,289.08c-.74,0-1.33.6-1.33,1.33s.6,1.33,1.33,1.33,1.33-.6,1.33-1.33-.6-1.33-1.33-1.33Z" fill="#2c3b5e"/><path d="M231.41,241.99c-.74,0-1.33.6-1.33,1.33s.6,1.33,1.33,1.33,1.33-.6,1.33-1.33-.6-1.33-1.33-1.33Z" fill="#2c3b5e"/><path d="M231.41,248.72c-.74,0-1.33.6-1.33,1.33s.6,1.33,1.33,1.33,1.33-.6,1.33-1.33-.6-1.33-1.33-1.33Z" fill="#2c3b5e"/><path d="M231.41,255.45c-.74,0-1.33.6-1.33,1.33s.6,1.33,1.33,1.33,1.33-.6,1.33-1.33-.6-1.33-1.33-1.33Z" fill="#2c3b5e"/><path d="M231.41,262.17c-.74,0-1.33.6-1.33,1.33s.6,1.33,1.33,1.33,1.33-.6,1.33-1.33-.6-1.33-1.33-1.33Z" fill="#2c3b5e"/><path d="M231.41,268.9c-.74,0-1.33.6-1.33,1.33s.6,1.33,1.33,1.33,1.33-.6,1.33-1.33-.6-1.33-1.33-1.33Z" fill="#2c3b5e"/><path d="M231.41,275.63c-.74,0-1.33.6-1.33,1.33s.6,1.33,1.33,1.33,1.33-.6,1.33-1.33-.6-1.33-1.33-1.33Z" fill="#2c3b5e"/><path d="M231.41,282.35c-.74,0-1.33.6-1.33,1.33s.6,1.33,1.33,1.33,1.33-.6,1.33-1.33-.6-1.33-1.33-1.33Z" fill="#2c3b5e"/><path d="M231.41,289.08c-.74,0-1.33.6-1.33,1.33s.6,1.33,1.33,1.33,1.33-.6,1.33-1.33-.6-1.33-1.33-1.33Z" fill="#2c3b5e"/><path d="M225.25,241.99c-.74,0-1.33.6-1.33,1.33s.6,1.33,1.33,1.33,1.33-.6,1.33-1.33-.6-1.33-1.33-1.33Z" fill="#2c3b5e"/><path d="M225.25,248.72c-.74,0-1.33.6-1.33,1.33s.6,1.33,1.33,1.33,1.33-.6,1.33-1.33-.6-1.33-1.33-1.33Z" fill="#2c3b5e"/><path d="M225.25,255.45c-.74,0-1.33.6-1.33,1.33s.6,1.33,1.33,1.33,1.33-.6,1.33-1.33-.6-1.33-1.33-1.33Z" fill="#2c3b5e"/><path d="M225.25,262.17c-.74,0-1.33.6-1.33,1.33s.6,1.33,1.33,1.33,1.33-.6,1.33-1.33-.6-1.33-1.33-1.33Z" fill="#2c3b5e"/><path d="M225.25,268.9c-.74,0-1.33.6-1.33,1.33s.6,1.33,1.33,1.33,1.33-.6,1.33-1.33-.6-1.33-1.33-1.33Z" fill="#2c3b5e"/><path d="M225.25,275.63c-.74,0-1.33.6-1.33,1.33s.6,1.33,1.33,1.33,1.33-.6,1.33-1.33-.6-1.33-1.33-1.33Z" fill="#2c3b5e"/><path d="M225.25,282.35c-.74,0-1.33.6-1.33,1.33s.6,1.33,1.33,1.33,1.33-.6,1.33-1.33-.6-1.33-1.33-1.33Z" fill="#2c3b5e"/><path d="M225.25,289.08c-.74,0-1.33.6-1.33,1.33s.6,1.33,1.33,1.33,1.33-.6,1.33-1.33-.6-1.33-1.33-1.33Z" fill="#2c3b5e"/><path d="M219.09,241.99c-.74,0-1.33.6-1.33,1.33s.6,1.33,1.33,1.33,1.33-.6,1.33-1.33-.6-1.33-1.33-1.33Z" fill="#2c3b5e"/><path d="M219.09,248.72c-.74,0-1.33.6-1.33,1.33s.6,1.33,1.33,1.33,1.33-.6,1.33-1.33-.6-1.33-1.33-1.33Z" fill="#2c3b5e"/><path d="M219.09,255.45c-.74,0-1.33.6-1.33,1.33s.6,1.33,1.33,1.33,1.33-.6,1.33-1.33-.6-1.33-1.33-1.33Z" fill="#2c3b5e"/><path d="M219.09,262.17c-.74,0-1.33.6-1.33,1.33s.6,1.33,1.33,1.33,1.33-.6,1.33-1.33-.6-1.33-1.33-1.33Z" fill="#2c3b5e"/><path d="M219.09,268.9c-.74,0-1.33.6-1.33,1.33s.6,1.33,1.33,1.33,1.33-.6,1.33-1.33-.6-1.33-1.33-1.33Z" fill="#2c3b5e"/><path d="M219.09,275.63c-.74,0-1.33.6-1.33,1.33s.6,1.33,1.33,1.33,1.33-.6,1.33-1.33-.6-1.33-1.33-1.33Z" fill="#2c3b5e"/><path d="M219.09,282.35c-.74,0-1.33.6-1.33,1.33s.6,1.33,1.33,1.33,1.33-.6,1.33-1.33-.6-1.33-1.33-1.33Z" fill="#2c3b5e"/><path d="M219.09,289.08c-.74,0-1.33.6-1.33,1.33s.6,1.33,1.33,1.33,1.33-.6,1.33-1.33-.6-1.33-1.33-1.33Z" fill="#2c3b5e"/><path d="M212.93,241.99c-.74,0-1.33.6-1.33,1.33s.6,1.33,1.33,1.33,1.33-.6,1.33-1.33-.6-1.33-1.33-1.33Z" fill="#2c3b5e"/><path d="M212.93,248.72c-.74,0-1.33.6-1.33,1.33s.6,1.33,1.33,1.33,1.33-.6,1.33-1.33-.6-1.33-1.33-1.33Z" fill="#2c3b5e"/><path d="M212.93,255.45c-.74,0-1.33.6-1.33,1.33s.6,1.33,1.33,1.33,1.33-.6,1.33-1.33-.6-1.33-1.33-1.33Z" fill="#2c3b5e"/><path d="M212.93,262.17c-.74,0-1.33.6-1.33,1.33s.6,1.33,1.33,1.33,1.33-.6,1.33-1.33-.6-1.33-1.33-1.33Z" fill="#2c3b5e"/><path d="M212.93,268.9c-.74,0-1.33.6-1.33,1.33s.6,1.33,1.33,1.33,1.33-.6,1.33-1.33-.6-1.33-1.33-1.33Z" fill="#2c3b5e"/><path d="M212.93,275.63c-.74,0-1.33.6-1.33,1.33s.6,1.33,1.33,1.33,1.33-.6,1.33-1.33-.6-1.33-1.33-1.33Z" fill="#2c3b5e"/><path d="M212.93,282.35c-.74,0-1.33.6-1.33,1.33s.6,1.33,1.33,1.33,1.33-.6,1.33-1.33-.6-1.33-1.33-1.33Z" fill="#2c3b5e"/><path d="M212.93,289.08c-.74,0-1.33.6-1.33,1.33s.6,1.33,1.33,1.33,1.33-.6,1.33-1.33-.6-1.33-1.33-1.33Z" fill="#2c3b5e"/><path d="M206.77,241.99c-.74,0-1.33.6-1.33,1.33s.6,1.33,1.33,1.33,1.33-.6,1.33-1.33-.6-1.33-1.33-1.33Z" fill="#2c3b5e"/><path d="M206.77,248.72c-.74,0-1.33.6-1.33,1.33s.6,1.33,1.33,1.33,1.33-.6,1.33-1.33-.6-1.33-1.33-1.33Z" fill="#2c3b5e"/><path d="M206.77,255.45c-.74,0-1.33.6-1.33,1.33s.6,1.33,1.33,1.33,1.33-.6,1.33-1.33-.6-1.33-1.33-1.33Z" fill="#2c3b5e"/><path d="M206.77,262.17c-.74,0-1.33.6-1.33,1.33s.6,1.33,1.33,1.33,1.33-.6,1.33-1.33-.6-1.33-1.33-1.33Z" fill="#2c3b5e"/><path d="M206.77,268.9c-.74,0-1.33.6-1.33,1.33s.6,1.33,1.33,1.33,1.33-.6,1.33-1.33-.6-1.33-1.33-1.33Z" fill="#2c3b5e"/><path d="M206.77,275.63c-.74,0-1.33.6-1.33,1.33s.6,1.33,1.33,1.33,1.33-.6,1.33-1.33-.6-1.33-1.33-1.33Z" fill="#2c3b5e"/><path d="M206.77,282.35c-.74,0-1.33.6-1.33,1.33s.6,1.33,1.33,1.33,1.33-.6,1.33-1.33-.6-1.33-1.33-1.33Z" fill="#2c3b5e"/><path d="M206.77,289.08c-.74,0-1.33.6-1.33,1.33s.6,1.33,1.33,1.33,1.33-.6,1.33-1.33-.6-1.33-1.33-1.33Z" fill="#2c3b5e"/><path d="M200.61,241.99c-.74,0-1.33.6-1.33,1.33s.6,1.33,1.33,1.33,1.33-.6,1.33-1.33-.6-1.33-1.33-1.33Z" fill="#2c3b5e"/><path d="M200.61,248.72c-.74,0-1.33.6-1.33,1.33s.6,1.33,1.33,1.33,1.33-.6,1.33-1.33-.6-1.33-1.33-1.33Z" fill="#2c3b5e"/><path d="M200.61,255.45c-.74,0-1.33.6-1.33,1.33s.6,1.33,1.33,1.33,1.33-.6,1.33-1.33-.6-1.33-1.33-1.33Z" fill="#2c3b5e"/><path d="M200.61,262.17c-.74,0-1.33.6-1.33,1.33s.6,1.33,1.33,1.33,1.33-.6,1.33-1.33-.6-1.33-1.33-1.33Z" fill="#2c3b5e"/><path d="M200.61,268.9c-.74,0-1.33.6-1.33,1.33s.6,1.33,1.33,1.33,1.33-.6,1.33-1.33-.6-1.33-1.33-1.33Z" fill="#2c3b5e"/><path d="M200.61,275.63c-.74,0-1.33.6-1.33,1.33s.6,1.33,1.33,1.33,1.33-.6,1.33-1.33-.6-1.33-1.33-1.33Z" fill="#2c3b5e"/><path d="M200.61,282.35c-.74,0-1.33.6-1.33,1.33s.6,1.33,1.33,1.33,1.33-.6,1.33-1.33-.6-1.33-1.33-1.33Z" fill="#2c3b5e"/><path d="M200.61,289.08c-.74,0-1.33.6-1.33,1.33s.6,1.33,1.33,1.33,1.33-.6,1.33-1.33-.6-1.33-1.33-1.33Z" fill="#2c3b5e"/><path d="M194.45,248.72c-.74,0-1.33.6-1.33,1.33s.6,1.33,1.33,1.33,1.33-.6,1.33-1.33-.6-1.33-1.33-1.33Z" fill="#2c3b5e"/><path d="M194.45,255.45c-.74,0-1.33.6-1.33,1.33s.6,1.33,1.33,1.33,1.33-.6,1.33-1.33-.6-1.33-1.33-1.33Z" fill="#2c3b5e"/><path d="M194.45,262.17c-.74,0-1.33.6-1.33,1.33s.6,1.33,1.33,1.33,1.33-.6,1.33-1.33-.6-1.33-1.33-1.33Z" fill="#2c3b5e"/><path d="M194.45,268.9c-.74,0-1.33.6-1.33,1.33s.6,1.33,1.33,1.33,1.33-.6,1.33-1.33-.6-1.33-1.33-1.33Z" fill="#2c3b5e"/><path d="M194.45,275.63c-.74,0-1.33.6-1.33,1.33s.6,1.33,1.33,1.33,1.33-.6,1.33-1.33-.6-1.33-1.33-1.33Z" fill="#2c3b5e"/><path d="M194.45,282.35c-.74,0-1.33.6-1.33,1.33s.6,1.33,1.33,1.33,1.33-.6,1.33-1.33-.6-1.33-1.33-1.33Z" fill="#2c3b5e"/><path d="M194.45,289.08c-.74,0-1.33.6-1.33,1.33s.6,1.33,1.33,1.33,1.33-.6,1.33-1.33-.6-1.33-1.33-1.33Z" fill="#2c3b5e"/><path d="M188.29,289.08c-.74,0-1.33.6-1.33,1.33s.6,1.33,1.33,1.33,1.33-.6,1.33-1.33-.6-1.33-1.33-1.33Z" fill="#2c3b5e"/><path d="M268.37,241.99c-.74,0-1.33.6-1.33,1.33s.6,1.33,1.33,1.33,1.33-.6,1.33-1.33-.6-1.33-1.33-1.33Z" fill="#2c3b5e"/><path d="M268.37,248.72c-.74,0-1.33.6-1.33,1.33s.6,1.33,1.33,1.33,1.33-.6,1.33-1.33-.6-1.33-1.33-1.33Z" fill="#2c3b5e"/><path d="M268.37,255.45c-.74,0-1.33.6-1.33,1.33s.6,1.33,1.33,1.33,1.33-.6,1.33-1.33-.6-1.33-1.33-1.33Z" fill="#2c3b5e"/><path d="M268.37,262.17c-.74,0-1.33.6-1.33,1.33s.6,1.33,1.33,1.33,1.33-.6,1.33-1.33-.6-1.33-1.33-1.33Z" fill="#2c3b5e"/><path d="M268.37,268.9c-.74,0-1.33.6-1.33,1.33s.6,1.33,1.33,1.33,1.33-.6,1.33-1.33-.6-1.33-1.33-1.33Z" fill="#2c3b5e"/><path d="M268.37,275.63c-.74,0-1.33.6-1.33,1.33s.6,1.33,1.33,1.33,1.33-.6,1.33-1.33-.6-1.33-1.33-1.33Z" fill="#2c3b5e"/><path d="M268.37,282.35c-.74,0-1.33.6-1.33,1.33s.6,1.33,1.33,1.33,1.33-.6,1.33-1.33-.6-1.33-1.33-1.33Z" fill="#2c3b5e"/><path d="M268.37,289.08c-.74,0-1.33.6-1.33,1.33s.6,1.33,1.33,1.33,1.33-.6,1.33-1.33-.6-1.33-1.33-1.33Z" fill="#2c3b5e"/><path d="M292.34,289.08c-.74,0-1.33.6-1.33,1.33s.6,1.33,1.33,1.33,1.33-.6,1.33-1.33-.6-1.33-1.33-1.33Z" fill="#2c3b5e"/><path d="M286.18,262.17c-.74,0-1.33.6-1.33,1.33s.6,1.33,1.33,1.33,1.33-.6,1.33-1.33-.6-1.33-1.33-1.33Z" fill="#2c3b5e"/><path d="M286.18,268.9c-.74,0-1.33.6-1.33,1.33s.6,1.33,1.33,1.33,1.33-.6,1.33-1.33-.6-1.33-1.33-1.33Z" fill="#2c3b5e"/><path d="M286.18,275.63c-.74,0-1.33.6-1.33,1.33s.6,1.33,1.33,1.33,1.33-.6,1.33-1.33-.6-1.33-1.33-1.33Z" fill="#2c3b5e"/><path d="M286.18,282.35c-.74,0-1.33.6-1.33,1.33s.6,1.33,1.33,1.33,1.33-.6,1.33-1.33-.6-1.33-1.33-1.33Z" fill="#2c3b5e"/><path d="M286.18,289.08c-.74,0-1.33.6-1.33,1.33s.6,1.33,1.33,1.33,1.33-.6,1.33-1.33-.6-1.33-1.33-1.33Z" fill="#2c3b5e"/><path d="M280.02,241.99c-.74,0-1.33.6-1.33,1.33s.6,1.33,1.33,1.33,1.33-.6,1.33-1.33-.6-1.33-1.33-1.33Z" fill="#2c3b5e"/><path d="M280.02,248.72c-.74,0-1.33.6-1.33,1.33s.6,1.33,1.33,1.33,1.33-.6,1.33-1.33-.6-1.33-1.33-1.33Z" fill="#2c3b5e"/><path d="M280.02,255.45c-.74,0-1.33.6-1.33,1.33s.6,1.33,1.33,1.33,1.33-.6,1.33-1.33-.6-1.33-1.33-1.33Z" fill="#2c3b5e"/><path d="M280.02,262.17c-.74,0-1.33.6-1.33,1.33s.6,1.33,1.33,1.33,1.33-.6,1.33-1.33-.6-1.33-1.33-1.33Z" fill="#2c3b5e"/><path d="M280.02,268.9c-.74,0-1.33.6-1.33,1.33s.6,1.33,1.33,1.33,1.33-.6,1.33-1.33-.6-1.33-1.33-1.33Z" fill="#2c3b5e"/><path d="M280.02,275.63c-.74,0-1.33.6-1.33,1.33s.6,1.33,1.33,1.33,1.33-.6,1.33-1.33-.6-1.33-1.33-1.33Z" fill="#2c3b5e"/><path d="M280.02,282.35c-.74,0-1.33.6-1.33,1.33s.6,1.33,1.33,1.33,1.33-.6,1.33-1.33-.6-1.33-1.33-1.33Z" fill="#2c3b5e"/><path d="M280.02,289.08c-.74,0-1.33.6-1.33,1.33s.6,1.33,1.33,1.33,1.33-.6,1.33-1.33-.6-1.33-1.33-1.33Z" fill="#2c3b5e"/></g><ellipse cx="304.52" cy="151.46" rx="3.3" ry="2.8" transform="translate(67.07 394.95) rotate(-72.16)" fill="#2c3b5e"/><ellipse cx="301.16" cy="160.71" rx="3.3" ry="2.8" transform="translate(55.93 398.17) rotate(-72.16)" fill="#2c3b5e"/></g></svg>