<svg id="Illustrations" xmlns="http://www.w3.org/2000/svg" width="480" height="480" viewBox="0 0 480 480"><g><path d="M241.82,108.25s26.8,48.33-13.3,49.5" fill="none" stroke="#2c3b5e" stroke-miterlimit="10" stroke-width="3"/><path d="M211.78,114.91c1.1,2.27,2.21,4.63,2.33,7.15s-1.02,5.28-3.33,6.29c-1.44.63-3.09.5-4.61.9-3.61.94-5.96,5.21-4.82,8.76,1.14,3.55,5.54,5.65,9.02,4.31,2.27,4.53,2.75,11.29.11,15.61-2.64,4.32-7.59,7.13-12.66,7.18-2.82.03-5.82-.88-7.56-3.1-1.62-2.06-1.68-5.39.16-7.17.1-.09.02-.26-.12-.24-2.25.37-5.05-1.07-6.5-2.77-1.58-1.86-1.92-4.68-.81-6.85,1.89-3.7,7.05-4.9,8.7-8.71.8-1.85.59-3.95.29-5.94s-.69-4.03-.23-5.98,2.07-3.81,4.08-3.82" fill="none" stroke="#2c3b5e" stroke-miterlimit="10" stroke-width="3"/><path d="M251.21,117.83s21.13-15.65,14.09-23.48c-10.89-12.11-90,14.87-100.57,33.46-6.58,11.58,18.59,9.2,18.59,9.2" fill="none" stroke="#2c3b5e" stroke-miterlimit="10" stroke-width="3"/><path d="M184.76,112.29s2.28-19.5,23.41-28.9c21.13-9.39,29.61,9.9,30.21,9.79,0,0-33.53,7.04-53.62,19.11Z" fill="#2c3b5e" stroke="#2c3b5e" stroke-miterlimit="10" stroke-width="3"/><line x1="226.43" y1="118.16" x2="218.93" y2="121.94" fill="none" stroke="#2c3b5e" stroke-miterlimit="10" stroke-width="3"/><line x1="232.1" y1="115.35" x2="240.78" y2="115.35" fill="none" stroke="#2c3b5e" stroke-miterlimit="10" stroke-width="3"/><circle cx="224.11" cy="126.7" r="1.43" fill="#2c3b5e"/><circle cx="238.72" cy="121.48" r="1.43" fill="#2c3b5e"/><path d="M231.43,123.12c2.3,3.03,4.6,6.07,6.9,9.1.37.49.77,1.08.61,1.68-.15.58-.76.9-1.3,1.16-2.14.99-4.28,1.99-6.42,2.98" fill="none" stroke="#2c3b5e" stroke-miterlimit="10" stroke-width="3"/><path d="M202.79,164.16s3.74,18.82,22.75,16.48c19.01-2.35,16.66-17.54,16.66-17.54" fill="none" stroke="#2c3b5e" stroke-miterlimit="10" stroke-width="3"/><path d="M233.65,157.29s-1.03,3.78,2.79,4.76c3.82.98,18.55-1.43,20.64,31.17,2.09,32.61,15.13,123.65,15.13,123.65h-86.87l17.45-89.22s-8.25-12.81-7.21-22.2" fill="none" stroke="#2c3b5e" stroke-miterlimit="10" stroke-width="3"/><path d="M194.73,165.1s-34.54,33.7-37.61,90.86c-.17,3.11-1.19,7.83,1.84,10.96" fill="none" stroke="#2c3b5e" stroke-miterlimit="10" stroke-width="3"/><path d="M194.45,208s-11.19,18.88-15.63,43.14c0,0,3.33,4.24-.96,11.01" fill="none" stroke="#2c3b5e" stroke-miterlimit="10" stroke-width="3"/><path d="M191.72,168.35s13.15,18.42,2.73,39.65" fill="none" stroke="#2c3b5e" stroke-miterlimit="10" stroke-width="3"/><path d="M251.42,170.49s25.03,16.02,23.46,74.91c0,0-1.37,10.76,3.91,23.09" fill="none" stroke="#2c3b5e" stroke-miterlimit="10" stroke-width="3"/><path d="M191.72,316.88l-8.51,82.3h52.89s-9.31-12.13-20.53-16.43l6.98-65.87" fill="none" stroke="#2c3b5e" stroke-miterlimit="10" stroke-width="3"/><path d="M202.46,394.09h-18.48l-.77,5.09h52.89s-9.31-12.13-20.53-16.43c0,0-9.11,2.74-13.11,11.35Z" fill="#2c3b5e" stroke="#2c3b5e" stroke-miterlimit="10" stroke-width="3"/><path d="M231.34,316.88l12.95,82.3h52.89s-9.31-12.13-20.53-16.43l-14.35-65.87" fill="none" stroke="#2c3b5e" stroke-miterlimit="10" stroke-width="3"/><path d="M263.54,394.09h-18.48l-.77,5.09h52.89s-9.31-12.13-20.53-16.43c0,0-9.11,2.74-13.11,11.35Z" fill="#2c3b5e" stroke="#2c3b5e" stroke-miterlimit="10" stroke-width="3"/><path d="M131.21,298.35l-24.65,81.26,59.87,6.26,12.62-80.41c.31-2.06-1.11-3.97-3.17-4.28l-39.87-5.93c-2.15-.32-4.2,1-4.8,3.09Z" fill="none" stroke="#2c3b5e" stroke-miterlimit="10" stroke-width="3"/><path d="M149.84,384.14l16.59,1.73,12.62-80.41c.31-2.06-1.11-3.97-3.17-4.28l-26.04,82.95h0Z" fill="#2c3b5e" stroke="#2c3b5e" stroke-miterlimit="10" stroke-width="3"/><polyline points="173.8 261.7 184.15 262.62 173.78 300.38" fill="none" stroke="#2c3b5e" stroke-miterlimit="10" stroke-width="3"/><polyline points="137.81 295.53 150.06 259.09 156.82 259.84" fill="none" stroke="#2c3b5e" stroke-miterlimit="10" stroke-width="3"/><path d="M162.08,255.57s-2.35,10.57,3.23,11.74" fill="none" stroke="#2c3b5e" stroke-miterlimit="10" stroke-width="3"/><path d="M168.68,256.94s-1.76,9.39,2.15,10.37" fill="none" stroke="#2c3b5e" stroke-miterlimit="10" stroke-width="3"/><path d="M174.32,257.63s-2.35,8.8,2.93,9.29" fill="none" stroke="#2c3b5e" stroke-miterlimit="10" stroke-width="3"/><circle cx="114.84" cy="389.14" r="3.91" fill="#2c3b5e"/><circle cx="147.65" cy="392.53" r="3.91" fill="#2c3b5e"/><path d="M202.79,227.66s17.65,5.01,34.49.26" fill="none" stroke="#2c3b5e" stroke-miterlimit="10" stroke-width="3"/><g><path d="M265.32,267.33c-.68,0-1.22.55-1.22,1.22s.55,1.22,1.22,1.22,1.22-.55,1.22-1.22-.55-1.22-1.22-1.22Z" fill="#2c3b5e"/><path d="M259.65,224.04c-.68,0-1.22.55-1.22,1.22s.55,1.22,1.22,1.22,1.22-.55,1.22-1.22-.55-1.22-1.22-1.22Z" fill="#2c3b5e"/><path d="M259.65,230.22c-.68,0-1.22.55-1.22,1.22s.55,1.22,1.22,1.22,1.22-.55,1.22-1.22-.55-1.22-1.22-1.22Z" fill="#2c3b5e"/><path d="M259.65,236.41c-.68,0-1.22.55-1.22,1.22s.55,1.22,1.22,1.22,1.22-.55,1.22-1.22-.55-1.22-1.22-1.22Z" fill="#2c3b5e"/><path d="M259.65,242.59c-.68,0-1.22.55-1.22,1.22s.55,1.22,1.22,1.22,1.22-.55,1.22-1.22-.55-1.22-1.22-1.22Z" fill="#2c3b5e"/><path d="M259.65,248.77c-.68,0-1.22.55-1.22,1.22s.55,1.22,1.22,1.22,1.22-.55,1.22-1.22-.55-1.22-1.22-1.22Z" fill="#2c3b5e"/><path d="M259.65,254.96c-.68,0-1.22.55-1.22,1.22s.55,1.22,1.22,1.22,1.22-.55,1.22-1.22-.55-1.22-1.22-1.22Z" fill="#2c3b5e"/><path d="M259.65,261.14c-.68,0-1.22.55-1.22,1.22s.55,1.22,1.22,1.22,1.22-.55,1.22-1.22-.55-1.22-1.22-1.22Z" fill="#2c3b5e"/><path d="M259.65,267.33c-.68,0-1.22.55-1.22,1.22s.55,1.22,1.22,1.22,1.22-.55,1.22-1.22-.55-1.22-1.22-1.22Z" fill="#2c3b5e"/><path d="M253.99,180.75c-.68,0-1.22.55-1.22,1.22s.55,1.22,1.22,1.22,1.22-.55,1.22-1.22-.55-1.22-1.22-1.22Z" fill="#2c3b5e"/><path d="M253.99,186.94c-.68,0-1.22.55-1.22,1.22s.55,1.22,1.22,1.22,1.22-.55,1.22-1.22-.55-1.22-1.22-1.22Z" fill="#2c3b5e"/><path d="M253.99,193.12c-.68,0-1.22.55-1.22,1.22s.55,1.22,1.22,1.22,1.22-.55,1.22-1.22-.55-1.22-1.22-1.22Z" fill="#2c3b5e"/><path d="M253.99,199.3c-.68,0-1.22.55-1.22,1.22s.55,1.22,1.22,1.22,1.22-.55,1.22-1.22-.55-1.22-1.22-1.22Z" fill="#2c3b5e"/><path d="M253.99,205.49c-.68,0-1.22.55-1.22,1.22s.55,1.22,1.22,1.22,1.22-.55,1.22-1.22-.55-1.22-1.22-1.22Z" fill="#2c3b5e"/><path d="M253.99,211.67c-.68,0-1.22.55-1.22,1.22s.55,1.22,1.22,1.22,1.22-.55,1.22-1.22-.55-1.22-1.22-1.22Z" fill="#2c3b5e"/><path d="M253.99,217.85c-.68,0-1.22.55-1.22,1.22s.55,1.22,1.22,1.22,1.22-.55,1.22-1.22-.55-1.22-1.22-1.22Z" fill="#2c3b5e"/><path d="M253.99,224.04c-.68,0-1.22.55-1.22,1.22s.55,1.22,1.22,1.22,1.22-.55,1.22-1.22-.55-1.22-1.22-1.22Z" fill="#2c3b5e"/><path d="M253.99,230.22c-.68,0-1.22.55-1.22,1.22s.55,1.22,1.22,1.22,1.22-.55,1.22-1.22-.55-1.22-1.22-1.22Z" fill="#2c3b5e"/><path d="M253.99,236.41c-.68,0-1.22.55-1.22,1.22s.55,1.22,1.22,1.22,1.22-.55,1.22-1.22-.55-1.22-1.22-1.22Z" fill="#2c3b5e"/><path d="M253.99,242.59c-.68,0-1.22.55-1.22,1.22s.55,1.22,1.22,1.22,1.22-.55,1.22-1.22-.55-1.22-1.22-1.22Z" fill="#2c3b5e"/><path d="M253.99,248.77c-.68,0-1.22.55-1.22,1.22s.55,1.22,1.22,1.22,1.22-.55,1.22-1.22-.55-1.22-1.22-1.22Z" fill="#2c3b5e"/><path d="M253.99,254.96c-.68,0-1.22.55-1.22,1.22s.55,1.22,1.22,1.22,1.22-.55,1.22-1.22-.55-1.22-1.22-1.22Z" fill="#2c3b5e"/><path d="M253.99,261.14c-.68,0-1.22.55-1.22,1.22s.55,1.22,1.22,1.22,1.22-.55,1.22-1.22-.55-1.22-1.22-1.22Z" fill="#2c3b5e"/><path d="M253.99,267.33c-.68,0-1.22.55-1.22,1.22s.55,1.22,1.22,1.22,1.22-.55,1.22-1.22-.55-1.22-1.22-1.22Z" fill="#2c3b5e"/><path d="M248.33,168.38c-.68,0-1.22.55-1.22,1.22s.55,1.22,1.22,1.22,1.22-.55,1.22-1.22-.55-1.22-1.22-1.22Z" fill="#2c3b5e"/><path d="M248.33,174.57c-.68,0-1.22.55-1.22,1.22s.55,1.22,1.22,1.22,1.22-.55,1.22-1.22-.55-1.22-1.22-1.22Z" fill="#2c3b5e"/><path d="M248.33,180.75c-.68,0-1.22.55-1.22,1.22s.55,1.22,1.22,1.22,1.22-.55,1.22-1.22-.55-1.22-1.22-1.22Z" fill="#2c3b5e"/><path d="M248.33,186.94c-.68,0-1.22.55-1.22,1.22s.55,1.22,1.22,1.22,1.22-.55,1.22-1.22-.55-1.22-1.22-1.22Z" fill="#2c3b5e"/><path d="M248.33,193.12c-.68,0-1.22.55-1.22,1.22s.55,1.22,1.22,1.22,1.22-.55,1.22-1.22-.55-1.22-1.22-1.22Z" fill="#2c3b5e"/><path d="M248.33,199.3c-.68,0-1.22.55-1.22,1.22s.55,1.22,1.22,1.22,1.22-.55,1.22-1.22-.55-1.22-1.22-1.22Z" fill="#2c3b5e"/><path d="M248.33,205.49c-.68,0-1.22.55-1.22,1.22s.55,1.22,1.22,1.22,1.22-.55,1.22-1.22-.55-1.22-1.22-1.22Z" fill="#2c3b5e"/><path d="M248.33,211.67c-.68,0-1.22.55-1.22,1.22s.55,1.22,1.22,1.22,1.22-.55,1.22-1.22-.55-1.22-1.22-1.22Z" fill="#2c3b5e"/><path d="M248.33,217.85c-.68,0-1.22.55-1.22,1.22s.55,1.22,1.22,1.22,1.22-.55,1.22-1.22-.55-1.22-1.22-1.22Z" fill="#2c3b5e"/><path d="M248.33,224.04c-.68,0-1.22.55-1.22,1.22s.55,1.22,1.22,1.22,1.22-.55,1.22-1.22-.55-1.22-1.22-1.22Z" fill="#2c3b5e"/><path d="M248.33,230.22c-.68,0-1.22.55-1.22,1.22s.55,1.22,1.22,1.22,1.22-.55,1.22-1.22-.55-1.22-1.22-1.22Z" fill="#2c3b5e"/><path d="M248.33,236.41c-.68,0-1.22.55-1.22,1.22s.55,1.22,1.22,1.22,1.22-.55,1.22-1.22-.55-1.22-1.22-1.22Z" fill="#2c3b5e"/><path d="M248.33,242.59c-.68,0-1.22.55-1.22,1.22s.55,1.22,1.22,1.22,1.22-.55,1.22-1.22-.55-1.22-1.22-1.22Z" fill="#2c3b5e"/><path d="M248.33,248.77c-.68,0-1.22.55-1.22,1.22s.55,1.22,1.22,1.22,1.22-.55,1.22-1.22-.55-1.22-1.22-1.22Z" fill="#2c3b5e"/><path d="M248.33,254.96c-.68,0-1.22.55-1.22,1.22s.55,1.22,1.22,1.22,1.22-.55,1.22-1.22-.55-1.22-1.22-1.22Z" fill="#2c3b5e"/><path d="M248.33,261.14c-.68,0-1.22.55-1.22,1.22s.55,1.22,1.22,1.22,1.22-.55,1.22-1.22-.55-1.22-1.22-1.22Z" fill="#2c3b5e"/><path d="M248.33,267.33c-.68,0-1.22.55-1.22,1.22s.55,1.22,1.22,1.22,1.22-.55,1.22-1.22-.55-1.22-1.22-1.22Z" fill="#2c3b5e"/><path d="M242.67,168.38c-.68,0-1.22.55-1.22,1.22s.55,1.22,1.22,1.22,1.22-.55,1.22-1.22-.55-1.22-1.22-1.22Z" fill="#2c3b5e"/><path d="M242.67,174.57c-.68,0-1.22.55-1.22,1.22s.55,1.22,1.22,1.22,1.22-.55,1.22-1.22-.55-1.22-1.22-1.22Z" fill="#2c3b5e"/><path d="M242.67,180.75c-.68,0-1.22.55-1.22,1.22s.55,1.22,1.22,1.22,1.22-.55,1.22-1.22-.55-1.22-1.22-1.22Z" fill="#2c3b5e"/><path d="M242.67,186.94c-.68,0-1.22.55-1.22,1.22s.55,1.22,1.22,1.22,1.22-.55,1.22-1.22-.55-1.22-1.22-1.22Z" fill="#2c3b5e"/><path d="M242.67,193.12c-.68,0-1.22.55-1.22,1.22s.55,1.22,1.22,1.22,1.22-.55,1.22-1.22-.55-1.22-1.22-1.22Z" fill="#2c3b5e"/><path d="M242.67,199.3c-.68,0-1.22.55-1.22,1.22s.55,1.22,1.22,1.22,1.22-.55,1.22-1.22-.55-1.22-1.22-1.22Z" fill="#2c3b5e"/><path d="M242.67,205.49c-.68,0-1.22.55-1.22,1.22s.55,1.22,1.22,1.22,1.22-.55,1.22-1.22-.55-1.22-1.22-1.22Z" fill="#2c3b5e"/><path d="M242.67,211.67c-.68,0-1.22.55-1.22,1.22s.55,1.22,1.22,1.22,1.22-.55,1.22-1.22-.55-1.22-1.22-1.22Z" fill="#2c3b5e"/><path d="M242.67,217.85c-.68,0-1.22.55-1.22,1.22s.55,1.22,1.22,1.22,1.22-.55,1.22-1.22-.55-1.22-1.22-1.22Z" fill="#2c3b5e"/><path d="M242.67,224.04c-.68,0-1.22.55-1.22,1.22s.55,1.22,1.22,1.22,1.22-.55,1.22-1.22-.55-1.22-1.22-1.22Z" fill="#2c3b5e"/><path d="M242.67,230.22c-.68,0-1.22.55-1.22,1.22s.55,1.22,1.22,1.22,1.22-.55,1.22-1.22-.55-1.22-1.22-1.22Z" fill="#2c3b5e"/><path d="M242.67,236.41c-.68,0-1.22.55-1.22,1.22s.55,1.22,1.22,1.22,1.22-.55,1.22-1.22-.55-1.22-1.22-1.22Z" fill="#2c3b5e"/><path d="M242.67,242.59c-.68,0-1.22.55-1.22,1.22s.55,1.22,1.22,1.22,1.22-.55,1.22-1.22-.55-1.22-1.22-1.22Z" fill="#2c3b5e"/><path d="M242.67,248.77c-.68,0-1.22.55-1.22,1.22s.55,1.22,1.22,1.22,1.22-.55,1.22-1.22-.55-1.22-1.22-1.22Z" fill="#2c3b5e"/><path d="M242.67,254.96c-.68,0-1.22.55-1.22,1.22s.55,1.22,1.22,1.22,1.22-.55,1.22-1.22-.55-1.22-1.22-1.22Z" fill="#2c3b5e"/><path d="M242.67,261.14c-.68,0-1.22.55-1.22,1.22s.55,1.22,1.22,1.22,1.22-.55,1.22-1.22-.55-1.22-1.22-1.22Z" fill="#2c3b5e"/><path d="M242.67,267.33c-.68,0-1.22.55-1.22,1.22s.55,1.22,1.22,1.22,1.22-.55,1.22-1.22-.55-1.22-1.22-1.22Z" fill="#2c3b5e"/><path d="M242.67,162.24c-.68,0-1.22.55-1.22,1.22s.55,1.22,1.22,1.22,1.22-.55,1.22-1.22-.55-1.22-1.22-1.22Z" fill="#2c3b5e"/><path d="M237,174.57c-.68,0-1.22.55-1.22,1.22s.55,1.22,1.22,1.22,1.22-.55,1.22-1.22-.55-1.22-1.22-1.22Z" fill="#2c3b5e"/><path d="M237,180.75c-.68,0-1.22.55-1.22,1.22s.55,1.22,1.22,1.22,1.22-.55,1.22-1.22-.55-1.22-1.22-1.22Z" fill="#2c3b5e"/><path d="M237,186.94c-.68,0-1.22.55-1.22,1.22s.55,1.22,1.22,1.22,1.22-.55,1.22-1.22-.55-1.22-1.22-1.22Z" fill="#2c3b5e"/><path d="M237,193.12c-.68,0-1.22.55-1.22,1.22s.55,1.22,1.22,1.22,1.22-.55,1.22-1.22-.55-1.22-1.22-1.22Z" fill="#2c3b5e"/><path d="M237,199.3c-.68,0-1.22.55-1.22,1.22s.55,1.22,1.22,1.22,1.22-.55,1.22-1.22-.55-1.22-1.22-1.22Z" fill="#2c3b5e"/><path d="M237,205.49c-.68,0-1.22.55-1.22,1.22s.55,1.22,1.22,1.22,1.22-.55,1.22-1.22-.55-1.22-1.22-1.22Z" fill="#2c3b5e"/><path d="M237,211.67c-.68,0-1.22.55-1.22,1.22s.55,1.22,1.22,1.22,1.22-.55,1.22-1.22-.55-1.22-1.22-1.22Z" fill="#2c3b5e"/><path d="M237,217.85c-.68,0-1.22.55-1.22,1.22s.55,1.22,1.22,1.22,1.22-.55,1.22-1.22-.55-1.22-1.22-1.22Z" fill="#2c3b5e"/><path d="M237,224.04c-.68,0-1.22.55-1.22,1.22s.55,1.22,1.22,1.22,1.22-.55,1.22-1.22-.55-1.22-1.22-1.22Z" fill="#2c3b5e"/><path d="M237,230.22c-.68,0-1.22.55-1.22,1.22s.55,1.22,1.22,1.22,1.22-.55,1.22-1.22-.55-1.22-1.22-1.22Z" fill="#2c3b5e"/><path d="M237,236.41c-.68,0-1.22.55-1.22,1.22s.55,1.22,1.22,1.22,1.22-.55,1.22-1.22-.55-1.22-1.22-1.22Z" fill="#2c3b5e"/><path d="M237,242.59c-.68,0-1.22.55-1.22,1.22s.55,1.22,1.22,1.22,1.22-.55,1.22-1.22-.55-1.22-1.22-1.22Z" fill="#2c3b5e"/><path d="M237,248.77c-.68,0-1.22.55-1.22,1.22s.55,1.22,1.22,1.22,1.22-.55,1.22-1.22-.55-1.22-1.22-1.22Z" fill="#2c3b5e"/><path d="M237,254.96c-.68,0-1.22.55-1.22,1.22s.55,1.22,1.22,1.22,1.22-.55,1.22-1.22-.55-1.22-1.22-1.22Z" fill="#2c3b5e"/><path d="M237,261.14c-.68,0-1.22.55-1.22,1.22s.55,1.22,1.22,1.22,1.22-.55,1.22-1.22-.55-1.22-1.22-1.22Z" fill="#2c3b5e"/><path d="M237,267.33c-.68,0-1.22.55-1.22,1.22s.55,1.22,1.22,1.22,1.22-.55,1.22-1.22-.55-1.22-1.22-1.22Z" fill="#2c3b5e"/><path d="M231.34,180.75c-.68,0-1.22.55-1.22,1.22s.55,1.22,1.22,1.22,1.22-.55,1.22-1.22-.55-1.22-1.22-1.22Z" fill="#2c3b5e"/><path d="M231.34,186.94c-.68,0-1.22.55-1.22,1.22s.55,1.22,1.22,1.22,1.22-.55,1.22-1.22-.55-1.22-1.22-1.22Z" fill="#2c3b5e"/><path d="M231.34,193.12c-.68,0-1.22.55-1.22,1.22s.55,1.22,1.22,1.22,1.22-.55,1.22-1.22-.55-1.22-1.22-1.22Z" fill="#2c3b5e"/><path d="M231.34,199.3c-.68,0-1.22.55-1.22,1.22s.55,1.22,1.22,1.22,1.22-.55,1.22-1.22-.55-1.22-1.22-1.22Z" fill="#2c3b5e"/><path d="M231.34,205.49c-.68,0-1.22.55-1.22,1.22s.55,1.22,1.22,1.22,1.22-.55,1.22-1.22-.55-1.22-1.22-1.22Z" fill="#2c3b5e"/><path d="M231.34,211.67c-.68,0-1.22.55-1.22,1.22s.55,1.22,1.22,1.22,1.22-.55,1.22-1.22-.55-1.22-1.22-1.22Z" fill="#2c3b5e"/><path d="M231.34,217.85c-.68,0-1.22.55-1.22,1.22s.55,1.22,1.22,1.22,1.22-.55,1.22-1.22-.55-1.22-1.22-1.22Z" fill="#2c3b5e"/><path d="M231.34,224.04c-.68,0-1.22.55-1.22,1.22s.55,1.22,1.22,1.22,1.22-.55,1.22-1.22-.55-1.22-1.22-1.22Z" fill="#2c3b5e"/><path d="M231.34,230.22c-.68,0-1.22.55-1.22,1.22s.55,1.22,1.22,1.22,1.22-.55,1.22-1.22-.55-1.22-1.22-1.22Z" fill="#2c3b5e"/><path d="M231.34,236.41c-.68,0-1.22.55-1.22,1.22s.55,1.22,1.22,1.22,1.22-.55,1.22-1.22-.55-1.22-1.22-1.22Z" fill="#2c3b5e"/><path d="M231.34,242.59c-.68,0-1.22.55-1.22,1.22s.55,1.22,1.22,1.22,1.22-.55,1.22-1.22-.55-1.22-1.22-1.22Z" fill="#2c3b5e"/><path d="M231.34,248.77c-.68,0-1.22.55-1.22,1.22s.55,1.22,1.22,1.22,1.22-.55,1.22-1.22-.55-1.22-1.22-1.22Z" fill="#2c3b5e"/><path d="M231.34,254.96c-.68,0-1.22.55-1.22,1.22s.55,1.22,1.22,1.22,1.22-.55,1.22-1.22-.55-1.22-1.22-1.22Z" fill="#2c3b5e"/><path d="M231.34,261.14c-.68,0-1.22.55-1.22,1.22s.55,1.22,1.22,1.22,1.22-.55,1.22-1.22-.55-1.22-1.22-1.22Z" fill="#2c3b5e"/><path d="M231.34,267.33c-.68,0-1.22.55-1.22,1.22s.55,1.22,1.22,1.22,1.22-.55,1.22-1.22-.55-1.22-1.22-1.22Z" fill="#2c3b5e"/><path d="M225.68,180.75c-.68,0-1.22.55-1.22,1.22s.55,1.22,1.22,1.22,1.22-.55,1.22-1.22-.55-1.22-1.22-1.22Z" fill="#2c3b5e"/><path d="M225.68,186.94c-.68,0-1.22.55-1.22,1.22s.55,1.22,1.22,1.22,1.22-.55,1.22-1.22-.55-1.22-1.22-1.22Z" fill="#2c3b5e"/><path d="M225.68,193.12c-.68,0-1.22.55-1.22,1.22s.55,1.22,1.22,1.22,1.22-.55,1.22-1.22-.55-1.22-1.22-1.22Z" fill="#2c3b5e"/><path d="M225.68,199.3c-.68,0-1.22.55-1.22,1.22s.55,1.22,1.22,1.22,1.22-.55,1.22-1.22-.55-1.22-1.22-1.22Z" fill="#2c3b5e"/><path d="M225.68,205.49c-.68,0-1.22.55-1.22,1.22s.55,1.22,1.22,1.22,1.22-.55,1.22-1.22-.55-1.22-1.22-1.22Z" fill="#2c3b5e"/><path d="M225.68,211.67c-.68,0-1.22.55-1.22,1.22s.55,1.22,1.22,1.22,1.22-.55,1.22-1.22-.55-1.22-1.22-1.22Z" fill="#2c3b5e"/><path d="M225.68,217.85c-.68,0-1.22.55-1.22,1.22s.55,1.22,1.22,1.22,1.22-.55,1.22-1.22-.55-1.22-1.22-1.22Z" fill="#2c3b5e"/><path d="M225.68,224.04c-.68,0-1.22.55-1.22,1.22s.55,1.22,1.22,1.22,1.22-.55,1.22-1.22-.55-1.22-1.22-1.22Z" fill="#2c3b5e"/><path d="M225.68,230.22c-.68,0-1.22.55-1.22,1.22s.55,1.22,1.22,1.22,1.22-.55,1.22-1.22-.55-1.22-1.22-1.22Z" fill="#2c3b5e"/><path d="M225.68,236.41c-.68,0-1.22.55-1.22,1.22s.55,1.22,1.22,1.22,1.22-.55,1.22-1.22-.55-1.22-1.22-1.22Z" fill="#2c3b5e"/><path d="M225.68,242.59c-.68,0-1.22.55-1.22,1.22s.55,1.22,1.22,1.22,1.22-.55,1.22-1.22-.55-1.22-1.22-1.22Z" fill="#2c3b5e"/><path d="M225.68,248.77c-.68,0-1.22.55-1.22,1.22s.55,1.22,1.22,1.22,1.22-.55,1.22-1.22-.55-1.22-1.22-1.22Z" fill="#2c3b5e"/><path d="M225.68,254.96c-.68,0-1.22.55-1.22,1.22s.55,1.22,1.22,1.22,1.22-.55,1.22-1.22-.55-1.22-1.22-1.22Z" fill="#2c3b5e"/><path d="M225.68,261.14c-.68,0-1.22.55-1.22,1.22s.55,1.22,1.22,1.22,1.22-.55,1.22-1.22-.55-1.22-1.22-1.22Z" fill="#2c3b5e"/><path d="M225.68,267.33c-.68,0-1.22.55-1.22,1.22s.55,1.22,1.22,1.22,1.22-.55,1.22-1.22-.55-1.22-1.22-1.22Z" fill="#2c3b5e"/><path d="M220.02,180.75c-.68,0-1.22.55-1.22,1.22s.55,1.22,1.22,1.22,1.22-.55,1.22-1.22-.55-1.22-1.22-1.22Z" fill="#2c3b5e"/><path d="M220.02,186.94c-.68,0-1.22.55-1.22,1.22s.55,1.22,1.22,1.22,1.22-.55,1.22-1.22-.55-1.22-1.22-1.22Z" fill="#2c3b5e"/><path d="M220.02,193.12c-.68,0-1.22.55-1.22,1.22s.55,1.22,1.22,1.22,1.22-.55,1.22-1.22-.55-1.22-1.22-1.22Z" fill="#2c3b5e"/><path d="M220.02,199.3c-.68,0-1.22.55-1.22,1.22s.55,1.22,1.22,1.22,1.22-.55,1.22-1.22-.55-1.22-1.22-1.22Z" fill="#2c3b5e"/><path d="M220.02,205.49c-.68,0-1.22.55-1.22,1.22s.55,1.22,1.22,1.22,1.22-.55,1.22-1.22-.55-1.22-1.22-1.22Z" fill="#2c3b5e"/><path d="M220.02,211.67c-.68,0-1.22.55-1.22,1.22s.55,1.22,1.22,1.22,1.22-.55,1.22-1.22-.55-1.22-1.22-1.22Z" fill="#2c3b5e"/><path d="M220.02,217.85c-.68,0-1.22.55-1.22,1.22s.55,1.22,1.22,1.22,1.22-.55,1.22-1.22-.55-1.22-1.22-1.22Z" fill="#2c3b5e"/><path d="M220.02,224.04c-.68,0-1.22.55-1.22,1.22s.55,1.22,1.22,1.22,1.22-.55,1.22-1.22-.55-1.22-1.22-1.22Z" fill="#2c3b5e"/><path d="M220.02,230.22c-.68,0-1.22.35-1.22.79s.55.79,1.22.79,1.22-.35,1.22-.79-.55-.79-1.22-.79Z" fill="#2c3b5e"/><path d="M220.02,236.41c-.68,0-1.22.55-1.22,1.22s.55,1.22,1.22,1.22,1.22-.55,1.22-1.22-.55-1.22-1.22-1.22Z" fill="#2c3b5e"/><path d="M220.02,242.59c-.68,0-1.22.55-1.22,1.22s.55,1.22,1.22,1.22,1.22-.55,1.22-1.22-.55-1.22-1.22-1.22Z" fill="#2c3b5e"/><path d="M220.02,248.77c-.68,0-1.22.55-1.22,1.22s.55,1.22,1.22,1.22,1.22-.55,1.22-1.22-.55-1.22-1.22-1.22Z" fill="#2c3b5e"/><path d="M220.02,254.96c-.68,0-1.22.55-1.22,1.22s.55,1.22,1.22,1.22,1.22-.55,1.22-1.22-.55-1.22-1.22-1.22Z" fill="#2c3b5e"/><path d="M220.02,261.14c-.68,0-1.22.55-1.22,1.22s.55,1.22,1.22,1.22,1.22-.55,1.22-1.22-.55-1.22-1.22-1.22Z" fill="#2c3b5e"/><path d="M220.02,267.33c-.68,0-1.22.55-1.22,1.22s.55,1.22,1.22,1.22,1.22-.55,1.22-1.22-.55-1.22-1.22-1.22Z" fill="#2c3b5e"/><path d="M214.35,180.75c-.68,0-1.22.55-1.22,1.22s.55,1.22,1.22,1.22,1.22-.55,1.22-1.22-.55-1.22-1.22-1.22Z" fill="#2c3b5e"/><path d="M214.35,186.94c-.68,0-1.22.55-1.22,1.22s.55,1.22,1.22,1.22,1.22-.55,1.22-1.22-.55-1.22-1.22-1.22Z" fill="#2c3b5e"/><path d="M214.35,193.12c-.68,0-1.22.55-1.22,1.22s.55,1.22,1.22,1.22,1.22-.55,1.22-1.22-.55-1.22-1.22-1.22Z" fill="#2c3b5e"/><path d="M214.35,199.3c-.68,0-1.22.55-1.22,1.22s.55,1.22,1.22,1.22,1.22-.55,1.22-1.22-.55-1.22-1.22-1.22Z" fill="#2c3b5e"/><path d="M214.35,205.49c-.68,0-1.22.55-1.22,1.22s.55,1.22,1.22,1.22,1.22-.55,1.22-1.22-.55-1.22-1.22-1.22Z" fill="#2c3b5e"/><path d="M214.35,211.67c-.68,0-1.22.55-1.22,1.22s.55,1.22,1.22,1.22,1.22-.55,1.22-1.22-.55-1.22-1.22-1.22Z" fill="#2c3b5e"/><path d="M214.35,217.85c-.68,0-1.22.55-1.22,1.22s.55,1.22,1.22,1.22,1.22-.55,1.22-1.22-.55-1.22-1.22-1.22Z" fill="#2c3b5e"/><path d="M214.35,224.04c-.68,0-1.22.55-1.22,1.22s.55,1.22,1.22,1.22,1.22-.55,1.22-1.22-.55-1.22-1.22-1.22Z" fill="#2c3b5e"/><path d="M214.35,230.22c-.68,0-1.22.55-1.22,1.22s.55,1.22,1.22,1.22,1.22-.55,1.22-1.22-.55-1.22-1.22-1.22Z" fill="#2c3b5e"/><path d="M214.35,236.41c-.68,0-1.22.55-1.22,1.22s.55,1.22,1.22,1.22,1.22-.55,1.22-1.22-.55-1.22-1.22-1.22Z" fill="#2c3b5e"/><path d="M214.35,242.59c-.68,0-1.22.55-1.22,1.22s.55,1.22,1.22,1.22,1.22-.55,1.22-1.22-.55-1.22-1.22-1.22Z" fill="#2c3b5e"/><path d="M214.35,248.77c-.68,0-1.22.55-1.22,1.22s.55,1.22,1.22,1.22,1.22-.55,1.22-1.22-.55-1.22-1.22-1.22Z" fill="#2c3b5e"/><path d="M214.35,254.96c-.68,0-1.22.55-1.22,1.22s.55,1.22,1.22,1.22,1.22-.55,1.22-1.22-.55-1.22-1.22-1.22Z" fill="#2c3b5e"/><path d="M214.35,261.14c-.68,0-1.22.55-1.22,1.22s.55,1.22,1.22,1.22,1.22-.55,1.22-1.22-.55-1.22-1.22-1.22Z" fill="#2c3b5e"/><path d="M214.35,267.33c-.68,0-1.22.55-1.22,1.22s.55,1.22,1.22,1.22,1.22-.55,1.22-1.22-.55-1.22-1.22-1.22Z" fill="#2c3b5e"/><path d="M208.69,174.57c-.68,0-1.22.55-1.22,1.22s.55,1.22,1.22,1.22,1.22-.55,1.22-1.22-.55-1.22-1.22-1.22Z" fill="#2c3b5e"/><path d="M208.69,180.75c-.68,0-1.22.55-1.22,1.22s.55,1.22,1.22,1.22,1.22-.55,1.22-1.22-.55-1.22-1.22-1.22Z" fill="#2c3b5e"/><path d="M208.69,186.94c-.68,0-1.22.55-1.22,1.22s.55,1.22,1.22,1.22,1.22-.55,1.22-1.22-.55-1.22-1.22-1.22Z" fill="#2c3b5e"/><path d="M208.69,193.12c-.68,0-1.22.55-1.22,1.22s.55,1.22,1.22,1.22,1.22-.55,1.22-1.22-.55-1.22-1.22-1.22Z" fill="#2c3b5e"/><path d="M208.69,199.3c-.68,0-1.22.55-1.22,1.22s.55,1.22,1.22,1.22,1.22-.55,1.22-1.22-.55-1.22-1.22-1.22Z" fill="#2c3b5e"/><path d="M208.69,205.49c-.68,0-1.22.55-1.22,1.22s.55,1.22,1.22,1.22,1.22-.55,1.22-1.22-.55-1.22-1.22-1.22Z" fill="#2c3b5e"/><path d="M208.69,211.67c-.68,0-1.22.55-1.22,1.22s.55,1.22,1.22,1.22,1.22-.55,1.22-1.22-.55-1.22-1.22-1.22Z" fill="#2c3b5e"/><path d="M208.69,217.85c-.68,0-1.22.55-1.22,1.22s.55,1.22,1.22,1.22,1.22-.55,1.22-1.22-.55-1.22-1.22-1.22Z" fill="#2c3b5e"/><path d="M208.69,224.04c-.68,0-1.22.55-1.22,1.22s.55,1.22,1.22,1.22,1.22-.55,1.22-1.22-.55-1.22-1.22-1.22Z" fill="#2c3b5e"/><path d="M208.69,230.22c-.68,0-1.22.55-1.22,1.22s.55,1.22,1.22,1.22,1.22-.55,1.22-1.22-.55-1.22-1.22-1.22Z" fill="#2c3b5e"/><path d="M208.69,236.41c-.68,0-1.22.55-1.22,1.22s.55,1.22,1.22,1.22,1.22-.55,1.22-1.22-.55-1.22-1.22-1.22Z" fill="#2c3b5e"/><path d="M208.69,242.59c-.68,0-1.22.55-1.22,1.22s.55,1.22,1.22,1.22,1.22-.55,1.22-1.22-.55-1.22-1.22-1.22Z" fill="#2c3b5e"/><path d="M208.69,248.77c-.68,0-1.22.55-1.22,1.22s.55,1.22,1.22,1.22,1.22-.55,1.22-1.22-.55-1.22-1.22-1.22Z" fill="#2c3b5e"/><path d="M208.69,254.96c-.68,0-1.22.55-1.22,1.22s.55,1.22,1.22,1.22,1.22-.55,1.22-1.22-.55-1.22-1.22-1.22Z" fill="#2c3b5e"/><path d="M208.69,261.14c-.68,0-1.22.55-1.22,1.22s.55,1.22,1.22,1.22,1.22-.55,1.22-1.22-.55-1.22-1.22-1.22Z" fill="#2c3b5e"/><path d="M208.69,267.33c-.68,0-1.22.55-1.22,1.22s.55,1.22,1.22,1.22,1.22-.55,1.22-1.22-.55-1.22-1.22-1.22Z" fill="#2c3b5e"/><path d="M203.03,168.38c-.68,0-1.22.55-1.22,1.22s.55,1.22,1.22,1.22,1.22-.55,1.22-1.22-.55-1.22-1.22-1.22Z" fill="#2c3b5e"/><path d="M203.03,174.57c-.68,0-1.22.55-1.22,1.22s.55,1.22,1.22,1.22,1.22-.55,1.22-1.22-.55-1.22-1.22-1.22Z" fill="#2c3b5e"/><path d="M203.03,180.75c-.68,0-1.22.55-1.22,1.22s.55,1.22,1.22,1.22,1.22-.55,1.22-1.22-.55-1.22-1.22-1.22Z" fill="#2c3b5e"/><path d="M203.03,186.94c-.68,0-1.22.55-1.22,1.22s.55,1.22,1.22,1.22,1.22-.55,1.22-1.22-.55-1.22-1.22-1.22Z" fill="#2c3b5e"/><path d="M203.03,193.12c-.68,0-1.22.55-1.22,1.22s.55,1.22,1.22,1.22,1.22-.55,1.22-1.22-.55-1.22-1.22-1.22Z" fill="#2c3b5e"/><path d="M203.03,199.3c-.68,0-1.22.55-1.22,1.22s.55,1.22,1.22,1.22,1.22-.55,1.22-1.22-.55-1.22-1.22-1.22Z" fill="#2c3b5e"/><path d="M203.03,205.49c-.68,0-1.22.55-1.22,1.22s.55,1.22,1.22,1.22,1.22-.55,1.22-1.22-.55-1.22-1.22-1.22Z" fill="#2c3b5e"/><path d="M203.03,211.67c-.68,0-1.22.55-1.22,1.22s.55,1.22,1.22,1.22,1.22-.55,1.22-1.22-.55-1.22-1.22-1.22Z" fill="#2c3b5e"/><path d="M203.03,217.85c-.68,0-1.22.55-1.22,1.22s.55,1.22,1.22,1.22,1.22-.55,1.22-1.22-.55-1.22-1.22-1.22Z" fill="#2c3b5e"/><path d="M203.03,224.04c-.68,0-1.22.55-1.22,1.22s.55,1.22,1.22,1.22,1.22-.55,1.22-1.22-.55-1.22-1.22-1.22Z" fill="#2c3b5e"/><path d="M203.03,230.22c-.68,0-1.22.55-1.22,1.22s.55,1.22,1.22,1.22,1.22-.55,1.22-1.22-.55-1.22-1.22-1.22Z" fill="#2c3b5e"/><path d="M203.03,236.41c-.68,0-1.22.55-1.22,1.22s.55,1.22,1.22,1.22,1.22-.55,1.22-1.22-.55-1.22-1.22-1.22Z" fill="#2c3b5e"/><path d="M203.03,242.59c-.68,0-1.22.55-1.22,1.22s.55,1.22,1.22,1.22,1.22-.55,1.22-1.22-.55-1.22-1.22-1.22Z" fill="#2c3b5e"/><path d="M203.03,248.77c-.68,0-1.22.55-1.22,1.22s.55,1.22,1.22,1.22,1.22-.55,1.22-1.22-.55-1.22-1.22-1.22Z" fill="#2c3b5e"/><path d="M203.03,254.96c-.68,0-1.22.55-1.22,1.22s.55,1.22,1.22,1.22,1.22-.55,1.22-1.22-.55-1.22-1.22-1.22Z" fill="#2c3b5e"/><path d="M203.03,261.14c-.68,0-1.22.55-1.22,1.22s.55,1.22,1.22,1.22,1.22-.55,1.22-1.22-.55-1.22-1.22-1.22Z" fill="#2c3b5e"/><path d="M203.03,267.33c-.68,0-1.22.55-1.22,1.22s.55,1.22,1.22,1.22,1.22-.55,1.22-1.22-.55-1.22-1.22-1.22Z" fill="#2c3b5e"/><path d="M197.37,168.38c-.68,0-1.22.55-1.22,1.22s.55,1.22,1.22,1.22,1.22-.55,1.22-1.22-.55-1.22-1.22-1.22Z" fill="#2c3b5e"/><path d="M197.37,174.57c-.68,0-1.22.55-1.22,1.22s.55,1.22,1.22,1.22,1.22-.55,1.22-1.22-.55-1.22-1.22-1.22Z" fill="#2c3b5e"/><path d="M197.37,180.75c-.68,0-1.22.55-1.22,1.22s.55,1.22,1.22,1.22,1.22-.55,1.22-1.22-.55-1.22-1.22-1.22Z" fill="#2c3b5e"/><path d="M197.37,199.3c-.68,0-1.22.55-1.22,1.22s.55,1.22,1.22,1.22,1.22-.55,1.22-1.22-.55-1.22-1.22-1.22Z" fill="#2c3b5e"/><path d="M197.37,205.49c-.68,0-1.22.55-1.22,1.22s.55,1.22,1.22,1.22,1.22-.55,1.22-1.22-.55-1.22-1.22-1.22Z" fill="#2c3b5e"/><path d="M197.37,211.67c-.68,0-1.22.55-1.22,1.22s.55,1.22,1.22,1.22,1.22-.55,1.22-1.22-.55-1.22-1.22-1.22Z" fill="#2c3b5e"/><path d="M197.37,254.96c-.68,0-1.22.55-1.22,1.22s.55,1.22,1.22,1.22,1.22-.55,1.22-1.22-.55-1.22-1.22-1.22Z" fill="#2c3b5e"/><path d="M197.37,261.14c-.68,0-1.22.55-1.22,1.22s.55,1.22,1.22,1.22,1.22-.55,1.22-1.22-.55-1.22-1.22-1.22Z" fill="#2c3b5e"/><path d="M197.37,267.33c-.68,0-1.22.55-1.22,1.22s.55,1.22,1.22,1.22,1.22-.55,1.22-1.22-.55-1.22-1.22-1.22Z" fill="#2c3b5e"/><path d="M265.32,273.51c-.68,0-1.22.55-1.22,1.22s.55,1.22,1.22,1.22,1.22-.55,1.22-1.22-.55-1.22-1.22-1.22Z" fill="#2c3b5e"/><path d="M265.32,279.69c-.68,0-1.22.55-1.22,1.22s.55,1.22,1.22,1.22,1.22-.55,1.22-1.22-.55-1.22-1.22-1.22Z" fill="#2c3b5e"/><path d="M265.32,285.88c-.68,0-1.22.55-1.22,1.22s.55,1.22,1.22,1.22,1.22-.55,1.22-1.22-.55-1.22-1.22-1.22Z" fill="#2c3b5e"/><path d="M265.32,292.06c-.68,0-1.22.55-1.22,1.22s.55,1.22,1.22,1.22,1.22-.55,1.22-1.22-.55-1.22-1.22-1.22Z" fill="#2c3b5e"/><path d="M265.32,298.24c-.68,0-1.22.55-1.22,1.22s.55,1.22,1.22,1.22,1.22-.55,1.22-1.22-.55-1.22-1.22-1.22Z" fill="#2c3b5e"/><path d="M265.32,304.43c-.68,0-1.22.55-1.22,1.22s.55,1.22,1.22,1.22,1.22-.55,1.22-1.22-.55-1.22-1.22-1.22Z" fill="#2c3b5e"/><path d="M265.32,310.61c-.68,0-1.22.55-1.22,1.22s.55,1.22,1.22,1.22,1.22-.55,1.22-1.22-.55-1.22-1.22-1.22Z" fill="#2c3b5e"/><path d="M259.65,273.51c-.68,0-1.22.55-1.22,1.22s.55,1.22,1.22,1.22,1.22-.55,1.22-1.22-.55-1.22-1.22-1.22Z" fill="#2c3b5e"/><path d="M259.65,279.69c-.68,0-1.22.55-1.22,1.22s.55,1.22,1.22,1.22,1.22-.55,1.22-1.22-.55-1.22-1.22-1.22Z" fill="#2c3b5e"/><path d="M259.65,285.88c-.68,0-1.22.55-1.22,1.22s.55,1.22,1.22,1.22,1.22-.55,1.22-1.22-.55-1.22-1.22-1.22Z" fill="#2c3b5e"/><path d="M259.65,292.06c-.68,0-1.22.55-1.22,1.22s.55,1.22,1.22,1.22,1.22-.55,1.22-1.22-.55-1.22-1.22-1.22Z" fill="#2c3b5e"/><path d="M259.65,298.24c-.68,0-1.22.55-1.22,1.22s.55,1.22,1.22,1.22,1.22-.55,1.22-1.22-.55-1.22-1.22-1.22Z" fill="#2c3b5e"/><path d="M259.65,304.43c-.68,0-1.22.55-1.22,1.22s.55,1.22,1.22,1.22,1.22-.55,1.22-1.22-.55-1.22-1.22-1.22Z" fill="#2c3b5e"/><path d="M259.65,310.61c-.68,0-1.22.55-1.22,1.22s.55,1.22,1.22,1.22,1.22-.55,1.22-1.22-.55-1.22-1.22-1.22Z" fill="#2c3b5e"/><path d="M253.99,273.51c-.68,0-1.22.55-1.22,1.22s.55,1.22,1.22,1.22,1.22-.55,1.22-1.22-.55-1.22-1.22-1.22Z" fill="#2c3b5e"/><path d="M253.99,279.69c-.68,0-1.22.55-1.22,1.22s.55,1.22,1.22,1.22,1.22-.55,1.22-1.22-.55-1.22-1.22-1.22Z" fill="#2c3b5e"/><path d="M253.99,285.88c-.68,0-1.22.55-1.22,1.22s.55,1.22,1.22,1.22,1.22-.55,1.22-1.22-.55-1.22-1.22-1.22Z" fill="#2c3b5e"/><path d="M253.99,292.06c-.68,0-1.22.55-1.22,1.22s.55,1.22,1.22,1.22,1.22-.55,1.22-1.22-.55-1.22-1.22-1.22Z" fill="#2c3b5e"/><path d="M253.99,298.24c-.68,0-1.22.55-1.22,1.22s.55,1.22,1.22,1.22,1.22-.55,1.22-1.22-.55-1.22-1.22-1.22Z" fill="#2c3b5e"/><path d="M253.99,304.43c-.68,0-1.22.55-1.22,1.22s.55,1.22,1.22,1.22,1.22-.55,1.22-1.22-.55-1.22-1.22-1.22Z" fill="#2c3b5e"/><path d="M253.99,310.61c-.68,0-1.22.55-1.22,1.22s.55,1.22,1.22,1.22,1.22-.55,1.22-1.22-.55-1.22-1.22-1.22Z" fill="#2c3b5e"/><path d="M248.33,273.51c-.68,0-1.22.55-1.22,1.22s.55,1.22,1.22,1.22,1.22-.55,1.22-1.22-.55-1.22-1.22-1.22Z" fill="#2c3b5e"/><path d="M248.33,279.69c-.68,0-1.22.55-1.22,1.22s.55,1.22,1.22,1.22,1.22-.55,1.22-1.22-.55-1.22-1.22-1.22Z" fill="#2c3b5e"/><path d="M248.33,285.88c-.68,0-1.22.55-1.22,1.22s.55,1.22,1.22,1.22,1.22-.55,1.22-1.22-.55-1.22-1.22-1.22Z" fill="#2c3b5e"/><path d="M248.33,292.06c-.68,0-1.22.55-1.22,1.22s.55,1.22,1.22,1.22,1.22-.55,1.22-1.22-.55-1.22-1.22-1.22Z" fill="#2c3b5e"/><path d="M248.33,298.24c-.68,0-1.22.55-1.22,1.22s.55,1.22,1.22,1.22,1.22-.55,1.22-1.22-.55-1.22-1.22-1.22Z" fill="#2c3b5e"/><path d="M248.33,304.43c-.68,0-1.22.55-1.22,1.22s.55,1.22,1.22,1.22,1.22-.55,1.22-1.22-.55-1.22-1.22-1.22Z" fill="#2c3b5e"/><path d="M248.33,310.61c-.68,0-1.22.55-1.22,1.22s.55,1.22,1.22,1.22,1.22-.55,1.22-1.22-.55-1.22-1.22-1.22Z" fill="#2c3b5e"/><path d="M242.67,273.51c-.68,0-1.22.55-1.22,1.22s.55,1.22,1.22,1.22,1.22-.55,1.22-1.22-.55-1.22-1.22-1.22Z" fill="#2c3b5e"/><path d="M242.67,279.69c-.68,0-1.22.55-1.22,1.22s.55,1.22,1.22,1.22,1.22-.55,1.22-1.22-.55-1.22-1.22-1.22Z" fill="#2c3b5e"/><path d="M242.67,285.88c-.68,0-1.22.55-1.22,1.22s.55,1.22,1.22,1.22,1.22-.55,1.22-1.22-.55-1.22-1.22-1.22Z" fill="#2c3b5e"/><path d="M242.67,292.06c-.68,0-1.22.55-1.22,1.22s.55,1.22,1.22,1.22,1.22-.55,1.22-1.22-.55-1.22-1.22-1.22Z" fill="#2c3b5e"/><path d="M242.67,298.24c-.68,0-1.22.55-1.22,1.22s.55,1.22,1.22,1.22,1.22-.55,1.22-1.22-.55-1.22-1.22-1.22Z" fill="#2c3b5e"/><path d="M242.67,304.43c-.68,0-1.22.55-1.22,1.22s.55,1.22,1.22,1.22,1.22-.55,1.22-1.22-.55-1.22-1.22-1.22Z" fill="#2c3b5e"/><path d="M242.67,310.61c-.68,0-1.22.55-1.22,1.22s.55,1.22,1.22,1.22,1.22-.55,1.22-1.22-.55-1.22-1.22-1.22Z" fill="#2c3b5e"/><path d="M237,273.51c-.68,0-1.22.55-1.22,1.22s.55,1.22,1.22,1.22,1.22-.55,1.22-1.22-.55-1.22-1.22-1.22Z" fill="#2c3b5e"/><path d="M237,279.69c-.68,0-1.22.55-1.22,1.22s.55,1.22,1.22,1.22,1.22-.55,1.22-1.22-.55-1.22-1.22-1.22Z" fill="#2c3b5e"/><path d="M237,285.88c-.68,0-1.22.55-1.22,1.22s.55,1.22,1.22,1.22,1.22-.55,1.22-1.22-.55-1.22-1.22-1.22Z" fill="#2c3b5e"/><path d="M237,292.06c-.68,0-1.22.55-1.22,1.22s.55,1.22,1.22,1.22,1.22-.55,1.22-1.22-.55-1.22-1.22-1.22Z" fill="#2c3b5e"/><path d="M237,298.24c-.68,0-1.22.55-1.22,1.22s.55,1.22,1.22,1.22,1.22-.55,1.22-1.22-.55-1.22-1.22-1.22Z" fill="#2c3b5e"/><path d="M237,304.43c-.68,0-1.22.55-1.22,1.22s.55,1.22,1.22,1.22,1.22-.55,1.22-1.22-.55-1.22-1.22-1.22Z" fill="#2c3b5e"/><path d="M237,310.61c-.68,0-1.22.55-1.22,1.22s.55,1.22,1.22,1.22,1.22-.55,1.22-1.22-.55-1.22-1.22-1.22Z" fill="#2c3b5e"/><path d="M231.34,273.51c-.68,0-1.22.55-1.22,1.22s.55,1.22,1.22,1.22,1.22-.55,1.22-1.22-.55-1.22-1.22-1.22Z" fill="#2c3b5e"/><path d="M231.34,279.69c-.68,0-1.22.55-1.22,1.22s.55,1.22,1.22,1.22,1.22-.55,1.22-1.22-.55-1.22-1.22-1.22Z" fill="#2c3b5e"/><path d="M231.34,285.88c-.68,0-1.22.55-1.22,1.22s.55,1.22,1.22,1.22,1.22-.55,1.22-1.22-.55-1.22-1.22-1.22Z" fill="#2c3b5e"/><path d="M231.34,292.06c-.68,0-1.22.55-1.22,1.22s.55,1.22,1.22,1.22,1.22-.55,1.22-1.22-.55-1.22-1.22-1.22Z" fill="#2c3b5e"/><path d="M231.34,298.24c-.68,0-1.22.55-1.22,1.22s.55,1.22,1.22,1.22,1.22-.55,1.22-1.22-.55-1.22-1.22-1.22Z" fill="#2c3b5e"/><path d="M231.34,304.43c-.68,0-1.22.55-1.22,1.22s.55,1.22,1.22,1.22,1.22-.55,1.22-1.22-.55-1.22-1.22-1.22Z" fill="#2c3b5e"/><path d="M231.34,310.61c-.68,0-1.22.55-1.22,1.22s.55,1.22,1.22,1.22,1.22-.55,1.22-1.22-.55-1.22-1.22-1.22Z" fill="#2c3b5e"/><path d="M225.68,273.51c-.68,0-1.22.55-1.22,1.22s.55,1.22,1.22,1.22,1.22-.55,1.22-1.22-.55-1.22-1.22-1.22Z" fill="#2c3b5e"/><path d="M225.68,279.69c-.68,0-1.22.55-1.22,1.22s.55,1.22,1.22,1.22,1.22-.55,1.22-1.22-.55-1.22-1.22-1.22Z" fill="#2c3b5e"/><path d="M225.68,285.88c-.68,0-1.22.55-1.22,1.22s.55,1.22,1.22,1.22,1.22-.55,1.22-1.22-.55-1.22-1.22-1.22Z" fill="#2c3b5e"/><path d="M225.68,292.06c-.68,0-1.22.55-1.22,1.22s.55,1.22,1.22,1.22,1.22-.55,1.22-1.22-.55-1.22-1.22-1.22Z" fill="#2c3b5e"/><path d="M225.68,298.24c-.68,0-1.22.55-1.22,1.22s.55,1.22,1.22,1.22,1.22-.55,1.22-1.22-.55-1.22-1.22-1.22Z" fill="#2c3b5e"/><path d="M225.68,304.43c-.68,0-1.22.55-1.22,1.22s.55,1.22,1.22,1.22,1.22-.55,1.22-1.22-.55-1.22-1.22-1.22Z" fill="#2c3b5e"/><path d="M225.68,310.61c-.68,0-1.22.55-1.22,1.22s.55,1.22,1.22,1.22,1.22-.55,1.22-1.22-.55-1.22-1.22-1.22Z" fill="#2c3b5e"/><path d="M220.02,273.51c-.68,0-1.22.55-1.22,1.22s.55,1.22,1.22,1.22,1.22-.55,1.22-1.22-.55-1.22-1.22-1.22Z" fill="#2c3b5e"/><path d="M220.02,279.69c-.68,0-1.22.55-1.22,1.22s.55,1.22,1.22,1.22,1.22-.55,1.22-1.22-.55-1.22-1.22-1.22Z" fill="#2c3b5e"/><path d="M220.02,285.88c-.68,0-1.22.55-1.22,1.22s.55,1.22,1.22,1.22,1.22-.55,1.22-1.22-.55-1.22-1.22-1.22Z" fill="#2c3b5e"/><path d="M220.02,292.06c-.68,0-1.22.55-1.22,1.22s.55,1.22,1.22,1.22,1.22-.55,1.22-1.22-.55-1.22-1.22-1.22Z" fill="#2c3b5e"/><path d="M220.02,298.24c-.68,0-1.22.55-1.22,1.22s.55,1.22,1.22,1.22,1.22-.55,1.22-1.22-.55-1.22-1.22-1.22Z" fill="#2c3b5e"/><path d="M220.02,304.43c-.68,0-1.22.55-1.22,1.22s.55,1.22,1.22,1.22,1.22-.55,1.22-1.22-.55-1.22-1.22-1.22Z" fill="#2c3b5e"/><path d="M220.02,310.61c-.68,0-1.22.55-1.22,1.22s.55,1.22,1.22,1.22,1.22-.55,1.22-1.22-.55-1.22-1.22-1.22Z" fill="#2c3b5e"/><path d="M214.35,273.51c-.68,0-1.22.55-1.22,1.22s.55,1.22,1.22,1.22,1.22-.55,1.22-1.22-.55-1.22-1.22-1.22Z" fill="#2c3b5e"/><path d="M214.35,279.69c-.68,0-1.22.55-1.22,1.22s.55,1.22,1.22,1.22,1.22-.55,1.22-1.22-.55-1.22-1.22-1.22Z" fill="#2c3b5e"/><path d="M214.35,285.88c-.68,0-1.22.55-1.22,1.22s.55,1.22,1.22,1.22,1.22-.55,1.22-1.22-.55-1.22-1.22-1.22Z" fill="#2c3b5e"/><path d="M214.35,292.06c-.68,0-1.22.55-1.22,1.22s.55,1.22,1.22,1.22,1.22-.55,1.22-1.22-.55-1.22-1.22-1.22Z" fill="#2c3b5e"/><path d="M214.35,298.24c-.68,0-1.22.55-1.22,1.22s.55,1.22,1.22,1.22,1.22-.55,1.22-1.22-.55-1.22-1.22-1.22Z" fill="#2c3b5e"/><path d="M214.35,304.43c-.68,0-1.22.55-1.22,1.22s.55,1.22,1.22,1.22,1.22-.55,1.22-1.22-.55-1.22-1.22-1.22Z" fill="#2c3b5e"/><path d="M214.35,310.61c-.68,0-1.22.55-1.22,1.22s.55,1.22,1.22,1.22,1.22-.55,1.22-1.22-.55-1.22-1.22-1.22Z" fill="#2c3b5e"/><path d="M208.69,273.51c-.68,0-1.22.55-1.22,1.22s.55,1.22,1.22,1.22,1.22-.55,1.22-1.22-.55-1.22-1.22-1.22Z" fill="#2c3b5e"/><path d="M208.69,279.69c-.68,0-1.22.55-1.22,1.22s.55,1.22,1.22,1.22,1.22-.55,1.22-1.22-.55-1.22-1.22-1.22Z" fill="#2c3b5e"/><path d="M208.69,285.88c-.68,0-1.22.55-1.22,1.22s.55,1.22,1.22,1.22,1.22-.55,1.22-1.22-.55-1.22-1.22-1.22Z" fill="#2c3b5e"/><path d="M208.69,292.06c-.68,0-1.22.55-1.22,1.22s.55,1.22,1.22,1.22,1.22-.55,1.22-1.22-.55-1.22-1.22-1.22Z" fill="#2c3b5e"/><path d="M208.69,298.24c-.68,0-1.22.55-1.22,1.22s.55,1.22,1.22,1.22,1.22-.55,1.22-1.22-.55-1.22-1.22-1.22Z" fill="#2c3b5e"/><path d="M208.69,304.43c-.68,0-1.22.55-1.22,1.22s.55,1.22,1.22,1.22,1.22-.55,1.22-1.22-.55-1.22-1.22-1.22Z" fill="#2c3b5e"/><path d="M208.69,310.61c-.68,0-1.22.55-1.22,1.22s.55,1.22,1.22,1.22,1.22-.55,1.22-1.22-.55-1.22-1.22-1.22Z" fill="#2c3b5e"/><path d="M203.03,273.51c-.68,0-1.22.55-1.22,1.22s.55,1.22,1.22,1.22,1.22-.55,1.22-1.22-.55-1.22-1.22-1.22Z" fill="#2c3b5e"/><path d="M203.03,279.69c-.68,0-1.22.55-1.22,1.22s.55,1.22,1.22,1.22,1.22-.55,1.22-1.22-.55-1.22-1.22-1.22Z" fill="#2c3b5e"/><path d="M203.03,285.88c-.68,0-1.22.55-1.22,1.22s.55,1.22,1.22,1.22,1.22-.55,1.22-1.22-.55-1.22-1.22-1.22Z" fill="#2c3b5e"/><path d="M203.03,292.06c-.68,0-1.22.55-1.22,1.22s.55,1.22,1.22,1.22,1.22-.55,1.22-1.22-.55-1.22-1.22-1.22Z" fill="#2c3b5e"/><path d="M203.03,298.24c-.68,0-1.22.55-1.22,1.22s.55,1.22,1.22,1.22,1.22-.55,1.22-1.22-.55-1.22-1.22-1.22Z" fill="#2c3b5e"/><path d="M203.03,304.43c-.68,0-1.22.55-1.22,1.22s.55,1.22,1.22,1.22,1.22-.55,1.22-1.22-.55-1.22-1.22-1.22Z" fill="#2c3b5e"/><path d="M203.03,310.61c-.68,0-1.22.55-1.22,1.22s.55,1.22,1.22,1.22,1.22-.55,1.22-1.22-.55-1.22-1.22-1.22Z" fill="#2c3b5e"/><path d="M197.37,273.51c-.68,0-1.22.55-1.22,1.22s.55,1.22,1.22,1.22,1.22-.55,1.22-1.22-.55-1.22-1.22-1.22Z" fill="#2c3b5e"/><path d="M197.37,279.69c-.68,0-1.22.55-1.22,1.22s.55,1.22,1.22,1.22,1.22-.55,1.22-1.22-.55-1.22-1.22-1.22Z" fill="#2c3b5e"/><path d="M197.37,285.88c-.68,0-1.22.55-1.22,1.22s.55,1.22,1.22,1.22,1.22-.55,1.22-1.22-.55-1.22-1.22-1.22Z" fill="#2c3b5e"/><path d="M197.37,292.06c-.68,0-1.22.55-1.22,1.22s.55,1.22,1.22,1.22,1.22-.55,1.22-1.22-.55-1.22-1.22-1.22Z" fill="#2c3b5e"/><path d="M197.37,298.24c-.68,0-1.22.55-1.22,1.22s.55,1.22,1.22,1.22,1.22-.55,1.22-1.22-.55-1.22-1.22-1.22Z" fill="#2c3b5e"/><path d="M197.37,304.43c-.68,0-1.22.55-1.22,1.22s.55,1.22,1.22,1.22,1.22-.55,1.22-1.22-.55-1.22-1.22-1.22Z" fill="#2c3b5e"/><path d="M197.37,310.61c-.68,0-1.22.55-1.22,1.22s.55,1.22,1.22,1.22,1.22-.55,1.22-1.22-.55-1.22-1.22-1.22Z" fill="#2c3b5e"/><path d="M191.7,285.88c-.68,0-1.22.55-1.22,1.22s.55,1.22,1.22,1.22,1.22-.55,1.22-1.22-.55-1.22-1.22-1.22Z" fill="#2c3b5e"/><path d="M191.7,292.06c-.68,0-1.22.55-1.22,1.22s.55,1.22,1.22,1.22,1.22-.55,1.22-1.22-.55-1.22-1.22-1.22Z" fill="#2c3b5e"/><path d="M191.7,298.24c-.68,0-1.22.55-1.22,1.22s.55,1.22,1.22,1.22,1.22-.55,1.22-1.22-.55-1.22-1.22-1.22Z" fill="#2c3b5e"/><path d="M191.7,304.43c-.68,0-1.22.55-1.22,1.22s.55,1.22,1.22,1.22,1.22-.55,1.22-1.22-.55-1.22-1.22-1.22Z" fill="#2c3b5e"/><path d="M191.7,310.61c-.68,0-1.22.55-1.22,1.22s.55,1.22,1.22,1.22,1.22-.55,1.22-1.22-.55-1.22-1.22-1.22Z" fill="#2c3b5e"/><path d="M186.04,310.61c-.68,0-1.22.55-1.22,1.22s.55,1.22,1.22,1.22,1.22-.55,1.22-1.22-.55-1.22-1.22-1.22Z" fill="#2c3b5e"/></g></g><path d="M142,206.66h-56.61c-5.02-2.99-7.52-9.66-6.6-15.43.92-5.77,5.59-10.75,11.29-12.04s12.06,1.21,15.37,6.02c.84-5.44,2.34-10.92,4.6-15.94,2.26-5.02,5.83-9.6,10.68-12.19,4.85-2.59,11.09-2.91,15.76,0,4.57,2.83,7.04,8.24,7.6,13.59.56,5.35-.52,10.71-1.63,15.97,2.21-.04,4.71,1.09,6.19,2.73,1.48,1.64,2.3,3.83,2.43,6.03.28,4.7-4.36,11.27-9.07,11.27Z" fill="none" stroke="#2c3b5e" stroke-miterlimit="10" stroke-width="3"/><path d="M363.02,169.83h-53.74c-3.41-1.12-6.13-3.42-6.75-6.96s1.15-7.44,4.35-9.07c3.2-1.63,7.58-.62,9.53,2.39,2.1-5.81,6.58-10.84,12.04-13.71,5.46-2.87,12.39-3.14,17.74-.06,5.35,3.08,8.65,9.67,7.27,15.68,2.83-.42,6.78,1.05,8.62,3.24s1.83,5.77.93,8.49Z" fill="none" stroke="#2c3b5e" stroke-miterlimit="10" stroke-width="3"/><g><line x1="333.01" y1="399.18" x2="316.31" y2="216.01" fill="none" stroke="#2c3b5e" stroke-miterlimit="10" stroke-width="3"/><path d="M318.5,240.01c2.51-.61,64.07-12.09,64.07-12.09l23.48,27.65-12.52,28.17-69.97,11.78" fill="none" stroke="#2c3b5e" stroke-miterlimit="10" stroke-width="3"/><polygon points="324.66 307.59 289.17 314.01 278.8 330.7 292.82 346.35 327.66 340.54 324.66 307.59" fill="#2c3b5e" stroke="#2c3b5e" stroke-miterlimit="10" stroke-width="3"/></g><line x1="363.78" y1="399.18" x2="73.95" y2="399.18" fill="none" stroke="#2c3b5e" stroke-miterlimit="10" stroke-width="3"/></svg>