<svg id="Illustrations" xmlns="http://www.w3.org/2000/svg" width="480" height="480" viewBox="0 0 480 480"><g><path d="M241.21,223.65c-.73,0-1.32.59-1.32,1.32s.59,1.32,1.32,1.32,1.32-.59,1.32-1.32-.59-1.32-1.32-1.32Z" fill="#2c3b5e"/><path d="M241.21,230.29c-.73,0-1.32.59-1.32,1.32s.59,1.32,1.32,1.32,1.32-.59,1.32-1.32-.59-1.32-1.32-1.32Z" fill="#2c3b5e"/><path d="M241.21,236.94c-.73,0-1.32.59-1.32,1.32s.59,1.32,1.32,1.32,1.32-.59,1.32-1.32-.59-1.32-1.32-1.32Z" fill="#2c3b5e"/><path d="M241.21,243.59c-.73,0-1.32.59-1.32,1.32s.59,1.32,1.32,1.32,1.32-.59,1.32-1.32-.59-1.32-1.32-1.32Z" fill="#2c3b5e"/><path d="M241.21,250.24c-.73,0-1.32.59-1.32,1.32s.59,1.32,1.32,1.32,1.32-.59,1.32-1.32-.59-1.32-1.32-1.32Z" fill="#2c3b5e"/><path d="M241.21,256.89c-.73,0-1.32.59-1.32,1.32s.59,1.32,1.32,1.32,1.32-.59,1.32-1.32-.59-1.32-1.32-1.32Z" fill="#2c3b5e"/><path d="M241.21,263.54c-.73,0-1.32.59-1.32,1.32s.59,1.32,1.32,1.32,1.32-.59,1.32-1.32-.59-1.32-1.32-1.32Z" fill="#2c3b5e"/><path d="M241.21,270.19c-.73,0-1.32.59-1.32,1.32s.59,1.32,1.32,1.32,1.32-.59,1.32-1.32-.59-1.32-1.32-1.32Z" fill="#2c3b5e"/><path d="M241.21,276.84c-.73,0-1.32.59-1.32,1.32s.59,1.32,1.32,1.32,1.32-.59,1.32-1.32-.59-1.32-1.32-1.32Z" fill="#2c3b5e"/><path d="M241.21,283.49c-.73,0-1.32.59-1.32,1.32s.59,1.32,1.32,1.32,1.32-.59,1.32-1.32-.59-1.32-1.32-1.32Z" fill="#2c3b5e"/><path d="M241.21,290.14c-.73,0-1.32.59-1.32,1.32s.59,1.32,1.32,1.32,1.32-.59,1.32-1.32-.59-1.32-1.32-1.32Z" fill="#2c3b5e"/><path d="M241.21,296.78c-.73,0-1.32.59-1.32,1.32s.59,1.32,1.32,1.32,1.32-.59,1.32-1.32-.59-1.32-1.32-1.32Z" fill="#2c3b5e"/><path d="M241.21,303.43c-.73,0-1.32.59-1.32,1.32s.59,1.32,1.32,1.32,1.32-.59,1.32-1.32-.59-1.32-1.32-1.32Z" fill="#2c3b5e"/><path d="M241.21,310.08c-.73,0-1.32.59-1.32,1.32s.59,1.32,1.32,1.32,1.32-.59,1.32-1.32-.59-1.32-1.32-1.32Z" fill="#2c3b5e"/><path d="M241.21,316.73c-.73,0-1.32.59-1.32,1.32s.59,1.32,1.32,1.32,1.32-.59,1.32-1.32-.59-1.32-1.32-1.32Z" fill="#2c3b5e"/><path d="M241.21,323.38c-.73,0-1.32.59-1.32,1.32s.59,1.32,1.32,1.32,1.32-.59,1.32-1.32-.59-1.32-1.32-1.32Z" fill="#2c3b5e"/><path d="M241.21,330.03c-.73,0-1.32.59-1.32,1.32s.59,1.32,1.32,1.32,1.32-.59,1.32-1.32-.59-1.32-1.32-1.32Z" fill="#2c3b5e"/><path d="M241.21,217.04c-.73,0-1.32.59-1.32,1.32s.59,1.32,1.32,1.32,1.32-.59,1.32-1.32-.59-1.32-1.32-1.32Z" fill="#2c3b5e"/><path d="M229.04,223.65c-.73,0-1.32.59-1.32,1.32s.59,1.32,1.32,1.32,1.32-.59,1.32-1.32-.59-1.32-1.32-1.32Z" fill="#2c3b5e"/><path d="M229.04,230.29c-.73,0-1.32.59-1.32,1.32s.59,1.32,1.32,1.32,1.32-.59,1.32-1.32-.59-1.32-1.32-1.32Z" fill="#2c3b5e"/><path d="M229.04,236.94c-.73,0-1.32.59-1.32,1.32s.59,1.32,1.32,1.32,1.32-.59,1.32-1.32-.59-1.32-1.32-1.32Z" fill="#2c3b5e"/><path d="M229.04,243.59c-.73,0-1.32.59-1.32,1.32s.59,1.32,1.32,1.32,1.32-.59,1.32-1.32-.59-1.32-1.32-1.32Z" fill="#2c3b5e"/><path d="M229.04,250.24c-.73,0-1.32.59-1.32,1.32s.59,1.32,1.32,1.32,1.32-.59,1.32-1.32-.59-1.32-1.32-1.32Z" fill="#2c3b5e"/><path d="M229.04,256.89c-.73,0-1.32.59-1.32,1.32s.59,1.32,1.32,1.32,1.32-.59,1.32-1.32-.59-1.32-1.32-1.32Z" fill="#2c3b5e"/><path d="M229.04,263.54c-.73,0-1.32.59-1.32,1.32s.59,1.32,1.32,1.32,1.32-.59,1.32-1.32-.59-1.32-1.32-1.32Z" fill="#2c3b5e"/><path d="M229.04,270.19c-.73,0-1.32.59-1.32,1.32s.59,1.32,1.32,1.32,1.32-.59,1.32-1.32-.59-1.32-1.32-1.32Z" fill="#2c3b5e"/><path d="M229.04,276.84c-.73,0-1.32.59-1.32,1.32s.59,1.32,1.32,1.32,1.32-.59,1.32-1.32-.59-1.32-1.32-1.32Z" fill="#2c3b5e"/><path d="M229.04,283.49c-.73,0-1.32.59-1.32,1.32s.59,1.32,1.32,1.32,1.32-.59,1.32-1.32-.59-1.32-1.32-1.32Z" fill="#2c3b5e"/><path d="M229.04,290.14c-.73,0-1.32.59-1.32,1.32s.59,1.32,1.32,1.32,1.32-.59,1.32-1.32-.59-1.32-1.32-1.32Z" fill="#2c3b5e"/><path d="M229.04,296.78c-.73,0-1.32.59-1.32,1.32s.59,1.32,1.32,1.32,1.32-.59,1.32-1.32-.59-1.32-1.32-1.32Z" fill="#2c3b5e"/><path d="M229.04,303.43c-.73,0-1.32.59-1.32,1.32s.59,1.32,1.32,1.32,1.32-.59,1.32-1.32-.59-1.32-1.32-1.32Z" fill="#2c3b5e"/><path d="M229.04,310.08c-.73,0-1.32.59-1.32,1.32s.59,1.32,1.32,1.32,1.32-.59,1.32-1.32-.59-1.32-1.32-1.32Z" fill="#2c3b5e"/><path d="M229.04,316.73c-.73,0-1.32.59-1.32,1.32s.59,1.32,1.32,1.32,1.32-.59,1.32-1.32-.59-1.32-1.32-1.32Z" fill="#2c3b5e"/><path d="M229.04,323.38c-.73,0-1.32.59-1.32,1.32s.59,1.32,1.32,1.32,1.32-.59,1.32-1.32-.59-1.32-1.32-1.32Z" fill="#2c3b5e"/><path d="M229.04,330.03c-.73,0-1.32.59-1.32,1.32s.59,1.32,1.32,1.32,1.32-.59,1.32-1.32-.59-1.32-1.32-1.32Z" fill="#2c3b5e"/><path d="M229.04,217.04c-.73,0-1.32.59-1.32,1.32s.59,1.32,1.32,1.32,1.32-.59,1.32-1.32-.59-1.32-1.32-1.32Z" fill="#2c3b5e"/><path d="M222.95,223.65c-.73,0-1.32.59-1.32,1.32s.59,1.32,1.32,1.32,1.32-.59,1.32-1.32-.59-1.32-1.32-1.32Z" fill="#2c3b5e"/><path d="M222.95,230.29c-.73,0-1.32.59-1.32,1.32s.59,1.32,1.32,1.32,1.32-.59,1.32-1.32-.59-1.32-1.32-1.32Z" fill="#2c3b5e"/><path d="M222.95,236.94c-.73,0-1.32.59-1.32,1.32s.59,1.32,1.32,1.32,1.32-.59,1.32-1.32-.59-1.32-1.32-1.32Z" fill="#2c3b5e"/><path d="M222.95,243.59c-.73,0-1.32.59-1.32,1.32s.59,1.32,1.32,1.32,1.32-.59,1.32-1.32-.59-1.32-1.32-1.32Z" fill="#2c3b5e"/><path d="M222.95,250.24c-.73,0-1.32.59-1.32,1.32s.59,1.32,1.32,1.32,1.32-.59,1.32-1.32-.59-1.32-1.32-1.32Z" fill="#2c3b5e"/><path d="M222.95,256.89c-.73,0-1.32.59-1.32,1.32s.59,1.32,1.32,1.32,1.32-.59,1.32-1.32-.59-1.32-1.32-1.32Z" fill="#2c3b5e"/><path d="M222.95,263.54c-.73,0-1.32.59-1.32,1.32s.59,1.32,1.32,1.32,1.32-.59,1.32-1.32-.59-1.32-1.32-1.32Z" fill="#2c3b5e"/><path d="M222.95,270.19c-.73,0-1.32.59-1.32,1.32s.59,1.32,1.32,1.32,1.32-.59,1.32-1.32-.59-1.32-1.32-1.32Z" fill="#2c3b5e"/><path d="M222.95,276.84c-.73,0-1.32.59-1.32,1.32s.59,1.32,1.32,1.32,1.32-.59,1.32-1.32-.59-1.32-1.32-1.32Z" fill="#2c3b5e"/><path d="M222.95,283.49c-.73,0-1.32.59-1.32,1.32s.59,1.32,1.32,1.32,1.32-.59,1.32-1.32-.59-1.32-1.32-1.32Z" fill="#2c3b5e"/><path d="M222.95,290.14c-.73,0-1.32.59-1.32,1.32s.59,1.32,1.32,1.32,1.32-.59,1.32-1.32-.59-1.32-1.32-1.32Z" fill="#2c3b5e"/><path d="M222.95,296.78c-.73,0-1.32.59-1.32,1.32s.59,1.32,1.32,1.32,1.32-.59,1.32-1.32-.59-1.32-1.32-1.32Z" fill="#2c3b5e"/><path d="M222.95,303.43c-.73,0-1.32.59-1.32,1.32s.59,1.32,1.32,1.32,1.32-.59,1.32-1.32-.59-1.32-1.32-1.32Z" fill="#2c3b5e"/><path d="M222.95,310.08c-.73,0-1.32.59-1.32,1.32s.59,1.32,1.32,1.32,1.32-.59,1.32-1.32-.59-1.32-1.32-1.32Z" fill="#2c3b5e"/><path d="M222.95,316.73c-.73,0-1.32.59-1.32,1.32s.59,1.32,1.32,1.32,1.32-.59,1.32-1.32-.59-1.32-1.32-1.32Z" fill="#2c3b5e"/><path d="M222.95,323.38c-.73,0-1.32.59-1.32,1.32s.59,1.32,1.32,1.32,1.32-.59,1.32-1.32-.59-1.32-1.32-1.32Z" fill="#2c3b5e"/><path d="M222.95,330.03c-.73,0-1.32.59-1.32,1.32s.59,1.32,1.32,1.32,1.32-.59,1.32-1.32-.59-1.32-1.32-1.32Z" fill="#2c3b5e"/><path d="M222.95,217.04c-.73,0-1.32.59-1.32,1.32s.59,1.32,1.32,1.32,1.32-.59,1.32-1.32-.59-1.32-1.32-1.32Z" fill="#2c3b5e"/><path d="M216.86,223.65c-.73,0-1.32.59-1.32,1.32s.59,1.32,1.32,1.32,1.32-.59,1.32-1.32-.59-1.32-1.32-1.32Z" fill="#2c3b5e"/><path d="M216.86,230.29c-.73,0-1.32.59-1.32,1.32s.59,1.32,1.32,1.32,1.32-.59,1.32-1.32-.59-1.32-1.32-1.32Z" fill="#2c3b5e"/><path d="M216.86,236.94c-.73,0-1.32.59-1.32,1.32s.59,1.32,1.32,1.32,1.32-.59,1.32-1.32-.59-1.32-1.32-1.32Z" fill="#2c3b5e"/><path d="M216.86,243.59c-.73,0-1.32.59-1.32,1.32s.59,1.32,1.32,1.32,1.32-.59,1.32-1.32-.59-1.32-1.32-1.32Z" fill="#2c3b5e"/><path d="M216.86,303.43c-.73,0-1.32.59-1.32,1.32s.59,1.32,1.32,1.32,1.32-.59,1.32-1.32-.59-1.32-1.32-1.32Z" fill="#2c3b5e"/><path d="M216.86,310.08c-.73,0-1.32.59-1.32,1.32s.59,1.32,1.32,1.32,1.32-.59,1.32-1.32-.59-1.32-1.32-1.32Z" fill="#2c3b5e"/><path d="M216.86,316.73c-.73,0-1.32.59-1.32,1.32s.59,1.32,1.32,1.32,1.32-.59,1.32-1.32-.59-1.32-1.32-1.32Z" fill="#2c3b5e"/><path d="M216.86,323.38c-.73,0-1.32.59-1.32,1.32s.59,1.32,1.32,1.32,1.32-.59,1.32-1.32-.59-1.32-1.32-1.32Z" fill="#2c3b5e"/><path d="M216.86,330.03c-.73,0-1.32.59-1.32,1.32s.59,1.32,1.32,1.32,1.32-.59,1.32-1.32-.59-1.32-1.32-1.32Z" fill="#2c3b5e"/><path d="M216.86,217.04c-.73,0-1.32.59-1.32,1.32s.59,1.32,1.32,1.32,1.32-.59,1.32-1.32-.59-1.32-1.32-1.32Z" fill="#2c3b5e"/><path d="M210.77,223.65c-.73,0-1.32.59-1.32,1.32s.59,1.32,1.32,1.32,1.32-.59,1.32-1.32-.59-1.32-1.32-1.32Z" fill="#2c3b5e"/><path d="M210.77,230.29c-.73,0-1.32.59-1.32,1.32s.59,1.32,1.32,1.32,1.32-.59,1.32-1.32-.59-1.32-1.32-1.32Z" fill="#2c3b5e"/><path d="M210.77,236.94c-.73,0-1.32.59-1.32,1.32s.59,1.32,1.32,1.32,1.32-.59,1.32-1.32-.59-1.32-1.32-1.32Z" fill="#2c3b5e"/><path d="M210.77,243.59c-.73,0-1.32.59-1.32,1.32s.59,1.32,1.32,1.32,1.32-.59,1.32-1.32-.59-1.32-1.32-1.32Z" fill="#2c3b5e"/><path d="M210.77,303.43c-.73,0-1.32.59-1.32,1.32s.59,1.32,1.32,1.32,1.32-.59,1.32-1.32-.59-1.32-1.32-1.32Z" fill="#2c3b5e"/><path d="M210.77,310.08c-.73,0-1.32.59-1.32,1.32s.59,1.32,1.32,1.32,1.32-.59,1.32-1.32-.59-1.32-1.32-1.32Z" fill="#2c3b5e"/><path d="M210.77,316.73c-.73,0-1.32.59-1.32,1.32s.59,1.32,1.32,1.32,1.32-.59,1.32-1.32-.59-1.32-1.32-1.32Z" fill="#2c3b5e"/><path d="M210.77,323.38c-.73,0-1.32.59-1.32,1.32s.59,1.32,1.32,1.32,1.32-.59,1.32-1.32-.59-1.32-1.32-1.32Z" fill="#2c3b5e"/><path d="M210.77,330.03c-.73,0-1.32.59-1.32,1.32s.59,1.32,1.32,1.32,1.32-.59,1.32-1.32-.59-1.32-1.32-1.32Z" fill="#2c3b5e"/><path d="M210.77,217.04c-.73,0-1.32.59-1.32,1.32s.59,1.32,1.32,1.32,1.32-.59,1.32-1.32-.59-1.32-1.32-1.32Z" fill="#2c3b5e"/><path d="M204.68,303.43c-.73,0-1.32.59-1.32,1.32s.59,1.32,1.32,1.32,1.32-.59,1.32-1.32-.59-1.32-1.32-1.32Z" fill="#2c3b5e"/><path d="M204.68,310.08c-.73,0-1.32.59-1.32,1.32s.59,1.32,1.32,1.32,1.32-.59,1.32-1.32-.59-1.32-1.32-1.32Z" fill="#2c3b5e"/><path d="M204.68,316.73c-.73,0-1.32.59-1.32,1.32s.59,1.32,1.32,1.32,1.32-.59,1.32-1.32-.59-1.32-1.32-1.32Z" fill="#2c3b5e"/><path d="M204.68,323.38c-.73,0-1.32.59-1.32,1.32s.59,1.32,1.32,1.32,1.32-.59,1.32-1.32-.59-1.32-1.32-1.32Z" fill="#2c3b5e"/><path d="M204.68,330.03c-.73,0-1.32.59-1.32,1.32s.59,1.32,1.32,1.32,1.32-.59,1.32-1.32-.59-1.32-1.32-1.32Z" fill="#2c3b5e"/><path d="M198.59,303.43c-.73,0-1.32.59-1.32,1.32s.59,1.32,1.32,1.32,1.32-.59,1.32-1.32-.59-1.32-1.32-1.32Z" fill="#2c3b5e"/><path d="M198.59,310.08c-.73,0-1.32.59-1.32,1.32s.59,1.32,1.32,1.32,1.32-.59,1.32-1.32-.59-1.32-1.32-1.32Z" fill="#2c3b5e"/><path d="M198.59,316.73c-.73,0-1.32.59-1.32,1.32s.59,1.32,1.32,1.32,1.32-.59,1.32-1.32-.59-1.32-1.32-1.32Z" fill="#2c3b5e"/><path d="M198.59,323.38c-.73,0-1.32.59-1.32,1.32s.59,1.32,1.32,1.32,1.32-.59,1.32-1.32-.59-1.32-1.32-1.32Z" fill="#2c3b5e"/><path d="M198.59,330.03c-.73,0-1.32.59-1.32,1.32s.59,1.32,1.32,1.32,1.32-.59,1.32-1.32-.59-1.32-1.32-1.32Z" fill="#2c3b5e"/><path d="M192.51,310.08c-.73,0-1.32.59-1.32,1.32s.59,1.32,1.32,1.32,1.32-.59,1.32-1.32-.59-1.32-1.32-1.32Z" fill="#2c3b5e"/><path d="M192.51,316.73c-.73,0-1.32.59-1.32,1.32s.59,1.32,1.32,1.32,1.32-.59,1.32-1.32-.59-1.32-1.32-1.32Z" fill="#2c3b5e"/><path d="M192.51,323.38c-.73,0-1.32.59-1.32,1.32s.59,1.32,1.32,1.32,1.32-.59,1.32-1.32-.59-1.32-1.32-1.32Z" fill="#2c3b5e"/><path d="M192.51,330.03c-.73,0-1.32.59-1.32,1.32s.59,1.32,1.32,1.32,1.32-.59,1.32-1.32-.59-1.32-1.32-1.32Z" fill="#2c3b5e"/><path d="M186.42,310.08c-.73,0-1.32.59-1.32,1.32s.59,1.32,1.32,1.32,1.32-.59,1.32-1.32-.59-1.32-1.32-1.32Z" fill="#2c3b5e"/><path d="M186.42,316.73c-.73,0-1.32.59-1.32,1.32s.59,1.32,1.32,1.32,1.32-.59,1.32-1.32-.59-1.32-1.32-1.32Z" fill="#2c3b5e"/><path d="M186.42,323.38c-.73,0-1.32.59-1.32,1.32s.59,1.32,1.32,1.32,1.32-.59,1.32-1.32-.59-1.32-1.32-1.32Z" fill="#2c3b5e"/><path d="M186.42,330.03c-.73,0-1.32.59-1.32,1.32s.59,1.32,1.32,1.32,1.32-.59,1.32-1.32-.59-1.32-1.32-1.32Z" fill="#2c3b5e"/><path d="M180.33,310.08c-.73,0-1.32.59-1.32,1.32s.59,1.32,1.32,1.32,1.32-.59,1.32-1.32-.59-1.32-1.32-1.32Z" fill="#2c3b5e"/><path d="M180.33,316.73c-.73,0-1.32.59-1.32,1.32s.59,1.32,1.32,1.32,1.32-.59,1.32-1.32-.59-1.32-1.32-1.32Z" fill="#2c3b5e"/><path d="M180.33,323.38c-.73,0-1.32.59-1.32,1.32s.59,1.32,1.32,1.32,1.32-.59,1.32-1.32-.59-1.32-1.32-1.32Z" fill="#2c3b5e"/><path d="M180.33,330.03c-.73,0-1.32.59-1.32,1.32s.59,1.32,1.32,1.32,1.32-.59,1.32-1.32-.59-1.32-1.32-1.32Z" fill="#2c3b5e"/><path d="M174.24,310.08c-.73,0-1.32.59-1.32,1.32s.59,1.32,1.32,1.32,1.32-.59,1.32-1.32-.59-1.32-1.32-1.32Z" fill="#2c3b5e"/><path d="M174.24,316.73c-.73,0-1.32.59-1.32,1.32s.59,1.32,1.32,1.32,1.32-.59,1.32-1.32-.59-1.32-1.32-1.32Z" fill="#2c3b5e"/><path d="M174.24,323.38c-.73,0-1.32.59-1.32,1.32s.59,1.32,1.32,1.32,1.32-.59,1.32-1.32-.59-1.32-1.32-1.32Z" fill="#2c3b5e"/><path d="M174.24,330.03c-.73,0-1.32.59-1.32,1.32s.59,1.32,1.32,1.32,1.32-.59,1.32-1.32-.59-1.32-1.32-1.32Z" fill="#2c3b5e"/><path d="M168.15,310.08c-.73,0-1.32.59-1.32,1.32s.59,1.32,1.32,1.32,1.32-.59,1.32-1.32-.59-1.32-1.32-1.32Z" fill="#2c3b5e"/><path d="M168.15,316.73c-.73,0-1.32.59-1.32,1.32s.59,1.32,1.32,1.32,1.32-.59,1.32-1.32-.59-1.32-1.32-1.32Z" fill="#2c3b5e"/><path d="M168.15,323.38c-.73,0-1.32.59-1.32,1.32s.59,1.32,1.32,1.32,1.32-.59,1.32-1.32-.59-1.32-1.32-1.32Z" fill="#2c3b5e"/><path d="M168.15,330.03c-.73,0-1.32.59-1.32,1.32s.59,1.32,1.32,1.32,1.32-.59,1.32-1.32-.59-1.32-1.32-1.32Z" fill="#2c3b5e"/><path d="M162.06,316.73c-.73,0-1.32.59-1.32,1.32s.59,1.32,1.32,1.32,1.32-.59,1.32-1.32-.59-1.32-1.32-1.32Z" fill="#2c3b5e"/><path d="M162.06,323.38c-.73,0-1.32.59-1.32,1.32s.59,1.32,1.32,1.32,1.32-.59,1.32-1.32-.59-1.32-1.32-1.32Z" fill="#2c3b5e"/><path d="M162.06,330.03c-.73,0-1.32.59-1.32,1.32s.59,1.32,1.32,1.32,1.32-.59,1.32-1.32-.59-1.32-1.32-1.32Z" fill="#2c3b5e"/><path d="M155.97,316.73c-.73,0-1.32.59-1.32,1.32s.59,1.32,1.32,1.32,1.32-.59,1.32-1.32-.59-1.32-1.32-1.32Z" fill="#2c3b5e"/><path d="M155.97,323.38c-.73,0-1.32.59-1.32,1.32s.59,1.32,1.32,1.32,1.32-.59,1.32-1.32-.59-1.32-1.32-1.32Z" fill="#2c3b5e"/><path d="M155.97,330.03c-.73,0-1.32.59-1.32,1.32s.59,1.32,1.32,1.32,1.32-.59,1.32-1.32-.59-1.32-1.32-1.32Z" fill="#2c3b5e"/><path d="M149.89,316.73c-.73,0-1.32.59-1.32,1.32s.59,1.32,1.32,1.32,1.32-.59,1.32-1.32-.59-1.32-1.32-1.32Z" fill="#2c3b5e"/><path d="M149.89,323.38c-.73,0-1.32.59-1.32,1.32s.59,1.32,1.32,1.32,1.32-.59,1.32-1.32-.59-1.32-1.32-1.32Z" fill="#2c3b5e"/><path d="M149.89,330.03c-.73,0-1.32.59-1.32,1.32s.59,1.32,1.32,1.32,1.32-.59,1.32-1.32-.59-1.32-1.32-1.32Z" fill="#2c3b5e"/><path d="M143.8,316.73c-.73,0-1.32.59-1.32,1.32s.59,1.32,1.32,1.32,1.32-.59,1.32-1.32-.59-1.32-1.32-1.32Z" fill="#2c3b5e"/><path d="M143.8,323.38c-.73,0-1.32.59-1.32,1.32s.59,1.32,1.32,1.32,1.32-.59,1.32-1.32-.59-1.32-1.32-1.32Z" fill="#2c3b5e"/><path d="M143.8,330.03c-.73,0-1.32.59-1.32,1.32s.59,1.32,1.32,1.32,1.32-.59,1.32-1.32-.59-1.32-1.32-1.32Z" fill="#2c3b5e"/><path d="M235.12,223.65c-.73,0-1.32.59-1.32,1.32s.59,1.32,1.32,1.32,1.32-.59,1.32-1.32-.59-1.32-1.32-1.32Z" fill="#2c3b5e"/><path d="M235.12,230.29c-.73,0-1.32.59-1.32,1.32s.59,1.32,1.32,1.32,1.32-.59,1.32-1.32-.59-1.32-1.32-1.32Z" fill="#2c3b5e"/><path d="M235.12,236.94c-.73,0-1.32.59-1.32,1.32s.59,1.32,1.32,1.32,1.32-.59,1.32-1.32-.59-1.32-1.32-1.32Z" fill="#2c3b5e"/><path d="M235.12,243.59c-.73,0-1.32.59-1.32,1.32s.59,1.32,1.32,1.32,1.32-.59,1.32-1.32-.59-1.32-1.32-1.32Z" fill="#2c3b5e"/><path d="M235.12,250.24c-.73,0-1.32.59-1.32,1.32s.59,1.32,1.32,1.32,1.32-.59,1.32-1.32-.59-1.32-1.32-1.32Z" fill="#2c3b5e"/><path d="M235.12,256.89c-.73,0-1.32.59-1.32,1.32s.59,1.32,1.32,1.32,1.32-.59,1.32-1.32-.59-1.32-1.32-1.32Z" fill="#2c3b5e"/><path d="M235.12,263.54c-.73,0-1.32.59-1.32,1.32s.59,1.32,1.32,1.32,1.32-.59,1.32-1.32-.59-1.32-1.32-1.32Z" fill="#2c3b5e"/><path d="M235.12,270.19c-.73,0-1.32.59-1.32,1.32s.59,1.32,1.32,1.32,1.32-.59,1.32-1.32-.59-1.32-1.32-1.32Z" fill="#2c3b5e"/><path d="M235.12,276.84c-.73,0-1.32.59-1.32,1.32s.59,1.32,1.32,1.32,1.32-.59,1.32-1.32-.59-1.32-1.32-1.32Z" fill="#2c3b5e"/><path d="M235.12,283.49c-.73,0-1.32.59-1.32,1.32s.59,1.32,1.32,1.32,1.32-.59,1.32-1.32-.59-1.32-1.32-1.32Z" fill="#2c3b5e"/><path d="M235.12,290.14c-.73,0-1.32.59-1.32,1.32s.59,1.32,1.32,1.32,1.32-.59,1.32-1.32-.59-1.32-1.32-1.32Z" fill="#2c3b5e"/><path d="M235.12,296.78c-.73,0-1.32.59-1.32,1.32s.59,1.32,1.32,1.32,1.32-.59,1.32-1.32-.59-1.32-1.32-1.32Z" fill="#2c3b5e"/><path d="M235.12,303.43c-.73,0-1.32.59-1.32,1.32s.59,1.32,1.32,1.32,1.32-.59,1.32-1.32-.59-1.32-1.32-1.32Z" fill="#2c3b5e"/><path d="M235.12,310.08c-.73,0-1.32.59-1.32,1.32s.59,1.32,1.32,1.32,1.32-.59,1.32-1.32-.59-1.32-1.32-1.32Z" fill="#2c3b5e"/><path d="M235.12,316.73c-.73,0-1.32.59-1.32,1.32s.59,1.32,1.32,1.32,1.32-.59,1.32-1.32-.59-1.32-1.32-1.32Z" fill="#2c3b5e"/><path d="M235.12,323.38c-.73,0-1.32.59-1.32,1.32s.59,1.32,1.32,1.32,1.32-.59,1.32-1.32-.59-1.32-1.32-1.32Z" fill="#2c3b5e"/><path d="M235.12,330.03c-.73,0-1.32.59-1.32,1.32s.59,1.32,1.32,1.32,1.32-.59,1.32-1.32-.59-1.32-1.32-1.32Z" fill="#2c3b5e"/><path d="M235.12,217.04c-.73,0-1.32.59-1.32,1.32s.59,1.32,1.32,1.32,1.32-.59,1.32-1.32-.59-1.32-1.32-1.32Z" fill="#2c3b5e"/><path d="M229.04,336.91c-.73,0-1.32.59-1.32,1.32s.59,1.32,1.32,1.32,1.32-.59,1.32-1.32-.59-1.32-1.32-1.32Z" fill="#2c3b5e"/><path d="M229.04,343.56c-.73,0-1.32.59-1.32,1.32s.59,1.32,1.32,1.32,1.32-.59,1.32-1.32-.59-1.32-1.32-1.32Z" fill="#2c3b5e"/><path d="M222.95,336.91c-.73,0-1.32.59-1.32,1.32s.59,1.32,1.32,1.32,1.32-.59,1.32-1.32-.59-1.32-1.32-1.32Z" fill="#2c3b5e"/><path d="M222.95,343.56c-.73,0-1.32.59-1.32,1.32s.59,1.32,1.32,1.32,1.32-.59,1.32-1.32-.59-1.32-1.32-1.32Z" fill="#2c3b5e"/><path d="M216.86,336.91c-.73,0-1.32.59-1.32,1.32s.59,1.32,1.32,1.32,1.32-.59,1.32-1.32-.59-1.32-1.32-1.32Z" fill="#2c3b5e"/><path d="M216.86,343.56c-.73,0-1.32.59-1.32,1.32s.59,1.32,1.32,1.32,1.32-.59,1.32-1.32-.59-1.32-1.32-1.32Z" fill="#2c3b5e"/><path d="M210.77,336.91c-.73,0-1.32.59-1.32,1.32s.59,1.32,1.32,1.32,1.32-.59,1.32-1.32-.59-1.32-1.32-1.32Z" fill="#2c3b5e"/><path d="M210.77,343.56c-.73,0-1.32.59-1.32,1.32s.59,1.32,1.32,1.32,1.32-.59,1.32-1.32-.59-1.32-1.32-1.32Z" fill="#2c3b5e"/><path d="M204.68,336.91c-.73,0-1.32.59-1.32,1.32s.59,1.32,1.32,1.32,1.32-.59,1.32-1.32-.59-1.32-1.32-1.32Z" fill="#2c3b5e"/><path d="M204.68,343.56c-.73,0-1.32.59-1.32,1.32s.59,1.32,1.32,1.32,1.32-.59,1.32-1.32-.59-1.32-1.32-1.32Z" fill="#2c3b5e"/><path d="M204.68,350.21c-.73,0-1.32.59-1.32,1.32s.59,1.32,1.32,1.32,1.32-.59,1.32-1.32-.59-1.32-1.32-1.32Z" fill="#2c3b5e"/><path d="M198.59,336.91c-.73,0-1.32.59-1.32,1.32s.59,1.32,1.32,1.32,1.32-.59,1.32-1.32-.59-1.32-1.32-1.32Z" fill="#2c3b5e"/><path d="M198.59,343.56c-.73,0-1.32.59-1.32,1.32s.59,1.32,1.32,1.32,1.32-.59,1.32-1.32-.59-1.32-1.32-1.32Z" fill="#2c3b5e"/><path d="M198.59,350.21c-.73,0-1.32.59-1.32,1.32s.59,1.32,1.32,1.32,1.32-.59,1.32-1.32-.59-1.32-1.32-1.32Z" fill="#2c3b5e"/><path d="M192.51,336.91c-.73,0-1.32.59-1.32,1.32s.59,1.32,1.32,1.32,1.32-.59,1.32-1.32-.59-1.32-1.32-1.32Z" fill="#2c3b5e"/><path d="M192.51,343.56c-.73,0-1.32.59-1.32,1.32s.59,1.32,1.32,1.32,1.32-.59,1.32-1.32-.59-1.32-1.32-1.32Z" fill="#2c3b5e"/><path d="M192.51,350.21c-.73,0-1.32.59-1.32,1.32s.59,1.32,1.32,1.32,1.32-.59,1.32-1.32-.59-1.32-1.32-1.32Z" fill="#2c3b5e"/><path d="M186.42,336.91c-.73,0-1.32.59-1.32,1.32s.59,1.32,1.32,1.32,1.32-.59,1.32-1.32-.59-1.32-1.32-1.32Z" fill="#2c3b5e"/><path d="M186.42,343.56c-.73,0-1.32.59-1.32,1.32s.59,1.32,1.32,1.32,1.32-.59,1.32-1.32-.59-1.32-1.32-1.32Z" fill="#2c3b5e"/><path d="M186.42,350.21c-.73,0-1.32.59-1.32,1.32s.59,1.32,1.32,1.32,1.32-.59,1.32-1.32-.59-1.32-1.32-1.32Z" fill="#2c3b5e"/><path d="M180.33,336.91c-.73,0-1.32.59-1.32,1.32s.59,1.32,1.32,1.32,1.32-.59,1.32-1.32-.59-1.32-1.32-1.32Z" fill="#2c3b5e"/><path d="M180.33,343.56c-.73,0-1.32.59-1.32,1.32s.59,1.32,1.32,1.32,1.32-.59,1.32-1.32-.59-1.32-1.32-1.32Z" fill="#2c3b5e"/><path d="M180.33,350.21c-.73,0-1.32.59-1.32,1.32s.59,1.32,1.32,1.32,1.32-.59,1.32-1.32-.59-1.32-1.32-1.32Z" fill="#2c3b5e"/><path d="M180.33,356.86c-.73,0-1.32.59-1.32,1.32s.59,1.32,1.32,1.32,1.32-.59,1.32-1.32-.59-1.32-1.32-1.32Z" fill="#2c3b5e"/><path d="M174.24,336.91c-.73,0-1.32.59-1.32,1.32s.59,1.32,1.32,1.32,1.32-.59,1.32-1.32-.59-1.32-1.32-1.32Z" fill="#2c3b5e"/><path d="M174.24,343.56c-.73,0-1.32.59-1.32,1.32s.59,1.32,1.32,1.32,1.32-.59,1.32-1.32-.59-1.32-1.32-1.32Z" fill="#2c3b5e"/><path d="M174.24,350.21c-.73,0-1.32.59-1.32,1.32s.59,1.32,1.32,1.32,1.32-.59,1.32-1.32-.59-1.32-1.32-1.32Z" fill="#2c3b5e"/><path d="M174.24,356.86c-.73,0-1.32.59-1.32,1.32s.59,1.32,1.32,1.32,1.32-.59,1.32-1.32-.59-1.32-1.32-1.32Z" fill="#2c3b5e"/><path d="M168.15,336.91c-.73,0-1.32.59-1.32,1.32s.59,1.32,1.32,1.32,1.32-.59,1.32-1.32-.59-1.32-1.32-1.32Z" fill="#2c3b5e"/><path d="M168.15,343.56c-.73,0-1.32.59-1.32,1.32s.59,1.32,1.32,1.32,1.32-.59,1.32-1.32-.59-1.32-1.32-1.32Z" fill="#2c3b5e"/><path d="M168.15,350.21c-.73,0-1.32.59-1.32,1.32s.59,1.32,1.32,1.32,1.32-.59,1.32-1.32-.59-1.32-1.32-1.32Z" fill="#2c3b5e"/><path d="M168.15,356.86c-.73,0-1.32.59-1.32,1.32s.59,1.32,1.32,1.32,1.32-.59,1.32-1.32-.59-1.32-1.32-1.32Z" fill="#2c3b5e"/><path d="M162.06,336.91c-.73,0-1.32.59-1.32,1.32s.59,1.32,1.32,1.32,1.32-.59,1.32-1.32-.59-1.32-1.32-1.32Z" fill="#2c3b5e"/><path d="M162.06,343.56c-.73,0-1.32.59-1.32,1.32s.59,1.32,1.32,1.32,1.32-.59,1.32-1.32-.59-1.32-1.32-1.32Z" fill="#2c3b5e"/><path d="M162.06,350.21c-.73,0-1.32.59-1.32,1.32s.59,1.32,1.32,1.32,1.32-.59,1.32-1.32-.59-1.32-1.32-1.32Z" fill="#2c3b5e"/><path d="M162.06,356.86c-.73,0-1.32.59-1.32,1.32s.59,1.32,1.32,1.32,1.32-.59,1.32-1.32-.59-1.32-1.32-1.32Z" fill="#2c3b5e"/><path d="M155.97,336.91c-.73,0-1.32.59-1.32,1.32s.59,1.32,1.32,1.32,1.32-.59,1.32-1.32-.59-1.32-1.32-1.32Z" fill="#2c3b5e"/><path d="M155.97,343.56c-.73,0-1.32.59-1.32,1.32s.59,1.32,1.32,1.32,1.32-.59,1.32-1.32-.59-1.32-1.32-1.32Z" fill="#2c3b5e"/><path d="M155.97,350.21c-.73,0-1.32.59-1.32,1.32s.59,1.32,1.32,1.32,1.32-.59,1.32-1.32-.59-1.32-1.32-1.32Z" fill="#2c3b5e"/><path d="M155.97,356.86c-.73,0-1.32.59-1.32,1.32s.59,1.32,1.32,1.32,1.32-.59,1.32-1.32-.59-1.32-1.32-1.32Z" fill="#2c3b5e"/><path d="M149.89,336.91c-.73,0-1.32.59-1.32,1.32s.59,1.32,1.32,1.32,1.32-.59,1.32-1.32-.59-1.32-1.32-1.32Z" fill="#2c3b5e"/><path d="M149.89,343.56c-.73,0-1.32.59-1.32,1.32s.59,1.32,1.32,1.32,1.32-.59,1.32-1.32-.59-1.32-1.32-1.32Z" fill="#2c3b5e"/><path d="M149.89,350.21c-.73,0-1.32.59-1.32,1.32s.59,1.32,1.32,1.32,1.32-.59,1.32-1.32-.59-1.32-1.32-1.32Z" fill="#2c3b5e"/><path d="M149.89,356.86c-.73,0-1.32.59-1.32,1.32s.59,1.32,1.32,1.32,1.32-.59,1.32-1.32-.59-1.32-1.32-1.32Z" fill="#2c3b5e"/><path d="M143.8,336.91c-.73,0-1.32.59-1.32,1.32s.59,1.32,1.32,1.32,1.32-.59,1.32-1.32-.59-1.32-1.32-1.32Z" fill="#2c3b5e"/><path d="M235.12,336.91c-.73,0-1.32.59-1.32,1.32s.59,1.32,1.32,1.32,1.32-.59,1.32-1.32-.59-1.32-1.32-1.32Z" fill="#2c3b5e"/><path d="M313.61,330.03c-.73,0-1.32.59-1.32,1.32s.59,1.32,1.32,1.32,1.32-.59,1.32-1.32-.59-1.32-1.32-1.32Z" fill="#2c3b5e"/><path d="M307.52,310.08c-.73,0-1.32.59-1.32,1.32s.59,1.32,1.32,1.32,1.32-.59,1.32-1.32-.59-1.32-1.32-1.32Z" fill="#2c3b5e"/><path d="M307.52,316.73c-.73,0-1.32.59-1.32,1.32s.59,1.32,1.32,1.32,1.32-.59,1.32-1.32-.59-1.32-1.32-1.32Z" fill="#2c3b5e"/><path d="M307.52,323.38c-.73,0-1.32.59-1.32,1.32s.59,1.32,1.32,1.32,1.32-.59,1.32-1.32-.59-1.32-1.32-1.32Z" fill="#2c3b5e"/><path d="M307.52,330.03c-.73,0-1.32.59-1.32,1.32s.59,1.32,1.32,1.32,1.32-.59,1.32-1.32-.59-1.32-1.32-1.32Z" fill="#2c3b5e"/><path d="M301.44,290.14c-.73,0-1.32.59-1.32,1.32s.59,1.32,1.32,1.32,1.32-.59,1.32-1.32-.59-1.32-1.32-1.32Z" fill="#2c3b5e"/><path d="M301.44,296.78c-.73,0-1.32.59-1.32,1.32s.59,1.32,1.32,1.32,1.32-.59,1.32-1.32-.59-1.32-1.32-1.32Z" fill="#2c3b5e"/><path d="M301.44,303.43c-.73,0-1.32.59-1.32,1.32s.59,1.32,1.32,1.32,1.32-.59,1.32-1.32-.59-1.32-1.32-1.32Z" fill="#2c3b5e"/><path d="M301.44,310.08c-.73,0-1.32.59-1.32,1.32s.59,1.32,1.32,1.32,1.32-.59,1.32-1.32-.59-1.32-1.32-1.32Z" fill="#2c3b5e"/><path d="M301.44,316.73c-.73,0-1.32.59-1.32,1.32s.59,1.32,1.32,1.32,1.32-.59,1.32-1.32-.59-1.32-1.32-1.32Z" fill="#2c3b5e"/><path d="M301.44,323.38c-.73,0-1.32.59-1.32,1.32s.59,1.32,1.32,1.32,1.32-.59,1.32-1.32-.59-1.32-1.32-1.32Z" fill="#2c3b5e"/><path d="M301.44,330.03c-.73,0-1.32.59-1.32,1.32s.59,1.32,1.32,1.32,1.32-.59,1.32-1.32-.59-1.32-1.32-1.32Z" fill="#2c3b5e"/><path d="M295.35,270.19c-.73,0-1.32.59-1.32,1.32s.59,1.32,1.32,1.32,1.32-.59,1.32-1.32-.59-1.32-1.32-1.32Z" fill="#2c3b5e"/><path d="M295.35,276.84c-.73,0-1.32.59-1.32,1.32s.59,1.32,1.32,1.32,1.32-.59,1.32-1.32-.59-1.32-1.32-1.32Z" fill="#2c3b5e"/><path d="M295.35,283.49c-.73,0-1.32.59-1.32,1.32s.59,1.32,1.32,1.32,1.32-.59,1.32-1.32-.59-1.32-1.32-1.32Z" fill="#2c3b5e"/><path d="M295.35,290.14c-.73,0-1.32.59-1.32,1.32s.59,1.32,1.32,1.32,1.32-.59,1.32-1.32-.59-1.32-1.32-1.32Z" fill="#2c3b5e"/><path d="M295.35,296.78c-.73,0-1.32.59-1.32,1.32s.59,1.32,1.32,1.32,1.32-.59,1.32-1.32-.59-1.32-1.32-1.32Z" fill="#2c3b5e"/><path d="M295.35,303.43c-.73,0-1.32.59-1.32,1.32s.59,1.32,1.32,1.32,1.32-.59,1.32-1.32-.59-1.32-1.32-1.32Z" fill="#2c3b5e"/><path d="M295.35,310.08c-.73,0-1.32.59-1.32,1.32s.59,1.32,1.32,1.32,1.32-.59,1.32-1.32-.59-1.32-1.32-1.32Z" fill="#2c3b5e"/><path d="M295.35,316.73c-.73,0-1.32.59-1.32,1.32s.59,1.32,1.32,1.32,1.32-.59,1.32-1.32-.59-1.32-1.32-1.32Z" fill="#2c3b5e"/><path d="M295.35,323.38c-.73,0-1.32.59-1.32,1.32s.59,1.32,1.32,1.32,1.32-.59,1.32-1.32-.59-1.32-1.32-1.32Z" fill="#2c3b5e"/><path d="M295.35,330.03c-.73,0-1.32.59-1.32,1.32s.59,1.32,1.32,1.32,1.32-.59,1.32-1.32-.59-1.32-1.32-1.32Z" fill="#2c3b5e"/><path d="M289.26,250.24c-.73,0-1.32.59-1.32,1.32s.59,1.32,1.32,1.32,1.32-.59,1.32-1.32-.59-1.32-1.32-1.32Z" fill="#2c3b5e"/><path d="M289.26,256.89c-.73,0-1.32.59-1.32,1.32s.59,1.32,1.32,1.32,1.32-.59,1.32-1.32-.59-1.32-1.32-1.32Z" fill="#2c3b5e"/><path d="M289.26,263.54c-.73,0-1.32.59-1.32,1.32s.59,1.32,1.32,1.32,1.32-.59,1.32-1.32-.59-1.32-1.32-1.32Z" fill="#2c3b5e"/><path d="M289.26,270.19c-.73,0-1.32.59-1.32,1.32s.59,1.32,1.32,1.32,1.32-.59,1.32-1.32-.59-1.32-1.32-1.32Z" fill="#2c3b5e"/><path d="M289.26,276.84c-.73,0-1.32.59-1.32,1.32s.59,1.32,1.32,1.32,1.32-.59,1.32-1.32-.59-1.32-1.32-1.32Z" fill="#2c3b5e"/><path d="M289.26,283.49c-.73,0-1.32.59-1.32,1.32s.59,1.32,1.32,1.32,1.32-.59,1.32-1.32-.59-1.32-1.32-1.32Z" fill="#2c3b5e"/><path d="M289.26,290.14c-.73,0-1.32.59-1.32,1.32s.59,1.32,1.32,1.32,1.32-.59,1.32-1.32-.59-1.32-1.32-1.32Z" fill="#2c3b5e"/><path d="M289.26,296.78c-.73,0-1.32.59-1.32,1.32s.59,1.32,1.32,1.32,1.32-.59,1.32-1.32-.59-1.32-1.32-1.32Z" fill="#2c3b5e"/><path d="M289.26,303.43c-.73,0-1.32.59-1.32,1.32s.59,1.32,1.32,1.32,1.32-.59,1.32-1.32-.59-1.32-1.32-1.32Z" fill="#2c3b5e"/><path d="M289.26,310.08c-.73,0-1.32.59-1.32,1.32s.59,1.32,1.32,1.32,1.32-.59,1.32-1.32-.59-1.32-1.32-1.32Z" fill="#2c3b5e"/><path d="M289.26,316.73c-.73,0-1.32.59-1.32,1.32s.59,1.32,1.32,1.32,1.32-.59,1.32-1.32-.59-1.32-1.32-1.32Z" fill="#2c3b5e"/><path d="M289.26,323.38c-.73,0-1.32.59-1.32,1.32s.59,1.32,1.32,1.32,1.32-.59,1.32-1.32-.59-1.32-1.32-1.32Z" fill="#2c3b5e"/><path d="M289.26,330.03c-.73,0-1.32.59-1.32,1.32s.59,1.32,1.32,1.32,1.32-.59,1.32-1.32-.59-1.32-1.32-1.32Z" fill="#2c3b5e"/><path d="M283.17,236.94c-.73,0-1.32.59-1.32,1.32s.59,1.32,1.32,1.32,1.32-.59,1.32-1.32-.59-1.32-1.32-1.32Z" fill="#2c3b5e"/><path d="M283.17,243.59c-.73,0-1.32.59-1.32,1.32s.59,1.32,1.32,1.32,1.32-.59,1.32-1.32-.59-1.32-1.32-1.32Z" fill="#2c3b5e"/><path d="M283.17,250.24c-.73,0-1.32.59-1.32,1.32s.59,1.32,1.32,1.32,1.32-.59,1.32-1.32-.59-1.32-1.32-1.32Z" fill="#2c3b5e"/><path d="M283.17,256.89c-.73,0-1.32.59-1.32,1.32s.59,1.32,1.32,1.32,1.32-.59,1.32-1.32-.59-1.32-1.32-1.32Z" fill="#2c3b5e"/><path d="M283.17,263.54c-.73,0-1.32.59-1.32,1.32s.59,1.32,1.32,1.32,1.32-.59,1.32-1.32-.59-1.32-1.32-1.32Z" fill="#2c3b5e"/><path d="M283.17,270.19c-.73,0-1.32.59-1.32,1.32s.59,1.32,1.32,1.32,1.32-.59,1.32-1.32-.59-1.32-1.32-1.32Z" fill="#2c3b5e"/><path d="M283.17,276.84c-.73,0-1.32.59-1.32,1.32s.59,1.32,1.32,1.32,1.32-.59,1.32-1.32-.59-1.32-1.32-1.32Z" fill="#2c3b5e"/><path d="M283.17,283.49c-.73,0-1.32.59-1.32,1.32s.59,1.32,1.32,1.32,1.32-.59,1.32-1.32-.59-1.32-1.32-1.32Z" fill="#2c3b5e"/><path d="M283.17,290.14c-.73,0-1.32.59-1.32,1.32s.59,1.32,1.32,1.32,1.32-.59,1.32-1.32-.59-1.32-1.32-1.32Z" fill="#2c3b5e"/><path d="M283.17,296.78c-.73,0-1.32.59-1.32,1.32s.59,1.32,1.32,1.32,1.32-.59,1.32-1.32-.59-1.32-1.32-1.32Z" fill="#2c3b5e"/><path d="M283.17,303.43c-.73,0-1.32.59-1.32,1.32s.59,1.32,1.32,1.32,1.32-.59,1.32-1.32-.59-1.32-1.32-1.32Z" fill="#2c3b5e"/><path d="M283.17,310.08c-.73,0-1.32.59-1.32,1.32s.59,1.32,1.32,1.32,1.32-.59,1.32-1.32-.59-1.32-1.32-1.32Z" fill="#2c3b5e"/><path d="M283.17,316.73c-.73,0-1.32.59-1.32,1.32s.59,1.32,1.32,1.32,1.32-.59,1.32-1.32-.59-1.32-1.32-1.32Z" fill="#2c3b5e"/><path d="M283.17,323.38c-.73,0-1.32.59-1.32,1.32s.59,1.32,1.32,1.32,1.32-.59,1.32-1.32-.59-1.32-1.32-1.32Z" fill="#2c3b5e"/><path d="M283.17,330.03c-.73,0-1.32.59-1.32,1.32s.59,1.32,1.32,1.32,1.32-.59,1.32-1.32-.59-1.32-1.32-1.32Z" fill="#2c3b5e"/><path d="M277.08,223.65c-.73,0-1.32.59-1.32,1.32s.59,1.32,1.32,1.32,1.32-.59,1.32-1.32-.59-1.32-1.32-1.32Z" fill="#2c3b5e"/><path d="M277.08,230.29c-.73,0-1.32.59-1.32,1.32s.59,1.32,1.32,1.32,1.32-.59,1.32-1.32-.59-1.32-1.32-1.32Z" fill="#2c3b5e"/><path d="M277.08,236.94c-.73,0-1.32.59-1.32,1.32s.59,1.32,1.32,1.32,1.32-.59,1.32-1.32-.59-1.32-1.32-1.32Z" fill="#2c3b5e"/><path d="M277.08,243.59c-.73,0-1.32.59-1.32,1.32s.59,1.32,1.32,1.32,1.32-.59,1.32-1.32-.59-1.32-1.32-1.32Z" fill="#2c3b5e"/><path d="M277.08,250.24c-.73,0-1.32.59-1.32,1.32s.59,1.32,1.32,1.32,1.32-.59,1.32-1.32-.59-1.32-1.32-1.32Z" fill="#2c3b5e"/><path d="M277.08,256.89c-.73,0-1.32.59-1.32,1.32s.59,1.32,1.32,1.32,1.32-.59,1.32-1.32-.59-1.32-1.32-1.32Z" fill="#2c3b5e"/><path d="M277.08,263.54c-.73,0-1.32.59-1.32,1.32s.59,1.32,1.32,1.32,1.32-.59,1.32-1.32-.59-1.32-1.32-1.32Z" fill="#2c3b5e"/><path d="M277.08,270.19c-.73,0-1.32.59-1.32,1.32s.59,1.32,1.32,1.32,1.32-.59,1.32-1.32-.59-1.32-1.32-1.32Z" fill="#2c3b5e"/><path d="M277.08,276.84c-.73,0-1.32.59-1.32,1.32s.59,1.32,1.32,1.32,1.32-.59,1.32-1.32-.59-1.32-1.32-1.32Z" fill="#2c3b5e"/><path d="M277.08,283.49c-.73,0-1.32.59-1.32,1.32s.59,1.32,1.32,1.32,1.32-.59,1.32-1.32-.59-1.32-1.32-1.32Z" fill="#2c3b5e"/><path d="M277.08,290.14c-.73,0-1.32.59-1.32,1.32s.59,1.32,1.32,1.32,1.32-.59,1.32-1.32-.59-1.32-1.32-1.32Z" fill="#2c3b5e"/><path d="M277.08,296.78c-.73,0-1.32.59-1.32,1.32s.59,1.32,1.32,1.32,1.32-.59,1.32-1.32-.59-1.32-1.32-1.32Z" fill="#2c3b5e"/><path d="M277.08,303.43c-.73,0-1.32.59-1.32,1.32s.59,1.32,1.32,1.32,1.32-.59,1.32-1.32-.59-1.32-1.32-1.32Z" fill="#2c3b5e"/><path d="M277.08,310.08c-.73,0-1.32.59-1.32,1.32s.59,1.32,1.32,1.32,1.32-.59,1.32-1.32-.59-1.32-1.32-1.32Z" fill="#2c3b5e"/><path d="M277.08,316.73c-.73,0-1.32.59-1.32,1.32s.59,1.32,1.32,1.32,1.32-.59,1.32-1.32-.59-1.32-1.32-1.32Z" fill="#2c3b5e"/><path d="M277.08,323.38c-.73,0-1.32.59-1.32,1.32s.59,1.32,1.32,1.32,1.32-.59,1.32-1.32-.59-1.32-1.32-1.32Z" fill="#2c3b5e"/><path d="M277.08,330.03c-.73,0-1.32.59-1.32,1.32s.59,1.32,1.32,1.32,1.32-.59,1.32-1.32-.59-1.32-1.32-1.32Z" fill="#2c3b5e"/><path d="M277.08,217.04c-.73,0-1.32.59-1.32,1.32s.59,1.32,1.32,1.32,1.32-.59,1.32-1.32-.59-1.32-1.32-1.32Z" fill="#2c3b5e"/><path d="M270.99,223.65c-.73,0-1.32.59-1.32,1.32s.59,1.32,1.32,1.32,1.32-.59,1.32-1.32-.59-1.32-1.32-1.32Z" fill="#2c3b5e"/><path d="M270.99,230.29c-.73,0-1.32.59-1.32,1.32s.59,1.32,1.32,1.32,1.32-.59,1.32-1.32-.59-1.32-1.32-1.32Z" fill="#2c3b5e"/><path d="M270.99,236.94c-.73,0-1.32.59-1.32,1.32s.59,1.32,1.32,1.32,1.32-.59,1.32-1.32-.59-1.32-1.32-1.32Z" fill="#2c3b5e"/><path d="M270.99,243.59c-.73,0-1.32.59-1.32,1.32s.59,1.32,1.32,1.32,1.32-.59,1.32-1.32-.59-1.32-1.32-1.32Z" fill="#2c3b5e"/><path d="M270.99,250.24c-.73,0-1.32.59-1.32,1.32s.59,1.32,1.32,1.32,1.32-.59,1.32-1.32-.59-1.32-1.32-1.32Z" fill="#2c3b5e"/><path d="M270.99,256.89c-.73,0-1.32.59-1.32,1.32s.59,1.32,1.32,1.32,1.32-.59,1.32-1.32-.59-1.32-1.32-1.32Z" fill="#2c3b5e"/><path d="M270.99,263.54c-.73,0-1.32.59-1.32,1.32s.59,1.32,1.32,1.32,1.32-.59,1.32-1.32-.59-1.32-1.32-1.32Z" fill="#2c3b5e"/><path d="M270.99,270.19c-.73,0-1.32.59-1.32,1.32s.59,1.32,1.32,1.32,1.32-.59,1.32-1.32-.59-1.32-1.32-1.32Z" fill="#2c3b5e"/><path d="M270.99,276.84c-.73,0-1.32.59-1.32,1.32s.59,1.32,1.32,1.32,1.32-.59,1.32-1.32-.59-1.32-1.32-1.32Z" fill="#2c3b5e"/><path d="M270.99,283.49c-.73,0-1.32.59-1.32,1.32s.59,1.32,1.32,1.32,1.32-.59,1.32-1.32-.59-1.32-1.32-1.32Z" fill="#2c3b5e"/><path d="M270.99,290.14c-.73,0-1.32.59-1.32,1.32s.59,1.32,1.32,1.32,1.32-.59,1.32-1.32-.59-1.32-1.32-1.32Z" fill="#2c3b5e"/><path d="M270.99,296.78c-.73,0-1.32.59-1.32,1.32s.59,1.32,1.32,1.32,1.32-.59,1.32-1.32-.59-1.32-1.32-1.32Z" fill="#2c3b5e"/><path d="M270.99,303.43c-.73,0-1.32.59-1.32,1.32s.59,1.32,1.32,1.32,1.32-.59,1.32-1.32-.59-1.32-1.32-1.32Z" fill="#2c3b5e"/><path d="M270.99,310.08c-.73,0-1.32.59-1.32,1.32s.59,1.32,1.32,1.32,1.32-.59,1.32-1.32-.59-1.32-1.32-1.32Z" fill="#2c3b5e"/><path d="M270.99,316.73c-.73,0-1.32.59-1.32,1.32s.59,1.32,1.32,1.32,1.32-.59,1.32-1.32-.59-1.32-1.32-1.32Z" fill="#2c3b5e"/><path d="M270.99,323.38c-.73,0-1.32.59-1.32,1.32s.59,1.32,1.32,1.32,1.32-.59,1.32-1.32-.59-1.32-1.32-1.32Z" fill="#2c3b5e"/><path d="M270.99,330.03c-.73,0-1.32.59-1.32,1.32s.59,1.32,1.32,1.32,1.32-.59,1.32-1.32-.59-1.32-1.32-1.32Z" fill="#2c3b5e"/><path d="M270.99,217.04c-.73,0-1.32.59-1.32,1.32s.59,1.32,1.32,1.32,1.32-.59,1.32-1.32-.59-1.32-1.32-1.32Z" fill="#2c3b5e"/><path d="M264.9,223.65c-.73,0-1.32.59-1.32,1.32s.59,1.32,1.32,1.32,1.32-.59,1.32-1.32-.59-1.32-1.32-1.32Z" fill="#2c3b5e"/><path d="M264.9,230.29c-.73,0-1.32.59-1.32,1.32s.59,1.32,1.32,1.32,1.32-.59,1.32-1.32-.59-1.32-1.32-1.32Z" fill="#2c3b5e"/><path d="M264.9,236.94c-.73,0-1.32.59-1.32,1.32s.59,1.32,1.32,1.32,1.32-.59,1.32-1.32-.59-1.32-1.32-1.32Z" fill="#2c3b5e"/><path d="M264.9,243.59c-.73,0-1.32.59-1.32,1.32s.59,1.32,1.32,1.32,1.32-.59,1.32-1.32-.59-1.32-1.32-1.32Z" fill="#2c3b5e"/><path d="M264.9,250.24c-.73,0-1.32.59-1.32,1.32s.59,1.32,1.32,1.32,1.32-.59,1.32-1.32-.59-1.32-1.32-1.32Z" fill="#2c3b5e"/><path d="M264.9,256.89c-.73,0-1.32.59-1.32,1.32s.59,1.32,1.32,1.32,1.32-.59,1.32-1.32-.59-1.32-1.32-1.32Z" fill="#2c3b5e"/><path d="M264.9,263.54c-.73,0-1.32.59-1.32,1.32s.59,1.32,1.32,1.32,1.32-.59,1.32-1.32-.59-1.32-1.32-1.32Z" fill="#2c3b5e"/><path d="M264.9,270.19c-.73,0-1.32.59-1.32,1.32s.59,1.32,1.32,1.32,1.32-.59,1.32-1.32-.59-1.32-1.32-1.32Z" fill="#2c3b5e"/><path d="M264.9,276.84c-.73,0-1.32.59-1.32,1.32s.59,1.32,1.32,1.32,1.32-.59,1.32-1.32-.59-1.32-1.32-1.32Z" fill="#2c3b5e"/><path d="M264.9,283.49c-.73,0-1.32.59-1.32,1.32s.59,1.32,1.32,1.32,1.32-.59,1.32-1.32-.59-1.32-1.32-1.32Z" fill="#2c3b5e"/><path d="M264.9,290.14c-.73,0-1.32.59-1.32,1.32s.59,1.32,1.32,1.32,1.32-.59,1.32-1.32-.59-1.32-1.32-1.32Z" fill="#2c3b5e"/><path d="M264.9,296.78c-.73,0-1.32.59-1.32,1.32s.59,1.32,1.32,1.32,1.32-.59,1.32-1.32-.59-1.32-1.32-1.32Z" fill="#2c3b5e"/><path d="M264.9,303.43c-.73,0-1.32.59-1.32,1.32s.59,1.32,1.32,1.32,1.32-.59,1.32-1.32-.59-1.32-1.32-1.32Z" fill="#2c3b5e"/><path d="M264.9,310.08c-.73,0-1.32.59-1.32,1.32s.59,1.32,1.32,1.32,1.32-.59,1.32-1.32-.59-1.32-1.32-1.32Z" fill="#2c3b5e"/><path d="M264.9,316.73c-.73,0-1.32.59-1.32,1.32s.59,1.32,1.32,1.32,1.32-.59,1.32-1.32-.59-1.32-1.32-1.32Z" fill="#2c3b5e"/><path d="M264.9,323.38c-.73,0-1.32.59-1.32,1.32s.59,1.32,1.32,1.32,1.32-.59,1.32-1.32-.59-1.32-1.32-1.32Z" fill="#2c3b5e"/><path d="M264.9,330.03c-.73,0-1.32.59-1.32,1.32s.59,1.32,1.32,1.32,1.32-.59,1.32-1.32-.59-1.32-1.32-1.32Z" fill="#2c3b5e"/><path d="M264.9,217.04c-.73,0-1.32.59-1.32,1.32s.59,1.32,1.32,1.32,1.32-.59,1.32-1.32-.59-1.32-1.32-1.32Z" fill="#2c3b5e"/><path d="M258.82,223.65c-.73,0-1.32.59-1.32,1.32s.59,1.32,1.32,1.32,1.32-.59,1.32-1.32-.59-1.32-1.32-1.32Z" fill="#2c3b5e"/><path d="M258.82,230.29c-.73,0-1.32.59-1.32,1.32s.59,1.32,1.32,1.32,1.32-.59,1.32-1.32-.59-1.32-1.32-1.32Z" fill="#2c3b5e"/><path d="M258.82,236.94c-.73,0-1.32.59-1.32,1.32s.59,1.32,1.32,1.32,1.32-.59,1.32-1.32-.59-1.32-1.32-1.32Z" fill="#2c3b5e"/><path d="M258.82,243.59c-.73,0-1.32.59-1.32,1.32s.59,1.32,1.32,1.32,1.32-.59,1.32-1.32-.59-1.32-1.32-1.32Z" fill="#2c3b5e"/><path d="M258.82,250.24c-.73,0-1.32.59-1.32,1.32s.59,1.32,1.32,1.32,1.32-.59,1.32-1.32-.59-1.32-1.32-1.32Z" fill="#2c3b5e"/><path d="M258.82,256.89c-.73,0-1.32.59-1.32,1.32s.59,1.32,1.32,1.32,1.32-.59,1.32-1.32-.59-1.32-1.32-1.32Z" fill="#2c3b5e"/><path d="M258.82,263.54c-.73,0-1.32.59-1.32,1.32s.59,1.32,1.32,1.32,1.32-.59,1.32-1.32-.59-1.32-1.32-1.32Z" fill="#2c3b5e"/><path d="M258.82,270.19c-.73,0-1.32.59-1.32,1.32s.59,1.32,1.32,1.32,1.32-.59,1.32-1.32-.59-1.32-1.32-1.32Z" fill="#2c3b5e"/><path d="M258.82,276.84c-.73,0-1.32.59-1.32,1.32s.59,1.32,1.32,1.32,1.32-.59,1.32-1.32-.59-1.32-1.32-1.32Z" fill="#2c3b5e"/><path d="M258.82,283.49c-.73,0-1.32.59-1.32,1.32s.59,1.32,1.32,1.32,1.32-.59,1.32-1.32-.59-1.32-1.32-1.32Z" fill="#2c3b5e"/><path d="M258.82,290.14c-.73,0-1.32.59-1.32,1.32s.59,1.32,1.32,1.32,1.32-.59,1.32-1.32-.59-1.32-1.32-1.32Z" fill="#2c3b5e"/><path d="M258.82,296.78c-.73,0-1.32.59-1.32,1.32s.59,1.32,1.32,1.32,1.32-.59,1.32-1.32-.59-1.32-1.32-1.32Z" fill="#2c3b5e"/><path d="M258.82,303.43c-.73,0-1.32.59-1.32,1.32s.59,1.32,1.32,1.32,1.32-.59,1.32-1.32-.59-1.32-1.32-1.32Z" fill="#2c3b5e"/><path d="M258.82,310.08c-.73,0-1.32.59-1.32,1.32s.59,1.32,1.32,1.32,1.32-.59,1.32-1.32-.59-1.32-1.32-1.32Z" fill="#2c3b5e"/><path d="M258.82,316.73c-.73,0-1.32.59-1.32,1.32s.59,1.32,1.32,1.32,1.32-.59,1.32-1.32-.59-1.32-1.32-1.32Z" fill="#2c3b5e"/><path d="M258.82,323.38c-.73,0-1.32.59-1.32,1.32s.59,1.32,1.32,1.32,1.32-.59,1.32-1.32-.59-1.32-1.32-1.32Z" fill="#2c3b5e"/><path d="M258.82,217.04c-.73,0-1.32.59-1.32,1.32s.59,1.32,1.32,1.32,1.32-.59,1.32-1.32-.59-1.32-1.32-1.32Z" fill="#2c3b5e"/><path d="M252.73,223.65c-.73,0-1.32.59-1.32,1.32s.59,1.32,1.32,1.32,1.32-.59,1.32-1.32-.59-1.32-1.32-1.32Z" fill="#2c3b5e"/><path d="M252.73,230.29c-.73,0-1.32.59-1.32,1.32s.59,1.32,1.32,1.32,1.32-.59,1.32-1.32-.59-1.32-1.32-1.32Z" fill="#2c3b5e"/><path d="M252.73,236.94c-.73,0-1.32.59-1.32,1.32s.59,1.32,1.32,1.32,1.32-.59,1.32-1.32-.59-1.32-1.32-1.32Z" fill="#2c3b5e"/><path d="M252.73,243.59c-.73,0-1.32.59-1.32,1.32s.59,1.32,1.32,1.32,1.32-.59,1.32-1.32-.59-1.32-1.32-1.32Z" fill="#2c3b5e"/><path d="M252.73,250.24c-.73,0-1.32.59-1.32,1.32s.59,1.32,1.32,1.32,1.32-.59,1.32-1.32-.59-1.32-1.32-1.32Z" fill="#2c3b5e"/><path d="M252.73,256.89c-.73,0-1.32.59-1.32,1.32s.59,1.32,1.32,1.32,1.32-.59,1.32-1.32-.59-1.32-1.32-1.32Z" fill="#2c3b5e"/><path d="M252.73,263.54c-.73,0-1.32.59-1.32,1.32s.59,1.32,1.32,1.32,1.32-.59,1.32-1.32-.59-1.32-1.32-1.32Z" fill="#2c3b5e"/><path d="M252.73,270.19c-.73,0-1.32.59-1.32,1.32s.59,1.32,1.32,1.32,1.32-.59,1.32-1.32-.59-1.32-1.32-1.32Z" fill="#2c3b5e"/><path d="M252.73,276.84c-.73,0-1.32.59-1.32,1.32s.59,1.32,1.32,1.32,1.32-.59,1.32-1.32-.59-1.32-1.32-1.32Z" fill="#2c3b5e"/><path d="M252.73,283.49c-.73,0-1.32.59-1.32,1.32s.59,1.32,1.32,1.32,1.32-.59,1.32-1.32-.59-1.32-1.32-1.32Z" fill="#2c3b5e"/><path d="M252.73,290.14c-.73,0-1.32.59-1.32,1.32s.59,1.32,1.32,1.32,1.32-.59,1.32-1.32-.59-1.32-1.32-1.32Z" fill="#2c3b5e"/><path d="M252.73,296.78c-.73,0-1.32.59-1.32,1.32s.59,1.32,1.32,1.32,1.32-.59,1.32-1.32-.59-1.32-1.32-1.32Z" fill="#2c3b5e"/><path d="M252.73,303.43c-.73,0-1.32.59-1.32,1.32s.59,1.32,1.32,1.32,1.32-.59,1.32-1.32-.59-1.32-1.32-1.32Z" fill="#2c3b5e"/><path d="M252.73,310.08c-.73,0-1.32.59-1.32,1.32s.59,1.32,1.32,1.32,1.32-.59,1.32-1.32-.59-1.32-1.32-1.32Z" fill="#2c3b5e"/><path d="M252.73,316.73c-.73,0-1.32.59-1.32,1.32s.59,1.32,1.32,1.32,1.32-.59,1.32-1.32-.59-1.32-1.32-1.32Z" fill="#2c3b5e"/><path d="M252.73,217.04c-.73,0-1.32.59-1.32,1.32s.59,1.32,1.32,1.32,1.32-.59,1.32-1.32-.59-1.32-1.32-1.32Z" fill="#2c3b5e"/><path d="M246.64,223.65c-.73,0-1.32.59-1.32,1.32s.59,1.32,1.32,1.32,1.32-.59,1.32-1.32-.59-1.32-1.32-1.32Z" fill="#2c3b5e"/><path d="M246.64,230.29c-.73,0-1.32.59-1.32,1.32s.59,1.32,1.32,1.32,1.32-.59,1.32-1.32-.59-1.32-1.32-1.32Z" fill="#2c3b5e"/><path d="M246.64,236.94c-.73,0-1.32.59-1.32,1.32s.59,1.32,1.32,1.32,1.32-.59,1.32-1.32-.59-1.32-1.32-1.32Z" fill="#2c3b5e"/><path d="M246.64,243.59c-.73,0-1.32.59-1.32,1.32s.59,1.32,1.32,1.32,1.32-.59,1.32-1.32-.59-1.32-1.32-1.32Z" fill="#2c3b5e"/><path d="M246.64,250.24c-.73,0-1.32.59-1.32,1.32s.59,1.32,1.32,1.32,1.32-.59,1.32-1.32-.59-1.32-1.32-1.32Z" fill="#2c3b5e"/><path d="M246.64,256.89c-.73,0-1.32.59-1.32,1.32s.59,1.32,1.32,1.32,1.32-.59,1.32-1.32-.59-1.32-1.32-1.32Z" fill="#2c3b5e"/><path d="M246.64,263.54c-.73,0-1.32.59-1.32,1.32s.59,1.32,1.32,1.32,1.32-.59,1.32-1.32-.59-1.32-1.32-1.32Z" fill="#2c3b5e"/><path d="M246.64,270.19c-.73,0-1.32.59-1.32,1.32s.59,1.32,1.32,1.32,1.32-.59,1.32-1.32-.59-1.32-1.32-1.32Z" fill="#2c3b5e"/><path d="M246.64,276.84c-.73,0-1.32.59-1.32,1.32s.59,1.32,1.32,1.32,1.32-.59,1.32-1.32-.59-1.32-1.32-1.32Z" fill="#2c3b5e"/><path d="M246.64,283.49c-.73,0-1.32.59-1.32,1.32s.59,1.32,1.32,1.32,1.32-.59,1.32-1.32-.59-1.32-1.32-1.32Z" fill="#2c3b5e"/><path d="M246.64,290.14c-.73,0-1.32.59-1.32,1.32s.59,1.32,1.32,1.32,1.32-.59,1.32-1.32-.59-1.32-1.32-1.32Z" fill="#2c3b5e"/><path d="M246.64,296.78c-.73,0-1.32.59-1.32,1.32s.59,1.32,1.32,1.32,1.32-.59,1.32-1.32-.59-1.32-1.32-1.32Z" fill="#2c3b5e"/><path d="M246.64,303.43c-.73,0-1.32.59-1.32,1.32s.59,1.32,1.32,1.32,1.32-.59,1.32-1.32-.59-1.32-1.32-1.32Z" fill="#2c3b5e"/><path d="M246.64,310.08c-.73,0-1.32.59-1.32,1.32s.59,1.32,1.32,1.32,1.32-.59,1.32-1.32-.59-1.32-1.32-1.32Z" fill="#2c3b5e"/><path d="M246.64,316.73c-.73,0-1.32.59-1.32,1.32s.59,1.32,1.32,1.32,1.32-.59,1.32-1.32-.59-1.32-1.32-1.32Z" fill="#2c3b5e"/><path d="M246.64,323.38c-.73,0-1.32.59-1.32,1.32s.59,1.32,1.32,1.32,1.32-.59,1.32-1.32-.59-1.32-1.32-1.32Z" fill="#2c3b5e"/><path d="M246.64,217.04c-.73,0-1.32.59-1.32,1.32s.59,1.32,1.32,1.32,1.32-.59,1.32-1.32-.59-1.32-1.32-1.32Z" fill="#2c3b5e"/><path d="M325.79,370.16c-.73,0-1.32.59-1.32,1.32s.59,1.32,1.32,1.32,1.32-.59,1.32-1.32-.59-1.32-1.32-1.32Z" fill="#2c3b5e"/><path d="M325.79,376.8c-.73,0-1.32.59-1.32,1.32s.59,1.32,1.32,1.32,1.32-.59,1.32-1.32-.59-1.32-1.32-1.32Z" fill="#2c3b5e"/><path d="M325.79,383.45c-.73,0-1.32.59-1.32,1.32s.59,1.32,1.32,1.32,1.32-.59,1.32-1.32-.59-1.32-1.32-1.32Z" fill="#2c3b5e"/><path d="M319.7,350.21c-.73,0-1.32.59-1.32,1.32s.59,1.32,1.32,1.32,1.32-.59,1.32-1.32-.59-1.32-1.32-1.32Z" fill="#2c3b5e"/><path d="M319.7,356.86c-.73,0-1.32.59-1.32,1.32s.59,1.32,1.32,1.32,1.32-.59,1.32-1.32-.59-1.32-1.32-1.32Z" fill="#2c3b5e"/><path d="M319.7,363.51c-.73,0-1.32.59-1.32,1.32s.59,1.32,1.32,1.32,1.32-.59,1.32-1.32-.59-1.32-1.32-1.32Z" fill="#2c3b5e"/><path d="M319.7,370.16c-.73,0-1.32.59-1.32,1.32s.59,1.32,1.32,1.32,1.32-.59,1.32-1.32-.59-1.32-1.32-1.32Z" fill="#2c3b5e"/><path d="M319.7,376.8c-.73,0-1.32.59-1.32,1.32s.59,1.32,1.32,1.32,1.32-.59,1.32-1.32-.59-1.32-1.32-1.32Z" fill="#2c3b5e"/><path d="M319.7,383.45c-.73,0-1.32.59-1.32,1.32s.59,1.32,1.32,1.32,1.32-.59,1.32-1.32-.59-1.32-1.32-1.32Z" fill="#2c3b5e"/><path d="M313.61,336.91c-.73,0-1.32.59-1.32,1.32s.59,1.32,1.32,1.32,1.32-.59,1.32-1.32-.59-1.32-1.32-1.32Z" fill="#2c3b5e"/><path d="M313.61,343.56c-.73,0-1.32.59-1.32,1.32s.59,1.32,1.32,1.32,1.32-.59,1.32-1.32-.59-1.32-1.32-1.32Z" fill="#2c3b5e"/><path d="M313.61,350.21c-.73,0-1.32.59-1.32,1.32s.59,1.32,1.32,1.32,1.32-.59,1.32-1.32-.59-1.32-1.32-1.32Z" fill="#2c3b5e"/><path d="M313.61,356.86c-.73,0-1.32.59-1.32,1.32s.59,1.32,1.32,1.32,1.32-.59,1.32-1.32-.59-1.32-1.32-1.32Z" fill="#2c3b5e"/><path d="M313.61,363.51c-.73,0-1.32.59-1.32,1.32s.59,1.32,1.32,1.32,1.32-.59,1.32-1.32-.59-1.32-1.32-1.32Z" fill="#2c3b5e"/><path d="M313.61,370.16c-.73,0-1.32.59-1.32,1.32s.59,1.32,1.32,1.32,1.32-.59,1.32-1.32-.59-1.32-1.32-1.32Z" fill="#2c3b5e"/><path d="M313.61,376.8c-.73,0-1.32.59-1.32,1.32s.59,1.32,1.32,1.32,1.32-.59,1.32-1.32-.59-1.32-1.32-1.32Z" fill="#2c3b5e"/><path d="M313.61,383.45c-.73,0-1.32.59-1.32,1.32s.59,1.32,1.32,1.32,1.32-.59,1.32-1.32-.59-1.32-1.32-1.32Z" fill="#2c3b5e"/><path d="M307.52,336.91c-.73,0-1.32.59-1.32,1.32s.59,1.32,1.32,1.32,1.32-.59,1.32-1.32-.59-1.32-1.32-1.32Z" fill="#2c3b5e"/><path d="M307.52,343.56c-.73,0-1.32.59-1.32,1.32s.59,1.32,1.32,1.32,1.32-.59,1.32-1.32-.59-1.32-1.32-1.32Z" fill="#2c3b5e"/><path d="M307.52,350.21c-.73,0-1.32.59-1.32,1.32s.59,1.32,1.32,1.32,1.32-.59,1.32-1.32-.59-1.32-1.32-1.32Z" fill="#2c3b5e"/><path d="M307.52,356.86c-.73,0-1.32.59-1.32,1.32s.59,1.32,1.32,1.32,1.32-.59,1.32-1.32-.59-1.32-1.32-1.32Z" fill="#2c3b5e"/><path d="M307.52,363.51c-.73,0-1.32.59-1.32,1.32s.59,1.32,1.32,1.32,1.32-.59,1.32-1.32-.59-1.32-1.32-1.32Z" fill="#2c3b5e"/><path d="M307.52,370.16c-.73,0-1.32.59-1.32,1.32s.59,1.32,1.32,1.32,1.32-.59,1.32-1.32-.59-1.32-1.32-1.32Z" fill="#2c3b5e"/><path d="M307.52,376.8c-.73,0-1.32.59-1.32,1.32s.59,1.32,1.32,1.32,1.32-.59,1.32-1.32-.59-1.32-1.32-1.32Z" fill="#2c3b5e"/><path d="M307.52,383.45c-.73,0-1.32.59-1.32,1.32s.59,1.32,1.32,1.32,1.32-.59,1.32-1.32-.59-1.32-1.32-1.32Z" fill="#2c3b5e"/><path d="M301.44,336.91c-.73,0-1.32.59-1.32,1.32s.59,1.32,1.32,1.32,1.32-.59,1.32-1.32-.59-1.32-1.32-1.32Z" fill="#2c3b5e"/><path d="M301.44,343.56c-.73,0-1.32.59-1.32,1.32s.59,1.32,1.32,1.32,1.32-.59,1.32-1.32-.59-1.32-1.32-1.32Z" fill="#2c3b5e"/><path d="M301.44,350.21c-.73,0-1.32.59-1.32,1.32s.59,1.32,1.32,1.32,1.32-.59,1.32-1.32-.59-1.32-1.32-1.32Z" fill="#2c3b5e"/><path d="M301.44,356.86c-.73,0-1.32.59-1.32,1.32s.59,1.32,1.32,1.32,1.32-.59,1.32-1.32-.59-1.32-1.32-1.32Z" fill="#2c3b5e"/><path d="M301.44,363.51c-.73,0-1.32.59-1.32,1.32s.59,1.32,1.32,1.32,1.32-.59,1.32-1.32-.59-1.32-1.32-1.32Z" fill="#2c3b5e"/><path d="M301.44,370.16c-.73,0-1.32.59-1.32,1.32s.59,1.32,1.32,1.32,1.32-.59,1.32-1.32-.59-1.32-1.32-1.32Z" fill="#2c3b5e"/><path d="M301.44,376.8c-.73,0-1.32.59-1.32,1.32s.59,1.32,1.32,1.32,1.32-.59,1.32-1.32-.59-1.32-1.32-1.32Z" fill="#2c3b5e"/><path d="M301.44,383.45c-.73,0-1.32.59-1.32,1.32s.59,1.32,1.32,1.32,1.32-.59,1.32-1.32-.59-1.32-1.32-1.32Z" fill="#2c3b5e"/><path d="M301.44,390.1c-.73,0-1.32.59-1.32,1.32s.59,1.32,1.32,1.32,1.32-.59,1.32-1.32-.59-1.32-1.32-1.32Z" fill="#2c3b5e"/><path d="M295.35,336.91c-.73,0-1.32.59-1.32,1.32s.59,1.32,1.32,1.32,1.32-.59,1.32-1.32-.59-1.32-1.32-1.32Z" fill="#2c3b5e"/><path d="M295.35,343.56c-.73,0-1.32.59-1.32,1.32s.59,1.32,1.32,1.32,1.32-.59,1.32-1.32-.59-1.32-1.32-1.32Z" fill="#2c3b5e"/><path d="M295.35,350.21c-.73,0-1.32.59-1.32,1.32s.59,1.32,1.32,1.32,1.32-.59,1.32-1.32-.59-1.32-1.32-1.32Z" fill="#2c3b5e"/><path d="M295.35,356.86c-.73,0-1.32.59-1.32,1.32s.59,1.32,1.32,1.32,1.32-.59,1.32-1.32-.59-1.32-1.32-1.32Z" fill="#2c3b5e"/><path d="M295.35,363.51c-.73,0-1.32.59-1.32,1.32s.59,1.32,1.32,1.32,1.32-.59,1.32-1.32-.59-1.32-1.32-1.32Z" fill="#2c3b5e"/><path d="M295.35,370.16c-.73,0-1.32.59-1.32,1.32s.59,1.32,1.32,1.32,1.32-.59,1.32-1.32-.59-1.32-1.32-1.32Z" fill="#2c3b5e"/><path d="M295.35,376.8c-.73,0-1.32.59-1.32,1.32s.59,1.32,1.32,1.32,1.32-.59,1.32-1.32-.59-1.32-1.32-1.32Z" fill="#2c3b5e"/><path d="M295.35,383.45c-.73,0-1.32.59-1.32,1.32s.59,1.32,1.32,1.32,1.32-.59,1.32-1.32-.59-1.32-1.32-1.32Z" fill="#2c3b5e"/><path d="M295.35,390.1c-.73,0-1.32.59-1.32,1.32s.59,1.32,1.32,1.32,1.32-.59,1.32-1.32-.59-1.32-1.32-1.32Z" fill="#2c3b5e"/><path d="M289.26,336.91c-.73,0-1.32.59-1.32,1.32s.59,1.32,1.32,1.32,1.32-.59,1.32-1.32-.59-1.32-1.32-1.32Z" fill="#2c3b5e"/><path d="M289.26,343.56c-.73,0-1.32.59-1.32,1.32s.59,1.32,1.32,1.32,1.32-.59,1.32-1.32-.59-1.32-1.32-1.32Z" fill="#2c3b5e"/><path d="M289.26,350.21c-.73,0-1.32.59-1.32,1.32s.59,1.32,1.32,1.32,1.32-.59,1.32-1.32-.59-1.32-1.32-1.32Z" fill="#2c3b5e"/><path d="M289.26,356.86c-.73,0-1.32.59-1.32,1.32s.59,1.32,1.32,1.32,1.32-.59,1.32-1.32-.59-1.32-1.32-1.32Z" fill="#2c3b5e"/><path d="M289.26,363.51c-.73,0-1.32.59-1.32,1.32s.59,1.32,1.32,1.32,1.32-.59,1.32-1.32-.59-1.32-1.32-1.32Z" fill="#2c3b5e"/><path d="M289.26,370.16c-.73,0-1.32.59-1.32,1.32s.59,1.32,1.32,1.32,1.32-.59,1.32-1.32-.59-1.32-1.32-1.32Z" fill="#2c3b5e"/><path d="M289.26,376.8c-.73,0-1.32.59-1.32,1.32s.59,1.32,1.32,1.32,1.32-.59,1.32-1.32-.59-1.32-1.32-1.32Z" fill="#2c3b5e"/><path d="M289.26,383.45c-.73,0-1.32.59-1.32,1.32s.59,1.32,1.32,1.32,1.32-.59,1.32-1.32-.59-1.32-1.32-1.32Z" fill="#2c3b5e"/><path d="M289.26,390.1c-.73,0-1.32.59-1.32,1.32s.59,1.32,1.32,1.32,1.32-.59,1.32-1.32-.59-1.32-1.32-1.32Z" fill="#2c3b5e"/><path d="M283.17,336.91c-.73,0-1.32.59-1.32,1.32s.59,1.32,1.32,1.32,1.32-.59,1.32-1.32-.59-1.32-1.32-1.32Z" fill="#2c3b5e"/><path d="M283.17,343.56c-.73,0-1.32.59-1.32,1.32s.59,1.32,1.32,1.32,1.32-.59,1.32-1.32-.59-1.32-1.32-1.32Z" fill="#2c3b5e"/><path d="M283.17,350.21c-.73,0-1.32.59-1.32,1.32s.59,1.32,1.32,1.32,1.32-.59,1.32-1.32-.59-1.32-1.32-1.32Z" fill="#2c3b5e"/><path d="M283.17,356.86c-.73,0-1.32.59-1.32,1.32s.59,1.32,1.32,1.32,1.32-.59,1.32-1.32-.59-1.32-1.32-1.32Z" fill="#2c3b5e"/><path d="M283.17,363.51c-.73,0-1.32.59-1.32,1.32s.59,1.32,1.32,1.32,1.32-.59,1.32-1.32-.59-1.32-1.32-1.32Z" fill="#2c3b5e"/><path d="M283.17,370.16c-.73,0-1.32.59-1.32,1.32s.59,1.32,1.32,1.32,1.32-.59,1.32-1.32-.59-1.32-1.32-1.32Z" fill="#2c3b5e"/><path d="M283.17,376.8c-.73,0-1.32.59-1.32,1.32s.59,1.32,1.32,1.32,1.32-.59,1.32-1.32-.59-1.32-1.32-1.32Z" fill="#2c3b5e"/><path d="M283.17,383.45c-.73,0-1.32.59-1.32,1.32s.59,1.32,1.32,1.32,1.32-.59,1.32-1.32-.59-1.32-1.32-1.32Z" fill="#2c3b5e"/><path d="M283.17,390.1c-.73,0-1.32.59-1.32,1.32s.59,1.32,1.32,1.32,1.32-.59,1.32-1.32-.59-1.32-1.32-1.32Z" fill="#2c3b5e"/><path d="M277.08,336.91c-.73,0-1.32.59-1.32,1.32s.59,1.32,1.32,1.32,1.32-.59,1.32-1.32-.59-1.32-1.32-1.32Z" fill="#2c3b5e"/><path d="M277.08,343.56c-.73,0-1.32.59-1.32,1.32s.59,1.32,1.32,1.32,1.32-.59,1.32-1.32-.59-1.32-1.32-1.32Z" fill="#2c3b5e"/><path d="M277.08,350.21c-.73,0-1.32.59-1.32,1.32s.59,1.32,1.32,1.32,1.32-.59,1.32-1.32-.59-1.32-1.32-1.32Z" fill="#2c3b5e"/><path d="M277.08,356.86c-.73,0-1.32.59-1.32,1.32s.59,1.32,1.32,1.32,1.32-.59,1.32-1.32-.59-1.32-1.32-1.32Z" fill="#2c3b5e"/><path d="M277.08,363.51c-.73,0-1.32.59-1.32,1.32s.59,1.32,1.32,1.32,1.32-.59,1.32-1.32-.59-1.32-1.32-1.32Z" fill="#2c3b5e"/><path d="M277.08,370.16c-.73,0-1.32.59-1.32,1.32s.59,1.32,1.32,1.32,1.32-.59,1.32-1.32-.59-1.32-1.32-1.32Z" fill="#2c3b5e"/><path d="M277.08,376.8c-.73,0-1.32.59-1.32,1.32s.59,1.32,1.32,1.32,1.32-.59,1.32-1.32-.59-1.32-1.32-1.32Z" fill="#2c3b5e"/><path d="M277.08,383.45c-.73,0-1.32.59-1.32,1.32s.59,1.32,1.32,1.32,1.32-.59,1.32-1.32-.59-1.32-1.32-1.32Z" fill="#2c3b5e"/><path d="M277.08,390.1c-.73,0-1.32.59-1.32,1.32s.59,1.32,1.32,1.32,1.32-.59,1.32-1.32-.59-1.32-1.32-1.32Z" fill="#2c3b5e"/><path d="M270.99,336.91c-.73,0-1.32.59-1.32,1.32s.59,1.32,1.32,1.32,1.32-.59,1.32-1.32-.59-1.32-1.32-1.32Z" fill="#2c3b5e"/><path d="M270.99,343.56c-.73,0-1.32.59-1.32,1.32s.59,1.32,1.32,1.32,1.32-.59,1.32-1.32-.59-1.32-1.32-1.32Z" fill="#2c3b5e"/><path d="M270.99,350.21c-.73,0-1.32.59-1.32,1.32s.59,1.32,1.32,1.32,1.32-.59,1.32-1.32-.59-1.32-1.32-1.32Z" fill="#2c3b5e"/><path d="M270.99,356.86c-.73,0-1.32.59-1.32,1.32s.59,1.32,1.32,1.32,1.32-.59,1.32-1.32-.59-1.32-1.32-1.32Z" fill="#2c3b5e"/><path d="M270.99,363.51c-.73,0-1.32.59-1.32,1.32s.59,1.32,1.32,1.32,1.32-.59,1.32-1.32-.59-1.32-1.32-1.32Z" fill="#2c3b5e"/><path d="M270.99,370.16c-.73,0-1.32.59-1.32,1.32s.59,1.32,1.32,1.32,1.32-.59,1.32-1.32-.59-1.32-1.32-1.32Z" fill="#2c3b5e"/><path d="M270.99,376.8c-.73,0-1.32.59-1.32,1.32s.59,1.32,1.32,1.32,1.32-.59,1.32-1.32-.59-1.32-1.32-1.32Z" fill="#2c3b5e"/><path d="M264.9,336.91c-.73,0-1.32.59-1.32,1.32s.59,1.32,1.32,1.32,1.32-.59,1.32-1.32-.59-1.32-1.32-1.32Z" fill="#2c3b5e"/><path d="M264.9,343.56c-.73,0-1.32.59-1.32,1.32s.59,1.32,1.32,1.32,1.32-.59,1.32-1.32-.59-1.32-1.32-1.32Z" fill="#2c3b5e"/><path d="M264.9,350.21c-.73,0-1.32.59-1.32,1.32s.59,1.32,1.32,1.32,1.32-.59,1.32-1.32-.59-1.32-1.32-1.32Z" fill="#2c3b5e"/></g><path d="M233.58,207.94l46.72,3.19c6.39-21.96,4.39-56.31,4.39-56.31" fill="none" stroke="#2c3b5e" stroke-miterlimit="10" stroke-width="3"/><polyline points="277.04 209.21 330.88 385.74 274.92 398.78 254.31 309.19" fill="none" stroke="#2c3b5e" stroke-miterlimit="10" stroke-width="3"/><path d="M222.93,129c-35.67-3.73-53.45,63.36-54.61,83.88-3.75,2.1-5.73,4.74-6.78,8.9s-.3,8.75,2.02,12.37" fill="none" stroke="#2c3b5e" stroke-miterlimit="10" stroke-width="3"/><path d="M169.8,220.11c-2.23,4.65-1.68,10.51,1.38,14.67" fill="none" stroke="#2c3b5e" stroke-miterlimit="10" stroke-width="3"/><path d="M176.49,223.47c-1.29,3.54-1.05,7.6.64,10.96" fill="none" stroke="#2c3b5e" stroke-miterlimit="10" stroke-width="3"/><path d="M189.93,229.93c.35-3.66,1.2-7.59.49-11.23-.59-3.02-1.26-4.75-.6-7.88,1.46-6.94,3.98-13.8,6.86-20.27,5.74-12.88,13.83-24.72,23.82-34.68" fill="none" stroke="#2c3b5e" stroke-miterlimit="10" stroke-width="3"/><polyline points="184.6 228.64 197.36 228.64 201.15 246.66" fill="none" stroke="#2c3b5e" stroke-miterlimit="10" stroke-width="3"/><polyline points="161.1 228.64 153.47 228.64 150.24 245.77" fill="none" stroke="#2c3b5e" stroke-miterlimit="10" stroke-width="3"/><rect x="129.16" y="245.77" width="91.21" height="55.49" fill="none" stroke="#2c3b5e" stroke-miterlimit="10" stroke-width="3"/><path d="M168.72,211.71s9.36,7.55,22.37,1.94" fill="none" stroke="#2c3b5e" stroke-miterlimit="10" stroke-width="3"/><line x1="211.68" y1="165.75" x2="207.07" y2="206.79" fill="none" stroke="#2c3b5e" stroke-miterlimit="10" stroke-width="3"/><path d="M241.2,119.7c10.81,9.78,27.65,13.9,41.62,9.74,1.28,3.72,1.08,8.37.18,12.2-12.54,6.63-28.14,7.13-41.08,1.33-3.24-1.45-6.36-3.31-8.82-5.87s-4.24-5.89-4.49-9.43c3.8-3.99,7.5-5.89,12.59-7.98Z" fill="none" stroke="#2c3b5e" stroke-miterlimit="10" stroke-width="3"/><path d="M255.85,146.58c-.3,13.29-2.63,26.52-6.87,39.12,6.92,2.04,13.86,3.56,21.08,3.43,2.68-14.29,4.21-28.81,4.37-43.35" fill="none" stroke="#2c3b5e" stroke-miterlimit="10" stroke-width="3"/><path d="M270.32,130.67c4.6-3.04,10.55-11.18,10.49-16.69-.08-7.18-4.78-14.19-2.95-21.14" fill="none" stroke="#2c3b5e" stroke-miterlimit="10" stroke-width="3"/><path d="M281.5,93.02c-15.67-4.69-33.98-.53-45.59,10.35-1.1.04-2.31-.27-3.09-1s-1.31-1.66-1.7-2.62c-1.11-2.75-1.18-5.86-.19-8.66,12.6-9.7,29.85-14.04,46.03-11.97,2.54.33,3.62,3.38,4.06,5.74.44,2.36,1.9,6.18.48,8.17Z" fill="none" stroke="#2c3b5e" stroke-miterlimit="10" stroke-width="3"/><path d="M248.92,70.24c-9.44,2.39-16.83,11.5-17.69,20.6l1.12-.81c17.39-14.54,42.5-11.1,42.5-11.1-5.66-7.45-16.49-11.08-25.93-8.69Z" fill="#2c3b5e" stroke="#2c3b5e" stroke-miterlimit="10" stroke-width="3"/><path d="M238.08,75.85c-1.47-.79-2.46-2.26-2.46-3.96,0-2.52,2.18-4.56,4.88-4.56s4.88,2.04,4.88,4.56" fill="none" stroke="#2c3b5e" stroke-miterlimit="10" stroke-width="3"/><path d="M251.44,94.03c0,6.91-3.93,11.56-5.22,13.23-1.36-1.16-3.62-1.09-5.23-.33s-2.7,2.53-2.65,4.31c.04,1.52.86,2.98,2.08,3.89,1.22.91,2.81,1.27,4.32,1.08-.12,2.27.36,4.58,1.26,6.68" fill="none" stroke="#2c3b5e" stroke-miterlimit="10" stroke-width="3"/><path d="M283.15,195.09c5.84,4.35,13.54,5.7,20.77,4.84s14.07-3.78,20.46-7.28c10.76-5.91,20.55-13.59,28.83-22.65" fill="none" stroke="#2c3b5e" stroke-miterlimit="10" stroke-width="3"/><path d="M359.93,145.61c-2.35-1.29-4.79-2.48-7.42-3.01s-5.48-.35-7.8.99" fill="none" stroke="#2c3b5e" stroke-miterlimit="10" stroke-width="3"/><path d="M361.46,152.79c-5.01-3.48-11.55-4.67-17.47-3.17" fill="none" stroke="#2c3b5e" stroke-miterlimit="10" stroke-width="3"/><path d="M360.09,160.91c-4.42-3.88-10.89-5.28-16.52-3.59" fill="none" stroke="#2c3b5e" stroke-miterlimit="10" stroke-width="3"/><polyline points="350.19 142.31 351.83 133.35 319.04 133.35 325.03 167.45 347.59 167.45" fill="none" stroke="#2c3b5e" stroke-miterlimit="10" stroke-width="3"/><path d="M233.06,102.91c-1.54,4.83-.54,10.4,2.59,14.39" fill="none" stroke="#2c3b5e" stroke-miterlimit="10" stroke-width="3"/><polyline points="265.21 105.14 271.2 114.33 262.81 117.93" fill="none" stroke="#2c3b5e" stroke-miterlimit="10" stroke-width="3"/><ellipse cx="258.2" cy="104.71" rx="2.03" ry="2.4" fill="#2c3b5e"/><ellipse cx="272.81" cy="104.01" rx="2.03" ry="2.4" fill="#2c3b5e"/><path d="M264.55,234.13s-3.47,91.44-26.64,105.75-87.68,23.8-87.68,23.8l-11.22-44.84,68.37-17.95" fill="none" stroke="#2c3b5e" stroke-miterlimit="10" stroke-width="3"/><polyline points="322.04 393.73 353.8 412.66 292.59 412.66 292.59 400.46" fill="none" stroke="#2c3b5e" stroke-miterlimit="10" stroke-width="3"/><polyline points="139.02 357.01 121.81 389.74 118.54 328.62 130.72 327.96" fill="none" stroke="#2c3b5e" stroke-miterlimit="10" stroke-width="3"/><path d="M283.11,141.1c4.72-1.18,9.5,2.3,11.92,6.51,2.42,4.22,3.24,9.14,5,13.68,1.92,4.97,5,9.5,8.92,13.11" fill="none" stroke="#2c3b5e" stroke-miterlimit="10" stroke-width="3"/><path d="M302.8,166.89c6.82-1.93,14.74-6.4,20.19-10.91" fill="none" stroke="#2c3b5e" stroke-miterlimit="10" stroke-width="3"/><path d="M334.04,128.17c1.05-2.01,1.22-4.47.47-6.61-.51-1.46-1.43-2.75-2.01-4.19-1.41-3.48-.64-7.73,1.89-10.5" fill="none" stroke="#2c3b5e" stroke-miterlimit="10" stroke-width="3"/><path d="M345.01,128.11c.95-1.28.91-3.04.52-4.59-.39-1.54-1.08-3.01-1.32-4.58-.25-1.57.06-3.37,1.31-4.36" fill="none" stroke="#2c3b5e" stroke-miterlimit="10" stroke-width="3"/><path d="M324.88,128.11c.95-1.28.91-3.04.52-4.59-.39-1.54-1.08-3.01-1.32-4.58-.25-1.57.06-3.37,1.31-4.36" fill="none" stroke="#2c3b5e" stroke-miterlimit="10" stroke-width="3"/><path d="M238.1,140.35c1.6-6.33,5.86-11.94,11.52-15.18" fill="none" stroke="#2c3b5e" stroke-miterlimit="10" stroke-width="3"/><path d="M264.61,130.21c.53,5.72-.07,11.54-1.75,17.02" fill="none" stroke="#2c3b5e" stroke-miterlimit="10" stroke-width="3"/><path d="M254.71,159.61c5.84,1.79,12.07,2.3,18.12,1.48" fill="none" stroke="#2c3b5e" stroke-miterlimit="10" stroke-width="3"/><path d="M252.75,174.37c6.48,1.17,13.12,1.52,19.69,1.01" fill="none" stroke="#2c3b5e" stroke-miterlimit="10" stroke-width="3"/></svg>