<svg id="Illustrations" xmlns="http://www.w3.org/2000/svg" width="480" height="480" viewBox="0 0 480 480"><g><path d="M236.56,225.06c-.68,0-1.22.55-1.22,1.22s.55,1.22,1.22,1.22,1.22-.55,1.22-1.22-.55-1.22-1.22-1.22Z" fill="#2c3b5e"/><path d="M236.56,231.24c-.68,0-1.22.55-1.22,1.22s.55,1.22,1.22,1.22,1.22-.55,1.22-1.22-.55-1.22-1.22-1.22Z" fill="#2c3b5e"/><path d="M236.56,237.43c-.68,0-1.22.55-1.22,1.22s.55,1.22,1.22,1.22,1.22-.55,1.22-1.22-.55-1.22-1.22-1.22Z" fill="#2c3b5e"/><path d="M236.56,243.61c-.68,0-1.22.55-1.22,1.22s.55,1.22,1.22,1.22,1.22-.55,1.22-1.22-.55-1.22-1.22-1.22Z" fill="#2c3b5e"/><path d="M236.56,249.79c-.68,0-1.22.55-1.22,1.22s.55,1.22,1.22,1.22,1.22-.55,1.22-1.22-.55-1.22-1.22-1.22Z" fill="#2c3b5e"/><path d="M236.56,255.98c-.68,0-1.22.55-1.22,1.22s.55,1.22,1.22,1.22,1.22-.55,1.22-1.22-.55-1.22-1.22-1.22Z" fill="#2c3b5e"/><path d="M236.56,262.16c-.68,0-1.22.55-1.22,1.22s.55,1.22,1.22,1.22,1.22-.55,1.22-1.22-.55-1.22-1.22-1.22Z" fill="#2c3b5e"/><path d="M236.56,268.35c-.68,0-1.22.55-1.22,1.22s.55,1.22,1.22,1.22,1.22-.55,1.22-1.22-.55-1.22-1.22-1.22Z" fill="#2c3b5e"/><path d="M236.56,274.53c-.68,0-1.22.55-1.22,1.22s.55,1.22,1.22,1.22,1.22-.55,1.22-1.22-.55-1.22-1.22-1.22Z" fill="#2c3b5e"/><path d="M236.56,280.71c-.68,0-1.22.55-1.22,1.22s.55,1.22,1.22,1.22,1.22-.55,1.22-1.22-.55-1.22-1.22-1.22Z" fill="#2c3b5e"/><path d="M236.56,286.9c-.68,0-1.22.55-1.22,1.22s.55,1.22,1.22,1.22,1.22-.55,1.22-1.22-.55-1.22-1.22-1.22Z" fill="#2c3b5e"/><path d="M236.56,293.08c-.68,0-1.22.55-1.22,1.22s.55,1.22,1.22,1.22,1.22-.55,1.22-1.22-.55-1.22-1.22-1.22Z" fill="#2c3b5e"/><path d="M236.56,299.26c-.68,0-1.22.55-1.22,1.22s.55,1.22,1.22,1.22,1.22-.55,1.22-1.22-.55-1.22-1.22-1.22Z" fill="#2c3b5e"/><path d="M225.24,225.06c-.68,0-1.22.55-1.22,1.22s.55,1.22,1.22,1.22,1.22-.55,1.22-1.22-.55-1.22-1.22-1.22Z" fill="#2c3b5e"/><path d="M225.24,231.24c-.68,0-1.22.55-1.22,1.22s.55,1.22,1.22,1.22,1.22-.55,1.22-1.22-.55-1.22-1.22-1.22Z" fill="#2c3b5e"/><path d="M225.24,237.43c-.68,0-1.22.55-1.22,1.22s.55,1.22,1.22,1.22,1.22-.55,1.22-1.22-.55-1.22-1.22-1.22Z" fill="#2c3b5e"/><path d="M225.24,243.61c-.68,0-1.22.55-1.22,1.22s.55,1.22,1.22,1.22,1.22-.55,1.22-1.22-.55-1.22-1.22-1.22Z" fill="#2c3b5e"/><path d="M225.24,249.79c-.68,0-1.22.55-1.22,1.22s.55,1.22,1.22,1.22,1.22-.55,1.22-1.22-.55-1.22-1.22-1.22Z" fill="#2c3b5e"/><path d="M225.24,255.98c-.68,0-1.22.55-1.22,1.22s.55,1.22,1.22,1.22,1.22-.55,1.22-1.22-.55-1.22-1.22-1.22Z" fill="#2c3b5e"/><path d="M225.24,262.16c-.68,0-1.22.55-1.22,1.22s.55,1.22,1.22,1.22,1.22-.55,1.22-1.22-.55-1.22-1.22-1.22Z" fill="#2c3b5e"/><path d="M225.24,268.35c-.68,0-1.22.55-1.22,1.22s.55,1.22,1.22,1.22,1.22-.55,1.22-1.22-.55-1.22-1.22-1.22Z" fill="#2c3b5e"/><path d="M225.24,274.53c-.68,0-1.22.55-1.22,1.22s.55,1.22,1.22,1.22,1.22-.55,1.22-1.22-.55-1.22-1.22-1.22Z" fill="#2c3b5e"/><path d="M225.24,280.71c-.68,0-1.22.55-1.22,1.22s.55,1.22,1.22,1.22,1.22-.55,1.22-1.22-.55-1.22-1.22-1.22Z" fill="#2c3b5e"/><path d="M225.24,286.9c-.68,0-1.22.55-1.22,1.22s.55,1.22,1.22,1.22,1.22-.55,1.22-1.22-.55-1.22-1.22-1.22Z" fill="#2c3b5e"/><path d="M225.24,293.08c-.68,0-1.22.55-1.22,1.22s.55,1.22,1.22,1.22,1.22-.55,1.22-1.22-.55-1.22-1.22-1.22Z" fill="#2c3b5e"/><path d="M225.24,299.26c-.68,0-1.22.55-1.22,1.22s.55,1.22,1.22,1.22,1.22-.55,1.22-1.22-.55-1.22-1.22-1.22Z" fill="#2c3b5e"/><path d="M219.57,225.06c-.68,0-1.22.55-1.22,1.22s.55,1.22,1.22,1.22,1.22-.55,1.22-1.22-.55-1.22-1.22-1.22Z" fill="#2c3b5e"/><path d="M219.57,231.24c-.68,0-1.22.55-1.22,1.22s.55,1.22,1.22,1.22,1.22-.55,1.22-1.22-.55-1.22-1.22-1.22Z" fill="#2c3b5e"/><path d="M219.57,237.43c-.68,0-1.22.55-1.22,1.22s.55,1.22,1.22,1.22,1.22-.55,1.22-1.22-.55-1.22-1.22-1.22Z" fill="#2c3b5e"/><path d="M219.57,243.61c-.68,0-1.22.55-1.22,1.22s.55,1.22,1.22,1.22,1.22-.55,1.22-1.22-.55-1.22-1.22-1.22Z" fill="#2c3b5e"/><path d="M219.57,249.79c-.68,0-1.22.55-1.22,1.22s.55,1.22,1.22,1.22,1.22-.55,1.22-1.22-.55-1.22-1.22-1.22Z" fill="#2c3b5e"/><path d="M219.57,255.98c-.68,0-1.22.55-1.22,1.22s.55,1.22,1.22,1.22,1.22-.55,1.22-1.22-.55-1.22-1.22-1.22Z" fill="#2c3b5e"/><path d="M219.57,262.16c-.68,0-1.22.55-1.22,1.22s.55,1.22,1.22,1.22,1.22-.55,1.22-1.22-.55-1.22-1.22-1.22Z" fill="#2c3b5e"/><path d="M220.8,269.57c0-.68-.55-1.22-1.22-1.22s-1.22.55-1.22,1.22.55,1.22,1.22,1.22,1.22-.55,1.22-1.22" fill="#2c3b5e"/><path d="M219.57,274.53c-.68,0-1.22.55-1.22,1.22s.55,1.22,1.22,1.22,1.22-.55,1.22-1.22-.55-1.22-1.22-1.22Z" fill="#2c3b5e"/><path d="M219.57,280.71c-.68,0-1.22.55-1.22,1.22s.55,1.22,1.22,1.22,1.22-.55,1.22-1.22-.55-1.22-1.22-1.22Z" fill="#2c3b5e"/><path d="M219.57,286.9c-.68,0-1.22.55-1.22,1.22s.55,1.22,1.22,1.22,1.22-.55,1.22-1.22-.55-1.22-1.22-1.22Z" fill="#2c3b5e"/><path d="M219.57,293.08c-.68,0-1.22.55-1.22,1.22s.55,1.22,1.22,1.22,1.22-.55,1.22-1.22-.55-1.22-1.22-1.22Z" fill="#2c3b5e"/><path d="M219.57,299.26c-.68,0-1.22.55-1.22,1.22s.55,1.22,1.22,1.22,1.22-.55,1.22-1.22-.55-1.22-1.22-1.22Z" fill="#2c3b5e"/><path d="M213.91,225.06c-.68,0-1.22.55-1.22,1.22s.55,1.22,1.22,1.22,1.22-.55,1.22-1.22-.55-1.22-1.22-1.22Z" fill="#2c3b5e"/><path d="M213.91,231.24c-.68,0-1.22.55-1.22,1.22s.55,1.22,1.22,1.22,1.22-.55,1.22-1.22-.55-1.22-1.22-1.22Z" fill="#2c3b5e"/><path d="M213.91,237.43c-.68,0-1.22.55-1.22,1.22s.55,1.22,1.22,1.22,1.22-.55,1.22-1.22-.55-1.22-1.22-1.22Z" fill="#2c3b5e"/><path d="M213.91,243.61c-.68,0-1.22.55-1.22,1.22s.55,1.22,1.22,1.22,1.22-.55,1.22-1.22-.55-1.22-1.22-1.22Z" fill="#2c3b5e"/><path d="M213.91,249.79c-.68,0-1.22.55-1.22,1.22s.55,1.22,1.22,1.22,1.22-.55,1.22-1.22-.55-1.22-1.22-1.22Z" fill="#2c3b5e"/><path d="M213.91,255.98c-.68,0-1.22.55-1.22,1.22s.55,1.22,1.22,1.22,1.22-.55,1.22-1.22-.55-1.22-1.22-1.22Z" fill="#2c3b5e"/><path d="M213.91,262.16c-.68,0-1.22.55-1.22,1.22s.55,1.22,1.22,1.22,1.22-.55,1.22-1.22-.55-1.22-1.22-1.22Z" fill="#2c3b5e"/><path d="M213.91,268.35c-.68,0-1.22.55-1.22,1.22s.55,1.22,1.22,1.22,1.22-.55,1.22-1.22-.55-1.22-1.22-1.22Z" fill="#2c3b5e"/><path d="M213.91,274.53c-.68,0-1.22.55-1.22,1.22s.55,1.22,1.22,1.22,1.22-.55,1.22-1.22-.55-1.22-1.22-1.22Z" fill="#2c3b5e"/><path d="M213.91,280.71c-.68,0-1.22.55-1.22,1.22s.55,1.22,1.22,1.22,1.22-.55,1.22-1.22-.55-1.22-1.22-1.22Z" fill="#2c3b5e"/><path d="M213.91,286.9c-.68,0-1.22.55-1.22,1.22s.55,1.22,1.22,1.22,1.22-.55,1.22-1.22-.55-1.22-1.22-1.22Z" fill="#2c3b5e"/><path d="M213.91,293.08c-.68,0-1.22.55-1.22,1.22s.55,1.22,1.22,1.22,1.22-.55,1.22-1.22-.55-1.22-1.22-1.22Z" fill="#2c3b5e"/><path d="M213.91,299.26c-.68,0-1.22.55-1.22,1.22s.55,1.22,1.22,1.22,1.22-.55,1.22-1.22-.55-1.22-1.22-1.22Z" fill="#2c3b5e"/><path d="M208.25,225.06c-.68,0-1.22.55-1.22,1.22s.55,1.22,1.22,1.22,1.22-.55,1.22-1.22-.55-1.22-1.22-1.22Z" fill="#2c3b5e"/><path d="M208.25,231.24c-.68,0-1.22.55-1.22,1.22s.55,1.22,1.22,1.22,1.22-.55,1.22-1.22-.55-1.22-1.22-1.22Z" fill="#2c3b5e"/><path d="M208.25,237.43c-.68,0-1.22.55-1.22,1.22s.55,1.22,1.22,1.22,1.22-.55,1.22-1.22-.55-1.22-1.22-1.22Z" fill="#2c3b5e"/><path d="M208.25,243.61c-.68,0-1.22.55-1.22,1.22s.55,1.22,1.22,1.22,1.22-.55,1.22-1.22-.55-1.22-1.22-1.22Z" fill="#2c3b5e"/><path d="M208.25,249.79c-.68,0-1.22.55-1.22,1.22s.55,1.22,1.22,1.22,1.22-.55,1.22-1.22-.55-1.22-1.22-1.22Z" fill="#2c3b5e"/><path d="M208.25,255.98c-.68,0-1.22.55-1.22,1.22s.55,1.22,1.22,1.22,1.22-.55,1.22-1.22-.55-1.22-1.22-1.22Z" fill="#2c3b5e"/><path d="M208.25,262.16c-.68,0-1.22.55-1.22,1.22s.55,1.22,1.22,1.22,1.22-.55,1.22-1.22-.55-1.22-1.22-1.22Z" fill="#2c3b5e"/><path d="M208.25,268.35c-.68,0-1.22.55-1.22,1.22s.55,1.22,1.22,1.22,1.22-.55,1.22-1.22-.55-1.22-1.22-1.22Z" fill="#2c3b5e"/><path d="M208.25,274.53c-.68,0-1.22.55-1.22,1.22s.55,1.22,1.22,1.22,1.22-.55,1.22-1.22-.55-1.22-1.22-1.22Z" fill="#2c3b5e"/><path d="M208.25,280.71c-.68,0-1.22.55-1.22,1.22s.55,1.22,1.22,1.22,1.22-.55,1.22-1.22-.55-1.22-1.22-1.22Z" fill="#2c3b5e"/><path d="M208.25,286.9c-.68,0-1.22.55-1.22,1.22s.55,1.22,1.22,1.22,1.22-.55,1.22-1.22-.55-1.22-1.22-1.22Z" fill="#2c3b5e"/><path d="M208.25,293.08c-.68,0-1.22.55-1.22,1.22s.55,1.22,1.22,1.22,1.22-.55,1.22-1.22-.55-1.22-1.22-1.22Z" fill="#2c3b5e"/><path d="M208.25,299.26c-.68,0-1.22.55-1.22,1.22s.55,1.22,1.22,1.22,1.22-.55,1.22-1.22-.55-1.22-1.22-1.22Z" fill="#2c3b5e"/><path d="M202.59,225.06c-.68,0-1.22.55-1.22,1.22s.55,1.22,1.22,1.22,1.22-.55,1.22-1.22-.55-1.22-1.22-1.22Z" fill="#2c3b5e"/><path d="M202.59,231.24c-.68,0-1.22.55-1.22,1.22s.55,1.22,1.22,1.22,1.22-.55,1.22-1.22-.55-1.22-1.22-1.22Z" fill="#2c3b5e"/><path d="M202.59,237.43c-.68,0-1.22.55-1.22,1.22s.55,1.22,1.22,1.22,1.22-.55,1.22-1.22-.55-1.22-1.22-1.22Z" fill="#2c3b5e"/><path d="M202.59,243.61c-.68,0-1.22.55-1.22,1.22s.55,1.22,1.22,1.22,1.22-.55,1.22-1.22-.55-1.22-1.22-1.22Z" fill="#2c3b5e"/><path d="M202.59,249.79c-.68,0-1.22.55-1.22,1.22s.55,1.22,1.22,1.22,1.22-.55,1.22-1.22-.55-1.22-1.22-1.22Z" fill="#2c3b5e"/><path d="M202.59,255.98c-.68,0-1.22.55-1.22,1.22s.55,1.22,1.22,1.22,1.22-.55,1.22-1.22-.55-1.22-1.22-1.22Z" fill="#2c3b5e"/><path d="M202.59,262.16c-.68,0-1.22.55-1.22,1.22s.55,1.22,1.22,1.22,1.22-.55,1.22-1.22-.55-1.22-1.22-1.22Z" fill="#2c3b5e"/><path d="M202.59,268.35c-.68,0-1.22.55-1.22,1.22s.55,1.22,1.22,1.22,1.22-.55,1.22-1.22-.55-1.22-1.22-1.22Z" fill="#2c3b5e"/><path d="M202.59,274.53c-.68,0-1.22.55-1.22,1.22s.55,1.22,1.22,1.22,1.22-.55,1.22-1.22-.55-1.22-1.22-1.22Z" fill="#2c3b5e"/><path d="M202.59,280.71c-.68,0-1.22.55-1.22,1.22s.55,1.22,1.22,1.22,1.22-.55,1.22-1.22-.55-1.22-1.22-1.22Z" fill="#2c3b5e"/><path d="M202.59,286.9c-.68,0-1.22.55-1.22,1.22s.55,1.22,1.22,1.22,1.22-.55,1.22-1.22-.55-1.22-1.22-1.22Z" fill="#2c3b5e"/><path d="M202.59,293.08c-.68,0-1.22.55-1.22,1.22s.55,1.22,1.22,1.22,1.22-.55,1.22-1.22-.55-1.22-1.22-1.22Z" fill="#2c3b5e"/><path d="M202.59,299.26c-.68,0-1.22.55-1.22,1.22s.55,1.22,1.22,1.22,1.22-.55,1.22-1.22-.55-1.22-1.22-1.22Z" fill="#2c3b5e"/><path d="M196.92,225.06c-.68,0-1.22.55-1.22,1.22s.55,1.22,1.22,1.22,1.22-.55,1.22-1.22-.55-1.22-1.22-1.22Z" fill="#2c3b5e"/><path d="M196.92,231.24c-.68,0-1.22.55-1.22,1.22s.55,1.22,1.22,1.22,1.22-.55,1.22-1.22-.55-1.22-1.22-1.22Z" fill="#2c3b5e"/><path d="M196.92,237.43c-.68,0-1.22.55-1.22,1.22s.55,1.22,1.22,1.22,1.22-.55,1.22-1.22-.55-1.22-1.22-1.22Z" fill="#2c3b5e"/><path d="M196.92,243.61c-.68,0-1.22.55-1.22,1.22s.55,1.22,1.22,1.22,1.22-.55,1.22-1.22-.55-1.22-1.22-1.22Z" fill="#2c3b5e"/><path d="M196.92,249.79c-.68,0-1.22.55-1.22,1.22s.55,1.22,1.22,1.22,1.22-.55,1.22-1.22-.55-1.22-1.22-1.22Z" fill="#2c3b5e"/><path d="M196.92,255.98c-.68,0-1.22.55-1.22,1.22s.55,1.22,1.22,1.22,1.22-.55,1.22-1.22-.55-1.22-1.22-1.22Z" fill="#2c3b5e"/><path d="M196.92,262.16c-.68,0-1.22.55-1.22,1.22s.55,1.22,1.22,1.22,1.22-.55,1.22-1.22-.55-1.22-1.22-1.22Z" fill="#2c3b5e"/><path d="M196.92,268.35c-.68,0-1.22.55-1.22,1.22s.55,1.22,1.22,1.22,1.22-.55,1.22-1.22-.55-1.22-1.22-1.22Z" fill="#2c3b5e"/><path d="M196.92,274.53c-.68,0-1.22.55-1.22,1.22s.55,1.22,1.22,1.22,1.22-.55,1.22-1.22-.55-1.22-1.22-1.22Z" fill="#2c3b5e"/><path d="M196.92,280.71c-.68,0-1.22.55-1.22,1.22s.55,1.22,1.22,1.22,1.22-.55,1.22-1.22-.55-1.22-1.22-1.22Z" fill="#2c3b5e"/><path d="M196.92,286.9c-.68,0-1.22.55-1.22,1.22s.55,1.22,1.22,1.22,1.22-.55,1.22-1.22-.55-1.22-1.22-1.22Z" fill="#2c3b5e"/><path d="M196.92,293.08c-.68,0-1.22.55-1.22,1.22s.55,1.22,1.22,1.22,1.22-.55,1.22-1.22-.55-1.22-1.22-1.22Z" fill="#2c3b5e"/><path d="M196.92,299.26c-.68,0-1.22.55-1.22,1.22s.55,1.22,1.22,1.22,1.22-.55,1.22-1.22-.55-1.22-1.22-1.22Z" fill="#2c3b5e"/><path d="M191.26,225.06c-.68,0-1.22.55-1.22,1.22s.55,1.22,1.22,1.22,1.22-.55,1.22-1.22-.55-1.22-1.22-1.22Z" fill="#2c3b5e"/><path d="M191.26,231.24c-.68,0-1.22.55-1.22,1.22s.55,1.22,1.22,1.22,1.22-.55,1.22-1.22-.55-1.22-1.22-1.22Z" fill="#2c3b5e"/><path d="M191.26,237.43c-.68,0-1.22.55-1.22,1.22s.55,1.22,1.22,1.22,1.22-.55,1.22-1.22-.55-1.22-1.22-1.22Z" fill="#2c3b5e"/><path d="M191.26,243.61c-.68,0-1.22.55-1.22,1.22s.55,1.22,1.22,1.22,1.22-.55,1.22-1.22-.55-1.22-1.22-1.22Z" fill="#2c3b5e"/><path d="M191.26,249.79c-.68,0-1.22.55-1.22,1.22s.55,1.22,1.22,1.22,1.22-.55,1.22-1.22-.55-1.22-1.22-1.22Z" fill="#2c3b5e"/><path d="M191.26,255.98c-.68,0-1.22.55-1.22,1.22s.55,1.22,1.22,1.22,1.22-.55,1.22-1.22-.55-1.22-1.22-1.22Z" fill="#2c3b5e"/><path d="M191.26,262.16c-.68,0-1.22.55-1.22,1.22s.55,1.22,1.22,1.22,1.22-.55,1.22-1.22-.55-1.22-1.22-1.22Z" fill="#2c3b5e"/><path d="M191.26,268.35c-.68,0-1.22.55-1.22,1.22s.55,1.22,1.22,1.22,1.22-.55,1.22-1.22-.55-1.22-1.22-1.22Z" fill="#2c3b5e"/><path d="M191.26,274.53c-.68,0-1.22.55-1.22,1.22s.55,1.22,1.22,1.22,1.22-.55,1.22-1.22-.55-1.22-1.22-1.22Z" fill="#2c3b5e"/><path d="M191.26,280.71c-.68,0-1.22.55-1.22,1.22s.55,1.22,1.22,1.22,1.22-.55,1.22-1.22-.55-1.22-1.22-1.22Z" fill="#2c3b5e"/><path d="M191.26,286.9c-.68,0-1.22.55-1.22,1.22s.55,1.22,1.22,1.22,1.22-.55,1.22-1.22-.55-1.22-1.22-1.22Z" fill="#2c3b5e"/><path d="M191.26,293.08c-.68,0-1.22.55-1.22,1.22s.55,1.22,1.22,1.22,1.22-.55,1.22-1.22-.55-1.22-1.22-1.22Z" fill="#2c3b5e"/><path d="M191.26,299.26c-.68,0-1.22.55-1.22,1.22s.55,1.22,1.22,1.22,1.22-.55,1.22-1.22-.55-1.22-1.22-1.22Z" fill="#2c3b5e"/><path d="M185.6,225.06c-.68,0-1.22.55-1.22,1.22s.55,1.22,1.22,1.22,1.22-.55,1.22-1.22-.55-1.22-1.22-1.22Z" fill="#2c3b5e"/><path d="M185.6,231.24c-.68,0-1.22.55-1.22,1.22s.55,1.22,1.22,1.22,1.22-.55,1.22-1.22-.55-1.22-1.22-1.22Z" fill="#2c3b5e"/><path d="M185.6,237.43c-.68,0-1.22.55-1.22,1.22s.55,1.22,1.22,1.22,1.22-.55,1.22-1.22-.55-1.22-1.22-1.22Z" fill="#2c3b5e"/><path d="M185.6,243.61c-.68,0-1.22.55-1.22,1.22s.55,1.22,1.22,1.22,1.22-.55,1.22-1.22-.55-1.22-1.22-1.22Z" fill="#2c3b5e"/><path d="M185.6,249.79c-.68,0-1.22.55-1.22,1.22s.55,1.22,1.22,1.22,1.22-.55,1.22-1.22-.55-1.22-1.22-1.22Z" fill="#2c3b5e"/><path d="M185.6,255.98c-.68,0-1.22.55-1.22,1.22s.55,1.22,1.22,1.22,1.22-.55,1.22-1.22-.55-1.22-1.22-1.22Z" fill="#2c3b5e"/><path d="M185.6,262.16c-.68,0-1.22.55-1.22,1.22s.55,1.22,1.22,1.22,1.22-.55,1.22-1.22-.55-1.22-1.22-1.22Z" fill="#2c3b5e"/><path d="M185.6,268.35c-.68,0-1.22.55-1.22,1.22s.55,1.22,1.22,1.22,1.22-.55,1.22-1.22-.55-1.22-1.22-1.22Z" fill="#2c3b5e"/><path d="M185.6,274.53c-.68,0-1.22.55-1.22,1.22s.55,1.22,1.22,1.22,1.22-.55,1.22-1.22-.55-1.22-1.22-1.22Z" fill="#2c3b5e"/><path d="M185.6,280.71c-.68,0-1.22.55-1.22,1.22s.55,1.22,1.22,1.22,1.22-.55,1.22-1.22-.55-1.22-1.22-1.22Z" fill="#2c3b5e"/><path d="M185.6,286.9c-.68,0-1.22.55-1.22,1.22s.55,1.22,1.22,1.22,1.22-.55,1.22-1.22-.55-1.22-1.22-1.22Z" fill="#2c3b5e"/><path d="M185.6,293.08c-.68,0-1.22.55-1.22,1.22s.55,1.22,1.22,1.22,1.22-.55,1.22-1.22-.55-1.22-1.22-1.22Z" fill="#2c3b5e"/><path d="M185.6,299.26c-.68,0-1.22.55-1.22,1.22s.55,1.22,1.22,1.22,1.22-.55,1.22-1.22-.55-1.22-1.22-1.22Z" fill="#2c3b5e"/><path d="M179.94,225.06c-.68,0-1.22.55-1.22,1.22s.55,1.22,1.22,1.22,1.22-.55,1.22-1.22-.55-1.22-1.22-1.22Z" fill="#2c3b5e"/><path d="M179.94,231.24c-.68,0-1.22.55-1.22,1.22s.55,1.22,1.22,1.22,1.22-.55,1.22-1.22-.55-1.22-1.22-1.22Z" fill="#2c3b5e"/><path d="M179.94,237.43c-.68,0-1.22.55-1.22,1.22s.55,1.22,1.22,1.22,1.22-.55,1.22-1.22-.55-1.22-1.22-1.22Z" fill="#2c3b5e"/><path d="M179.94,243.61c-.68,0-1.22.55-1.22,1.22s.55,1.22,1.22,1.22,1.22-.55,1.22-1.22-.55-1.22-1.22-1.22Z" fill="#2c3b5e"/><path d="M179.94,249.79c-.68,0-1.22.55-1.22,1.22s.55,1.22,1.22,1.22,1.22-.55,1.22-1.22-.55-1.22-1.22-1.22Z" fill="#2c3b5e"/><path d="M179.94,255.98c-.68,0-1.22.55-1.22,1.22s.55,1.22,1.22,1.22,1.22-.55,1.22-1.22-.55-1.22-1.22-1.22Z" fill="#2c3b5e"/><path d="M179.94,262.16c-.68,0-1.22.55-1.22,1.22s.55,1.22,1.22,1.22,1.22-.55,1.22-1.22-.55-1.22-1.22-1.22Z" fill="#2c3b5e"/><path d="M179.94,268.35c-.68,0-1.22.55-1.22,1.22s.55,1.22,1.22,1.22,1.22-.55,1.22-1.22-.55-1.22-1.22-1.22Z" fill="#2c3b5e"/><path d="M179.94,274.53c-.68,0-1.22.55-1.22,1.22s.55,1.22,1.22,1.22,1.22-.55,1.22-1.22-.55-1.22-1.22-1.22Z" fill="#2c3b5e"/><path d="M179.94,280.71c-.68,0-1.22.55-1.22,1.22s.55,1.22,1.22,1.22,1.22-.55,1.22-1.22-.55-1.22-1.22-1.22Z" fill="#2c3b5e"/><path d="M179.94,286.9c-.68,0-1.22.55-1.22,1.22s.55,1.22,1.22,1.22,1.22-.55,1.22-1.22-.55-1.22-1.22-1.22Z" fill="#2c3b5e"/><path d="M179.94,293.08c-.68,0-1.22.55-1.22,1.22s.55,1.22,1.22,1.22,1.22-.55,1.22-1.22-.55-1.22-1.22-1.22Z" fill="#2c3b5e"/><path d="M179.94,299.26c-.68,0-1.22.55-1.22,1.22s.55,1.22,1.22,1.22,1.22-.55,1.22-1.22-.55-1.22-1.22-1.22Z" fill="#2c3b5e"/><path d="M174.27,231.24c-.68,0-1.22.55-1.22,1.22s.55,1.22,1.22,1.22,1.22-.55,1.22-1.22-.55-1.22-1.22-1.22Z" fill="#2c3b5e"/><path d="M174.27,237.43c-.68,0-1.22.55-1.22,1.22s.55,1.22,1.22,1.22,1.22-.55,1.22-1.22-.55-1.22-1.22-1.22Z" fill="#2c3b5e"/><path d="M174.27,243.61c-.68,0-1.22.55-1.22,1.22s.55,1.22,1.22,1.22,1.22-.55,1.22-1.22-.55-1.22-1.22-1.22Z" fill="#2c3b5e"/><path d="M174.27,249.79c-.68,0-1.22.55-1.22,1.22s.55,1.22,1.22,1.22,1.22-.55,1.22-1.22-.55-1.22-1.22-1.22Z" fill="#2c3b5e"/><path d="M174.27,255.98c-.68,0-1.22.55-1.22,1.22s.55,1.22,1.22,1.22,1.22-.55,1.22-1.22-.55-1.22-1.22-1.22Z" fill="#2c3b5e"/><path d="M174.27,262.16c-.68,0-1.22.55-1.22,1.22s.55,1.22,1.22,1.22,1.22-.55,1.22-1.22-.55-1.22-1.22-1.22Z" fill="#2c3b5e"/><path d="M174.27,268.35c-.68,0-1.22.55-1.22,1.22s.55,1.22,1.22,1.22,1.22-.55,1.22-1.22-.55-1.22-1.22-1.22Z" fill="#2c3b5e"/><path d="M174.27,274.53c-.68,0-1.22.55-1.22,1.22s.55,1.22,1.22,1.22,1.22-.55,1.22-1.22-.55-1.22-1.22-1.22Z" fill="#2c3b5e"/><path d="M174.27,280.71c-.68,0-1.22.55-1.22,1.22s.55,1.22,1.22,1.22,1.22-.55,1.22-1.22-.55-1.22-1.22-1.22Z" fill="#2c3b5e"/><path d="M174.27,286.9c-.68,0-1.22.55-1.22,1.22s.55,1.22,1.22,1.22,1.22-.55,1.22-1.22-.55-1.22-1.22-1.22Z" fill="#2c3b5e"/><path d="M174.27,293.08c-.68,0-1.22.55-1.22,1.22s.55,1.22,1.22,1.22,1.22-.55,1.22-1.22-.55-1.22-1.22-1.22Z" fill="#2c3b5e"/><path d="M174.27,299.26c-.68,0-1.22.55-1.22,1.22s.55,1.22,1.22,1.22,1.22-.55,1.22-1.22-.55-1.22-1.22-1.22Z" fill="#2c3b5e"/><path d="M168.61,262.16c-.68,0-1.22.55-1.22,1.22s.55,1.22,1.22,1.22,1.22-.55,1.22-1.22-.55-1.22-1.22-1.22Z" fill="#2c3b5e"/><path d="M168.61,268.35c-.68,0-1.22.55-1.22,1.22s.55,1.22,1.22,1.22,1.22-.55,1.22-1.22-.55-1.22-1.22-1.22Z" fill="#2c3b5e"/><path d="M168.61,274.53c-.68,0-1.22.55-1.22,1.22s.55,1.22,1.22,1.22,1.22-.55,1.22-1.22-.55-1.22-1.22-1.22Z" fill="#2c3b5e"/><path d="M168.61,280.71c-.68,0-1.22.55-1.22,1.22s.55,1.22,1.22,1.22,1.22-.55,1.22-1.22-.55-1.22-1.22-1.22Z" fill="#2c3b5e"/><path d="M168.61,286.9c-.68,0-1.22.55-1.22,1.22s.55,1.22,1.22,1.22,1.22-.55,1.22-1.22-.55-1.22-1.22-1.22Z" fill="#2c3b5e"/><path d="M168.61,293.08c-.68,0-1.22.55-1.22,1.22s.55,1.22,1.22,1.22,1.22-.55,1.22-1.22-.55-1.22-1.22-1.22Z" fill="#2c3b5e"/><path d="M168.61,299.26c-.68,0-1.22.55-1.22,1.22s.55,1.22,1.22,1.22,1.22-.55,1.22-1.22-.55-1.22-1.22-1.22Z" fill="#2c3b5e"/><path d="M162.95,299.26c-.68,0-1.22.55-1.22,1.22s.55,1.22,1.22,1.22,1.22-.55,1.22-1.22-.55-1.22-1.22-1.22Z" fill="#2c3b5e"/><path d="M230.9,225.06c-.68,0-1.22.55-1.22,1.22s.55,1.22,1.22,1.22,1.22-.55,1.22-1.22-.55-1.22-1.22-1.22Z" fill="#2c3b5e"/><path d="M230.9,231.24c-.68,0-1.22.55-1.22,1.22s.55,1.22,1.22,1.22,1.22-.55,1.22-1.22-.55-1.22-1.22-1.22Z" fill="#2c3b5e"/><path d="M230.9,237.43c-.68,0-1.22.55-1.22,1.22s.55,1.22,1.22,1.22,1.22-.55,1.22-1.22-.55-1.22-1.22-1.22Z" fill="#2c3b5e"/><path d="M230.9,243.61c-.68,0-1.22.55-1.22,1.22s.55,1.22,1.22,1.22,1.22-.55,1.22-1.22-.55-1.22-1.22-1.22Z" fill="#2c3b5e"/><path d="M230.9,249.79c-.68,0-1.22.55-1.22,1.22s.55,1.22,1.22,1.22,1.22-.55,1.22-1.22-.55-1.22-1.22-1.22Z" fill="#2c3b5e"/><path d="M230.9,255.98c-.68,0-1.22.55-1.22,1.22s.55,1.22,1.22,1.22,1.22-.55,1.22-1.22-.55-1.22-1.22-1.22Z" fill="#2c3b5e"/><path d="M230.9,262.16c-.68,0-1.22.55-1.22,1.22s.55,1.22,1.22,1.22,1.22-.55,1.22-1.22-.55-1.22-1.22-1.22Z" fill="#2c3b5e"/><path d="M230.9,268.35c-.68,0-1.22.55-1.22,1.22s.55,1.22,1.22,1.22,1.22-.55,1.22-1.22-.55-1.22-1.22-1.22Z" fill="#2c3b5e"/><path d="M230.9,274.53c-.68,0-1.22.55-1.22,1.22s.55,1.22,1.22,1.22,1.22-.55,1.22-1.22-.55-1.22-1.22-1.22Z" fill="#2c3b5e"/><path d="M230.9,280.71c-.68,0-1.22.55-1.22,1.22s.55,1.22,1.22,1.22,1.22-.55,1.22-1.22-.55-1.22-1.22-1.22Z" fill="#2c3b5e"/><path d="M230.9,286.9c-.68,0-1.22.55-1.22,1.22s.55,1.22,1.22,1.22,1.22-.55,1.22-1.22-.55-1.22-1.22-1.22Z" fill="#2c3b5e"/><path d="M230.9,293.08c-.68,0-1.22.55-1.22,1.22s.55,1.22,1.22,1.22,1.22-.55,1.22-1.22-.55-1.22-1.22-1.22Z" fill="#2c3b5e"/><path d="M230.9,299.26c-.68,0-1.22.55-1.22,1.22s.55,1.22,1.22,1.22,1.22-.55,1.22-1.22-.55-1.22-1.22-1.22Z" fill="#2c3b5e"/><path d="M236.56,305.66c-.68,0-1.22.55-1.22,1.22s.55,1.22,1.22,1.22,1.22-.55,1.22-1.22-.55-1.22-1.22-1.22Z" fill="#2c3b5e"/><path d="M236.56,311.85c-.68,0-1.22.55-1.22,1.22s.55,1.22,1.22,1.22,1.22-.55,1.22-1.22-.55-1.22-1.22-1.22Z" fill="#2c3b5e"/><path d="M236.56,318.03c-.68,0-1.22.55-1.22,1.22s.55,1.22,1.22,1.22,1.22-.55,1.22-1.22-.55-1.22-1.22-1.22Z" fill="#2c3b5e"/><path d="M236.56,324.22c-.68,0-1.22.55-1.22,1.22s.55,1.22,1.22,1.22,1.22-.55,1.22-1.22-.55-1.22-1.22-1.22Z" fill="#2c3b5e"/><path d="M236.56,330.4c-.68,0-1.22.55-1.22,1.22s.55,1.22,1.22,1.22,1.22-.55,1.22-1.22-.55-1.22-1.22-1.22Z" fill="#2c3b5e"/><path d="M236.56,336.58c-.68,0-1.22.55-1.22,1.22s.55,1.22,1.22,1.22,1.22-.55,1.22-1.22-.55-1.22-1.22-1.22Z" fill="#2c3b5e"/><path d="M236.56,342.77c-.68,0-1.22.55-1.22,1.22s.55,1.22,1.22,1.22,1.22-.55,1.22-1.22-.55-1.22-1.22-1.22Z" fill="#2c3b5e"/><path d="M236.56,348.95c-.68,0-1.22.55-1.22,1.22s.55,1.22,1.22,1.22,1.22-.55,1.22-1.22-.55-1.22-1.22-1.22Z" fill="#2c3b5e"/><path d="M236.56,355.13c-.68,0-1.22.55-1.22,1.22s.55,1.22,1.22,1.22,1.22-.55,1.22-1.22-.55-1.22-1.22-1.22Z" fill="#2c3b5e"/><path d="M236.56,361.32c-.68,0-1.22.55-1.22,1.22s.55,1.22,1.22,1.22,1.22-.55,1.22-1.22-.55-1.22-1.22-1.22Z" fill="#2c3b5e"/><path d="M236.56,367.5c-.68,0-1.22.55-1.22,1.22s.55,1.22,1.22,1.22,1.22-.55,1.22-1.22-.55-1.22-1.22-1.22Z" fill="#2c3b5e"/><path d="M236.56,373.69c-.68,0-1.22.55-1.22,1.22s.55,1.22,1.22,1.22,1.22-.55,1.22-1.22-.55-1.22-1.22-1.22Z" fill="#2c3b5e"/><path d="M236.56,379.87c-.68,0-1.22.55-1.22,1.22s.55,1.22,1.22,1.22,1.22-.55,1.22-1.22-.55-1.22-1.22-1.22Z" fill="#2c3b5e"/><path d="M236.56,386.05c-.68,0-1.22.55-1.22,1.22s.55,1.22,1.22,1.22,1.22-.55,1.22-1.22-.55-1.22-1.22-1.22Z" fill="#2c3b5e"/><path d="M236.56,392.24c-.68,0-1.22.55-1.22,1.22s.55,1.22,1.22,1.22,1.22-.55,1.22-1.22-.55-1.22-1.22-1.22Z" fill="#2c3b5e"/><path d="M225.24,305.66c-.68,0-1.22.55-1.22,1.22s.55,1.22,1.22,1.22,1.22-.55,1.22-1.22-.55-1.22-1.22-1.22Z" fill="#2c3b5e"/><path d="M225.24,311.85c-.68,0-1.22.55-1.22,1.22s.55,1.22,1.22,1.22,1.22-.55,1.22-1.22-.55-1.22-1.22-1.22Z" fill="#2c3b5e"/><path d="M225.24,318.03c-.68,0-1.22.55-1.22,1.22s.55,1.22,1.22,1.22,1.22-.55,1.22-1.22-.55-1.22-1.22-1.22Z" fill="#2c3b5e"/><path d="M225.24,324.22c-.68,0-1.22.55-1.22,1.22s.55,1.22,1.22,1.22,1.22-.55,1.22-1.22-.55-1.22-1.22-1.22Z" fill="#2c3b5e"/><path d="M225.24,330.4c-.68,0-1.22.55-1.22,1.22s.55,1.22,1.22,1.22,1.22-.55,1.22-1.22-.55-1.22-1.22-1.22Z" fill="#2c3b5e"/><path d="M225.24,336.58c-.68,0-1.22.55-1.22,1.22s.55,1.22,1.22,1.22,1.22-.55,1.22-1.22-.55-1.22-1.22-1.22Z" fill="#2c3b5e"/><path d="M225.24,342.77c-.68,0-1.22.55-1.22,1.22s.55,1.22,1.22,1.22,1.22-.55,1.22-1.22-.55-1.22-1.22-1.22Z" fill="#2c3b5e"/><path d="M225.24,348.95c-.68,0-1.22.55-1.22,1.22s.55,1.22,1.22,1.22,1.22-.55,1.22-1.22-.55-1.22-1.22-1.22Z" fill="#2c3b5e"/><path d="M225.24,355.13c-.68,0-1.22.55-1.22,1.22s.55,1.22,1.22,1.22,1.22-.55,1.22-1.22-.55-1.22-1.22-1.22Z" fill="#2c3b5e"/><path d="M225.24,361.32c-.68,0-1.22.55-1.22,1.22s.55,1.22,1.22,1.22,1.22-.55,1.22-1.22-.55-1.22-1.22-1.22Z" fill="#2c3b5e"/><path d="M225.24,367.5c-.68,0-1.22.55-1.22,1.22s.55,1.22,1.22,1.22,1.22-.55,1.22-1.22-.55-1.22-1.22-1.22Z" fill="#2c3b5e"/><path d="M225.24,373.69c-.68,0-1.22.55-1.22,1.22s.55,1.22,1.22,1.22,1.22-.55,1.22-1.22-.55-1.22-1.22-1.22Z" fill="#2c3b5e"/><path d="M225.24,379.87c-.68,0-1.22.55-1.22,1.22s.55,1.22,1.22,1.22,1.22-.55,1.22-1.22-.55-1.22-1.22-1.22Z" fill="#2c3b5e"/><path d="M225.24,386.05c-.68,0-1.22.55-1.22,1.22s.55,1.22,1.22,1.22,1.22-.55,1.22-1.22-.55-1.22-1.22-1.22Z" fill="#2c3b5e"/><path d="M225.24,392.24c-.68,0-1.22.55-1.22,1.22s.55,1.22,1.22,1.22,1.22-.55,1.22-1.22-.55-1.22-1.22-1.22Z" fill="#2c3b5e"/><path d="M219.57,305.66c-.68,0-1.22.55-1.22,1.22s.55,1.22,1.22,1.22,1.22-.55,1.22-1.22-.55-1.22-1.22-1.22Z" fill="#2c3b5e"/><path d="M219.57,311.85c-.68,0-1.22.55-1.22,1.22s.55,1.22,1.22,1.22,1.22-.55,1.22-1.22-.55-1.22-1.22-1.22Z" fill="#2c3b5e"/><path d="M219.57,318.03c-.68,0-1.22.55-1.22,1.22s.55,1.22,1.22,1.22,1.22-.55,1.22-1.22-.55-1.22-1.22-1.22Z" fill="#2c3b5e"/><path d="M219.57,324.22c-.68,0-1.22.55-1.22,1.22s.55,1.22,1.22,1.22,1.22-.55,1.22-1.22-.55-1.22-1.22-1.22Z" fill="#2c3b5e"/><path d="M219.57,330.4c-.68,0-1.22.55-1.22,1.22s.55,1.22,1.22,1.22,1.22-.55,1.22-1.22-.55-1.22-1.22-1.22Z" fill="#2c3b5e"/><path d="M219.57,336.58c-.68,0-1.22.55-1.22,1.22s.55,1.22,1.22,1.22,1.22-.55,1.22-1.22-.55-1.22-1.22-1.22Z" fill="#2c3b5e"/><path d="M219.57,342.77c-.68,0-1.22.55-1.22,1.22s.55,1.22,1.22,1.22,1.22-.55,1.22-1.22-.55-1.22-1.22-1.22Z" fill="#2c3b5e"/><path d="M219.57,348.95c-.68,0-1.22.55-1.22,1.22s.55,1.22,1.22,1.22,1.22-.55,1.22-1.22-.55-1.22-1.22-1.22Z" fill="#2c3b5e"/><path d="M219.57,355.13c-.68,0-1.22.55-1.22,1.22s.55,1.22,1.22,1.22,1.22-.55,1.22-1.22-.55-1.22-1.22-1.22Z" fill="#2c3b5e"/><path d="M219.57,361.32c-.68,0-1.22.55-1.22,1.22s.55,1.22,1.22,1.22,1.22-.55,1.22-1.22-.55-1.22-1.22-1.22Z" fill="#2c3b5e"/><path d="M219.57,367.5c-.68,0-1.22.55-1.22,1.22s.55,1.22,1.22,1.22,1.22-.55,1.22-1.22-.55-1.22-1.22-1.22Z" fill="#2c3b5e"/><path d="M219.57,373.69c-.68,0-1.22.55-1.22,1.22s.55,1.22,1.22,1.22,1.22-.55,1.22-1.22-.55-1.22-1.22-1.22Z" fill="#2c3b5e"/><path d="M219.57,379.87c-.68,0-1.22.55-1.22,1.22s.55,1.22,1.22,1.22,1.22-.55,1.22-1.22-.55-1.22-1.22-1.22Z" fill="#2c3b5e"/><path d="M219.57,386.05c-.68,0-1.22.55-1.22,1.22s.55,1.22,1.22,1.22,1.22-.55,1.22-1.22-.55-1.22-1.22-1.22Z" fill="#2c3b5e"/><path d="M219.57,392.24c-.68,0-1.22.55-1.22,1.22s.55,1.22,1.22,1.22,1.22-.55,1.22-1.22-.55-1.22-1.22-1.22Z" fill="#2c3b5e"/><path d="M213.91,305.66c-.68,0-1.22.55-1.22,1.22s.55,1.22,1.22,1.22,1.22-.55,1.22-1.22-.55-1.22-1.22-1.22Z" fill="#2c3b5e"/><path d="M213.91,311.85c-.68,0-1.22.55-1.22,1.22s.55,1.22,1.22,1.22,1.22-.55,1.22-1.22-.55-1.22-1.22-1.22Z" fill="#2c3b5e"/><path d="M213.91,318.03c-.68,0-1.22.55-1.22,1.22s.55,1.22,1.22,1.22,1.22-.55,1.22-1.22-.55-1.22-1.22-1.22Z" fill="#2c3b5e"/><path d="M213.91,324.22c-.68,0-1.22.55-1.22,1.22s.55,1.22,1.22,1.22,1.22-.55,1.22-1.22-.55-1.22-1.22-1.22Z" fill="#2c3b5e"/><path d="M213.91,330.4c-.68,0-1.22.55-1.22,1.22s.55,1.22,1.22,1.22,1.22-.55,1.22-1.22-.55-1.22-1.22-1.22Z" fill="#2c3b5e"/><path d="M213.91,336.58c-.68,0-1.22.55-1.22,1.22s.55,1.22,1.22,1.22,1.22-.55,1.22-1.22-.55-1.22-1.22-1.22Z" fill="#2c3b5e"/><path d="M213.91,342.77c-.68,0-1.22.55-1.22,1.22s.55,1.22,1.22,1.22,1.22-.55,1.22-1.22-.55-1.22-1.22-1.22Z" fill="#2c3b5e"/><path d="M213.91,348.95c-.68,0-1.22.55-1.22,1.22s.55,1.22,1.22,1.22,1.22-.55,1.22-1.22-.55-1.22-1.22-1.22Z" fill="#2c3b5e"/><path d="M208.25,305.66c-.68,0-1.22.55-1.22,1.22s.55,1.22,1.22,1.22,1.22-.55,1.22-1.22-.55-1.22-1.22-1.22Z" fill="#2c3b5e"/><path d="M208.25,311.85c-.68,0-1.22.55-1.22,1.22s.55,1.22,1.22,1.22,1.22-.55,1.22-1.22-.55-1.22-1.22-1.22Z" fill="#2c3b5e"/><path d="M208.25,318.03c-.68,0-1.22.55-1.22,1.22s.55,1.22,1.22,1.22,1.22-.55,1.22-1.22-.55-1.22-1.22-1.22Z" fill="#2c3b5e"/><path d="M208.25,324.22c-.68,0-1.22.55-1.22,1.22s.55,1.22,1.22,1.22,1.22-.55,1.22-1.22-.55-1.22-1.22-1.22Z" fill="#2c3b5e"/><path d="M202.59,305.66c-.68,0-1.22.55-1.22,1.22s.55,1.22,1.22,1.22,1.22-.55,1.22-1.22-.55-1.22-1.22-1.22Z" fill="#2c3b5e"/><path d="M202.59,311.85c-.68,0-1.22.55-1.22,1.22s.55,1.22,1.22,1.22,1.22-.55,1.22-1.22-.55-1.22-1.22-1.22Z" fill="#2c3b5e"/><path d="M202.59,318.03c-.68,0-1.22.55-1.22,1.22s.55,1.22,1.22,1.22,1.22-.55,1.22-1.22-.55-1.22-1.22-1.22Z" fill="#2c3b5e"/><path d="M202.59,324.22c-.68,0-1.22.55-1.22,1.22s.55,1.22,1.22,1.22,1.22-.55,1.22-1.22-.55-1.22-1.22-1.22Z" fill="#2c3b5e"/><path d="M202.59,330.4c-.68,0-1.22.55-1.22,1.22s.55,1.22,1.22,1.22,1.22-.55,1.22-1.22-.55-1.22-1.22-1.22Z" fill="#2c3b5e"/><path d="M202.59,336.58c-.68,0-1.22.55-1.22,1.22s.55,1.22,1.22,1.22,1.22-.55,1.22-1.22-.55-1.22-1.22-1.22Z" fill="#2c3b5e"/><path d="M202.59,342.77c-.68,0-1.22.55-1.22,1.22s.55,1.22,1.22,1.22,1.22-.55,1.22-1.22-.55-1.22-1.22-1.22Z" fill="#2c3b5e"/><path d="M196.92,305.66c-.68,0-1.22.55-1.22,1.22s.55,1.22,1.22,1.22,1.22-.55,1.22-1.22-.55-1.22-1.22-1.22Z" fill="#2c3b5e"/><path d="M196.92,311.85c-.68,0-1.22.55-1.22,1.22s.55,1.22,1.22,1.22,1.22-.55,1.22-1.22-.55-1.22-1.22-1.22Z" fill="#2c3b5e"/><path d="M196.92,318.03c-.68,0-1.22.55-1.22,1.22s.55,1.22,1.22,1.22,1.22-.55,1.22-1.22-.55-1.22-1.22-1.22Z" fill="#2c3b5e"/><path d="M196.92,324.22c-.68,0-1.22.55-1.22,1.22s.55,1.22,1.22,1.22,1.22-.55,1.22-1.22-.55-1.22-1.22-1.22Z" fill="#2c3b5e"/><path d="M196.92,330.4c-.68,0-1.22.55-1.22,1.22s.55,1.22,1.22,1.22,1.22-.55,1.22-1.22-.55-1.22-1.22-1.22Z" fill="#2c3b5e"/><path d="M196.92,336.58c-.68,0-1.22.55-1.22,1.22s.55,1.22,1.22,1.22,1.22-.55,1.22-1.22-.55-1.22-1.22-1.22Z" fill="#2c3b5e"/><path d="M196.92,342.77c-.68,0-1.22.55-1.22,1.22s.55,1.22,1.22,1.22,1.22-.55,1.22-1.22-.55-1.22-1.22-1.22Z" fill="#2c3b5e"/><path d="M196.92,348.95c-.68,0-1.22.55-1.22,1.22s.55,1.22,1.22,1.22,1.22-.55,1.22-1.22-.55-1.22-1.22-1.22Z" fill="#2c3b5e"/><path d="M196.92,355.13c-.68,0-1.22.55-1.22,1.22s.55,1.22,1.22,1.22,1.22-.55,1.22-1.22-.55-1.22-1.22-1.22Z" fill="#2c3b5e"/><path d="M196.92,361.32c-.68,0-1.22.55-1.22,1.22s.55,1.22,1.22,1.22,1.22-.55,1.22-1.22-.55-1.22-1.22-1.22Z" fill="#2c3b5e"/><path d="M191.26,305.66c-.68,0-1.22.55-1.22,1.22s.55,1.22,1.22,1.22,1.22-.55,1.22-1.22-.55-1.22-1.22-1.22Z" fill="#2c3b5e"/><path d="M191.26,311.85c-.68,0-1.22.55-1.22,1.22s.55,1.22,1.22,1.22,1.22-.55,1.22-1.22-.55-1.22-1.22-1.22Z" fill="#2c3b5e"/><path d="M191.26,318.03c-.68,0-1.22.55-1.22,1.22s.55,1.22,1.22,1.22,1.22-.55,1.22-1.22-.55-1.22-1.22-1.22Z" fill="#2c3b5e"/><path d="M191.26,324.22c-.68,0-1.22.55-1.22,1.22s.55,1.22,1.22,1.22,1.22-.55,1.22-1.22-.55-1.22-1.22-1.22Z" fill="#2c3b5e"/><path d="M191.26,330.4c-.68,0-1.22.55-1.22,1.22s.55,1.22,1.22,1.22,1.22-.55,1.22-1.22-.55-1.22-1.22-1.22Z" fill="#2c3b5e"/><path d="M191.26,336.58c-.68,0-1.22.55-1.22,1.22s.55,1.22,1.22,1.22,1.22-.55,1.22-1.22-.55-1.22-1.22-1.22Z" fill="#2c3b5e"/><path d="M191.26,342.77c-.68,0-1.22.55-1.22,1.22s.55,1.22,1.22,1.22,1.22-.55,1.22-1.22-.55-1.22-1.22-1.22Z" fill="#2c3b5e"/><path d="M191.26,348.95c-.68,0-1.22.55-1.22,1.22s.55,1.22,1.22,1.22,1.22-.55,1.22-1.22-.55-1.22-1.22-1.22Z" fill="#2c3b5e"/><path d="M191.26,355.13c-.68,0-1.22.55-1.22,1.22s.55,1.22,1.22,1.22,1.22-.55,1.22-1.22-.55-1.22-1.22-1.22Z" fill="#2c3b5e"/><path d="M191.26,361.32c-.68,0-1.22.55-1.22,1.22s.55,1.22,1.22,1.22,1.22-.55,1.22-1.22-.55-1.22-1.22-1.22Z" fill="#2c3b5e"/><path d="M191.26,367.5c-.68,0-1.22.55-1.22,1.22s.55,1.22,1.22,1.22,1.22-.55,1.22-1.22-.55-1.22-1.22-1.22Z" fill="#2c3b5e"/><path d="M191.26,373.69c-.68,0-1.22.55-1.22,1.22s.55,1.22,1.22,1.22,1.22-.55,1.22-1.22-.55-1.22-1.22-1.22Z" fill="#2c3b5e"/><path d="M185.6,305.66c-.68,0-1.22.55-1.22,1.22s.55,1.22,1.22,1.22,1.22-.55,1.22-1.22-.55-1.22-1.22-1.22Z" fill="#2c3b5e"/><path d="M185.6,311.85c-.68,0-1.22.55-1.22,1.22s.55,1.22,1.22,1.22,1.22-.55,1.22-1.22-.55-1.22-1.22-1.22Z" fill="#2c3b5e"/><path d="M185.6,318.03c-.68,0-1.22.55-1.22,1.22s.55,1.22,1.22,1.22,1.22-.55,1.22-1.22-.55-1.22-1.22-1.22Z" fill="#2c3b5e"/><path d="M185.6,324.22c-.68,0-1.22.55-1.22,1.22s.55,1.22,1.22,1.22,1.22-.55,1.22-1.22-.55-1.22-1.22-1.22Z" fill="#2c3b5e"/><path d="M185.6,330.4c-.68,0-1.22.55-1.22,1.22s.55,1.22,1.22,1.22,1.22-.55,1.22-1.22-.55-1.22-1.22-1.22Z" fill="#2c3b5e"/><path d="M185.6,336.58c-.68,0-1.22.55-1.22,1.22s.55,1.22,1.22,1.22,1.22-.55,1.22-1.22-.55-1.22-1.22-1.22Z" fill="#2c3b5e"/><path d="M185.6,342.77c-.68,0-1.22.55-1.22,1.22s.55,1.22,1.22,1.22,1.22-.55,1.22-1.22-.55-1.22-1.22-1.22Z" fill="#2c3b5e"/><path d="M185.6,348.95c-.68,0-1.22.55-1.22,1.22s.55,1.22,1.22,1.22,1.22-.55,1.22-1.22-.55-1.22-1.22-1.22Z" fill="#2c3b5e"/><path d="M185.6,355.13c-.68,0-1.22.55-1.22,1.22s.55,1.22,1.22,1.22,1.22-.55,1.22-1.22-.55-1.22-1.22-1.22Z" fill="#2c3b5e"/><path d="M185.6,361.32c-.68,0-1.22.55-1.22,1.22s.55,1.22,1.22,1.22,1.22-.55,1.22-1.22-.55-1.22-1.22-1.22Z" fill="#2c3b5e"/><path d="M185.6,367.5c-.68,0-1.22.55-1.22,1.22s.55,1.22,1.22,1.22,1.22-.55,1.22-1.22-.55-1.22-1.22-1.22Z" fill="#2c3b5e"/><path d="M185.6,373.69c-.68,0-1.22.55-1.22,1.22s.55,1.22,1.22,1.22,1.22-.55,1.22-1.22-.55-1.22-1.22-1.22Z" fill="#2c3b5e"/><path d="M185.6,379.87c-.68,0-1.22.55-1.22,1.22s.55,1.22,1.22,1.22,1.22-.55,1.22-1.22-.55-1.22-1.22-1.22Z" fill="#2c3b5e"/><path d="M185.6,386.05c-.68,0-1.22.55-1.22,1.22s.55,1.22,1.22,1.22,1.22-.55,1.22-1.22-.55-1.22-1.22-1.22Z" fill="#2c3b5e"/><path d="M185.6,392.24c-.68,0-1.22.55-1.22,1.22s.55,1.22,1.22,1.22,1.22-.55,1.22-1.22-.55-1.22-1.22-1.22Z" fill="#2c3b5e"/><path d="M179.94,305.66c-.68,0-1.22.55-1.22,1.22s.55,1.22,1.22,1.22,1.22-.55,1.22-1.22-.55-1.22-1.22-1.22Z" fill="#2c3b5e"/><path d="M179.94,311.85c-.68,0-1.22.55-1.22,1.22s.55,1.22,1.22,1.22,1.22-.55,1.22-1.22-.55-1.22-1.22-1.22Z" fill="#2c3b5e"/><path d="M179.94,318.03c-.68,0-1.22.55-1.22,1.22s.55,1.22,1.22,1.22,1.22-.55,1.22-1.22-.55-1.22-1.22-1.22Z" fill="#2c3b5e"/><path d="M179.94,324.22c-.68,0-1.22.55-1.22,1.22s.55,1.22,1.22,1.22,1.22-.55,1.22-1.22-.55-1.22-1.22-1.22Z" fill="#2c3b5e"/><path d="M179.94,330.4c-.68,0-1.22.55-1.22,1.22s.55,1.22,1.22,1.22,1.22-.55,1.22-1.22-.55-1.22-1.22-1.22Z" fill="#2c3b5e"/><path d="M179.94,336.58c-.68,0-1.22.55-1.22,1.22s.55,1.22,1.22,1.22,1.22-.55,1.22-1.22-.55-1.22-1.22-1.22Z" fill="#2c3b5e"/><path d="M179.94,342.77c-.68,0-1.22.55-1.22,1.22s.55,1.22,1.22,1.22,1.22-.55,1.22-1.22-.55-1.22-1.22-1.22Z" fill="#2c3b5e"/><path d="M179.94,348.95c-.68,0-1.22.55-1.22,1.22s.55,1.22,1.22,1.22,1.22-.55,1.22-1.22-.55-1.22-1.22-1.22Z" fill="#2c3b5e"/><path d="M179.94,355.13c-.68,0-1.22.55-1.22,1.22s.55,1.22,1.22,1.22,1.22-.55,1.22-1.22-.55-1.22-1.22-1.22Z" fill="#2c3b5e"/><path d="M179.94,361.32c-.68,0-1.22.55-1.22,1.22s.55,1.22,1.22,1.22,1.22-.55,1.22-1.22-.55-1.22-1.22-1.22Z" fill="#2c3b5e"/><path d="M179.94,367.5c-.68,0-1.22.55-1.22,1.22s.55,1.22,1.22,1.22,1.22-.55,1.22-1.22-.55-1.22-1.22-1.22Z" fill="#2c3b5e"/><path d="M179.94,373.69c-.68,0-1.22.55-1.22,1.22s.55,1.22,1.22,1.22,1.22-.55,1.22-1.22-.55-1.22-1.22-1.22Z" fill="#2c3b5e"/><path d="M179.94,379.87c-.68,0-1.22.55-1.22,1.22s.55,1.22,1.22,1.22,1.22-.55,1.22-1.22-.55-1.22-1.22-1.22Z" fill="#2c3b5e"/><path d="M179.94,386.05c-.68,0-1.22.55-1.22,1.22s.55,1.22,1.22,1.22,1.22-.55,1.22-1.22-.55-1.22-1.22-1.22Z" fill="#2c3b5e"/><path d="M179.94,392.24c-.68,0-1.22.55-1.22,1.22s.55,1.22,1.22,1.22,1.22-.55,1.22-1.22-.55-1.22-1.22-1.22Z" fill="#2c3b5e"/><path d="M174.27,305.66c-.68,0-1.22.55-1.22,1.22s.55,1.22,1.22,1.22,1.22-.55,1.22-1.22-.55-1.22-1.22-1.22Z" fill="#2c3b5e"/><path d="M174.27,311.85c-.68,0-1.22.55-1.22,1.22s.55,1.22,1.22,1.22,1.22-.55,1.22-1.22-.55-1.22-1.22-1.22Z" fill="#2c3b5e"/><path d="M174.27,318.03c-.68,0-1.22.55-1.22,1.22s.55,1.22,1.22,1.22,1.22-.55,1.22-1.22-.55-1.22-1.22-1.22Z" fill="#2c3b5e"/><path d="M174.27,324.22c-.68,0-1.22.55-1.22,1.22s.55,1.22,1.22,1.22,1.22-.55,1.22-1.22-.55-1.22-1.22-1.22Z" fill="#2c3b5e"/><path d="M174.27,330.4c-.68,0-1.22.55-1.22,1.22s.55,1.22,1.22,1.22,1.22-.55,1.22-1.22-.55-1.22-1.22-1.22Z" fill="#2c3b5e"/><path d="M174.27,336.58c-.68,0-1.22.55-1.22,1.22s.55,1.22,1.22,1.22,1.22-.55,1.22-1.22-.55-1.22-1.22-1.22Z" fill="#2c3b5e"/><path d="M174.27,342.77c-.68,0-1.22.55-1.22,1.22s.55,1.22,1.22,1.22,1.22-.55,1.22-1.22-.55-1.22-1.22-1.22Z" fill="#2c3b5e"/><path d="M174.27,348.95c-.68,0-1.22.55-1.22,1.22s.55,1.22,1.22,1.22,1.22-.55,1.22-1.22-.55-1.22-1.22-1.22Z" fill="#2c3b5e"/><path d="M174.27,355.13c-.68,0-1.22.55-1.22,1.22s.55,1.22,1.22,1.22,1.22-.55,1.22-1.22-.55-1.22-1.22-1.22Z" fill="#2c3b5e"/><path d="M174.27,361.32c-.68,0-1.22.55-1.22,1.22s.55,1.22,1.22,1.22,1.22-.55,1.22-1.22-.55-1.22-1.22-1.22Z" fill="#2c3b5e"/><path d="M174.27,367.5c-.68,0-1.22.55-1.22,1.22s.55,1.22,1.22,1.22,1.22-.55,1.22-1.22-.55-1.22-1.22-1.22Z" fill="#2c3b5e"/><path d="M174.27,373.69c-.68,0-1.22.55-1.22,1.22s.55,1.22,1.22,1.22,1.22-.55,1.22-1.22-.55-1.22-1.22-1.22Z" fill="#2c3b5e"/><path d="M174.27,379.87c-.68,0-1.22.55-1.22,1.22s.55,1.22,1.22,1.22,1.22-.55,1.22-1.22-.55-1.22-1.22-1.22Z" fill="#2c3b5e"/><path d="M174.27,386.05c-.68,0-1.22.55-1.22,1.22s.55,1.22,1.22,1.22,1.22-.55,1.22-1.22-.55-1.22-1.22-1.22Z" fill="#2c3b5e"/><path d="M174.27,392.24c-.68,0-1.22.55-1.22,1.22s.55,1.22,1.22,1.22,1.22-.55,1.22-1.22-.55-1.22-1.22-1.22Z" fill="#2c3b5e"/><path d="M168.61,305.66c-.68,0-1.22.55-1.22,1.22s.55,1.22,1.22,1.22,1.22-.55,1.22-1.22-.55-1.22-1.22-1.22Z" fill="#2c3b5e"/><path d="M168.61,311.85c-.68,0-1.22.55-1.22,1.22s.55,1.22,1.22,1.22,1.22-.55,1.22-1.22-.55-1.22-1.22-1.22Z" fill="#2c3b5e"/><path d="M168.61,318.03c-.68,0-1.22.55-1.22,1.22s.55,1.22,1.22,1.22,1.22-.55,1.22-1.22-.55-1.22-1.22-1.22Z" fill="#2c3b5e"/><path d="M168.61,324.22c-.68,0-1.22.55-1.22,1.22s.55,1.22,1.22,1.22,1.22-.55,1.22-1.22-.55-1.22-1.22-1.22Z" fill="#2c3b5e"/><path d="M168.61,330.4c-.68,0-1.22.55-1.22,1.22s.55,1.22,1.22,1.22,1.22-.55,1.22-1.22-.55-1.22-1.22-1.22Z" fill="#2c3b5e"/><path d="M168.61,336.58c-.68,0-1.22.55-1.22,1.22s.55,1.22,1.22,1.22,1.22-.55,1.22-1.22-.55-1.22-1.22-1.22Z" fill="#2c3b5e"/><path d="M168.61,342.77c-.68,0-1.22.55-1.22,1.22s.55,1.22,1.22,1.22,1.22-.55,1.22-1.22-.55-1.22-1.22-1.22Z" fill="#2c3b5e"/><path d="M168.61,348.95c-.68,0-1.22.55-1.22,1.22s.55,1.22,1.22,1.22,1.22-.55,1.22-1.22-.55-1.22-1.22-1.22Z" fill="#2c3b5e"/><path d="M168.61,355.13c-.68,0-1.22.55-1.22,1.22s.55,1.22,1.22,1.22,1.22-.55,1.22-1.22-.55-1.22-1.22-1.22Z" fill="#2c3b5e"/><path d="M168.61,361.32c-.68,0-1.22.55-1.22,1.22s.55,1.22,1.22,1.22,1.22-.55,1.22-1.22-.55-1.22-1.22-1.22Z" fill="#2c3b5e"/><path d="M168.61,367.5c-.68,0-1.22.55-1.22,1.22s.55,1.22,1.22,1.22,1.22-.55,1.22-1.22-.55-1.22-1.22-1.22Z" fill="#2c3b5e"/><path d="M168.61,373.69c-.68,0-1.22.55-1.22,1.22s.55,1.22,1.22,1.22,1.22-.55,1.22-1.22-.55-1.22-1.22-1.22Z" fill="#2c3b5e"/><path d="M168.61,379.87c-.68,0-1.22.55-1.22,1.22s.55,1.22,1.22,1.22,1.22-.55,1.22-1.22-.55-1.22-1.22-1.22Z" fill="#2c3b5e"/><path d="M168.61,386.05c-.68,0-1.22.55-1.22,1.22s.55,1.22,1.22,1.22,1.22-.55,1.22-1.22-.55-1.22-1.22-1.22Z" fill="#2c3b5e"/><path d="M162.95,305.66c-.68,0-1.22.55-1.22,1.22s.55,1.22,1.22,1.22,1.22-.55,1.22-1.22-.55-1.22-1.22-1.22Z" fill="#2c3b5e"/><path d="M162.95,311.85c-.68,0-1.22.55-1.22,1.22s.55,1.22,1.22,1.22,1.22-.55,1.22-1.22-.55-1.22-1.22-1.22Z" fill="#2c3b5e"/><path d="M162.95,318.03c-.68,0-1.22.55-1.22,1.22s.55,1.22,1.22,1.22,1.22-.55,1.22-1.22-.55-1.22-1.22-1.22Z" fill="#2c3b5e"/><path d="M162.95,324.22c-.68,0-1.22.55-1.22,1.22s.55,1.22,1.22,1.22,1.22-.55,1.22-1.22-.55-1.22-1.22-1.22Z" fill="#2c3b5e"/><path d="M162.95,330.4c-.68,0-1.22.55-1.22,1.22s.55,1.22,1.22,1.22,1.22-.55,1.22-1.22-.55-1.22-1.22-1.22Z" fill="#2c3b5e"/><path d="M162.95,336.58c-.68,0-1.22.55-1.22,1.22s.55,1.22,1.22,1.22,1.22-.55,1.22-1.22-.55-1.22-1.22-1.22Z" fill="#2c3b5e"/><path d="M162.95,342.77c-.68,0-1.22.55-1.22,1.22s.55,1.22,1.22,1.22,1.22-.55,1.22-1.22-.55-1.22-1.22-1.22Z" fill="#2c3b5e"/><path d="M162.95,348.95c-.68,0-1.22.55-1.22,1.22s.55,1.22,1.22,1.22,1.22-.55,1.22-1.22-.55-1.22-1.22-1.22Z" fill="#2c3b5e"/><path d="M162.95,355.13c-.68,0-1.22.55-1.22,1.22s.55,1.22,1.22,1.22,1.22-.55,1.22-1.22-.55-1.22-1.22-1.22Z" fill="#2c3b5e"/><path d="M162.95,361.32c-.68,0-1.22.55-1.22,1.22s.55,1.22,1.22,1.22,1.22-.55,1.22-1.22-.55-1.22-1.22-1.22Z" fill="#2c3b5e"/><path d="M162.95,367.5c-.68,0-1.22.55-1.22,1.22s.55,1.22,1.22,1.22,1.22-.55,1.22-1.22-.55-1.22-1.22-1.22Z" fill="#2c3b5e"/><path d="M162.95,373.69c-.68,0-1.22.55-1.22,1.22s.55,1.22,1.22,1.22,1.22-.55,1.22-1.22-.55-1.22-1.22-1.22Z" fill="#2c3b5e"/><path d="M162.95,379.87c-.68,0-1.22.55-1.22,1.22s.55,1.22,1.22,1.22,1.22-.55,1.22-1.22-.55-1.22-1.22-1.22Z" fill="#2c3b5e"/><path d="M162.95,386.05c-.68,0-1.22.55-1.22,1.22s.55,1.22,1.22,1.22,1.22-.55,1.22-1.22-.55-1.22-1.22-1.22Z" fill="#2c3b5e"/><path d="M157.29,324.22c-.68,0-1.22.55-1.22,1.22s.55,1.22,1.22,1.22,1.22-.55,1.22-1.22-.55-1.22-1.22-1.22Z" fill="#2c3b5e"/><path d="M157.29,330.4c-.68,0-1.22.55-1.22,1.22s.55,1.22,1.22,1.22,1.22-.55,1.22-1.22-.55-1.22-1.22-1.22Z" fill="#2c3b5e"/><path d="M157.29,336.58c-.68,0-1.22.55-1.22,1.22s.55,1.22,1.22,1.22,1.22-.55,1.22-1.22-.55-1.22-1.22-1.22Z" fill="#2c3b5e"/><path d="M157.29,342.77c-.68,0-1.22.55-1.22,1.22s.55,1.22,1.22,1.22,1.22-.55,1.22-1.22-.55-1.22-1.22-1.22Z" fill="#2c3b5e"/><path d="M157.29,348.95c-.68,0-1.22.55-1.22,1.22s.55,1.22,1.22,1.22,1.22-.55,1.22-1.22-.55-1.22-1.22-1.22Z" fill="#2c3b5e"/><path d="M157.29,355.13c-.68,0-1.22.55-1.22,1.22s.55,1.22,1.22,1.22,1.22-.55,1.22-1.22-.55-1.22-1.22-1.22Z" fill="#2c3b5e"/><path d="M157.29,361.32c-.68,0-1.22.55-1.22,1.22s.55,1.22,1.22,1.22,1.22-.55,1.22-1.22-.55-1.22-1.22-1.22Z" fill="#2c3b5e"/><path d="M157.29,367.5c-.68,0-1.22.55-1.22,1.22s.55,1.22,1.22,1.22,1.22-.55,1.22-1.22-.55-1.22-1.22-1.22Z" fill="#2c3b5e"/><path d="M157.29,373.69c-.68,0-1.22.55-1.22,1.22s.55,1.22,1.22,1.22,1.22-.55,1.22-1.22-.55-1.22-1.22-1.22Z" fill="#2c3b5e"/><path d="M157.29,379.87c-.68,0-1.22.55-1.22,1.22s.55,1.22,1.22,1.22,1.22-.55,1.22-1.22-.55-1.22-1.22-1.22Z" fill="#2c3b5e"/><path d="M157.29,386.05c-.68,0-1.22.55-1.22,1.22s.55,1.22,1.22,1.22,1.22-.55,1.22-1.22-.55-1.22-1.22-1.22Z" fill="#2c3b5e"/><path d="M151.62,342.77c-.68,0-1.22.55-1.22,1.22s.55,1.22,1.22,1.22,1.22-.55,1.22-1.22-.55-1.22-1.22-1.22Z" fill="#2c3b5e"/><path d="M151.62,348.95c-.68,0-1.22.55-1.22,1.22s.55,1.22,1.22,1.22,1.22-.55,1.22-1.22-.55-1.22-1.22-1.22Z" fill="#2c3b5e"/><path d="M151.62,355.13c-.68,0-1.22.55-1.22,1.22s.55,1.22,1.22,1.22,1.22-.55,1.22-1.22-.55-1.22-1.22-1.22Z" fill="#2c3b5e"/><path d="M151.62,361.32c-.68,0-1.22.55-1.22,1.22s.55,1.22,1.22,1.22,1.22-.55,1.22-1.22-.55-1.22-1.22-1.22Z" fill="#2c3b5e"/><path d="M151.62,367.5c-.68,0-1.22.55-1.22,1.22s.55,1.22,1.22,1.22,1.22-.55,1.22-1.22-.55-1.22-1.22-1.22Z" fill="#2c3b5e"/><path d="M151.62,373.69c-.68,0-1.22.55-1.22,1.22s.55,1.22,1.22,1.22,1.22-.55,1.22-1.22-.55-1.22-1.22-1.22Z" fill="#2c3b5e"/><path d="M151.62,379.87c-.68,0-1.22.55-1.22,1.22s.55,1.22,1.22,1.22,1.22-.55,1.22-1.22-.55-1.22-1.22-1.22Z" fill="#2c3b5e"/><path d="M145.96,361.32c-.68,0-1.22.55-1.22,1.22s.55,1.22,1.22,1.22,1.22-.55,1.22-1.22-.55-1.22-1.22-1.22Z" fill="#2c3b5e"/><path d="M145.96,367.5c-.68,0-1.22.55-1.22,1.22s.55,1.22,1.22,1.22,1.22-.55,1.22-1.22-.55-1.22-1.22-1.22Z" fill="#2c3b5e"/><path d="M145.96,373.69c-.68,0-1.22.55-1.22,1.22s.55,1.22,1.22,1.22,1.22-.55,1.22-1.22-.55-1.22-1.22-1.22Z" fill="#2c3b5e"/><path d="M145.96,379.87c-.68,0-1.22.55-1.22,1.22s.55,1.22,1.22,1.22,1.22-.55,1.22-1.22-.55-1.22-1.22-1.22Z" fill="#2c3b5e"/><path d="M140.3,379.87c-.68,0-1.22.55-1.22,1.22s.55,1.22,1.22,1.22,1.22-.55,1.22-1.22-.55-1.22-1.22-1.22Z" fill="#2c3b5e"/><path d="M230.9,305.66c-.68,0-1.22.55-1.22,1.22s.55,1.22,1.22,1.22,1.22-.55,1.22-1.22-.55-1.22-1.22-1.22Z" fill="#2c3b5e"/><path d="M230.9,311.85c-.68,0-1.22.55-1.22,1.22s.55,1.22,1.22,1.22,1.22-.55,1.22-1.22-.55-1.22-1.22-1.22Z" fill="#2c3b5e"/><path d="M230.9,318.03c-.68,0-1.22.55-1.22,1.22s.55,1.22,1.22,1.22,1.22-.55,1.22-1.22-.55-1.22-1.22-1.22Z" fill="#2c3b5e"/><path d="M230.9,324.22c-.68,0-1.22.55-1.22,1.22s.55,1.22,1.22,1.22,1.22-.55,1.22-1.22-.55-1.22-1.22-1.22Z" fill="#2c3b5e"/><path d="M230.9,330.4c-.68,0-1.22.55-1.22,1.22s.55,1.22,1.22,1.22,1.22-.55,1.22-1.22-.55-1.22-1.22-1.22Z" fill="#2c3b5e"/><path d="M230.9,336.58c-.68,0-1.22.55-1.22,1.22s.55,1.22,1.22,1.22,1.22-.55,1.22-1.22-.55-1.22-1.22-1.22Z" fill="#2c3b5e"/><path d="M230.9,342.77c-.68,0-1.22.55-1.22,1.22s.55,1.22,1.22,1.22,1.22-.55,1.22-1.22-.55-1.22-1.22-1.22Z" fill="#2c3b5e"/><path d="M230.9,348.95c-.68,0-1.22.55-1.22,1.22s.55,1.22,1.22,1.22,1.22-.55,1.22-1.22-.55-1.22-1.22-1.22Z" fill="#2c3b5e"/><path d="M230.9,355.13c-.68,0-1.22.55-1.22,1.22s.55,1.22,1.22,1.22,1.22-.55,1.22-1.22-.55-1.22-1.22-1.22Z" fill="#2c3b5e"/><path d="M230.9,361.32c-.68,0-1.22.55-1.22,1.22s.55,1.22,1.22,1.22,1.22-.55,1.22-1.22-.55-1.22-1.22-1.22Z" fill="#2c3b5e"/><path d="M230.9,367.5c-.68,0-1.22.55-1.22,1.22s.55,1.22,1.22,1.22,1.22-.55,1.22-1.22-.55-1.22-1.22-1.22Z" fill="#2c3b5e"/><path d="M230.9,373.69c-.68,0-1.22.55-1.22,1.22s.55,1.22,1.22,1.22,1.22-.55,1.22-1.22-.55-1.22-1.22-1.22Z" fill="#2c3b5e"/><path d="M230.9,379.87c-.68,0-1.22.55-1.22,1.22s.55,1.22,1.22,1.22,1.22-.55,1.22-1.22-.55-1.22-1.22-1.22Z" fill="#2c3b5e"/><path d="M230.9,386.05c-.68,0-1.22.55-1.22,1.22s.55,1.22,1.22,1.22,1.22-.55,1.22-1.22-.55-1.22-1.22-1.22Z" fill="#2c3b5e"/><path d="M230.9,392.24c-.68,0-1.22.55-1.22,1.22s.55,1.22,1.22,1.22,1.22-.55,1.22-1.22-.55-1.22-1.22-1.22Z" fill="#2c3b5e"/><path d="M252.93,293.08c-.68,0-1.22.55-1.22,1.22s.55,1.22,1.22,1.22,1.22-.55,1.22-1.22-.55-1.22-1.22-1.22Z" fill="#2c3b5e"/><path d="M252.93,299.26c-.68,0-1.22.55-1.22,1.22s.55,1.22,1.22,1.22,1.22-.55,1.22-1.22-.55-1.22-1.22-1.22Z" fill="#2c3b5e"/><path d="M247.27,243.61c-.68,0-1.22.55-1.22,1.22s.55,1.22,1.22,1.22,1.22-.55,1.22-1.22-.55-1.22-1.22-1.22Z" fill="#2c3b5e"/><path d="M247.27,249.79c-.68,0-1.22.55-1.22,1.22s.55,1.22,1.22,1.22,1.22-.55,1.22-1.22-.55-1.22-1.22-1.22Z" fill="#2c3b5e"/><path d="M247.27,255.98c-.68,0-1.22.55-1.22,1.22s.55,1.22,1.22,1.22,1.22-.55,1.22-1.22-.55-1.22-1.22-1.22Z" fill="#2c3b5e"/><path d="M247.27,262.16c-.68,0-1.22.55-1.22,1.22s.55,1.22,1.22,1.22,1.22-.55,1.22-1.22-.55-1.22-1.22-1.22Z" fill="#2c3b5e"/><path d="M247.27,268.35c-.68,0-1.22.55-1.22,1.22s.55,1.22,1.22,1.22,1.22-.55,1.22-1.22-.55-1.22-1.22-1.22Z" fill="#2c3b5e"/><path d="M247.27,274.53c-.68,0-1.22.55-1.22,1.22s.55,1.22,1.22,1.22,1.22-.55,1.22-1.22-.55-1.22-1.22-1.22Z" fill="#2c3b5e"/><path d="M247.27,280.71c-.68,0-1.22.55-1.22,1.22s.55,1.22,1.22,1.22,1.22-.55,1.22-1.22-.55-1.22-1.22-1.22Z" fill="#2c3b5e"/><path d="M247.27,286.9c-.68,0-1.22.55-1.22,1.22s.55,1.22,1.22,1.22,1.22-.55,1.22-1.22-.55-1.22-1.22-1.22Z" fill="#2c3b5e"/><path d="M247.27,293.08c-.68,0-1.22.55-1.22,1.22s.55,1.22,1.22,1.22,1.22-.55,1.22-1.22-.55-1.22-1.22-1.22Z" fill="#2c3b5e"/><path d="M247.27,299.26c-.68,0-1.22.55-1.22,1.22s.55,1.22,1.22,1.22,1.22-.55,1.22-1.22-.55-1.22-1.22-1.22Z" fill="#2c3b5e"/><path d="M241.61,225.06c-.68,0-1.22.55-1.22,1.22s.55,1.22,1.22,1.22,1.22-.55,1.22-1.22-.55-1.22-1.22-1.22Z" fill="#2c3b5e"/><path d="M241.61,231.24c-.68,0-1.22.55-1.22,1.22s.55,1.22,1.22,1.22,1.22-.55,1.22-1.22-.55-1.22-1.22-1.22Z" fill="#2c3b5e"/><path d="M241.61,237.43c-.68,0-1.22.55-1.22,1.22s.55,1.22,1.22,1.22,1.22-.55,1.22-1.22-.55-1.22-1.22-1.22Z" fill="#2c3b5e"/><path d="M241.61,243.61c-.68,0-1.22.55-1.22,1.22s.55,1.22,1.22,1.22,1.22-.55,1.22-1.22-.55-1.22-1.22-1.22Z" fill="#2c3b5e"/><path d="M241.61,249.79c-.68,0-1.22.55-1.22,1.22s.55,1.22,1.22,1.22,1.22-.55,1.22-1.22-.55-1.22-1.22-1.22Z" fill="#2c3b5e"/><path d="M241.61,255.98c-.68,0-1.22.55-1.22,1.22s.55,1.22,1.22,1.22,1.22-.55,1.22-1.22-.55-1.22-1.22-1.22Z" fill="#2c3b5e"/><path d="M241.61,262.16c-.68,0-1.22.55-1.22,1.22s.55,1.22,1.22,1.22,1.22-.55,1.22-1.22-.55-1.22-1.22-1.22Z" fill="#2c3b5e"/><path d="M241.61,268.35c-.68,0-1.22.55-1.22,1.22s.55,1.22,1.22,1.22,1.22-.55,1.22-1.22-.55-1.22-1.22-1.22Z" fill="#2c3b5e"/><path d="M241.61,274.53c-.68,0-1.22.55-1.22,1.22s.55,1.22,1.22,1.22,1.22-.55,1.22-1.22-.55-1.22-1.22-1.22Z" fill="#2c3b5e"/><path d="M241.61,280.71c-.68,0-1.22.55-1.22,1.22s.55,1.22,1.22,1.22,1.22-.55,1.22-1.22-.55-1.22-1.22-1.22Z" fill="#2c3b5e"/><path d="M241.61,286.9c-.68,0-1.22.55-1.22,1.22s.55,1.22,1.22,1.22,1.22-.55,1.22-1.22-.55-1.22-1.22-1.22Z" fill="#2c3b5e"/><path d="M241.61,293.08c-.68,0-1.22.55-1.22,1.22s.55,1.22,1.22,1.22,1.22-.55,1.22-1.22-.55-1.22-1.22-1.22Z" fill="#2c3b5e"/><path d="M241.61,299.26c-.68,0-1.22.55-1.22,1.22s.55,1.22,1.22,1.22,1.22-.55,1.22-1.22-.55-1.22-1.22-1.22Z" fill="#2c3b5e"/><path d="M264.26,379.87c-.68,0-1.22.55-1.22,1.22s.55,1.22,1.22,1.22,1.22-.55,1.22-1.22-.55-1.22-1.22-1.22Z" fill="#2c3b5e"/><path d="M264.26,386.05c-.68,0-1.22.55-1.22,1.22s.55,1.22,1.22,1.22,1.22-.55,1.22-1.22-.55-1.22-1.22-1.22Z" fill="#2c3b5e"/><path d="M264.26,392.24c-.68,0-1.22.55-1.22,1.22s.55,1.22,1.22,1.22,1.22-.55,1.22-1.22-.55-1.22-1.22-1.22Z" fill="#2c3b5e"/><path d="M258.6,336.58c-.68,0-1.22.55-1.22,1.22s.55,1.22,1.22,1.22,1.22-.55,1.22-1.22-.55-1.22-1.22-1.22Z" fill="#2c3b5e"/><path d="M258.6,342.77c-.68,0-1.22.55-1.22,1.22s.55,1.22,1.22,1.22,1.22-.55,1.22-1.22-.55-1.22-1.22-1.22Z" fill="#2c3b5e"/><path d="M258.6,348.95c-.68,0-1.22.55-1.22,1.22s.55,1.22,1.22,1.22,1.22-.55,1.22-1.22-.55-1.22-1.22-1.22Z" fill="#2c3b5e"/><path d="M258.6,355.13c-.68,0-1.22.55-1.22,1.22s.55,1.22,1.22,1.22,1.22-.55,1.22-1.22-.55-1.22-1.22-1.22Z" fill="#2c3b5e"/><path d="M258.6,361.32c-.68,0-1.22.55-1.22,1.22s.55,1.22,1.22,1.22,1.22-.55,1.22-1.22-.55-1.22-1.22-1.22Z" fill="#2c3b5e"/><path d="M258.6,367.5c-.68,0-1.22.55-1.22,1.22s.55,1.22,1.22,1.22,1.22-.55,1.22-1.22-.55-1.22-1.22-1.22Z" fill="#2c3b5e"/><path d="M258.6,373.69c-.68,0-1.22.55-1.22,1.22s.55,1.22,1.22,1.22,1.22-.55,1.22-1.22-.55-1.22-1.22-1.22Z" fill="#2c3b5e"/><path d="M258.6,379.87c-.68,0-1.22.55-1.22,1.22s.55,1.22,1.22,1.22,1.22-.55,1.22-1.22-.55-1.22-1.22-1.22Z" fill="#2c3b5e"/><path d="M258.6,386.05c-.68,0-1.22.55-1.22,1.22s.55,1.22,1.22,1.22,1.22-.55,1.22-1.22-.55-1.22-1.22-1.22Z" fill="#2c3b5e"/><path d="M258.6,392.24c-.68,0-1.22.55-1.22,1.22s.55,1.22,1.22,1.22,1.22-.55,1.22-1.22-.55-1.22-1.22-1.22Z" fill="#2c3b5e"/><path d="M252.93,305.66c-.68,0-1.22.55-1.22,1.22s.55,1.22,1.22,1.22,1.22-.55,1.22-1.22-.55-1.22-1.22-1.22Z" fill="#2c3b5e"/><path d="M252.93,311.85c-.68,0-1.22.55-1.22,1.22s.55,1.22,1.22,1.22,1.22-.55,1.22-1.22-.55-1.22-1.22-1.22Z" fill="#2c3b5e"/><path d="M252.93,318.03c-.68,0-1.22.55-1.22,1.22s.55,1.22,1.22,1.22,1.22-.55,1.22-1.22-.55-1.22-1.22-1.22Z" fill="#2c3b5e"/><path d="M252.93,324.22c-.68,0-1.22.55-1.22,1.22s.55,1.22,1.22,1.22,1.22-.55,1.22-1.22-.55-1.22-1.22-1.22Z" fill="#2c3b5e"/><path d="M252.93,330.4c-.68,0-1.22.55-1.22,1.22s.55,1.22,1.22,1.22,1.22-.55,1.22-1.22-.55-1.22-1.22-1.22Z" fill="#2c3b5e"/><path d="M252.93,336.58c-.68,0-1.22.55-1.22,1.22s.55,1.22,1.22,1.22,1.22-.55,1.22-1.22-.55-1.22-1.22-1.22Z" fill="#2c3b5e"/><path d="M252.93,342.77c-.68,0-1.22.55-1.22,1.22s.55,1.22,1.22,1.22,1.22-.55,1.22-1.22-.55-1.22-1.22-1.22Z" fill="#2c3b5e"/><path d="M252.93,348.95c-.68,0-1.22.55-1.22,1.22s.55,1.22,1.22,1.22,1.22-.55,1.22-1.22-.55-1.22-1.22-1.22Z" fill="#2c3b5e"/><path d="M252.93,355.13c-.68,0-1.22.55-1.22,1.22s.55,1.22,1.22,1.22,1.22-.55,1.22-1.22-.55-1.22-1.22-1.22Z" fill="#2c3b5e"/><path d="M252.93,361.32c-.68,0-1.22.55-1.22,1.22s.55,1.22,1.22,1.22,1.22-.55,1.22-1.22-.55-1.22-1.22-1.22Z" fill="#2c3b5e"/><path d="M252.93,367.5c-.68,0-1.22.55-1.22,1.22s.55,1.22,1.22,1.22,1.22-.55,1.22-1.22-.55-1.22-1.22-1.22Z" fill="#2c3b5e"/><path d="M252.93,373.69c-.68,0-1.22.55-1.22,1.22s.55,1.22,1.22,1.22,1.22-.55,1.22-1.22-.55-1.22-1.22-1.22Z" fill="#2c3b5e"/><path d="M252.93,379.87c-.68,0-1.22.55-1.22,1.22s.55,1.22,1.22,1.22,1.22-.55,1.22-1.22-.55-1.22-1.22-1.22Z" fill="#2c3b5e"/><path d="M252.93,386.05c-.68,0-1.22.55-1.22,1.22s.55,1.22,1.22,1.22,1.22-.55,1.22-1.22-.55-1.22-1.22-1.22Z" fill="#2c3b5e"/><path d="M252.93,392.24c-.68,0-1.22.55-1.22,1.22s.55,1.22,1.22,1.22,1.22-.55,1.22-1.22-.55-1.22-1.22-1.22Z" fill="#2c3b5e"/><path d="M247.27,305.66c-.68,0-1.22.55-1.22,1.22s.55,1.22,1.22,1.22,1.22-.55,1.22-1.22-.55-1.22-1.22-1.22Z" fill="#2c3b5e"/><path d="M247.27,311.85c-.68,0-1.22.55-1.22,1.22s.55,1.22,1.22,1.22,1.22-.55,1.22-1.22-.55-1.22-1.22-1.22Z" fill="#2c3b5e"/><path d="M247.27,318.03c-.68,0-1.22.55-1.22,1.22s.55,1.22,1.22,1.22,1.22-.55,1.22-1.22-.55-1.22-1.22-1.22Z" fill="#2c3b5e"/><path d="M247.27,324.22c-.68,0-1.22.55-1.22,1.22s.55,1.22,1.22,1.22,1.22-.55,1.22-1.22-.55-1.22-1.22-1.22Z" fill="#2c3b5e"/><path d="M247.27,330.4c-.68,0-1.22.55-1.22,1.22s.55,1.22,1.22,1.22,1.22-.55,1.22-1.22-.55-1.22-1.22-1.22Z" fill="#2c3b5e"/><path d="M247.27,336.58c-.68,0-1.22.55-1.22,1.22s.55,1.22,1.22,1.22,1.22-.55,1.22-1.22-.55-1.22-1.22-1.22Z" fill="#2c3b5e"/><path d="M247.27,342.77c-.68,0-1.22.55-1.22,1.22s.55,1.22,1.22,1.22,1.22-.55,1.22-1.22-.55-1.22-1.22-1.22Z" fill="#2c3b5e"/><path d="M247.27,348.95c-.68,0-1.22.55-1.22,1.22s.55,1.22,1.22,1.22,1.22-.55,1.22-1.22-.55-1.22-1.22-1.22Z" fill="#2c3b5e"/><path d="M247.27,355.13c-.68,0-1.22.55-1.22,1.22s.55,1.22,1.22,1.22,1.22-.55,1.22-1.22-.55-1.22-1.22-1.22Z" fill="#2c3b5e"/><path d="M247.27,361.32c-.68,0-1.22.55-1.22,1.22s.55,1.22,1.22,1.22,1.22-.55,1.22-1.22-.55-1.22-1.22-1.22Z" fill="#2c3b5e"/><path d="M247.27,367.5c-.68,0-1.22.55-1.22,1.22s.55,1.22,1.22,1.22,1.22-.55,1.22-1.22-.55-1.22-1.22-1.22Z" fill="#2c3b5e"/><path d="M247.27,373.69c-.68,0-1.22.55-1.22,1.22s.55,1.22,1.22,1.22,1.22-.55,1.22-1.22-.55-1.22-1.22-1.22Z" fill="#2c3b5e"/><path d="M247.27,379.87c-.68,0-1.22.55-1.22,1.22s.55,1.22,1.22,1.22,1.22-.55,1.22-1.22-.55-1.22-1.22-1.22Z" fill="#2c3b5e"/><path d="M247.27,386.05c-.68,0-1.22.55-1.22,1.22s.55,1.22,1.22,1.22,1.22-.55,1.22-1.22-.55-1.22-1.22-1.22Z" fill="#2c3b5e"/><path d="M247.27,392.24c-.68,0-1.22.55-1.22,1.22s.55,1.22,1.22,1.22,1.22-.55,1.22-1.22-.55-1.22-1.22-1.22Z" fill="#2c3b5e"/><path d="M241.61,305.66c-.68,0-1.22.55-1.22,1.22s.55,1.22,1.22,1.22,1.22-.55,1.22-1.22-.55-1.22-1.22-1.22Z" fill="#2c3b5e"/><path d="M241.61,311.85c-.68,0-1.22.55-1.22,1.22s.55,1.22,1.22,1.22,1.22-.55,1.22-1.22-.55-1.22-1.22-1.22Z" fill="#2c3b5e"/><path d="M241.61,318.03c-.68,0-1.22.55-1.22,1.22s.55,1.22,1.22,1.22,1.22-.55,1.22-1.22-.55-1.22-1.22-1.22Z" fill="#2c3b5e"/><path d="M241.61,324.22c-.68,0-1.22.55-1.22,1.22s.55,1.22,1.22,1.22,1.22-.55,1.22-1.22-.55-1.22-1.22-1.22Z" fill="#2c3b5e"/><path d="M241.61,330.4c-.68,0-1.22.55-1.22,1.22s.55,1.22,1.22,1.22,1.22-.55,1.22-1.22-.55-1.22-1.22-1.22Z" fill="#2c3b5e"/><path d="M241.61,336.58c-.68,0-1.22.55-1.22,1.22s.55,1.22,1.22,1.22,1.22-.55,1.22-1.22-.55-1.22-1.22-1.22Z" fill="#2c3b5e"/><path d="M241.61,342.77c-.68,0-1.22.55-1.22,1.22s.55,1.22,1.22,1.22,1.22-.55,1.22-1.22-.55-1.22-1.22-1.22Z" fill="#2c3b5e"/><path d="M241.61,348.95c-.68,0-1.22.55-1.22,1.22s.55,1.22,1.22,1.22,1.22-.55,1.22-1.22-.55-1.22-1.22-1.22Z" fill="#2c3b5e"/><path d="M241.61,355.13c-.68,0-1.22.55-1.22,1.22s.55,1.22,1.22,1.22,1.22-.55,1.22-1.22-.55-1.22-1.22-1.22Z" fill="#2c3b5e"/><path d="M241.61,361.32c-.68,0-1.22.55-1.22,1.22s.55,1.22,1.22,1.22,1.22-.55,1.22-1.22-.55-1.22-1.22-1.22Z" fill="#2c3b5e"/><path d="M241.61,367.5c-.68,0-1.22.55-1.22,1.22s.55,1.22,1.22,1.22,1.22-.55,1.22-1.22-.55-1.22-1.22-1.22Z" fill="#2c3b5e"/><path d="M241.61,373.69c-.68,0-1.22.55-1.22,1.22s.55,1.22,1.22,1.22,1.22-.55,1.22-1.22-.55-1.22-1.22-1.22Z" fill="#2c3b5e"/><path d="M241.61,379.87c-.68,0-1.22.55-1.22,1.22s.55,1.22,1.22,1.22,1.22-.55,1.22-1.22-.55-1.22-1.22-1.22Z" fill="#2c3b5e"/><path d="M241.61,386.05c-.68,0-1.22.55-1.22,1.22s.55,1.22,1.22,1.22,1.22-.55,1.22-1.22-.55-1.22-1.22-1.22Z" fill="#2c3b5e"/><path d="M241.61,392.24c-.68,0-1.22.55-1.22,1.22s.55,1.22,1.22,1.22,1.22-.55,1.22-1.22-.55-1.22-1.22-1.22Z" fill="#2c3b5e"/></g><path d="M178.51,152.77l-8.43,66.02s25.72,6.09,41.33,5.25" fill="none" stroke="#2c3b5e" stroke-miterlimit="10" stroke-width="3"/><path d="M176.4,218.79s-21.51,128.38-37.11,162.96l45.12,15.6s18.13-43.58,24.83-77.32" fill="none" stroke="#2c3b5e" stroke-miterlimit="10" stroke-width="3"/><polyline points="199.6 252.29 220.26 397.35 265.8 397.35 244.72 224.12" fill="none" stroke="#2c3b5e" stroke-miterlimit="10" stroke-width="3"/><path d="M219.4,138.05c3.19-.17,6.28,1.49,8.43,3.85s3.48,5.35,4.49,8.38c1.6,4.76,2.52,9.73,4.27,14.44,1.75,4.71,4.47,9.27,8.74,11.93,4.26,2.65,10.29,2.89,14.03-.45,2.27-2.03,3.42-5,5.05-7.57s6.38-6.06,9.41-5.73" fill="none" stroke="#2c3b5e" stroke-miterlimit="10" stroke-width="3"/><path d="M269.39,170.27s8.86-13.95,13.56-16.61,3.86,2.54,3.86,2.54" fill="none" stroke="#2c3b5e" stroke-miterlimit="10" stroke-width="3"/><path d="M283.54,164.1s-5.71,6.1-8.32,10.11" fill="none" stroke="#2c3b5e" stroke-miterlimit="10" stroke-width="3"/><path d="M288.16,169.07s-6.71,7.03-8.57,9.41" fill="none" stroke="#2c3b5e" stroke-miterlimit="10" stroke-width="3"/><path d="M288.78,176.28s-26.78,29.9-45.19,30.05-33.73-37.26-33.73-37.26" fill="none" stroke="#2c3b5e" stroke-miterlimit="10" stroke-width="3"/><path d="M246.61,177.34l31.35-60.09c1.69-3.23,5.64-4.53,8.91-2.94l36.91,17.98c3.37,1.64,4.75,5.72,3.07,9.06l-29.28,58.38c-1.61,3.21-5.47,4.59-8.75,3.13l-19.42-8.65" fill="none" stroke="#2c3b5e" stroke-miterlimit="10" stroke-width="3"/><path d="M257.16,177.64s9.99,9.21,6.79,20.53" fill="none" stroke="#2c3b5e" stroke-miterlimit="10" stroke-width="3"/><path d="M230.99,93.65c1.01,9.03,4.68,17.74,10.45,24.77-3.47.37-6.76,1.24-10.23,1.61" fill="none" stroke="#2c3b5e" stroke-miterlimit="10" stroke-width="3"/><path d="M236.22,120.03s1.83,16.03-18.49,18.32" fill="none" stroke="#2c3b5e" stroke-miterlimit="10" stroke-width="3"/><path d="M234.15,103.87c4.14-1.96,7.35-5.8,8.54-10.22,1.18-4.41.35-9.29-2.08-13.15s-6.41-6.69-10.81-7.89c-6.96-1.9-14.91.45-19.71,5.84-6.05-1.77-12.54-1.35-18.65.21-6.11,1.56-11.77,5.37-14.83,10.88-3.06,5.51-3.2,12.73.3,17.98-4.52,6.12-8.55,13.31-10.14,20.75-1.59,7.44.23,16.08,6.29,20.66,7.02,5.31,17.75,3.38,24.08-2.74,6.32-6.12,8.79-15.34,8.77-24.14-1.83.42-3.59.06-5.45-.22s-3.71-1.41-4.29-3.2c-.76-2.36,1.02-4.93,3.29-5.93s4.85-.84,7.32-.66c2.34.17,4.86.54,6.81-.76,1.79-1.2,2.94-3.2,3.54-5.27.6-2.08.7-4.26.8-6.42,4.53,1.77,10.35.86,14.62-1.49" fill="none" stroke="#2c3b5e" stroke-miterlimit="10" stroke-width="3"/><ellipse cx="225.9" cy="110.55" rx="2.37" ry="1.95" transform="translate(86.76 320.06) rotate(-82.49)" fill="#2c3b5e"/><g><circle cx="343.93" cy="101.68" r="12.73" fill="none" stroke="#2c3b5e" stroke-miterlimit="10" stroke-width="3"/><line x1="352.93" y1="92.67" x2="369.02" y2="70.19" fill="none" stroke="#2c3b5e" stroke-miterlimit="10" stroke-width="3"/><line x1="348.09" y1="112.92" x2="358.97" y2="138.29" fill="none" stroke="#2c3b5e" stroke-miterlimit="10" stroke-width="3"/><line x1="331.2" y1="101.68" x2="302.4" y2="96.23" fill="none" stroke="#2c3b5e" stroke-miterlimit="10" stroke-width="3"/><circle cx="372.21" cy="66.41" r="4.85" fill="none" stroke="#2c3b5e" stroke-miterlimit="10" stroke-width="3"/><circle cx="360.36" cy="142.06" r="4.85" fill="none" stroke="#2c3b5e" stroke-miterlimit="10" stroke-width="3"/><circle cx="297.55" cy="95.15" r="4.85" fill="none" stroke="#2c3b5e" stroke-miterlimit="10" stroke-width="3"/></g><path d="M272.31,144.95c3.79-6.26,10.76-10.48,18.07-10.92,3.19-.19,6.52.33,9.17,2.11,2.65,1.78,4.49,4.96,4.09,8.13s-3.42,5.96-6.59,5.57-5.44-4.44-3.71-7.12c1.51-2.35,4.77-2.63,7.57-2.67,5.35-.07,10.7-.15,16.05-.22" fill="none" stroke="#2c3b5e" stroke-miterlimit="10" stroke-width="3"/><polyline points="255.26 401.99 273.81 418.43 223.94 418.43 227.86 404.52" fill="none" stroke="#2c3b5e" stroke-miterlimit="10" stroke-width="3"/><polyline points="170.62 401.99 189.17 418.43 139.3 418.43 143.21 404.52" fill="none" stroke="#2c3b5e" stroke-miterlimit="10" stroke-width="3"/><path d="M151.44,120.85l-4.43-13.35c2.07-3.95,3.01-8.52,2.42-13.24-1.54-12.54-13.17-21.43-25.96-19.86-12.79,1.58-21.91,13.02-20.36,25.56,1.54,12.54,13.17,21.43,25.96,19.86,3.22-.4,6.2-1.42,8.84-2.92l13.53,3.95Z" fill="none" stroke="#2c3b5e" stroke-miterlimit="10" stroke-width="3"/></svg>