<svg id="Illustrations" xmlns="http://www.w3.org/2000/svg" width="480" height="480" viewBox="0 0 480 480"><g><g><g><polyline points="323.54 375.3 346.69 375.3 346.69 369.63 323.63 369.63" fill="none" stroke="#2c3b5e" stroke-miterlimit="10" stroke-width="3"/><path d="M301.89,369.63h-13.96c-9.57,0-17.33,7.76-17.33,17.33h0c0,9.57,7.76,17.33,17.33,17.33h58.76s0-5.67,0-5.67h-58.09c-6.44,0-11.65-5.22-11.65-11.65h0c0-6.44,5.22-11.65,11.65-11.65h14.07" fill="none" stroke="#2c3b5e" stroke-miterlimit="10" stroke-width="3"/><polyline points="323.54 369.63 370.37 369.63 370.37 363.95 323.54 363.95" fill="none" stroke="#2c3b5e" stroke-miterlimit="10" stroke-width="3"/><path d="M302.67,363.95h-3.5c-6.44,0-11.65-5.22-11.65-11.65h0c0-6.44,5.22-11.65,11.65-11.65h71.2v-5.67h-71.87c-9.57,0-17.33,7.76-17.33,17.33h0c0,9.57,7.76,17.33,17.33,17.33h4.17" fill="none" stroke="#2c3b5e" stroke-miterlimit="10" stroke-width="3"/><line x1="339.65" y1="375.3" x2="339.65" y2="398.61" fill="none" stroke="#2c3b5e" stroke-miterlimit="10" stroke-width="3"/></g><line x1="360.58" y1="340.65" x2="360.58" y2="363.95" fill="none" stroke="#2c3b5e" stroke-miterlimit="10" stroke-width="3"/><polygon points="323.54 381.91 313.1 379.04 302.67 381.91 302.67 352.3 323.54 352.3 323.54 381.91" fill="#2c3b5e" stroke="#2c3b5e" stroke-miterlimit="10" stroke-width="3"/><line x1="285.45" y1="388.63" x2="321.06" y2="388.63" fill="#2c3b5e" stroke="#2c3b5e" stroke-miterlimit="10" stroke-width="3"/></g><g><path d="M221.67,129.06s-3.65,6.52-18.26,5.35c-14.61-1.17-7.43-36.52-7.43-36.52" fill="none" stroke="#2c3b5e" stroke-miterlimit="10" stroke-width="3"/><path d="M193.23,96.45c4.54,3.01,10.52,3.13,15.75,1.61,5.23-1.53,9.88-4.52,14.45-7.49-1.96,5.97-1.41,12.86,1.11,18.61.37.85.81,1.71,1.53,2.29s1.78.84,2.59.38c1.33-.76,1.15-2.72,1.89-4.07,1.08-1.97,4.02-2.15,5.93-.97,2.43,1.51,3.58,4.81,2.59,7.5-.99,2.69-3.99,4.47-6.82,4.05.85,1.53.86,3.32.39,5-.46,1.68-1.61,3.17-3.12,4.05" fill="none" stroke="#2c3b5e" stroke-miterlimit="10" stroke-width="3"/><polyline points="209.41 103.37 203.15 117.06 211.1 118.76" fill="none" stroke="#2c3b5e" stroke-miterlimit="10" stroke-width="3"/><path d="M208.5,124.89s8.09.26,10.43-3.52" fill="none" stroke="#2c3b5e" stroke-miterlimit="10" stroke-width="3"/><path d="M201.45,138.71s-6.53,53.22-8.22,63.65" fill="none" stroke="#2c3b5e" stroke-miterlimit="10" stroke-width="3"/><polyline points="193.89 197.93 185.15 162.32 193.23 154.76 186.19 148.89 193.89 138.71" fill="none" stroke="#2c3b5e" stroke-miterlimit="10" stroke-width="3"/><line x1="226.63" y1="135.84" x2="221.67" y2="207.71" fill="none" stroke="#2c3b5e" stroke-miterlimit="10" stroke-width="3"/><polyline points="226.63 199.24 241.1 162.19 233.87 156.97 242.02 148.89 231.58 136.37" fill="none" stroke="#2c3b5e" stroke-miterlimit="10" stroke-width="3"/><polyline points="180.84 178.11 175.37 224.8 194.21 225.84" fill="none" stroke="#2c3b5e" stroke-miterlimit="10" stroke-width="3"/><path d="M189.52,144.49s-7.11-1.86-10.5,9.88-8.35,21.91-25.04,20.35" fill="none" stroke="#2c3b5e" stroke-miterlimit="10" stroke-width="3"/><path d="M146.67,197.93s13.61,7.57,31.33,4.43" fill="none" stroke="#2c3b5e" stroke-miterlimit="10" stroke-width="3"/><path d="M236.15,135.84c1.57-.52,52.17,15.13,51.91,48.52s-36.78,48-36.78,48" fill="none" stroke="#2c3b5e" stroke-miterlimit="10" stroke-width="3"/><path d="M263.28,180.45s3.13,21.91-11.48,28.96c0,0-7.57-3.65-10.7,0" fill="none" stroke="#2c3b5e" stroke-miterlimit="10" stroke-width="3"/><path d="M252.33,213.29s-8.62,4.13-19.08,5.68" fill="none" stroke="#2c3b5e" stroke-miterlimit="10" stroke-width="3"/><path d="M253.4,218.97s-9.36,6.12-20.68,7.2" fill="none" stroke="#2c3b5e" stroke-miterlimit="10" stroke-width="3"/><g><g><path d="M220.96,150.33c-.68,0-1.22.55-1.22,1.22s.55,1.22,1.22,1.22,1.22-.55,1.22-1.22-.55-1.22-1.22-1.22Z" fill="#2c3b5e"/><path d="M220.96,156.52c-.68,0-1.22.55-1.22,1.22s.55,1.22,1.22,1.22,1.22-.55,1.22-1.22-.55-1.22-1.22-1.22Z" fill="#2c3b5e"/><path d="M220.96,162.7c-.68,0-1.22.55-1.22,1.22s.55,1.22,1.22,1.22,1.22-.55,1.22-1.22-.55-1.22-1.22-1.22Z" fill="#2c3b5e"/><path d="M220.96,168.88c-.68,0-1.22.55-1.22,1.22s.55,1.22,1.22,1.22,1.22-.55,1.22-1.22-.55-1.22-1.22-1.22Z" fill="#2c3b5e"/><path d="M220.96,175.07c-.68,0-1.22.55-1.22,1.22s.55,1.22,1.22,1.22,1.22-.55,1.22-1.22-.55-1.22-1.22-1.22Z" fill="#2c3b5e"/><path d="M220.96,181.25c-.68,0-1.22.55-1.22,1.22s.55,1.22,1.22,1.22,1.22-.55,1.22-1.22-.55-1.22-1.22-1.22Z" fill="#2c3b5e"/><path d="M220.96,187.44c-.68,0-1.22.55-1.22,1.22s.55,1.22,1.22,1.22,1.22-.55,1.22-1.22-.55-1.22-1.22-1.22Z" fill="#2c3b5e"/><path d="M220.96,193.62c-.68,0-1.22.55-1.22,1.22s.55,1.22,1.22,1.22,1.22-.55,1.22-1.22-.55-1.22-1.22-1.22Z" fill="#2c3b5e"/><path d="M220.96,199.8c-.68,0-1.22.55-1.22,1.22s.55,1.22,1.22,1.22,1.22-.55,1.22-1.22-.55-1.22-1.22-1.22Z" fill="#2c3b5e"/><path d="M220.96,205.99c-.68,0-1.22.55-1.22,1.22s.55,1.22,1.22,1.22,1.22-.55,1.22-1.22-.55-1.22-1.22-1.22Z" fill="#2c3b5e"/><path d="M220.96,212.17c-.68,0-1.22.55-1.22,1.22s.55,1.22,1.22,1.22,1.22-.55,1.22-1.22-.55-1.22-1.22-1.22Z" fill="#2c3b5e"/><path d="M220.96,218.36c-.68,0-1.22.55-1.22,1.22s.55,1.22,1.22,1.22,1.22-.55,1.22-1.22-.55-1.22-1.22-1.22Z" fill="#2c3b5e"/></g><g><path d="M215.3,150.33c-.68,0-1.22.55-1.22,1.22s.55,1.22,1.22,1.22,1.22-.55,1.22-1.22-.55-1.22-1.22-1.22Z" fill="#2c3b5e"/><path d="M215.3,156.52c-.68,0-1.22.55-1.22,1.22s.55,1.22,1.22,1.22,1.22-.55,1.22-1.22-.55-1.22-1.22-1.22Z" fill="#2c3b5e"/><path d="M215.3,162.7c-.68,0-1.22.55-1.22,1.22s.55,1.22,1.22,1.22,1.22-.55,1.22-1.22-.55-1.22-1.22-1.22Z" fill="#2c3b5e"/><path d="M215.3,168.88c-.68,0-1.22.55-1.22,1.22s.55,1.22,1.22,1.22,1.22-.55,1.22-1.22-.55-1.22-1.22-1.22Z" fill="#2c3b5e"/><path d="M215.3,175.07c-.68,0-1.22.55-1.22,1.22s.55,1.22,1.22,1.22,1.22-.55,1.22-1.22-.55-1.22-1.22-1.22Z" fill="#2c3b5e"/><path d="M215.3,181.25c-.68,0-1.22.55-1.22,1.22s.55,1.22,1.22,1.22,1.22-.55,1.22-1.22-.55-1.22-1.22-1.22Z" fill="#2c3b5e"/><path d="M215.3,187.44c-.68,0-1.22.55-1.22,1.22s.55,1.22,1.22,1.22,1.22-.55,1.22-1.22-.55-1.22-1.22-1.22Z" fill="#2c3b5e"/><path d="M215.3,193.62c-.68,0-1.22.55-1.22,1.22s.55,1.22,1.22,1.22,1.22-.55,1.22-1.22-.55-1.22-1.22-1.22Z" fill="#2c3b5e"/><path d="M215.3,199.8c-.68,0-1.22.55-1.22,1.22s.55,1.22,1.22,1.22,1.22-.55,1.22-1.22-.55-1.22-1.22-1.22Z" fill="#2c3b5e"/><path d="M215.3,205.99c-.68,0-1.22.55-1.22,1.22s.55,1.22,1.22,1.22,1.22-.55,1.22-1.22-.55-1.22-1.22-1.22Z" fill="#2c3b5e"/><path d="M215.3,212.17c-.68,0-1.22.55-1.22,1.22s.55,1.22,1.22,1.22,1.22-.55,1.22-1.22-.55-1.22-1.22-1.22Z" fill="#2c3b5e"/><path d="M215.3,218.36c-.68,0-1.22.55-1.22,1.22s.55,1.22,1.22,1.22,1.22-.55,1.22-1.22-.55-1.22-1.22-1.22Z" fill="#2c3b5e"/></g><g><path d="M209.64,150.33c-.68,0-1.22.55-1.22,1.22s.55,1.22,1.22,1.22,1.22-.55,1.22-1.22-.55-1.22-1.22-1.22Z" fill="#2c3b5e"/><path d="M209.64,156.52c-.68,0-1.22.55-1.22,1.22s.55,1.22,1.22,1.22,1.22-.55,1.22-1.22-.55-1.22-1.22-1.22Z" fill="#2c3b5e"/><path d="M209.64,162.7c-.68,0-1.22.55-1.22,1.22s.55,1.22,1.22,1.22,1.22-.55,1.22-1.22-.55-1.22-1.22-1.22Z" fill="#2c3b5e"/><path d="M209.64,168.88c-.68,0-1.22.55-1.22,1.22s.55,1.22,1.22,1.22,1.22-.55,1.22-1.22-.55-1.22-1.22-1.22Z" fill="#2c3b5e"/><path d="M209.64,175.07c-.68,0-1.22.55-1.22,1.22s.55,1.22,1.22,1.22,1.22-.55,1.22-1.22-.55-1.22-1.22-1.22Z" fill="#2c3b5e"/><path d="M209.64,181.25c-.68,0-1.22.55-1.22,1.22s.55,1.22,1.22,1.22,1.22-.55,1.22-1.22-.55-1.22-1.22-1.22Z" fill="#2c3b5e"/><path d="M209.64,187.44c-.68,0-1.22.55-1.22,1.22s.55,1.22,1.22,1.22,1.22-.55,1.22-1.22-.55-1.22-1.22-1.22Z" fill="#2c3b5e"/><path d="M209.64,193.62c-.68,0-1.22.55-1.22,1.22s.55,1.22,1.22,1.22,1.22-.55,1.22-1.22-.55-1.22-1.22-1.22Z" fill="#2c3b5e"/><path d="M209.64,199.8c-.68,0-1.22.55-1.22,1.22s.55,1.22,1.22,1.22,1.22-.55,1.22-1.22-.55-1.22-1.22-1.22Z" fill="#2c3b5e"/><path d="M209.64,205.99c-.68,0-1.22.55-1.22,1.22s.55,1.22,1.22,1.22,1.22-.55,1.22-1.22-.55-1.22-1.22-1.22Z" fill="#2c3b5e"/><path d="M209.64,212.17c-.68,0-1.22.55-1.22,1.22s.55,1.22,1.22,1.22,1.22-.55,1.22-1.22-.55-1.22-1.22-1.22Z" fill="#2c3b5e"/><path d="M209.64,218.36c-.68,0-1.22.55-1.22,1.22s.55,1.22,1.22,1.22,1.22-.55,1.22-1.22-.55-1.22-1.22-1.22Z" fill="#2c3b5e"/></g><g><path d="M203.98,150.33c-.68,0-1.22.55-1.22,1.22s.55,1.22,1.22,1.22,1.22-.55,1.22-1.22-.55-1.22-1.22-1.22Z" fill="#2c3b5e"/><path d="M203.98,156.52c-.68,0-1.22.55-1.22,1.22s.55,1.22,1.22,1.22,1.22-.55,1.22-1.22-.55-1.22-1.22-1.22Z" fill="#2c3b5e"/><path d="M203.98,162.7c-.68,0-1.22.55-1.22,1.22s.55,1.22,1.22,1.22,1.22-.55,1.22-1.22-.55-1.22-1.22-1.22Z" fill="#2c3b5e"/><path d="M203.98,168.88c-.68,0-1.22.55-1.22,1.22s.55,1.22,1.22,1.22,1.22-.55,1.22-1.22-.55-1.22-1.22-1.22Z" fill="#2c3b5e"/><path d="M203.98,175.07c-.68,0-1.22.55-1.22,1.22s.55,1.22,1.22,1.22,1.22-.55,1.22-1.22-.55-1.22-1.22-1.22Z" fill="#2c3b5e"/><path d="M203.98,181.25c-.68,0-1.22.55-1.22,1.22s.55,1.22,1.22,1.22,1.22-.55,1.22-1.22-.55-1.22-1.22-1.22Z" fill="#2c3b5e"/><path d="M203.98,187.44c-.68,0-1.22.55-1.22,1.22s.55,1.22,1.22,1.22,1.22-.55,1.22-1.22-.55-1.22-1.22-1.22Z" fill="#2c3b5e"/><path d="M203.98,193.62c-.68,0-1.22.55-1.22,1.22s.55,1.22,1.22,1.22,1.22-.55,1.22-1.22-.55-1.22-1.22-1.22Z" fill="#2c3b5e"/><path d="M203.98,199.8c-.68,0-1.22.55-1.22,1.22s.55,1.22,1.22,1.22,1.22-.55,1.22-1.22-.55-1.22-1.22-1.22Z" fill="#2c3b5e"/><path d="M203.98,205.99c-.68,0-1.22.55-1.22,1.22s.55,1.22,1.22,1.22,1.22-.55,1.22-1.22-.55-1.22-1.22-1.22Z" fill="#2c3b5e"/><path d="M203.98,212.17c-.68,0-1.22.55-1.22,1.22s.55,1.22,1.22,1.22,1.22-.55,1.22-1.22-.55-1.22-1.22-1.22Z" fill="#2c3b5e"/><path d="M203.98,218.36c-.68,0-1.22.55-1.22,1.22s.55,1.22,1.22,1.22,1.22-.55,1.22-1.22-.55-1.22-1.22-1.22Z" fill="#2c3b5e"/></g><g><path d="M198.31,162.7c-.68,0-1.22.55-1.22,1.22s.55,1.22,1.22,1.22,1.22-.55,1.22-1.22-.55-1.22-1.22-1.22Z" fill="#2c3b5e"/><path d="M198.31,168.88c-.68,0-1.22.55-1.22,1.22s.55,1.22,1.22,1.22,1.22-.55,1.22-1.22-.55-1.22-1.22-1.22Z" fill="#2c3b5e"/><path d="M198.31,175.07c-.68,0-1.22.55-1.22,1.22s.55,1.22,1.22,1.22,1.22-.55,1.22-1.22-.55-1.22-1.22-1.22Z" fill="#2c3b5e"/><path d="M198.31,181.25c-.68,0-1.22.55-1.22,1.22s.55,1.22,1.22,1.22,1.22-.55,1.22-1.22-.55-1.22-1.22-1.22Z" fill="#2c3b5e"/><path d="M198.31,187.44c-.68,0-1.22.55-1.22,1.22s.55,1.22,1.22,1.22,1.22-.55,1.22-1.22-.55-1.22-1.22-1.22Z" fill="#2c3b5e"/><path d="M198.31,193.62c-.68,0-1.22.55-1.22,1.22s.55,1.22,1.22,1.22,1.22-.55,1.22-1.22-.55-1.22-1.22-1.22Z" fill="#2c3b5e"/><path d="M198.31,199.8c-.68,0-1.22.55-1.22,1.22s.55,1.22,1.22,1.22,1.22-.55,1.22-1.22-.55-1.22-1.22-1.22Z" fill="#2c3b5e"/><path d="M198.31,205.99c-.68,0-1.22.55-1.22,1.22s.55,1.22,1.22,1.22,1.22-.55,1.22-1.22-.55-1.22-1.22-1.22Z" fill="#2c3b5e"/><path d="M198.31,212.17c-.68,0-1.22.55-1.22,1.22s.55,1.22,1.22,1.22,1.22-.55,1.22-1.22-.55-1.22-1.22-1.22Z" fill="#2c3b5e"/><path d="M198.31,218.36c-.68,0-1.22.55-1.22,1.22s.55,1.22,1.22,1.22,1.22-.55,1.22-1.22-.55-1.22-1.22-1.22Z" fill="#2c3b5e"/></g><g><path d="M193.88,207.21c0-.68-.55-1.22-1.22-1.22s-1.22.55-1.22,1.22" fill="#2c3b5e"/><path d="M192.65,212.17c-.68,0-1.22.55-1.22,1.22s.55,1.22,1.22,1.22,1.22-.55,1.22-1.22-.55-1.22-1.22-1.22Z" fill="#2c3b5e"/><path d="M192.65,218.36c-.68,0-1.22.55-1.22,1.22s.55,1.22,1.22,1.22,1.22-.55,1.22-1.22-.55-1.22-1.22-1.22Z" fill="#2c3b5e"/></g></g><path d="M253.5,225.84s-7.31,3.91-18.01,6.52" fill="none" stroke="#2c3b5e" stroke-miterlimit="10" stroke-width="3"/><path d="M256.15,206.45s11.3,8.44,8.95,19.4" fill="none" stroke="#2c3b5e" stroke-miterlimit="10" stroke-width="3"/><path d="M151.1,189.06s3.52-11.74,2.87-17.28-7.83-12.98-14.74-10.11-.13,8.61,5.74,10.96" fill="none" stroke="#2c3b5e" stroke-miterlimit="10" stroke-width="3"/><polyline points="181.76 225.84 164.15 378.8 207.94 378.8 211.71 309.58" fill="none" stroke="#2c3b5e" stroke-miterlimit="10" stroke-width="3"/><polyline points="207.13 249.71 218.93 378.8 260.79 378.8 253.4 240.32" fill="none" stroke="#2c3b5e" stroke-miterlimit="10" stroke-width="3"/><polyline points="174.58 382.28 152.93 396.15 152.93 404.28 200.93 404.28 197.8 383.89" fill="none" stroke="#2c3b5e" stroke-miterlimit="10" stroke-width="3"/><polyline points="228.78 382.28 207.13 396.15 207.13 404.28 255.13 404.28 252 383.89" fill="none" stroke="#2c3b5e" stroke-miterlimit="10" stroke-width="3"/><path d="M200.57,145.84s12.99,9.18,26.05,0" fill="none" stroke="#2c3b5e" stroke-miterlimit="10" stroke-width="3"/><polyline points="127.37 163.63 139.54 116.03 153.21 105.25 160.01 121.27 149.06 164.1" fill="none" stroke="#2c3b5e" stroke-miterlimit="10" stroke-width="3"/><path d="M141.15,195.02l-10.71,41.87c-1.45,5.65-7.2,9.06-12.85,7.62h0c-5.65-1.45-9.06-7.2-7.62-12.85l12.35-48.26" fill="none" stroke="#2c3b5e" stroke-miterlimit="10" stroke-width="3"/><path d="M139.54,116.03s3.3,10.27,20.47,5.24" fill="none" stroke="#2c3b5e" stroke-miterlimit="10" stroke-width="3"/><path d="M111.36,226.22l-1.39,5.43c-1.45,5.65,1.96,11.41,7.62,12.85,5.65,1.45,11.41-1.96,12.85-7.62l1.39-5.43-20.47-5.24Z" fill="#2c3b5e" stroke="#2c3b5e" stroke-miterlimit="10" stroke-width="3"/><path d="M122.91,166.74s8.74,6.79,17.83,9.78" fill="none" stroke="#2c3b5e" stroke-miterlimit="10" stroke-width="3"/><path d="M119.54,173.54s5.85,6.91,19.63,10.01" fill="none" stroke="#2c3b5e" stroke-miterlimit="10" stroke-width="3"/><path d="M118.87,181.12s7.03,5.86,14.6,8.36" fill="none" stroke="#2c3b5e" stroke-miterlimit="10" stroke-width="3"/><path d="M246.19,99.85c-.53-2.27-1.36-4.52-2.88-6.29-1.51-1.77-3.4-3.06-5.71-2.83.39-5.8-3.2-11.66-8.56-13.94-5.35-2.27-11.58-.86-15.48,3.45-2.87-2.02-6.48-2.96-9.97-2.6-3.49.36-6.83,2.02-9.23,4.58-2.78,2.97-4.22,6.97-4.88,10.99-.4,2.44-.53,4.98.12,7.36.65,2.39,2.17,4.62,4.4,5.7l1.98-8.42c4.05,1.57,8.76,1.42,12.99.19,5.23-1.53,9.88-4.52,14.45-7.49-1.96,5.97-1.41,12.86,1.11,18.61.37.85.81,1.71,1.53,2.29.72.59,1.78.84,2.59.38,1.33-.76,1.15-2.72,1.89-4.07,1.08-1.97,4.02-2.15,5.93-.97,2.43,1.51,3.58,4.81,2.59,7.5-.44,1.21-1.31,2.22-2.38,2.95l.64.16c10.03.64,10.52-10.53,8.87-17.56Z" fill="#2c3b5e" stroke="#2c3b5e" stroke-miterlimit="10" stroke-width="3"/><circle cx="214.69" cy="108.98" r="1.63" fill="#2c3b5e"/><circle cx="201.45" cy="107.71" r="1.63" fill="#2c3b5e"/><line x1="129.57" y1="197.99" x2="123.39" y2="222.58" fill="none" stroke="#2c3b5e" stroke-miterlimit="10" stroke-width="3"/><line x1="146.19" y1="131.93" x2="141.15" y2="151.96" fill="none" stroke="#2c3b5e" stroke-miterlimit="10" stroke-width="3"/></g></g><g><path d="M301.88,104.76c0-9.91-8.58-17.81-18.71-16.68-7.54.84-13.7,6.83-14.71,14.35-.8,5.95,1.52,11.38,5.55,14.92,3.48,3.05,5.48,7.45,5.48,12.08v.55h11.22v-.55c0-4.54,1.83-8.97,5.29-11.92s5.89-7.64,5.89-12.75Z" fill="none" stroke="#2c3b5e" stroke-miterlimit="10" stroke-width="3"/><path d="M278.8,111.44c1.27-1.62,2.54-3.23,3.8-4.85,1.48-1.88,3.05-4.14,2.48-6.47-.44-1.8-2.27-3.15-4.12-3.02s-3.49,1.7-3.69,3.54c-.2,1.84,1.07,3.73,2.85,4.24,1.71.49,3.53-.2,5.31-.13,3.19.13,5.99,3.1,5.93,6.3" fill="none" stroke="#2c3b5e" stroke-miterlimit="10" stroke-width="3"/></g></svg>