<svg id="Illustrations" xmlns="http://www.w3.org/2000/svg" width="480" height="480" viewBox="0 0 480 480"><path d="M300.05,123.04l8.67-29.19c.51-1.72,2.96-1.66,3.39.08l6.71,27.22" fill="none" stroke="#2c3b5e" stroke-miterlimit="10" stroke-width="3"/><line x1="303.68" y1="110.82" x2="316.11" y2="110.15" fill="none" stroke="#2c3b5e" stroke-miterlimit="10" stroke-width="3"/><path d="M338.46,111.24c-1.54-.19-4.06-.39-5.61-.26s-3.11.6-4.31,1.6c-.87.73-1.52,1.75-1.71,2.87s.11,2.34.88,3.18c1.18,1.28,3.51,1.99,5.25,2.04,2.86.08,5.63-2.21,5.63-2.21,2.63-19.29-11.39-13.91-11.39-13.91" fill="none" stroke="#2c3b5e" stroke-miterlimit="10" stroke-width="3"/><g><polyline points="195.14 357.61 195.14 274.77 117.06 274.77 117.06 404.69" fill="none" stroke="#2c3b5e" stroke-miterlimit="10" stroke-width="3"/><line x1="117.06" y1="299.17" x2="193.99" y2="299.17" fill="none" stroke="#2c3b5e" stroke-miterlimit="10" stroke-width="3"/><line x1="117.06" y1="328.46" x2="193.99" y2="328.46" fill="none" stroke="#2c3b5e" stroke-miterlimit="10" stroke-width="3"/><line x1="117.06" y1="370.38" x2="193.99" y2="370.38" fill="none" stroke="#2c3b5e" stroke-miterlimit="10" stroke-width="3"/><rect x="127.57" y="337.98" width="10.26" height="32.41" fill="none" stroke="#2c3b5e" stroke-miterlimit="10" stroke-width="3"/><polyline points="195.14 335.14 184.14 335.14 184.14 370.38" fill="none" stroke="#2c3b5e" stroke-miterlimit="10" stroke-width="3"/><rect x="167.37" y="339.73" width="9.76" height="30.65" fill="none" stroke="#2c3b5e" stroke-miterlimit="10" stroke-width="3"/><line x1="137.83" y1="345.99" x2="162.87" y2="369.27" fill="none" stroke="#2c3b5e" stroke-miterlimit="10" stroke-width="3"/><circle cx="155.52" cy="288.16" r="2.75" fill="#2c3b5e"/><circle cx="155.52" cy="313.82" r="2.75" fill="#2c3b5e"/><path d="M146.26,274.77s-11.26-9.89-11.64-22.9h36.87s2.81,13.02-6.71,22.9" fill="none" stroke="#2c3b5e" stroke-miterlimit="10" stroke-width="3"/><path d="M142.59,251.86s-10.51-18.65,1.5-37.36c0,0,13.02,8.82,15.77,37.36" fill="none" stroke="#2c3b5e" stroke-miterlimit="10" stroke-width="3"/><path d="M158.28,242.6s5.84-9.01,13.98-10.51c0,0,.92,10.76-6.99,19.78" fill="none" stroke="#2c3b5e" stroke-miterlimit="10" stroke-width="3"/></g><g><polyline points="218.69 230.59 190.65 381.78 245.28 386.8" fill="none" stroke="#2c3b5e" stroke-miterlimit="10" stroke-width="3"/><path d="M245.73,253.62s-1,62.58,0,64.08c1,1.5,62.08,56.57,62.08,56.57,0,0,43.06-42.05,41.05-42.56s-47.56-37.05-47.56-37.05l-12.02-60.08" fill="none" stroke="#2c3b5e" stroke-miterlimit="10" stroke-width="3"/><path d="M203.61,382.97c-20.09.06-27.97,17.21-27.97,17.21l55.95,7.13v-15.77" fill="none" stroke="#2c3b5e" stroke-miterlimit="10" stroke-width="3"/><line x1="178.88" y1="395.14" x2="231.58" y2="398.68" fill="none" stroke="#2c3b5e" stroke-miterlimit="10" stroke-width="3"/><path d="M335.18,370.19c-2.54,19.93,13.45,29.97,13.45,29.97l14.31-54.55-15.64-2.04" fill="none" stroke="#2c3b5e" stroke-miterlimit="10" stroke-width="3"/><line x1="344.06" y1="396.28" x2="354.38" y2="344.48" fill="none" stroke="#2c3b5e" stroke-miterlimit="10" stroke-width="3"/><path d="M280.4,157.99s6.01,34.92-25.16,39.8c-3.29-2.5-7.01-4.04-10.98-5.17-1.91-.55-3.93-.92-5.88-.54s-3.83,1.65-4.46,3.53c-.58,1.73,0,3.72,1.2,5.1s2.94,2.2,4.73,2.58" fill="none" stroke="#2c3b5e" stroke-miterlimit="10" stroke-width="3"/><path d="M286.78,136.96c18.02,18.77,35.3,82.42-31.17,82.23,0,0-3.42,8.89-21.92,8.14" fill="none" stroke="#2c3b5e" stroke-miterlimit="10" stroke-width="3"/><polyline points="183.26 210.31 238.67 210.31 238.67 202.97" fill="none" stroke="#2c3b5e" stroke-miterlimit="10" stroke-width="3"/><path d="M238.67,190.28h-63.54v11.08" fill="none" stroke="#2c3b5e" stroke-miterlimit="10" stroke-width="3"/><rect x="167.62" y="173.26" width="80.86" height="17.02" fill="none" stroke="#2c3b5e" stroke-miterlimit="10" stroke-width="3"/><rect x="175.13" y="155.74" width="68.34" height="16.27" fill="none" stroke="#2c3b5e" stroke-miterlimit="10" stroke-width="3"/><path d="M214.43,155.74s8.26,9.01,0,17.52" fill="none" stroke="#2c3b5e" stroke-miterlimit="10" stroke-width="3"/><path d="M224.06,172.3s8.26,10.53,0,17.75" fill="none" stroke="#2c3b5e" stroke-miterlimit="10" stroke-width="3"/><path d="M217.97,189.91s8.26,12.1,0,20.4" fill="none" stroke="#2c3b5e" stroke-miterlimit="10" stroke-width="3"/><polyline points="291.93 208.46 297.1 235.84 248.48 233.84" fill="none" stroke="#2c3b5e" stroke-miterlimit="10" stroke-width="3"/><path d="M187.84,214.5s-9.76-3.75-3.75-16.33" fill="none" stroke="#2c3b5e" stroke-miterlimit="10" stroke-width="3"/><path d="M178.83,214.5s-7.13-7.7-2.73-15.17" fill="none" stroke="#2c3b5e" stroke-miterlimit="10" stroke-width="3"/><path d="M168.87,200.3s-3,8.57,2.25,12.89" fill="none" stroke="#2c3b5e" stroke-miterlimit="10" stroke-width="3"/><path d="M181.08,218.82s17.29,3.82,25.82-8.51" fill="none" stroke="#2c3b5e" stroke-miterlimit="10" stroke-width="3"/><path d="M278,180.64s8.82,5.89,24.22,5.51" fill="none" stroke="#2c3b5e" stroke-miterlimit="10" stroke-width="3"/><polyline points="246.16 104.3 242.23 115.77 251.45 118.47" fill="none" stroke="#2c3b5e" stroke-miterlimit="10" stroke-width="3"/><path d="M242.1,124.78s7.52,1.25,11.15-3.63" fill="none" stroke="#2c3b5e" stroke-miterlimit="10" stroke-width="3"/><ellipse cx="253.39" cy="108.01" rx="1.54" ry="2.14" fill="#2c3b5e"/><ellipse cx="238.21" cy="108.01" rx="1.54" ry="2.14" fill="#2c3b5e"/><path d="M231.65,100.7s-6.75,38.46,26.43,32.5" fill="none" stroke="#2c3b5e" stroke-miterlimit="10" stroke-width="3"/><path d="M227.89,99.83c2.42.79,5.13.64,7.45-.41,3.38-1.53,5.66-4.72,7.77-7.77.61,1.5,1.93,2.59,3.38,3.29s3.1.95,4.72.88c3.64-.15,7.17-1.92,9.48-4.74-.66,1.17-.64,2.62-1.03,3.9s-.49,2.7-.02,3.95c.63,1.69,2.2,2.88,3.9,3.49s3.52.7,5.32.8c-1.63,1.66-2.7,4.01-3.33,6.25-.25.9-.41,1.9.02,2.73s1.63,1.29,2.33.67c.39-1.09.78-2.19,1.44-3.15s1.62-1.75,2.76-1.94c2.02-.35,3.94,1.32,4.61,3.26.75,2.2.21,4.78-1.35,6.5s-4.09,2.48-6.35,1.93c-.36,2.82-.7,5.76,0,8.51s2.39,5.36,4.93,6.64" fill="none" stroke="#2c3b5e" stroke-miterlimit="10" stroke-width="3"/><path d="M231.28,107.76c-2.67.69-5.58-.68-7.27-2.85s-2.32-5.02-2.37-7.77c-.12-5.67,2.12-11.44,6.33-15.23,4.22-3.79,10.42-5.4,15.83-3.72,2.8-3.35,7.02-5.63,11.38-5.49s8.62,2.37,11.21,5.89c.96-.77,1.59-1.4,2.78-1.69,1.96-.49,4.04-.27,5.97.31,4.32,1.3,8.04,4.47,10.01,8.52s2.18,8.93.54,13.14c3.4,5.4,4.13,12.23,1.57,18.08-.74,1.69-1.75,3.3-3.16,4.5-1.41,1.19-3.26,1.94-5.1,1.76" fill="none" stroke="#2c3b5e" stroke-miterlimit="10" stroke-width="3"/><path d="M227.89,155.74c.08-.75,4.21-12.2,10.78-19.52" fill="none" stroke="#2c3b5e" stroke-miterlimit="10" stroke-width="3"/></g><g><g><path d="M300.45,163.86c-.65,0-1.17.53-1.17,1.18s.53,1.18,1.17,1.18,1.18-.53,1.18-1.18-.53-1.18-1.18-1.18Z" fill="#2c3b5e"/><path d="M300.45,169.8c-.65,0-1.17.53-1.17,1.18s.53,1.18,1.17,1.18,1.18-.53,1.18-1.18-.53-1.18-1.18-1.18Z" fill="#2c3b5e"/><path d="M300.45,175.73c-.65,0-1.17.53-1.17,1.18s.53,1.18,1.17,1.18,1.18-.53,1.18-1.18-.53-1.18-1.18-1.18Z" fill="#2c3b5e"/><path d="M300.45,181.66c-.65,0-1.17.53-1.17,1.17s.53,1.18,1.17,1.18,1.18-.53,1.18-1.18-.53-1.17-1.18-1.17Z" fill="#2c3b5e"/></g><g><path d="M295.02,151.99c-.65,0-1.17.53-1.17,1.17s.53,1.18,1.17,1.18,1.18-.53,1.18-1.18-.53-1.17-1.18-1.17Z" fill="#2c3b5e"/><path d="M295.02,157.93c-.65,0-1.17.53-1.17,1.18s.53,1.18,1.17,1.18,1.18-.53,1.18-1.18-.53-1.18-1.18-1.18Z" fill="#2c3b5e"/><path d="M295.02,163.86c-.65,0-1.17.53-1.17,1.18s.53,1.18,1.17,1.18,1.18-.53,1.18-1.18-.53-1.18-1.18-1.18Z" fill="#2c3b5e"/><path d="M295.02,169.8c-.65,0-1.17.53-1.17,1.18s.53,1.18,1.17,1.18,1.18-.53,1.18-1.18-.53-1.18-1.18-1.18Z" fill="#2c3b5e"/><path d="M295.02,175.73c-.65,0-1.17.53-1.17,1.18s.53,1.18,1.17,1.18,1.18-.53,1.18-1.18-.53-1.18-1.18-1.18Z" fill="#2c3b5e"/><path d="M295.02,181.66c-.65,0-1.17.53-1.17,1.17s.53,1.18,1.17,1.18,1.18-.53,1.18-1.18-.53-1.17-1.18-1.17Z" fill="#2c3b5e"/></g><g><path d="M289.58,140.13c-.65,0-1.17.53-1.17,1.17s.53,1.18,1.17,1.18,1.18-.53,1.18-1.18-.53-1.17-1.18-1.17Z" fill="#2c3b5e"/><path d="M289.58,146.06c-.65,0-1.17.53-1.17,1.17s.53,1.18,1.17,1.18,1.18-.53,1.18-1.18-.53-1.17-1.18-1.17Z" fill="#2c3b5e"/><path d="M289.58,151.99c-.65,0-1.17.53-1.17,1.17s.53,1.18,1.17,1.18,1.18-.53,1.18-1.18-.53-1.17-1.18-1.17Z" fill="#2c3b5e"/><path d="M289.58,157.93c-.65,0-1.17.53-1.17,1.18s.53,1.18,1.17,1.18,1.18-.53,1.18-1.18-.53-1.18-1.18-1.18Z" fill="#2c3b5e"/><path d="M289.58,163.86c-.65,0-1.17.53-1.17,1.18s.53,1.18,1.17,1.18,1.18-.53,1.18-1.18-.53-1.18-1.18-1.18Z" fill="#2c3b5e"/><path d="M289.58,169.8c-.65,0-1.17.53-1.17,1.18s.53,1.18,1.17,1.18,1.18-.53,1.18-1.18-.53-1.18-1.18-1.18Z" fill="#2c3b5e"/><path d="M289.58,175.73c-.65,0-1.17.53-1.17,1.18s.53,1.18,1.17,1.18,1.18-.53,1.18-1.18-.53-1.18-1.18-1.18Z" fill="#2c3b5e"/><path d="M289.58,181.66c-.65,0-1.17.53-1.17,1.17s.53,1.18,1.17,1.18,1.18-.53,1.18-1.18-.53-1.17-1.18-1.17Z" fill="#2c3b5e"/></g><g><path d="M284.15,140.13c-.65,0-1.17.53-1.17,1.17s.53,1.18,1.17,1.18,1.18-.53,1.18-1.18-.53-1.17-1.18-1.17Z" fill="#2c3b5e"/><path d="M284.15,146.06c-.65,0-1.17.53-1.17,1.17s.53,1.18,1.17,1.18,1.18-.53,1.18-1.18-.53-1.17-1.18-1.17Z" fill="#2c3b5e"/><path d="M284.15,151.99c-.65,0-1.17.53-1.17,1.17s.53,1.18,1.17,1.18,1.18-.53,1.18-1.18-.53-1.17-1.18-1.17Z" fill="#2c3b5e"/><path d="M284.15,157.93c-.65,0-1.17.53-1.17,1.18s.53,1.18,1.17,1.18,1.18-.53,1.18-1.18-.53-1.18-1.18-1.18Z" fill="#2c3b5e"/><path d="M284.15,163.86c-.65,0-1.17.53-1.17,1.18s.53,1.18,1.17,1.18,1.18-.53,1.18-1.18-.53-1.18-1.18-1.18Z" fill="#2c3b5e"/><path d="M284.15,169.8c-.65,0-1.17.53-1.17,1.18s.53,1.18,1.17,1.18,1.18-.53,1.18-1.18-.53-1.18-1.18-1.18Z" fill="#2c3b5e"/><path d="M284.15,175.73c-.65,0-1.17.53-1.17,1.18s.53,1.18,1.17,1.18,1.18-.53,1.18-1.18-.53-1.18-1.18-1.18Z" fill="#2c3b5e"/><path d="M284.15,181.66c-.65,0-1.17.53-1.17,1.17s.53,1.18,1.17,1.18,1.18-.53,1.18-1.18-.53-1.17-1.18-1.17Z" fill="#2c3b5e"/></g><g><path d="M278.71,140.13c-.65,0-1.17.53-1.17,1.17s.53,1.18,1.17,1.18,1.18-.53,1.18-1.18-.53-1.17-1.18-1.17Z" fill="#2c3b5e"/><path d="M278.71,146.06c-.65,0-1.17.53-1.17,1.17s.53,1.18,1.17,1.18,1.18-.53,1.18-1.18-.53-1.17-1.18-1.17Z" fill="#2c3b5e"/><path d="M278.71,151.99c-.65,0-1.17.53-1.17,1.17s.53,1.18,1.17,1.18,1.18-.53,1.18-1.18-.53-1.17-1.18-1.17Z" fill="#2c3b5e"/><path d="M278.71,157.93c-.65,0-1.17.53-1.17,1.18s.53,1.18,1.17,1.18,1.18-.53,1.18-1.18-.53-1.18-1.18-1.18Z" fill="#2c3b5e"/><path d="M278.71,163.86c-.65,0-1.17.53-1.17,1.18s.53,1.18,1.17,1.18,1.18-.53,1.18-1.18-.53-1.18-1.18-1.18Z" fill="#2c3b5e"/><path d="M278.71,169.8c-.65,0-1.17.53-1.17,1.18s.53,1.18,1.17,1.18,1.18-.53,1.18-1.18-.53-1.18-1.18-1.18Z" fill="#2c3b5e"/><path d="M278.71,175.73c-.65,0-1.17.53-1.17,1.18s.53,1.18,1.17,1.18,1.18-.53,1.18-1.18-.53-1.18-1.18-1.18Z" fill="#2c3b5e"/></g><g><path d="M273.28,140.13c-.65,0-1.17.53-1.17,1.17s.53,1.18,1.17,1.18,1.18-.53,1.18-1.18-.53-1.17-1.18-1.17Z" fill="#2c3b5e"/><path d="M273.28,146.06c-.65,0-1.17.53-1.17,1.17s.53,1.18,1.17,1.18,1.18-.53,1.18-1.18-.53-1.17-1.18-1.17Z" fill="#2c3b5e"/><path d="M273.28,151.99c-.65,0-1.17.53-1.17,1.17s.53,1.18,1.17,1.18,1.18-.53,1.18-1.18-.53-1.17-1.18-1.17Z" fill="#2c3b5e"/><path d="M273.28,157.93c-.65,0-1.17.53-1.17,1.18s.53,1.18,1.17,1.18,1.18-.53,1.18-1.18-.53-1.18-1.18-1.18Z" fill="#2c3b5e"/><path d="M273.28,163.86c-.65,0-1.17.53-1.17,1.18s.53,1.18,1.17,1.18,1.18-.53,1.18-1.18-.53-1.18-1.18-1.18Z" fill="#2c3b5e"/><path d="M273.28,169.8c-.65,0-1.17.53-1.17,1.18s.53,1.18,1.17,1.18,1.18-.53,1.18-1.18-.53-1.18-1.18-1.18Z" fill="#2c3b5e"/><path d="M273.28,175.73c-.65,0-1.17.53-1.17,1.18s.53,1.18,1.17,1.18,1.18-.53,1.18-1.18-.53-1.18-1.18-1.18Z" fill="#2c3b5e"/><path d="M273.28,181.66c-.65,0-1.17.53-1.17,1.17s.53,1.18,1.17,1.18,1.18-.53,1.18-1.18-.53-1.17-1.18-1.17Z" fill="#2c3b5e"/></g><g><path d="M267.85,140.13c-.65,0-1.17.53-1.17,1.17s.53,1.18,1.17,1.18,1.18-.53,1.18-1.18-.53-1.17-1.18-1.17Z" fill="#2c3b5e"/><path d="M267.85,146.06c-.65,0-1.17.53-1.17,1.17s.53,1.18,1.17,1.18,1.18-.53,1.18-1.18-.53-1.17-1.18-1.17Z" fill="#2c3b5e"/><path d="M267.85,151.99c-.65,0-1.17.53-1.17,1.17s.53,1.18,1.17,1.18,1.18-.53,1.18-1.18-.53-1.17-1.18-1.17Z" fill="#2c3b5e"/><path d="M267.85,157.93c-.65,0-1.17.53-1.17,1.18s.53,1.18,1.17,1.18,1.18-.53,1.18-1.18-.53-1.18-1.18-1.18Z" fill="#2c3b5e"/><path d="M267.85,163.86c-.65,0-1.17.53-1.17,1.18s.53,1.18,1.17,1.18,1.18-.53,1.18-1.18-.53-1.18-1.18-1.18Z" fill="#2c3b5e"/><path d="M267.85,169.8c-.65,0-1.17.53-1.17,1.18s.53,1.18,1.17,1.18,1.18-.53,1.18-1.18-.53-1.18-1.18-1.18Z" fill="#2c3b5e"/><path d="M267.85,175.73c-.65,0-1.17.53-1.17,1.18s.53,1.18,1.17,1.18,1.18-.53,1.18-1.18-.53-1.18-1.18-1.18Z" fill="#2c3b5e"/><path d="M267.85,181.66c-.65,0-1.17.53-1.17,1.17s.53,1.18,1.17,1.18,1.18-.53,1.18-1.18-.53-1.17-1.18-1.17Z" fill="#2c3b5e"/><path d="M267.85,187.6c-.65,0-1.17.53-1.17,1.18s.53,1.17,1.17,1.17,1.18-.53,1.18-1.17-.53-1.18-1.18-1.18Z" fill="#2c3b5e"/></g><g><path d="M262.41,140.13c-.65,0-1.17.53-1.17,1.17s.53,1.18,1.17,1.18,1.18-.53,1.18-1.18-.53-1.17-1.18-1.17Z" fill="#2c3b5e"/><path d="M262.41,146.06c-.65,0-1.17.53-1.17,1.17s.53,1.18,1.17,1.18,1.18-.53,1.18-1.18-.53-1.17-1.18-1.17Z" fill="#2c3b5e"/><path d="M262.41,151.99c-.65,0-1.17.53-1.17,1.17s.53,1.18,1.17,1.18,1.18-.53,1.18-1.18-.53-1.17-1.18-1.17Z" fill="#2c3b5e"/><path d="M262.41,157.93c-.65,0-1.17.53-1.17,1.18s.53,1.18,1.17,1.18,1.18-.53,1.18-1.18-.53-1.18-1.18-1.18Z" fill="#2c3b5e"/><path d="M262.41,163.86c-.65,0-1.17.53-1.17,1.18s.53,1.18,1.17,1.18,1.18-.53,1.18-1.18-.53-1.18-1.18-1.18Z" fill="#2c3b5e"/><path d="M262.41,169.8c-.65,0-1.17.53-1.17,1.18s.53,1.18,1.17,1.18,1.18-.53,1.18-1.18-.53-1.18-1.18-1.18Z" fill="#2c3b5e"/><path d="M262.41,175.73c-.65,0-1.17.53-1.17,1.18s.53,1.18,1.17,1.18,1.18-.53,1.18-1.18-.53-1.18-1.18-1.18Z" fill="#2c3b5e"/><path d="M262.41,181.66c-.65,0-1.17.53-1.17,1.17s.53,1.18,1.17,1.18,1.18-.53,1.18-1.18-.53-1.17-1.18-1.17Z" fill="#2c3b5e"/><path d="M262.41,187.6c-.65,0-1.17.53-1.17,1.18s.53,1.17,1.17,1.17,1.18-.53,1.18-1.17-.53-1.18-1.18-1.18Z" fill="#2c3b5e"/><path d="M262.41,193.53c-.65,0-1.17.53-1.17,1.18s.53,1.18,1.17,1.18,1.18-.53,1.18-1.18-.53-1.18-1.18-1.18Z" fill="#2c3b5e"/></g><g><path d="M256.98,140.13c-.65,0-1.17.53-1.17,1.17s.53,1.18,1.17,1.18,1.18-.53,1.18-1.18-.53-1.17-1.18-1.17Z" fill="#2c3b5e"/><path d="M256.98,146.06c-.65,0-1.17.53-1.17,1.17s.53,1.18,1.17,1.18,1.18-.53,1.18-1.18-.53-1.17-1.18-1.17Z" fill="#2c3b5e"/><path d="M256.98,151.99c-.65,0-1.17.53-1.17,1.17s.53,1.18,1.17,1.18,1.18-.53,1.18-1.18-.53-1.17-1.18-1.17Z" fill="#2c3b5e"/><path d="M256.98,157.93c-.65,0-1.17.53-1.17,1.18s.53,1.18,1.17,1.18,1.18-.53,1.18-1.18-.53-1.18-1.18-1.18Z" fill="#2c3b5e"/><path d="M256.98,163.86c-.65,0-1.17.53-1.17,1.18s.53,1.18,1.17,1.18,1.18-.53,1.18-1.18-.53-1.18-1.18-1.18Z" fill="#2c3b5e"/><path d="M256.98,169.8c-.65,0-1.17.53-1.17,1.18s.53,1.18,1.17,1.18,1.18-.53,1.18-1.18-.53-1.18-1.18-1.18Z" fill="#2c3b5e"/><path d="M256.98,175.73c-.65,0-1.17.53-1.17,1.18s.53,1.18,1.17,1.18,1.18-.53,1.18-1.18-.53-1.18-1.18-1.18Z" fill="#2c3b5e"/><path d="M256.98,181.66c-.65,0-1.17.53-1.17,1.17s.53,1.18,1.17,1.18,1.18-.53,1.18-1.18-.53-1.17-1.18-1.17Z" fill="#2c3b5e"/><path d="M256.98,187.6c-.65,0-1.17.53-1.17,1.18s.53,1.17,1.17,1.17,1.18-.53,1.18-1.17-.53-1.18-1.18-1.18Z" fill="#2c3b5e"/><path d="M256.98,193.53c-.65,0-1.17.53-1.17,1.18s.53,1.18,1.17,1.18,1.18-.53,1.18-1.18-.53-1.18-1.18-1.18Z" fill="#2c3b5e"/></g><g><path d="M251.55,140.13c-.65,0-1.17.53-1.17,1.17s.53,1.18,1.17,1.18,1.18-.53,1.18-1.18-.53-1.17-1.18-1.17Z" fill="#2c3b5e"/><path d="M251.55,146.06c-.65,0-1.17.53-1.17,1.17s.53,1.18,1.17,1.18,1.18-.53,1.18-1.18-.53-1.17-1.18-1.17Z" fill="#2c3b5e"/><path d="M251.55,151.99c-.65,0-1.17.53-1.17,1.17s.53,1.18,1.17,1.18,1.18-.53,1.18-1.18-.53-1.17-1.18-1.17Z" fill="#2c3b5e"/><path d="M251.55,157.93c-.65,0-1.17.53-1.17,1.18s.53,1.18,1.17,1.18,1.18-.53,1.18-1.18-.53-1.18-1.18-1.18Z" fill="#2c3b5e"/><path d="M251.55,163.86c-.65,0-1.17.53-1.17,1.18s.53,1.18,1.17,1.18,1.18-.53,1.18-1.18-.53-1.18-1.18-1.18Z" fill="#2c3b5e"/><path d="M251.55,169.8c-.65,0-1.17.53-1.17,1.18s.53,1.18,1.17,1.18,1.18-.53,1.18-1.18-.53-1.18-1.18-1.18Z" fill="#2c3b5e"/><path d="M251.55,175.73c-.65,0-1.17.53-1.17,1.18s.53,1.18,1.17,1.18,1.18-.53,1.18-1.18-.53-1.18-1.18-1.18Z" fill="#2c3b5e"/><path d="M251.55,181.66c-.65,0-1.17.53-1.17,1.17s.53,1.18,1.17,1.18,1.18-.53,1.18-1.18-.53-1.17-1.18-1.17Z" fill="#2c3b5e"/><path d="M251.55,187.6c-.65,0-1.17.53-1.17,1.18s.53,1.17,1.17,1.17,1.18-.53,1.18-1.17-.53-1.18-1.18-1.18Z" fill="#2c3b5e"/><path d="M251.55,193.53c-.65,0-1.17.53-1.17,1.18s.53,1.18,1.17,1.18,1.18-.53,1.18-1.18-.53-1.18-1.18-1.18Z" fill="#2c3b5e"/></g><g><path d="M246.11,140.13c-.65,0-1.17.53-1.17,1.17s.53,1.18,1.17,1.18,1.18-.53,1.18-1.18-.53-1.17-1.18-1.17Z" fill="#2c3b5e"/><path d="M246.11,146.06c-.65,0-1.17.53-1.17,1.17s.53,1.18,1.17,1.18,1.18-.53,1.18-1.18-.53-1.17-1.18-1.17Z" fill="#2c3b5e"/><path d="M246.11,151.99c-.65,0-1.17.53-1.17,1.17s.53,1.18,1.17,1.18,1.18-.53,1.18-1.18-.53-1.17-1.18-1.17Z" fill="#2c3b5e"/><path d="M246.11,157.93c-.65,0-1.17.53-1.17,1.18s.53,1.18,1.17,1.18,1.18-.53,1.18-1.18-.53-1.18-1.18-1.18Z" fill="#2c3b5e"/><path d="M246.11,163.86c-.65,0-1.17.53-1.17,1.18s.53,1.18,1.17,1.18,1.18-.53,1.18-1.18-.53-1.18-1.18-1.18Z" fill="#2c3b5e"/><path d="M246.11,169.8c-.65,0-1.17.53-1.17,1.18s.53,1.18,1.17,1.18,1.18-.53,1.18-1.18-.53-1.18-1.18-1.18Z" fill="#2c3b5e"/></g><g><path d="M240.68,140.13c-.65,0-1.17.53-1.17,1.17s.53,1.18,1.17,1.18,1.18-.53,1.18-1.18-.53-1.17-1.18-1.17Z" fill="#2c3b5e"/><path d="M240.68,146.06c-.65,0-1.17.53-1.17,1.17s.53,1.18,1.17,1.18,1.18-.53,1.18-1.18-.53-1.17-1.18-1.17Z" fill="#2c3b5e"/><path d="M240.68,151.99c-.65,0-1.17.53-1.17,1.17s.53,1.18,1.17,1.18,1.18-.53,1.18-1.18-.53-1.17-1.18-1.17Z" fill="#2c3b5e"/></g><g><path d="M235.24,140.13c-.65,0-1.17.53-1.17,1.17s.53,1.18,1.17,1.18,1.18-.53,1.18-1.18-.53-1.17-1.18-1.17Z" fill="#2c3b5e"/><path d="M235.24,146.06c-.65,0-1.17.53-1.17,1.17s.53,1.18,1.17,1.18,1.18-.53,1.18-1.18-.53-1.17-1.18-1.17Z" fill="#2c3b5e"/><path d="M235.24,151.99c-.65,0-1.17.53-1.17,1.17s.53,1.18,1.17,1.18,1.18-.53,1.18-1.18-.53-1.17-1.18-1.17Z" fill="#2c3b5e"/></g><path d="M229.81,151.99c-.65,0-1.17.53-1.17,1.17s.53,1.18,1.17,1.18,1.18-.53,1.18-1.18-.53-1.17-1.18-1.17Z" fill="#2c3b5e"/></g></svg>