<svg id="Illustrations" xmlns="http://www.w3.org/2000/svg" width="480" height="480" viewBox="0 0 480 480"><g><path d="M278.64,259.02c-.73,0-1.32.59-1.32,1.32s.59,1.32,1.32,1.32,1.32-.59,1.32-1.32-.59-1.32-1.32-1.32Z" fill="#2c3b5e"/><path d="M278.64,265.67c-.73,0-1.32.59-1.32,1.32s.59,1.32,1.32,1.32,1.32-.59,1.32-1.32-.59-1.32-1.32-1.32Z" fill="#2c3b5e"/><path d="M278.64,272.33c-.73,0-1.32.59-1.32,1.32s.59,1.32,1.32,1.32,1.32-.59,1.32-1.32-.59-1.32-1.32-1.32Z" fill="#2c3b5e"/><path d="M278.64,278.98c-.73,0-1.32.59-1.32,1.32s.59,1.32,1.32,1.32,1.32-.59,1.32-1.32-.59-1.32-1.32-1.32Z" fill="#2c3b5e"/><path d="M278.64,285.63c-.73,0-1.32.59-1.32,1.32s.59,1.32,1.32,1.32,1.32-.59,1.32-1.32-.59-1.32-1.32-1.32Z" fill="#2c3b5e"/><path d="M278.64,292.28c-.73,0-1.32.59-1.32,1.32s.59,1.32,1.32,1.32,1.32-.59,1.32-1.32-.59-1.32-1.32-1.32Z" fill="#2c3b5e"/><path d="M278.64,298.93c-.73,0-1.32.59-1.32,1.32s.59,1.32,1.32,1.32,1.32-.59,1.32-1.32-.59-1.32-1.32-1.32Z" fill="#2c3b5e"/><path d="M278.64,305.59c-.73,0-1.32.59-1.32,1.32s.59,1.32,1.32,1.32,1.32-.59,1.32-1.32-.59-1.32-1.32-1.32Z" fill="#2c3b5e"/><path d="M278.64,312.24c-.73,0-1.32.59-1.32,1.32s.59,1.32,1.32,1.32,1.32-.59,1.32-1.32-.59-1.32-1.32-1.32Z" fill="#2c3b5e"/><path d="M278.64,318.89c-.73,0-1.32.59-1.32,1.32s.59,1.32,1.32,1.32,1.32-.59,1.32-1.32-.59-1.32-1.32-1.32Z" fill="#2c3b5e"/><path d="M278.64,325.54c-.73,0-1.32.59-1.32,1.32s.59,1.32,1.32,1.32,1.32-.59,1.32-1.32-.59-1.32-1.32-1.32Z" fill="#2c3b5e"/><path d="M278.64,332.2c-.73,0-1.32.59-1.32,1.32s.59,1.32,1.32,1.32,1.32-.59,1.32-1.32-.59-1.32-1.32-1.32Z" fill="#2c3b5e"/><path d="M278.64,338.85c-.73,0-1.32.59-1.32,1.32s.59,1.32,1.32,1.32,1.32-.59,1.32-1.32-.59-1.32-1.32-1.32Z" fill="#2c3b5e"/><path d="M272.55,232.41c-.73,0-1.32.59-1.32,1.32s.59,1.32,1.32,1.32,1.32-.59,1.32-1.32-.59-1.32-1.32-1.32Z" fill="#2c3b5e"/><path d="M272.55,239.06c-.73,0-1.32.59-1.32,1.32s.59,1.32,1.32,1.32,1.32-.59,1.32-1.32-.59-1.32-1.32-1.32Z" fill="#2c3b5e"/><path d="M272.55,245.72c-.73,0-1.32.59-1.32,1.32s.59,1.32,1.32,1.32,1.32-.59,1.32-1.32-.59-1.32-1.32-1.32Z" fill="#2c3b5e"/><path d="M272.55,252.37c-.73,0-1.32.59-1.32,1.32s.59,1.32,1.32,1.32,1.32-.59,1.32-1.32-.59-1.32-1.32-1.32Z" fill="#2c3b5e"/><path d="M272.55,259.02c-.73,0-1.32.59-1.32,1.32s.59,1.32,1.32,1.32,1.32-.59,1.32-1.32-.59-1.32-1.32-1.32Z" fill="#2c3b5e"/><path d="M272.55,265.67c-.73,0-1.32.59-1.32,1.32s.59,1.32,1.32,1.32,1.32-.59,1.32-1.32-.59-1.32-1.32-1.32Z" fill="#2c3b5e"/><path d="M272.55,272.33c-.73,0-1.32.59-1.32,1.32s.59,1.32,1.32,1.32,1.32-.59,1.32-1.32-.59-1.32-1.32-1.32Z" fill="#2c3b5e"/><path d="M272.55,278.98c-.73,0-1.32.59-1.32,1.32s.59,1.32,1.32,1.32,1.32-.59,1.32-1.32-.59-1.32-1.32-1.32Z" fill="#2c3b5e"/><path d="M272.55,285.63c-.73,0-1.32.59-1.32,1.32s.59,1.32,1.32,1.32,1.32-.59,1.32-1.32-.59-1.32-1.32-1.32Z" fill="#2c3b5e"/><path d="M272.55,292.28c-.73,0-1.32.59-1.32,1.32s.59,1.32,1.32,1.32,1.32-.59,1.32-1.32-.59-1.32-1.32-1.32Z" fill="#2c3b5e"/><path d="M272.55,298.93c-.73,0-1.32.59-1.32,1.32s.59,1.32,1.32,1.32,1.32-.59,1.32-1.32-.59-1.32-1.32-1.32Z" fill="#2c3b5e"/><path d="M272.55,305.59c-.73,0-1.32.59-1.32,1.32s.59,1.32,1.32,1.32,1.32-.59,1.32-1.32-.59-1.32-1.32-1.32Z" fill="#2c3b5e"/><path d="M272.55,312.24c-.73,0-1.32.59-1.32,1.32s.59,1.32,1.32,1.32,1.32-.59,1.32-1.32-.59-1.32-1.32-1.32Z" fill="#2c3b5e"/><path d="M272.55,318.89c-.73,0-1.32.59-1.32,1.32s.59,1.32,1.32,1.32,1.32-.59,1.32-1.32-.59-1.32-1.32-1.32Z" fill="#2c3b5e"/><path d="M272.55,325.54c-.73,0-1.32.59-1.32,1.32s.59,1.32,1.32,1.32,1.32-.59,1.32-1.32-.59-1.32-1.32-1.32Z" fill="#2c3b5e"/><path d="M272.55,332.2c-.73,0-1.32.59-1.32,1.32s.59,1.32,1.32,1.32,1.32-.59,1.32-1.32-.59-1.32-1.32-1.32Z" fill="#2c3b5e"/><path d="M272.55,338.85c-.73,0-1.32.59-1.32,1.32s.59,1.32,1.32,1.32,1.32-.59,1.32-1.32-.59-1.32-1.32-1.32Z" fill="#2c3b5e"/><path d="M272.55,225.81c-.73,0-1.32.59-1.32,1.32s.59,1.32,1.32,1.32,1.32-.59,1.32-1.32-.59-1.32-1.32-1.32Z" fill="#2c3b5e"/><path d="M266.46,232.41c-.73,0-1.32.59-1.32,1.32s.59,1.32,1.32,1.32,1.32-.59,1.32-1.32-.59-1.32-1.32-1.32Z" fill="#2c3b5e"/><path d="M266.46,239.06c-.73,0-1.32.59-1.32,1.32s.59,1.32,1.32,1.32,1.32-.59,1.32-1.32-.59-1.32-1.32-1.32Z" fill="#2c3b5e"/><path d="M266.46,245.72c-.73,0-1.32.59-1.32,1.32s.59,1.32,1.32,1.32,1.32-.59,1.32-1.32-.59-1.32-1.32-1.32Z" fill="#2c3b5e"/><path d="M266.46,252.37c-.73,0-1.32.59-1.32,1.32s.59,1.32,1.32,1.32,1.32-.59,1.32-1.32-.59-1.32-1.32-1.32Z" fill="#2c3b5e"/><path d="M266.46,259.02c-.73,0-1.32.59-1.32,1.32s.59,1.32,1.32,1.32,1.32-.59,1.32-1.32-.59-1.32-1.32-1.32Z" fill="#2c3b5e"/><path d="M266.46,265.67c-.73,0-1.32.59-1.32,1.32s.59,1.32,1.32,1.32,1.32-.59,1.32-1.32-.59-1.32-1.32-1.32Z" fill="#2c3b5e"/><path d="M266.46,272.33c-.73,0-1.32.59-1.32,1.32s.59,1.32,1.32,1.32,1.32-.59,1.32-1.32-.59-1.32-1.32-1.32Z" fill="#2c3b5e"/><path d="M266.46,278.98c-.73,0-1.32.59-1.32,1.32s.59,1.32,1.32,1.32,1.32-.59,1.32-1.32-.59-1.32-1.32-1.32Z" fill="#2c3b5e"/><path d="M266.46,285.63c-.73,0-1.32.59-1.32,1.32s.59,1.32,1.32,1.32,1.32-.59,1.32-1.32-.59-1.32-1.32-1.32Z" fill="#2c3b5e"/><path d="M266.46,292.28c-.73,0-1.32.59-1.32,1.32s.59,1.32,1.32,1.32,1.32-.59,1.32-1.32-.59-1.32-1.32-1.32Z" fill="#2c3b5e"/><path d="M266.46,298.93c-.73,0-1.32.59-1.32,1.32s.59,1.32,1.32,1.32,1.32-.59,1.32-1.32-.59-1.32-1.32-1.32Z" fill="#2c3b5e"/><path d="M266.46,305.59c-.73,0-1.32.59-1.32,1.32s.59,1.32,1.32,1.32,1.32-.59,1.32-1.32-.59-1.32-1.32-1.32Z" fill="#2c3b5e"/><path d="M266.46,312.24c-.73,0-1.32.59-1.32,1.32s.59,1.32,1.32,1.32,1.32-.59,1.32-1.32-.59-1.32-1.32-1.32Z" fill="#2c3b5e"/><path d="M266.46,318.89c-.73,0-1.32.59-1.32,1.32s.59,1.32,1.32,1.32,1.32-.59,1.32-1.32-.59-1.32-1.32-1.32Z" fill="#2c3b5e"/><path d="M266.46,325.54c-.73,0-1.32.59-1.32,1.32s.59,1.32,1.32,1.32,1.32-.59,1.32-1.32-.59-1.32-1.32-1.32Z" fill="#2c3b5e"/><path d="M266.46,332.2c-.73,0-1.32.59-1.32,1.32s.59,1.32,1.32,1.32,1.32-.59,1.32-1.32-.59-1.32-1.32-1.32Z" fill="#2c3b5e"/><path d="M266.46,338.85c-.73,0-1.32.59-1.32,1.32s.59,1.32,1.32,1.32,1.32-.59,1.32-1.32-.59-1.32-1.32-1.32Z" fill="#2c3b5e"/><path d="M266.46,225.81c-.73,0-1.32.59-1.32,1.32s.59,1.32,1.32,1.32,1.32-.59,1.32-1.32-.59-1.32-1.32-1.32Z" fill="#2c3b5e"/><path d="M260.36,232.41c-.73,0-1.32.59-1.32,1.32s.59,1.32,1.32,1.32,1.32-.59,1.32-1.32-.59-1.32-1.32-1.32Z" fill="#2c3b5e"/><path d="M260.36,239.06c-.73,0-1.32.59-1.32,1.32s.59,1.32,1.32,1.32,1.32-.59,1.32-1.32-.59-1.32-1.32-1.32Z" fill="#2c3b5e"/><path d="M260.36,245.72c-.73,0-1.32.59-1.32,1.32s.59,1.32,1.32,1.32,1.32-.59,1.32-1.32-.59-1.32-1.32-1.32Z" fill="#2c3b5e"/><path d="M260.36,252.37c-.73,0-1.32.59-1.32,1.32s.59,1.32,1.32,1.32,1.32-.59,1.32-1.32-.59-1.32-1.32-1.32Z" fill="#2c3b5e"/><path d="M260.36,259.02c-.73,0-1.32.59-1.32,1.32s.59,1.32,1.32,1.32,1.32-.59,1.32-1.32-.59-1.32-1.32-1.32Z" fill="#2c3b5e"/><path d="M260.36,265.67c-.73,0-1.32.59-1.32,1.32s.59,1.32,1.32,1.32,1.32-.59,1.32-1.32-.59-1.32-1.32-1.32Z" fill="#2c3b5e"/><path d="M260.36,272.33c-.73,0-1.32.59-1.32,1.32s.59,1.32,1.32,1.32,1.32-.59,1.32-1.32-.59-1.32-1.32-1.32Z" fill="#2c3b5e"/><path d="M260.36,278.98c-.73,0-1.32.59-1.32,1.32s.59,1.32,1.32,1.32,1.32-.59,1.32-1.32-.59-1.32-1.32-1.32Z" fill="#2c3b5e"/><path d="M260.36,285.63c-.73,0-1.32.59-1.32,1.32s.59,1.32,1.32,1.32,1.32-.59,1.32-1.32-.59-1.32-1.32-1.32Z" fill="#2c3b5e"/><path d="M260.36,292.28c-.73,0-1.32.59-1.32,1.32s.59,1.32,1.32,1.32,1.32-.59,1.32-1.32-.59-1.32-1.32-1.32Z" fill="#2c3b5e"/><path d="M260.36,298.93c-.73,0-1.32.59-1.32,1.32s.59,1.32,1.32,1.32,1.32-.59,1.32-1.32-.59-1.32-1.32-1.32Z" fill="#2c3b5e"/><path d="M260.36,305.59c-.73,0-1.32.59-1.32,1.32s.59,1.32,1.32,1.32,1.32-.59,1.32-1.32-.59-1.32-1.32-1.32Z" fill="#2c3b5e"/><path d="M260.36,312.24c-.73,0-1.32.59-1.32,1.32s.59,1.32,1.32,1.32,1.32-.59,1.32-1.32-.59-1.32-1.32-1.32Z" fill="#2c3b5e"/><path d="M260.36,318.89c-.73,0-1.32.59-1.32,1.32s.59,1.32,1.32,1.32,1.32-.59,1.32-1.32-.59-1.32-1.32-1.32Z" fill="#2c3b5e"/><path d="M260.36,325.54c-.73,0-1.32.59-1.32,1.32s.59,1.32,1.32,1.32,1.32-.59,1.32-1.32-.59-1.32-1.32-1.32Z" fill="#2c3b5e"/><path d="M260.36,332.2c-.73,0-1.32.59-1.32,1.32s.59,1.32,1.32,1.32,1.32-.59,1.32-1.32-.59-1.32-1.32-1.32Z" fill="#2c3b5e"/><path d="M260.36,338.85c-.73,0-1.32.59-1.32,1.32s.59,1.32,1.32,1.32,1.32-.59,1.32-1.32-.59-1.32-1.32-1.32Z" fill="#2c3b5e"/><path d="M260.36,225.81c-.73,0-1.32.59-1.32,1.32s.59,1.32,1.32,1.32,1.32-.59,1.32-1.32-.59-1.32-1.32-1.32Z" fill="#2c3b5e"/><path d="M254.27,232.41c-.73,0-1.32.59-1.32,1.32s.59,1.32,1.32,1.32,1.32-.59,1.32-1.32-.59-1.32-1.32-1.32Z" fill="#2c3b5e"/><path d="M254.27,239.06c-.73,0-1.32.59-1.32,1.32s.59,1.32,1.32,1.32,1.32-.59,1.32-1.32-.59-1.32-1.32-1.32Z" fill="#2c3b5e"/><path d="M254.27,245.72c-.73,0-1.32.59-1.32,1.32s.59,1.32,1.32,1.32,1.32-.59,1.32-1.32-.59-1.32-1.32-1.32Z" fill="#2c3b5e"/><path d="M254.27,252.37c-.73,0-1.32.59-1.32,1.32s.59,1.32,1.32,1.32,1.32-.59,1.32-1.32-.59-1.32-1.32-1.32Z" fill="#2c3b5e"/><path d="M254.27,259.02c-.73,0-1.32.59-1.32,1.32s.59,1.32,1.32,1.32,1.32-.59,1.32-1.32-.59-1.32-1.32-1.32Z" fill="#2c3b5e"/><path d="M254.27,265.67c-.73,0-1.32.59-1.32,1.32s.59,1.32,1.32,1.32,1.32-.59,1.32-1.32-.59-1.32-1.32-1.32Z" fill="#2c3b5e"/><path d="M254.27,272.33c-.73,0-1.32.59-1.32,1.32s.59,1.32,1.32,1.32,1.32-.59,1.32-1.32-.59-1.32-1.32-1.32Z" fill="#2c3b5e"/><path d="M254.27,278.98c-.73,0-1.32.59-1.32,1.32s.59,1.32,1.32,1.32,1.32-.59,1.32-1.32-.59-1.32-1.32-1.32Z" fill="#2c3b5e"/><path d="M254.27,285.63c-.73,0-1.32.59-1.32,1.32s.59,1.32,1.32,1.32,1.32-.59,1.32-1.32-.59-1.32-1.32-1.32Z" fill="#2c3b5e"/><path d="M254.27,292.28c-.73,0-1.32.59-1.32,1.32s.59,1.32,1.32,1.32,1.32-.59,1.32-1.32-.59-1.32-1.32-1.32Z" fill="#2c3b5e"/><path d="M254.27,298.93c-.73,0-1.32.59-1.32,1.32s.59,1.32,1.32,1.32,1.32-.59,1.32-1.32-.59-1.32-1.32-1.32Z" fill="#2c3b5e"/><path d="M254.27,305.59c-.73,0-1.32.59-1.32,1.32s.59,1.32,1.32,1.32,1.32-.59,1.32-1.32-.59-1.32-1.32-1.32Z" fill="#2c3b5e"/><path d="M254.27,312.24c-.73,0-1.32.59-1.32,1.32s.59,1.32,1.32,1.32,1.32-.59,1.32-1.32-.59-1.32-1.32-1.32Z" fill="#2c3b5e"/><path d="M254.27,318.89c-.73,0-1.32.59-1.32,1.32s.59,1.32,1.32,1.32,1.32-.59,1.32-1.32-.59-1.32-1.32-1.32Z" fill="#2c3b5e"/><path d="M254.27,325.54c-.73,0-1.32.59-1.32,1.32s.59,1.32,1.32,1.32,1.32-.59,1.32-1.32-.59-1.32-1.32-1.32Z" fill="#2c3b5e"/><path d="M254.27,332.2c-.73,0-1.32.59-1.32,1.32s.59,1.32,1.32,1.32,1.32-.59,1.32-1.32-.59-1.32-1.32-1.32Z" fill="#2c3b5e"/><path d="M254.27,338.85c-.73,0-1.32.59-1.32,1.32s.59,1.32,1.32,1.32,1.32-.59,1.32-1.32-.59-1.32-1.32-1.32Z" fill="#2c3b5e"/><path d="M254.27,225.81c-.73,0-1.32.59-1.32,1.32s.59,1.32,1.32,1.32,1.32-.59,1.32-1.32-.59-1.32-1.32-1.32Z" fill="#2c3b5e"/><path d="M248.18,232.41c-.73,0-1.32.59-1.32,1.32s.59,1.32,1.32,1.32,1.32-.59,1.32-1.32-.59-1.32-1.32-1.32Z" fill="#2c3b5e"/><path d="M248.18,239.06c-.73,0-1.32.59-1.32,1.32s.59,1.32,1.32,1.32,1.32-.59,1.32-1.32-.59-1.32-1.32-1.32Z" fill="#2c3b5e"/><path d="M248.18,245.72c-.73,0-1.32.59-1.32,1.32s.59,1.32,1.32,1.32,1.32-.59,1.32-1.32-.59-1.32-1.32-1.32Z" fill="#2c3b5e"/><path d="M248.18,252.37c-.73,0-1.32.59-1.32,1.32s.59,1.32,1.32,1.32,1.32-.59,1.32-1.32-.59-1.32-1.32-1.32Z" fill="#2c3b5e"/><path d="M248.18,259.02c-.73,0-1.32.59-1.32,1.32s.59,1.32,1.32,1.32,1.32-.59,1.32-1.32-.59-1.32-1.32-1.32Z" fill="#2c3b5e"/><path d="M248.18,265.67c-.73,0-1.32.59-1.32,1.32s.59,1.32,1.32,1.32,1.32-.59,1.32-1.32-.59-1.32-1.32-1.32Z" fill="#2c3b5e"/><path d="M248.18,272.33c-.73,0-1.32.59-1.32,1.32s.59,1.32,1.32,1.32,1.32-.59,1.32-1.32-.59-1.32-1.32-1.32Z" fill="#2c3b5e"/><path d="M248.18,278.98c-.73,0-1.32.59-1.32,1.32s.59,1.32,1.32,1.32,1.32-.59,1.32-1.32-.59-1.32-1.32-1.32Z" fill="#2c3b5e"/><path d="M248.18,285.63c-.73,0-1.32.59-1.32,1.32s.59,1.32,1.32,1.32,1.32-.59,1.32-1.32-.59-1.32-1.32-1.32Z" fill="#2c3b5e"/><path d="M248.18,292.28c-.73,0-1.32.59-1.32,1.32s.59,1.32,1.32,1.32,1.32-.59,1.32-1.32-.59-1.32-1.32-1.32Z" fill="#2c3b5e"/><path d="M248.18,298.93c-.73,0-1.32.59-1.32,1.32s.59,1.32,1.32,1.32,1.32-.59,1.32-1.32-.59-1.32-1.32-1.32Z" fill="#2c3b5e"/><path d="M248.18,305.59c-.73,0-1.32.59-1.32,1.32s.59,1.32,1.32,1.32,1.32-.59,1.32-1.32-.59-1.32-1.32-1.32Z" fill="#2c3b5e"/><path d="M248.18,312.24c-.73,0-1.32.59-1.32,1.32s.59,1.32,1.32,1.32,1.32-.59,1.32-1.32-.59-1.32-1.32-1.32Z" fill="#2c3b5e"/><path d="M248.18,318.89c-.73,0-1.32.59-1.32,1.32s.59,1.32,1.32,1.32,1.32-.59,1.32-1.32-.59-1.32-1.32-1.32Z" fill="#2c3b5e"/><path d="M248.18,325.54c-.73,0-1.32.59-1.32,1.32s.59,1.32,1.32,1.32,1.32-.59,1.32-1.32-.59-1.32-1.32-1.32Z" fill="#2c3b5e"/><path d="M248.18,332.2c-.73,0-1.32.59-1.32,1.32s.59,1.32,1.32,1.32,1.32-.59,1.32-1.32-.59-1.32-1.32-1.32Z" fill="#2c3b5e"/><path d="M248.18,338.85c-.73,0-1.32.59-1.32,1.32s.59,1.32,1.32,1.32,1.32-.59,1.32-1.32-.59-1.32-1.32-1.32Z" fill="#2c3b5e"/><path d="M248.18,225.81c-.73,0-1.32.59-1.32,1.32s.59,1.32,1.32,1.32,1.32-.59,1.32-1.32-.59-1.32-1.32-1.32Z" fill="#2c3b5e"/><path d="M242.09,232.41c-.73,0-1.32.59-1.32,1.32s.59,1.32,1.32,1.32,1.32-.59,1.32-1.32-.59-1.32-1.32-1.32Z" fill="#2c3b5e"/><path d="M242.09,239.06c-.73,0-1.32.59-1.32,1.32s.59,1.32,1.32,1.32,1.32-.59,1.32-1.32-.59-1.32-1.32-1.32Z" fill="#2c3b5e"/><path d="M242.09,245.72c-.73,0-1.32.59-1.32,1.32s.59,1.32,1.32,1.32,1.32-.59,1.32-1.32-.59-1.32-1.32-1.32Z" fill="#2c3b5e"/><path d="M242.09,252.37c-.73,0-1.32.59-1.32,1.32s.59,1.32,1.32,1.32,1.32-.59,1.32-1.32-.59-1.32-1.32-1.32Z" fill="#2c3b5e"/><path d="M242.09,259.02c-.73,0-1.32.59-1.32,1.32s.59,1.32,1.32,1.32,1.32-.59,1.32-1.32-.59-1.32-1.32-1.32Z" fill="#2c3b5e"/><path d="M242.09,265.67c-.73,0-1.32.59-1.32,1.32s.59,1.32,1.32,1.32,1.32-.59,1.32-1.32-.59-1.32-1.32-1.32Z" fill="#2c3b5e"/><path d="M242.09,272.33c-.73,0-1.32.59-1.32,1.32s.59,1.32,1.32,1.32,1.32-.59,1.32-1.32-.59-1.32-1.32-1.32Z" fill="#2c3b5e"/><path d="M242.09,278.98c-.73,0-1.32.59-1.32,1.32s.59,1.32,1.32,1.32,1.32-.59,1.32-1.32-.59-1.32-1.32-1.32Z" fill="#2c3b5e"/><path d="M242.09,285.63c-.73,0-1.32.59-1.32,1.32s.59,1.32,1.32,1.32,1.32-.59,1.32-1.32-.59-1.32-1.32-1.32Z" fill="#2c3b5e"/><path d="M242.09,292.28c-.73,0-1.32.59-1.32,1.32s.59,1.32,1.32,1.32,1.32-.59,1.32-1.32-.59-1.32-1.32-1.32Z" fill="#2c3b5e"/><path d="M242.09,298.93c-.73,0-1.32.59-1.32,1.32s.59,1.32,1.32,1.32,1.32-.59,1.32-1.32-.59-1.32-1.32-1.32Z" fill="#2c3b5e"/><path d="M242.09,305.59c-.73,0-1.32.59-1.32,1.32s.59,1.32,1.32,1.32,1.32-.59,1.32-1.32-.59-1.32-1.32-1.32Z" fill="#2c3b5e"/><path d="M242.09,312.24c-.73,0-1.32.59-1.32,1.32s.59,1.32,1.32,1.32,1.32-.59,1.32-1.32-.59-1.32-1.32-1.32Z" fill="#2c3b5e"/><path d="M242.09,318.89c-.73,0-1.32.59-1.32,1.32s.59,1.32,1.32,1.32,1.32-.59,1.32-1.32-.59-1.32-1.32-1.32Z" fill="#2c3b5e"/><path d="M242.09,325.54c-.73,0-1.32.59-1.32,1.32s.59,1.32,1.32,1.32,1.32-.59,1.32-1.32-.59-1.32-1.32-1.32Z" fill="#2c3b5e"/><path d="M242.09,332.2c-.73,0-1.32.59-1.32,1.32s.59,1.32,1.32,1.32,1.32-.59,1.32-1.32-.59-1.32-1.32-1.32Z" fill="#2c3b5e"/><path d="M242.09,338.85c-.73,0-1.32.59-1.32,1.32s.59,1.32,1.32,1.32,1.32-.59,1.32-1.32-.59-1.32-1.32-1.32Z" fill="#2c3b5e"/><path d="M242.09,225.81c-.73,0-1.32.59-1.32,1.32s.59,1.32,1.32,1.32,1.32-.59,1.32-1.32-.59-1.32-1.32-1.32Z" fill="#2c3b5e"/><path d="M236,232.41c-.73,0-1.32.59-1.32,1.32s.59,1.32,1.32,1.32,1.32-.59,1.32-1.32-.59-1.32-1.32-1.32Z" fill="#2c3b5e"/><path d="M236,239.06c-.73,0-1.32.59-1.32,1.32s.59,1.32,1.32,1.32,1.32-.59,1.32-1.32-.59-1.32-1.32-1.32Z" fill="#2c3b5e"/><path d="M236,245.72c-.73,0-1.32.59-1.32,1.32s.59,1.32,1.32,1.32,1.32-.59,1.32-1.32-.59-1.32-1.32-1.32Z" fill="#2c3b5e"/><path d="M236,252.37c-.73,0-1.32.59-1.32,1.32s.59,1.32,1.32,1.32,1.32-.59,1.32-1.32-.59-1.32-1.32-1.32Z" fill="#2c3b5e"/><path d="M236,259.02c-.73,0-1.32.59-1.32,1.32s.59,1.32,1.32,1.32,1.32-.59,1.32-1.32-.59-1.32-1.32-1.32Z" fill="#2c3b5e"/><path d="M236,265.67c-.73,0-1.32.59-1.32,1.32s.59,1.32,1.32,1.32,1.32-.59,1.32-1.32-.59-1.32-1.32-1.32Z" fill="#2c3b5e"/><path d="M236,272.33c-.73,0-1.32.59-1.32,1.32s.59,1.32,1.32,1.32,1.32-.59,1.32-1.32-.59-1.32-1.32-1.32Z" fill="#2c3b5e"/><path d="M236,278.98c-.73,0-1.32.59-1.32,1.32s.59,1.32,1.32,1.32,1.32-.59,1.32-1.32-.59-1.32-1.32-1.32Z" fill="#2c3b5e"/><path d="M236,285.63c-.73,0-1.32.59-1.32,1.32s.59,1.32,1.32,1.32,1.32-.59,1.32-1.32-.59-1.32-1.32-1.32Z" fill="#2c3b5e"/><path d="M236,292.28c-.73,0-1.32.59-1.32,1.32s.59,1.32,1.32,1.32,1.32-.59,1.32-1.32-.59-1.32-1.32-1.32Z" fill="#2c3b5e"/><path d="M236,298.93c-.73,0-1.32.59-1.32,1.32s.59,1.32,1.32,1.32,1.32-.59,1.32-1.32-.59-1.32-1.32-1.32Z" fill="#2c3b5e"/><path d="M236,305.59c-.73,0-1.32.59-1.32,1.32s.59,1.32,1.32,1.32,1.32-.59,1.32-1.32-.59-1.32-1.32-1.32Z" fill="#2c3b5e"/><path d="M236,312.24c-.73,0-1.32.59-1.32,1.32s.59,1.32,1.32,1.32,1.32-.59,1.32-1.32-.59-1.32-1.32-1.32Z" fill="#2c3b5e"/><path d="M236,318.89c-.73,0-1.32.59-1.32,1.32s.59,1.32,1.32,1.32,1.32-.59,1.32-1.32-.59-1.32-1.32-1.32Z" fill="#2c3b5e"/><path d="M236,325.54c-.73,0-1.32.59-1.32,1.32s.59,1.32,1.32,1.32,1.32-.59,1.32-1.32-.59-1.32-1.32-1.32Z" fill="#2c3b5e"/><path d="M236,332.2c-.73,0-1.32.59-1.32,1.32s.59,1.32,1.32,1.32,1.32-.59,1.32-1.32-.59-1.32-1.32-1.32Z" fill="#2c3b5e"/><path d="M236,338.85c-.73,0-1.32.59-1.32,1.32s.59,1.32,1.32,1.32,1.32-.59,1.32-1.32-.59-1.32-1.32-1.32Z" fill="#2c3b5e"/><path d="M236,225.81c-.73,0-1.32.59-1.32,1.32s.59,1.32,1.32,1.32,1.32-.59,1.32-1.32-.59-1.32-1.32-1.32Z" fill="#2c3b5e"/><path d="M229.91,232.41c-.73,0-1.32.59-1.32,1.32s.59,1.32,1.32,1.32,1.32-.59,1.32-1.32-.59-1.32-1.32-1.32Z" fill="#2c3b5e"/><path d="M229.91,239.06c-.73,0-1.32.59-1.32,1.32s.59,1.32,1.32,1.32,1.32-.59,1.32-1.32-.59-1.32-1.32-1.32Z" fill="#2c3b5e"/><path d="M229.91,245.72c-.73,0-1.32.59-1.32,1.32s.59,1.32,1.32,1.32,1.32-.59,1.32-1.32-.59-1.32-1.32-1.32Z" fill="#2c3b5e"/><path d="M229.91,252.37c-.73,0-1.32.59-1.32,1.32s.59,1.32,1.32,1.32,1.32-.59,1.32-1.32-.59-1.32-1.32-1.32Z" fill="#2c3b5e"/><path d="M229.91,259.02c-.73,0-1.32.59-1.32,1.32s.59,1.32,1.32,1.32,1.32-.59,1.32-1.32-.59-1.32-1.32-1.32Z" fill="#2c3b5e"/><path d="M229.91,265.67c-.73,0-1.32.59-1.32,1.32s.59,1.32,1.32,1.32,1.32-.59,1.32-1.32-.59-1.32-1.32-1.32Z" fill="#2c3b5e"/><path d="M229.91,272.33c-.73,0-1.32.59-1.32,1.32s.59,1.32,1.32,1.32,1.32-.59,1.32-1.32-.59-1.32-1.32-1.32Z" fill="#2c3b5e"/><path d="M229.91,278.98c-.73,0-1.32.59-1.32,1.32s.59,1.32,1.32,1.32,1.32-.59,1.32-1.32-.59-1.32-1.32-1.32Z" fill="#2c3b5e"/><path d="M229.91,285.63c-.73,0-1.32.59-1.32,1.32s.59,1.32,1.32,1.32,1.32-.59,1.32-1.32-.59-1.32-1.32-1.32Z" fill="#2c3b5e"/><path d="M229.91,292.28c-.73,0-1.32.59-1.32,1.32s.59,1.32,1.32,1.32,1.32-.59,1.32-1.32-.59-1.32-1.32-1.32Z" fill="#2c3b5e"/><path d="M229.91,298.93c-.73,0-1.32.59-1.32,1.32s.59,1.32,1.32,1.32,1.32-.59,1.32-1.32-.59-1.32-1.32-1.32Z" fill="#2c3b5e"/><path d="M229.91,305.59c-.73,0-1.32.59-1.32,1.32s.59,1.32,1.32,1.32,1.32-.59,1.32-1.32-.59-1.32-1.32-1.32Z" fill="#2c3b5e"/><path d="M229.91,312.24c-.73,0-1.32.59-1.32,1.32s.59,1.32,1.32,1.32,1.32-.59,1.32-1.32-.59-1.32-1.32-1.32Z" fill="#2c3b5e"/><path d="M229.91,318.89c-.73,0-1.32.59-1.32,1.32s.59,1.32,1.32,1.32,1.32-.59,1.32-1.32-.59-1.32-1.32-1.32Z" fill="#2c3b5e"/><path d="M229.91,325.54c-.73,0-1.32.59-1.32,1.32s.59,1.32,1.32,1.32,1.32-.59,1.32-1.32-.59-1.32-1.32-1.32Z" fill="#2c3b5e"/><path d="M229.91,332.2c-.73,0-1.32.59-1.32,1.32s.59,1.32,1.32,1.32,1.32-.59,1.32-1.32-.59-1.32-1.32-1.32Z" fill="#2c3b5e"/><path d="M229.91,338.85c-.73,0-1.32.59-1.32,1.32s.59,1.32,1.32,1.32,1.32-.59,1.32-1.32-.59-1.32-1.32-1.32Z" fill="#2c3b5e"/><path d="M229.91,225.81c-.73,0-1.32.59-1.32,1.32s.59,1.32,1.32,1.32,1.32-.59,1.32-1.32-.59-1.32-1.32-1.32Z" fill="#2c3b5e"/><path d="M223.82,232.41c-.73,0-1.32.59-1.32,1.32s.59,1.32,1.32,1.32,1.32-.59,1.32-1.32-.59-1.32-1.32-1.32Z" fill="#2c3b5e"/><path d="M223.82,239.06c-.73,0-1.32.59-1.32,1.32s.59,1.32,1.32,1.32,1.32-.59,1.32-1.32-.59-1.32-1.32-1.32Z" fill="#2c3b5e"/><path d="M223.82,245.72c-.73,0-1.32.59-1.32,1.32s.59,1.32,1.32,1.32,1.32-.59,1.32-1.32-.59-1.32-1.32-1.32Z" fill="#2c3b5e"/><path d="M223.82,252.37c-.73,0-1.32.59-1.32,1.32s.59,1.32,1.32,1.32,1.32-.59,1.32-1.32-.59-1.32-1.32-1.32Z" fill="#2c3b5e"/><path d="M223.82,259.02c-.73,0-1.32.59-1.32,1.32s.59,1.32,1.32,1.32,1.32-.59,1.32-1.32-.59-1.32-1.32-1.32Z" fill="#2c3b5e"/><path d="M223.82,265.67c-.73,0-1.32.59-1.32,1.32s.59,1.32,1.32,1.32,1.32-.59,1.32-1.32-.59-1.32-1.32-1.32Z" fill="#2c3b5e"/><path d="M223.82,272.33c-.73,0-1.32.59-1.32,1.32s.59,1.32,1.32,1.32,1.32-.59,1.32-1.32-.59-1.32-1.32-1.32Z" fill="#2c3b5e"/><path d="M223.82,278.98c-.73,0-1.32.59-1.32,1.32s.59,1.32,1.32,1.32,1.32-.59,1.32-1.32-.59-1.32-1.32-1.32Z" fill="#2c3b5e"/><path d="M223.82,285.63c-.73,0-1.32.59-1.32,1.32s.59,1.32,1.32,1.32,1.32-.59,1.32-1.32-.59-1.32-1.32-1.32Z" fill="#2c3b5e"/><path d="M223.82,292.28c-.73,0-1.32.59-1.32,1.32s.59,1.32,1.32,1.32,1.32-.59,1.32-1.32-.59-1.32-1.32-1.32Z" fill="#2c3b5e"/><path d="M223.82,298.93c-.73,0-1.32.59-1.32,1.32s.59,1.32,1.32,1.32,1.32-.59,1.32-1.32-.59-1.32-1.32-1.32Z" fill="#2c3b5e"/><path d="M223.82,305.59c-.73,0-1.32.59-1.32,1.32s.59,1.32,1.32,1.32,1.32-.59,1.32-1.32-.59-1.32-1.32-1.32Z" fill="#2c3b5e"/><path d="M223.82,312.24c-.73,0-1.32.59-1.32,1.32s.59,1.32,1.32,1.32,1.32-.59,1.32-1.32-.59-1.32-1.32-1.32Z" fill="#2c3b5e"/><path d="M223.82,318.89c-.73,0-1.32.59-1.32,1.32s.59,1.32,1.32,1.32,1.32-.59,1.32-1.32-.59-1.32-1.32-1.32Z" fill="#2c3b5e"/><path d="M223.82,325.54c-.73,0-1.32.59-1.32,1.32s.59,1.32,1.32,1.32,1.32-.59,1.32-1.32-.59-1.32-1.32-1.32Z" fill="#2c3b5e"/><path d="M223.82,332.2c-.73,0-1.32.59-1.32,1.32s.59,1.32,1.32,1.32,1.32-.59,1.32-1.32-.59-1.32-1.32-1.32Z" fill="#2c3b5e"/><path d="M223.82,338.85c-.73,0-1.32.59-1.32,1.32s.59,1.32,1.32,1.32,1.32-.59,1.32-1.32-.59-1.32-1.32-1.32Z" fill="#2c3b5e"/><path d="M223.82,225.81c-.73,0-1.32.59-1.32,1.32s.59,1.32,1.32,1.32,1.32-.59,1.32-1.32-.59-1.32-1.32-1.32Z" fill="#2c3b5e"/><path d="M217.72,232.41c-.73,0-1.32.59-1.32,1.32s.59,1.32,1.32,1.32,1.32-.59,1.32-1.32-.59-1.32-1.32-1.32Z" fill="#2c3b5e"/><path d="M217.72,239.06c-.73,0-1.32.59-1.32,1.32s.59,1.32,1.32,1.32,1.32-.59,1.32-1.32-.59-1.32-1.32-1.32Z" fill="#2c3b5e"/><path d="M217.72,245.72c-.73,0-1.32.59-1.32,1.32s.59,1.32,1.32,1.32,1.32-.59,1.32-1.32-.59-1.32-1.32-1.32Z" fill="#2c3b5e"/><path d="M217.72,252.37c-.73,0-1.32.59-1.32,1.32s.59,1.32,1.32,1.32,1.32-.59,1.32-1.32-.59-1.32-1.32-1.32Z" fill="#2c3b5e"/><path d="M217.72,259.02c-.73,0-1.32.59-1.32,1.32s.59,1.32,1.32,1.32,1.32-.59,1.32-1.32-.59-1.32-1.32-1.32Z" fill="#2c3b5e"/><path d="M217.72,265.67c-.73,0-1.32.59-1.32,1.32s.59,1.32,1.32,1.32,1.32-.59,1.32-1.32-.59-1.32-1.32-1.32Z" fill="#2c3b5e"/><path d="M217.72,272.33c-.73,0-1.32.59-1.32,1.32s.59,1.32,1.32,1.32,1.32-.59,1.32-1.32-.59-1.32-1.32-1.32Z" fill="#2c3b5e"/><path d="M217.72,278.98c-.73,0-1.32.59-1.32,1.32s.59,1.32,1.32,1.32,1.32-.59,1.32-1.32-.59-1.32-1.32-1.32Z" fill="#2c3b5e"/><path d="M217.72,285.63c-.73,0-1.32.59-1.32,1.32s.59,1.32,1.32,1.32,1.32-.59,1.32-1.32-.59-1.32-1.32-1.32Z" fill="#2c3b5e"/><path d="M217.72,292.28c-.73,0-1.32.59-1.32,1.32s.59,1.32,1.32,1.32,1.32-.59,1.32-1.32-.59-1.32-1.32-1.32Z" fill="#2c3b5e"/><path d="M217.72,298.93c-.73,0-1.32.59-1.32,1.32s.59,1.32,1.32,1.32,1.32-.59,1.32-1.32-.59-1.32-1.32-1.32Z" fill="#2c3b5e"/><path d="M217.72,305.59c-.73,0-1.32.59-1.32,1.32s.59,1.32,1.32,1.32,1.32-.59,1.32-1.32-.59-1.32-1.32-1.32Z" fill="#2c3b5e"/><path d="M217.72,312.24c-.73,0-1.32.59-1.32,1.32s.59,1.32,1.32,1.32,1.32-.59,1.32-1.32-.59-1.32-1.32-1.32Z" fill="#2c3b5e"/><path d="M217.72,318.89c-.73,0-1.32.59-1.32,1.32s.59,1.32,1.32,1.32,1.32-.59,1.32-1.32-.59-1.32-1.32-1.32Z" fill="#2c3b5e"/><path d="M217.72,325.54c-.73,0-1.32.59-1.32,1.32s.59,1.32,1.32,1.32,1.32-.59,1.32-1.32-.59-1.32-1.32-1.32Z" fill="#2c3b5e"/><path d="M217.72,332.2c-.73,0-1.32.59-1.32,1.32s.59,1.32,1.32,1.32,1.32-.59,1.32-1.32-.59-1.32-1.32-1.32Z" fill="#2c3b5e"/><path d="M217.72,338.85c-.73,0-1.32.59-1.32,1.32s.59,1.32,1.32,1.32,1.32-.59,1.32-1.32-.59-1.32-1.32-1.32Z" fill="#2c3b5e"/><path d="M217.72,225.81c-.73,0-1.32.59-1.32,1.32s.59,1.32,1.32,1.32,1.32-.59,1.32-1.32-.59-1.32-1.32-1.32Z" fill="#2c3b5e"/><path d="M211.63,232.41c-.73,0-1.32.59-1.32,1.32s.59,1.32,1.32,1.32,1.32-.59,1.32-1.32-.59-1.32-1.32-1.32Z" fill="#2c3b5e"/><path d="M211.63,239.06c-.73,0-1.32.59-1.32,1.32s.59,1.32,1.32,1.32,1.32-.59,1.32-1.32-.59-1.32-1.32-1.32Z" fill="#2c3b5e"/><path d="M211.63,245.72c-.73,0-1.32.59-1.32,1.32s.59,1.32,1.32,1.32,1.32-.59,1.32-1.32-.59-1.32-1.32-1.32Z" fill="#2c3b5e"/><path d="M211.63,252.37c-.73,0-1.32.59-1.32,1.32s.59,1.32,1.32,1.32,1.32-.59,1.32-1.32-.59-1.32-1.32-1.32Z" fill="#2c3b5e"/><path d="M211.63,259.02c-.73,0-1.32.59-1.32,1.32s.59,1.32,1.32,1.32,1.32-.59,1.32-1.32-.59-1.32-1.32-1.32Z" fill="#2c3b5e"/><path d="M211.63,265.67c-.73,0-1.32.59-1.32,1.32s.59,1.32,1.32,1.32,1.32-.59,1.32-1.32-.59-1.32-1.32-1.32Z" fill="#2c3b5e"/><path d="M211.63,272.33c-.73,0-1.32.59-1.32,1.32s.59,1.32,1.32,1.32,1.32-.59,1.32-1.32-.59-1.32-1.32-1.32Z" fill="#2c3b5e"/><path d="M211.63,278.98c-.73,0-1.32.59-1.32,1.32s.59,1.32,1.32,1.32,1.32-.59,1.32-1.32-.59-1.32-1.32-1.32Z" fill="#2c3b5e"/><path d="M211.63,285.63c-.73,0-1.32.59-1.32,1.32s.59,1.32,1.32,1.32,1.32-.59,1.32-1.32-.59-1.32-1.32-1.32Z" fill="#2c3b5e"/><path d="M211.63,292.28c-.73,0-1.32.59-1.32,1.32s.59,1.32,1.32,1.32,1.32-.59,1.32-1.32-.59-1.32-1.32-1.32Z" fill="#2c3b5e"/><path d="M211.63,298.93c-.73,0-1.32.59-1.32,1.32s.59,1.32,1.32,1.32,1.32-.59,1.32-1.32-.59-1.32-1.32-1.32Z" fill="#2c3b5e"/><path d="M211.63,305.59c-.73,0-1.32.59-1.32,1.32s.59,1.32,1.32,1.32,1.32-.59,1.32-1.32-.59-1.32-1.32-1.32Z" fill="#2c3b5e"/><path d="M211.63,312.24c-.73,0-1.32.59-1.32,1.32s.59,1.32,1.32,1.32,1.32-.59,1.32-1.32-.59-1.32-1.32-1.32Z" fill="#2c3b5e"/><path d="M211.63,318.89c-.73,0-1.32.59-1.32,1.32s.59,1.32,1.32,1.32,1.32-.59,1.32-1.32-.59-1.32-1.32-1.32Z" fill="#2c3b5e"/><path d="M211.63,325.54c-.73,0-1.32.59-1.32,1.32s.59,1.32,1.32,1.32,1.32-.59,1.32-1.32-.59-1.32-1.32-1.32Z" fill="#2c3b5e"/><path d="M211.63,332.2c-.73,0-1.32.59-1.32,1.32s.59,1.32,1.32,1.32,1.32-.59,1.32-1.32-.59-1.32-1.32-1.32Z" fill="#2c3b5e"/><path d="M211.63,338.85c-.73,0-1.32.59-1.32,1.32s.59,1.32,1.32,1.32,1.32-.59,1.32-1.32-.59-1.32-1.32-1.32Z" fill="#2c3b5e"/><path d="M211.63,225.81c-.73,0-1.32.59-1.32,1.32s.59,1.32,1.32,1.32,1.32-.59,1.32-1.32-.59-1.32-1.32-1.32Z" fill="#2c3b5e"/><path d="M205.54,232.41c-.73,0-1.32.59-1.32,1.32s.59,1.32,1.32,1.32,1.32-.59,1.32-1.32-.59-1.32-1.32-1.32Z" fill="#2c3b5e"/><path d="M205.54,239.06c-.73,0-1.32.59-1.32,1.32s.59,1.32,1.32,1.32,1.32-.59,1.32-1.32-.59-1.32-1.32-1.32Z" fill="#2c3b5e"/><path d="M205.54,245.72c-.73,0-1.32.59-1.32,1.32s.59,1.32,1.32,1.32,1.32-.59,1.32-1.32-.59-1.32-1.32-1.32Z" fill="#2c3b5e"/><path d="M205.54,252.37c-.73,0-1.32.59-1.32,1.32s.59,1.32,1.32,1.32,1.32-.59,1.32-1.32-.59-1.32-1.32-1.32Z" fill="#2c3b5e"/><path d="M205.54,259.02c-.73,0-1.32.59-1.32,1.32s.59,1.32,1.32,1.32,1.32-.59,1.32-1.32-.59-1.32-1.32-1.32Z" fill="#2c3b5e"/><path d="M205.54,265.67c-.73,0-1.32.59-1.32,1.32s.59,1.32,1.32,1.32,1.32-.59,1.32-1.32-.59-1.32-1.32-1.32Z" fill="#2c3b5e"/><path d="M205.54,272.33c-.73,0-1.32.59-1.32,1.32s.59,1.32,1.32,1.32,1.32-.59,1.32-1.32-.59-1.32-1.32-1.32Z" fill="#2c3b5e"/><path d="M205.54,278.98c-.73,0-1.32.59-1.32,1.32s.59,1.32,1.32,1.32,1.32-.59,1.32-1.32-.59-1.32-1.32-1.32Z" fill="#2c3b5e"/><path d="M205.54,285.63c-.73,0-1.32.59-1.32,1.32s.59,1.32,1.32,1.32,1.32-.59,1.32-1.32-.59-1.32-1.32-1.32Z" fill="#2c3b5e"/><path d="M205.54,292.28c-.73,0-1.32.59-1.32,1.32s.59,1.32,1.32,1.32,1.32-.59,1.32-1.32-.59-1.32-1.32-1.32Z" fill="#2c3b5e"/><path d="M205.54,298.93c-.73,0-1.32.59-1.32,1.32s.59,1.32,1.32,1.32,1.32-.59,1.32-1.32-.59-1.32-1.32-1.32Z" fill="#2c3b5e"/><path d="M205.54,305.59c-.73,0-1.32.59-1.32,1.32s.59,1.32,1.32,1.32,1.32-.59,1.32-1.32-.59-1.32-1.32-1.32Z" fill="#2c3b5e"/><path d="M205.54,312.24c-.73,0-1.32.59-1.32,1.32s.59,1.32,1.32,1.32,1.32-.59,1.32-1.32-.59-1.32-1.32-1.32Z" fill="#2c3b5e"/><path d="M205.54,318.89c-.73,0-1.32.59-1.32,1.32s.59,1.32,1.32,1.32,1.32-.59,1.32-1.32-.59-1.32-1.32-1.32Z" fill="#2c3b5e"/><path d="M205.54,325.54c-.73,0-1.32.59-1.32,1.32s.59,1.32,1.32,1.32,1.32-.59,1.32-1.32-.59-1.32-1.32-1.32Z" fill="#2c3b5e"/><path d="M205.54,332.2c-.73,0-1.32.59-1.32,1.32s.59,1.32,1.32,1.32,1.32-.59,1.32-1.32-.59-1.32-1.32-1.32Z" fill="#2c3b5e"/><path d="M205.54,338.85c-.73,0-1.32.59-1.32,1.32s.59,1.32,1.32,1.32,1.32-.59,1.32-1.32-.59-1.32-1.32-1.32Z" fill="#2c3b5e"/><path d="M205.54,225.81c-.73,0-1.32.59-1.32,1.32s.59,1.32,1.32,1.32,1.32-.59,1.32-1.32-.59-1.32-1.32-1.32Z" fill="#2c3b5e"/><path d="M199.45,232.41c-.73,0-1.32.59-1.32,1.32s.59,1.32,1.32,1.32,1.32-.59,1.32-1.32-.59-1.32-1.32-1.32Z" fill="#2c3b5e"/><path d="M199.45,239.06c-.73,0-1.32.59-1.32,1.32s.59,1.32,1.32,1.32,1.32-.59,1.32-1.32-.59-1.32-1.32-1.32Z" fill="#2c3b5e"/><path d="M199.45,245.72c-.73,0-1.32.59-1.32,1.32s.59,1.32,1.32,1.32,1.32-.59,1.32-1.32-.59-1.32-1.32-1.32Z" fill="#2c3b5e"/><path d="M199.45,252.37c-.73,0-1.32.59-1.32,1.32s.59,1.32,1.32,1.32,1.32-.59,1.32-1.32-.59-1.32-1.32-1.32Z" fill="#2c3b5e"/><path d="M199.45,259.02c-.73,0-1.32.59-1.32,1.32s.59,1.32,1.32,1.32,1.32-.59,1.32-1.32-.59-1.32-1.32-1.32Z" fill="#2c3b5e"/><path d="M199.45,265.67c-.73,0-1.32.59-1.32,1.32s.59,1.32,1.32,1.32,1.32-.59,1.32-1.32-.59-1.32-1.32-1.32Z" fill="#2c3b5e"/><path d="M199.45,272.33c-.73,0-1.32.59-1.32,1.32s.59,1.32,1.32,1.32,1.32-.59,1.32-1.32-.59-1.32-1.32-1.32Z" fill="#2c3b5e"/><path d="M199.45,278.98c-.73,0-1.32.59-1.32,1.32s.59,1.32,1.32,1.32,1.32-.59,1.32-1.32-.59-1.32-1.32-1.32Z" fill="#2c3b5e"/><path d="M199.45,285.63c-.73,0-1.32.59-1.32,1.32s.59,1.32,1.32,1.32,1.32-.59,1.32-1.32-.59-1.32-1.32-1.32Z" fill="#2c3b5e"/><path d="M199.45,292.28c-.73,0-1.32.59-1.32,1.32s.59,1.32,1.32,1.32,1.32-.59,1.32-1.32-.59-1.32-1.32-1.32Z" fill="#2c3b5e"/><path d="M199.45,298.93c-.73,0-1.32.59-1.32,1.32s.59,1.32,1.32,1.32,1.32-.59,1.32-1.32-.59-1.32-1.32-1.32Z" fill="#2c3b5e"/><path d="M199.45,305.59c-.73,0-1.32.59-1.32,1.32s.59,1.32,1.32,1.32,1.32-.59,1.32-1.32-.59-1.32-1.32-1.32Z" fill="#2c3b5e"/><path d="M199.45,312.24c-.73,0-1.32.59-1.32,1.32s.59,1.32,1.32,1.32,1.32-.59,1.32-1.32-.59-1.32-1.32-1.32Z" fill="#2c3b5e"/><path d="M199.45,318.89c-.73,0-1.32.59-1.32,1.32s.59,1.32,1.32,1.32,1.32-.59,1.32-1.32-.59-1.32-1.32-1.32Z" fill="#2c3b5e"/><path d="M199.45,325.54c-.73,0-1.32.59-1.32,1.32s.59,1.32,1.32,1.32,1.32-.59,1.32-1.32-.59-1.32-1.32-1.32Z" fill="#2c3b5e"/><path d="M199.45,332.2c-.73,0-1.32.59-1.32,1.32s.59,1.32,1.32,1.32,1.32-.59,1.32-1.32-.59-1.32-1.32-1.32Z" fill="#2c3b5e"/><path d="M199.45,338.85c-.73,0-1.32.59-1.32,1.32s.59,1.32,1.32,1.32,1.32-.59,1.32-1.32-.59-1.32-1.32-1.32Z" fill="#2c3b5e"/><path d="M199.45,225.81c-.73,0-1.32.59-1.32,1.32s.59,1.32,1.32,1.32,1.32-.59,1.32-1.32-.59-1.32-1.32-1.32Z" fill="#2c3b5e"/><path d="M193.36,292.28c-.73,0-1.32.59-1.32,1.32s.59,1.32,1.32,1.32,1.32-.59,1.32-1.32-.59-1.32-1.32-1.32Z" fill="#2c3b5e"/><path d="M193.36,298.93c-.73,0-1.32.59-1.32,1.32s.59,1.32,1.32,1.32,1.32-.59,1.32-1.32-.59-1.32-1.32-1.32Z" fill="#2c3b5e"/><path d="M193.36,305.59c-.73,0-1.32.59-1.32,1.32s.59,1.32,1.32,1.32,1.32-.59,1.32-1.32-.59-1.32-1.32-1.32Z" fill="#2c3b5e"/><path d="M193.36,312.24c-.73,0-1.32.59-1.32,1.32s.59,1.32,1.32,1.32,1.32-.59,1.32-1.32-.59-1.32-1.32-1.32Z" fill="#2c3b5e"/><path d="M193.36,318.89c-.73,0-1.32.59-1.32,1.32s.59,1.32,1.32,1.32,1.32-.59,1.32-1.32-.59-1.32-1.32-1.32Z" fill="#2c3b5e"/><path d="M193.36,325.54c-.73,0-1.32.59-1.32,1.32s.59,1.32,1.32,1.32,1.32-.59,1.32-1.32-.59-1.32-1.32-1.32Z" fill="#2c3b5e"/><path d="M193.36,332.2c-.73,0-1.32.59-1.32,1.32s.59,1.32,1.32,1.32,1.32-.59,1.32-1.32-.59-1.32-1.32-1.32Z" fill="#2c3b5e"/><path d="M193.36,338.85c-.73,0-1.32.59-1.32,1.32s.59,1.32,1.32,1.32,1.32-.59,1.32-1.32-.59-1.32-1.32-1.32Z" fill="#2c3b5e"/><path d="M278.64,345.73c-.73,0-1.32.59-1.32,1.32s.59,1.32,1.32,1.32,1.32-.59,1.32-1.32-.59-1.32-1.32-1.32Z" fill="#2c3b5e"/><path d="M278.64,352.38c-.73,0-1.32.59-1.32,1.32s.59,1.32,1.32,1.32,1.32-.59,1.32-1.32-.59-1.32-1.32-1.32Z" fill="#2c3b5e"/><path d="M278.64,359.04c-.73,0-1.32.59-1.32,1.32s.59,1.32,1.32,1.32,1.32-.59,1.32-1.32-.59-1.32-1.32-1.32Z" fill="#2c3b5e"/><path d="M278.64,365.69c-.73,0-1.32.59-1.32,1.32s.59,1.32,1.32,1.32,1.32-.59,1.32-1.32-.59-1.32-1.32-1.32Z" fill="#2c3b5e"/><path d="M278.64,372.34c-.73,0-1.32.59-1.32,1.32s.59,1.32,1.32,1.32,1.32-.59,1.32-1.32-.59-1.32-1.32-1.32Z" fill="#2c3b5e"/><path d="M278.64,378.99c-.73,0-1.32.59-1.32,1.32s.59,1.32,1.32,1.32,1.32-.59,1.32-1.32-.59-1.32-1.32-1.32Z" fill="#2c3b5e"/><path d="M278.64,385.65c-.73,0-1.32.59-1.32,1.32s.59,1.32,1.32,1.32,1.32-.59,1.32-1.32-.59-1.32-1.32-1.32Z" fill="#2c3b5e"/><path d="M278.64,392.3c-.73,0-1.32.59-1.32,1.32s.59,1.32,1.32,1.32,1.32-.59,1.32-1.32-.59-1.32-1.32-1.32Z" fill="#2c3b5e"/><path d="M272.55,345.73c-.73,0-1.32.59-1.32,1.32s.59,1.32,1.32,1.32,1.32-.59,1.32-1.32-.59-1.32-1.32-1.32Z" fill="#2c3b5e"/><path d="M272.55,352.38c-.73,0-1.32.59-1.32,1.32s.59,1.32,1.32,1.32,1.32-.59,1.32-1.32-.59-1.32-1.32-1.32Z" fill="#2c3b5e"/><path d="M272.55,359.04c-.73,0-1.32.59-1.32,1.32s.59,1.32,1.32,1.32,1.32-.59,1.32-1.32-.59-1.32-1.32-1.32Z" fill="#2c3b5e"/><path d="M272.55,365.69c-.73,0-1.32.59-1.32,1.32s.59,1.32,1.32,1.32,1.32-.59,1.32-1.32-.59-1.32-1.32-1.32Z" fill="#2c3b5e"/><path d="M272.55,372.34c-.73,0-1.32.59-1.32,1.32s.59,1.32,1.32,1.32,1.32-.59,1.32-1.32-.59-1.32-1.32-1.32Z" fill="#2c3b5e"/><path d="M272.55,378.99c-.73,0-1.32.59-1.32,1.32s.59,1.32,1.32,1.32,1.32-.59,1.32-1.32-.59-1.32-1.32-1.32Z" fill="#2c3b5e"/><path d="M272.55,385.65c-.73,0-1.32.59-1.32,1.32s.59,1.32,1.32,1.32,1.32-.59,1.32-1.32-.59-1.32-1.32-1.32Z" fill="#2c3b5e"/><path d="M272.55,392.3c-.73,0-1.32.59-1.32,1.32s.59,1.32,1.32,1.32,1.32-.59,1.32-1.32-.59-1.32-1.32-1.32Z" fill="#2c3b5e"/><path d="M266.46,345.73c-.73,0-1.32.59-1.32,1.32s.59,1.32,1.32,1.32,1.32-.59,1.32-1.32-.59-1.32-1.32-1.32Z" fill="#2c3b5e"/><path d="M266.46,352.38c-.73,0-1.32.59-1.32,1.32s.59,1.32,1.32,1.32,1.32-.59,1.32-1.32-.59-1.32-1.32-1.32Z" fill="#2c3b5e"/><path d="M266.46,359.04c-.73,0-1.32.59-1.32,1.32s.59,1.32,1.32,1.32,1.32-.59,1.32-1.32-.59-1.32-1.32-1.32Z" fill="#2c3b5e"/><path d="M266.46,365.69c-.73,0-1.32.59-1.32,1.32s.59,1.32,1.32,1.32,1.32-.59,1.32-1.32-.59-1.32-1.32-1.32Z" fill="#2c3b5e"/><path d="M266.46,372.34c-.73,0-1.32.59-1.32,1.32s.59,1.32,1.32,1.32,1.32-.59,1.32-1.32-.59-1.32-1.32-1.32Z" fill="#2c3b5e"/><path d="M266.46,378.99c-.73,0-1.32.59-1.32,1.32s.59,1.32,1.32,1.32,1.32-.59,1.32-1.32-.59-1.32-1.32-1.32Z" fill="#2c3b5e"/><path d="M266.46,385.65c-.73,0-1.32.59-1.32,1.32s.59,1.32,1.32,1.32,1.32-.59,1.32-1.32-.59-1.32-1.32-1.32Z" fill="#2c3b5e"/><path d="M266.46,392.3c-.73,0-1.32.59-1.32,1.32s.59,1.32,1.32,1.32,1.32-.59,1.32-1.32-.59-1.32-1.32-1.32Z" fill="#2c3b5e"/><path d="M260.36,345.73c-.73,0-1.32.59-1.32,1.32s.59,1.32,1.32,1.32,1.32-.59,1.32-1.32-.59-1.32-1.32-1.32Z" fill="#2c3b5e"/><path d="M260.36,352.38c-.73,0-1.32.59-1.32,1.32s.59,1.32,1.32,1.32,1.32-.59,1.32-1.32-.59-1.32-1.32-1.32Z" fill="#2c3b5e"/><path d="M260.36,359.04c-.73,0-1.32.59-1.32,1.32s.59,1.32,1.32,1.32,1.32-.59,1.32-1.32-.59-1.32-1.32-1.32Z" fill="#2c3b5e"/><path d="M260.36,365.69c-.73,0-1.32.59-1.32,1.32s.59,1.32,1.32,1.32,1.32-.59,1.32-1.32-.59-1.32-1.32-1.32Z" fill="#2c3b5e"/><path d="M260.36,372.34c-.73,0-1.32.59-1.32,1.32s.59,1.32,1.32,1.32,1.32-.59,1.32-1.32-.59-1.32-1.32-1.32Z" fill="#2c3b5e"/><path d="M260.36,378.99c-.73,0-1.32.59-1.32,1.32s.59,1.32,1.32,1.32,1.32-.59,1.32-1.32-.59-1.32-1.32-1.32Z" fill="#2c3b5e"/><path d="M260.36,385.65c-.73,0-1.32.59-1.32,1.32s.59,1.32,1.32,1.32,1.32-.59,1.32-1.32-.59-1.32-1.32-1.32Z" fill="#2c3b5e"/><path d="M260.36,392.3c-.73,0-1.32.59-1.32,1.32s.59,1.32,1.32,1.32,1.32-.59,1.32-1.32-.59-1.32-1.32-1.32Z" fill="#2c3b5e"/><path d="M254.27,345.73c-.73,0-1.32.59-1.32,1.32s.59,1.32,1.32,1.32,1.32-.59,1.32-1.32-.59-1.32-1.32-1.32Z" fill="#2c3b5e"/><path d="M254.27,352.38c-.73,0-1.32.59-1.32,1.32s.59,1.32,1.32,1.32,1.32-.59,1.32-1.32-.59-1.32-1.32-1.32Z" fill="#2c3b5e"/><path d="M254.27,359.04c-.73,0-1.32.59-1.32,1.32s.59,1.32,1.32,1.32,1.32-.59,1.32-1.32-.59-1.32-1.32-1.32Z" fill="#2c3b5e"/><path d="M254.27,365.69c-.73,0-1.32.59-1.32,1.32s.59,1.32,1.32,1.32,1.32-.59,1.32-1.32-.59-1.32-1.32-1.32Z" fill="#2c3b5e"/><path d="M254.27,372.34c-.73,0-1.32.59-1.32,1.32s.59,1.32,1.32,1.32,1.32-.59,1.32-1.32-.59-1.32-1.32-1.32Z" fill="#2c3b5e"/><path d="M254.27,378.99c-.73,0-1.32.59-1.32,1.32s.59,1.32,1.32,1.32,1.32-.59,1.32-1.32-.59-1.32-1.32-1.32Z" fill="#2c3b5e"/><path d="M254.27,385.65c-.73,0-1.32.59-1.32,1.32s.59,1.32,1.32,1.32,1.32-.59,1.32-1.32-.59-1.32-1.32-1.32Z" fill="#2c3b5e"/><path d="M254.27,392.3c-.73,0-1.32.59-1.32,1.32s.59,1.32,1.32,1.32,1.32-.59,1.32-1.32-.59-1.32-1.32-1.32Z" fill="#2c3b5e"/><path d="M248.18,345.73c-.73,0-1.32.59-1.32,1.32s.59,1.32,1.32,1.32,1.32-.59,1.32-1.32-.59-1.32-1.32-1.32Z" fill="#2c3b5e"/><path d="M248.18,352.38c-.73,0-1.32.59-1.32,1.32s.59,1.32,1.32,1.32,1.32-.59,1.32-1.32-.59-1.32-1.32-1.32Z" fill="#2c3b5e"/><path d="M248.18,359.04c-.73,0-1.32.59-1.32,1.32s.59,1.32,1.32,1.32,1.32-.59,1.32-1.32-.59-1.32-1.32-1.32Z" fill="#2c3b5e"/><path d="M248.18,365.69c-.73,0-1.32.59-1.32,1.32s.59,1.32,1.32,1.32,1.32-.59,1.32-1.32-.59-1.32-1.32-1.32Z" fill="#2c3b5e"/><path d="M248.18,372.34c-.73,0-1.32.59-1.32,1.32s.59,1.32,1.32,1.32,1.32-.59,1.32-1.32-.59-1.32-1.32-1.32Z" fill="#2c3b5e"/><path d="M248.18,378.99c-.73,0-1.32.59-1.32,1.32s.59,1.32,1.32,1.32,1.32-.59,1.32-1.32-.59-1.32-1.32-1.32Z" fill="#2c3b5e"/><path d="M248.18,385.65c-.73,0-1.32.59-1.32,1.32s.59,1.32,1.32,1.32,1.32-.59,1.32-1.32-.59-1.32-1.32-1.32Z" fill="#2c3b5e"/><path d="M248.18,392.3c-.73,0-1.32.59-1.32,1.32s.59,1.32,1.32,1.32,1.32-.59,1.32-1.32-.59-1.32-1.32-1.32Z" fill="#2c3b5e"/><path d="M242.09,345.73c-.73,0-1.32.59-1.32,1.32s.59,1.32,1.32,1.32,1.32-.59,1.32-1.32-.59-1.32-1.32-1.32Z" fill="#2c3b5e"/><path d="M242.09,352.38c-.73,0-1.32.59-1.32,1.32s.59,1.32,1.32,1.32,1.32-.59,1.32-1.32-.59-1.32-1.32-1.32Z" fill="#2c3b5e"/><path d="M242.09,359.04c-.73,0-1.32.59-1.32,1.32s.59,1.32,1.32,1.32,1.32-.59,1.32-1.32-.59-1.32-1.32-1.32Z" fill="#2c3b5e"/><path d="M242.09,365.69c-.73,0-1.32.59-1.32,1.32s.59,1.32,1.32,1.32,1.32-.59,1.32-1.32-.59-1.32-1.32-1.32Z" fill="#2c3b5e"/><path d="M242.09,372.34c-.73,0-1.32.59-1.32,1.32s.59,1.32,1.32,1.32,1.32-.59,1.32-1.32-.59-1.32-1.32-1.32Z" fill="#2c3b5e"/><path d="M242.09,378.99c-.73,0-1.32.59-1.32,1.32s.59,1.32,1.32,1.32,1.32-.59,1.32-1.32-.59-1.32-1.32-1.32Z" fill="#2c3b5e"/><path d="M242.09,385.65c-.73,0-1.32.59-1.32,1.32s.59,1.32,1.32,1.32,1.32-.59,1.32-1.32-.59-1.32-1.32-1.32Z" fill="#2c3b5e"/><path d="M242.09,392.3c-.73,0-1.32.59-1.32,1.32s.59,1.32,1.32,1.32,1.32-.59,1.32-1.32-.59-1.32-1.32-1.32Z" fill="#2c3b5e"/><path d="M236,345.73c-.73,0-1.32.59-1.32,1.32s.59,1.32,1.32,1.32,1.32-.59,1.32-1.32-.59-1.32-1.32-1.32Z" fill="#2c3b5e"/><path d="M236,352.38c-.73,0-1.32.59-1.32,1.32s.59,1.32,1.32,1.32,1.32-.59,1.32-1.32-.59-1.32-1.32-1.32Z" fill="#2c3b5e"/><path d="M236,359.04c-.73,0-1.32.59-1.32,1.32s.59,1.32,1.32,1.32,1.32-.59,1.32-1.32-.59-1.32-1.32-1.32Z" fill="#2c3b5e"/><path d="M236,365.69c-.73,0-1.32.59-1.32,1.32s.59,1.32,1.32,1.32,1.32-.59,1.32-1.32-.59-1.32-1.32-1.32Z" fill="#2c3b5e"/><path d="M236,372.34c-.73,0-1.32.59-1.32,1.32s.59,1.32,1.32,1.32,1.32-.59,1.32-1.32-.59-1.32-1.32-1.32Z" fill="#2c3b5e"/><path d="M236,378.99c-.73,0-1.32.59-1.32,1.32s.59,1.32,1.32,1.32,1.32-.59,1.32-1.32-.59-1.32-1.32-1.32Z" fill="#2c3b5e"/><path d="M236,385.65c-.73,0-1.32.59-1.32,1.32s.59,1.32,1.32,1.32,1.32-.59,1.32-1.32-.59-1.32-1.32-1.32Z" fill="#2c3b5e"/><path d="M236,392.3c-.73,0-1.32.59-1.32,1.32s.59,1.32,1.32,1.32,1.32-.59,1.32-1.32-.59-1.32-1.32-1.32Z" fill="#2c3b5e"/><path d="M229.91,345.73c-.73,0-1.32.59-1.32,1.32s.59,1.32,1.32,1.32,1.32-.59,1.32-1.32-.59-1.32-1.32-1.32Z" fill="#2c3b5e"/><path d="M229.91,352.38c-.73,0-1.32.59-1.32,1.32s.59,1.32,1.32,1.32,1.32-.59,1.32-1.32-.59-1.32-1.32-1.32Z" fill="#2c3b5e"/><path d="M229.91,359.04c-.73,0-1.32.59-1.32,1.32s.59,1.32,1.32,1.32,1.32-.59,1.32-1.32-.59-1.32-1.32-1.32Z" fill="#2c3b5e"/><path d="M229.91,365.69c-.73,0-1.32.59-1.32,1.32s.59,1.32,1.32,1.32,1.32-.59,1.32-1.32-.59-1.32-1.32-1.32Z" fill="#2c3b5e"/><path d="M229.91,372.34c-.73,0-1.32.59-1.32,1.32s.59,1.32,1.32,1.32,1.32-.59,1.32-1.32-.59-1.32-1.32-1.32Z" fill="#2c3b5e"/><path d="M229.91,378.99c-.73,0-1.32.59-1.32,1.32s.59,1.32,1.32,1.32,1.32-.59,1.32-1.32-.59-1.32-1.32-1.32Z" fill="#2c3b5e"/><path d="M229.91,385.65c-.73,0-1.32.59-1.32,1.32s.59,1.32,1.32,1.32,1.32-.59,1.32-1.32-.59-1.32-1.32-1.32Z" fill="#2c3b5e"/><path d="M229.91,392.3c-.73,0-1.32.59-1.32,1.32s.59,1.32,1.32,1.32,1.32-.59,1.32-1.32-.59-1.32-1.32-1.32Z" fill="#2c3b5e"/><path d="M223.82,345.73c-.73,0-1.32.59-1.32,1.32s.59,1.32,1.32,1.32,1.32-.59,1.32-1.32-.59-1.32-1.32-1.32Z" fill="#2c3b5e"/><path d="M223.82,352.38c-.73,0-1.32.59-1.32,1.32s.59,1.32,1.32,1.32,1.32-.59,1.32-1.32-.59-1.32-1.32-1.32Z" fill="#2c3b5e"/><path d="M223.82,359.04c-.73,0-1.32.59-1.32,1.32s.59,1.32,1.32,1.32,1.32-.59,1.32-1.32-.59-1.32-1.32-1.32Z" fill="#2c3b5e"/><path d="M223.82,365.69c-.73,0-1.32.59-1.32,1.32s.59,1.32,1.32,1.32,1.32-.59,1.32-1.32-.59-1.32-1.32-1.32Z" fill="#2c3b5e"/><path d="M223.82,372.34c-.73,0-1.32.59-1.32,1.32s.59,1.32,1.32,1.32,1.32-.59,1.32-1.32-.59-1.32-1.32-1.32Z" fill="#2c3b5e"/><path d="M223.82,378.99c-.73,0-1.32.59-1.32,1.32s.59,1.32,1.32,1.32,1.32-.59,1.32-1.32-.59-1.32-1.32-1.32Z" fill="#2c3b5e"/><path d="M223.82,385.65c-.73,0-1.32.59-1.32,1.32s.59,1.32,1.32,1.32,1.32-.59,1.32-1.32-.59-1.32-1.32-1.32Z" fill="#2c3b5e"/><path d="M217.72,345.73c-.73,0-1.32.59-1.32,1.32s.59,1.32,1.32,1.32,1.32-.59,1.32-1.32-.59-1.32-1.32-1.32Z" fill="#2c3b5e"/><path d="M217.72,352.38c-.73,0-1.32.59-1.32,1.32s.59,1.32,1.32,1.32,1.32-.59,1.32-1.32-.59-1.32-1.32-1.32Z" fill="#2c3b5e"/><path d="M217.72,359.04c-.73,0-1.32.59-1.32,1.32s.59,1.32,1.32,1.32,1.32-.59,1.32-1.32-.59-1.32-1.32-1.32Z" fill="#2c3b5e"/><path d="M217.72,365.69c-.73,0-1.32.59-1.32,1.32s.59,1.32,1.32,1.32,1.32-.59,1.32-1.32-.59-1.32-1.32-1.32Z" fill="#2c3b5e"/><path d="M217.72,372.34c-.73,0-1.32.59-1.32,1.32s.59,1.32,1.32,1.32,1.32-.59,1.32-1.32-.59-1.32-1.32-1.32Z" fill="#2c3b5e"/><path d="M217.72,378.99c-.73,0-1.32.59-1.32,1.32s.59,1.32,1.32,1.32,1.32-.59,1.32-1.32-.59-1.32-1.32-1.32Z" fill="#2c3b5e"/><path d="M217.72,385.65c-.73,0-1.32.59-1.32,1.32s.59,1.32,1.32,1.32,1.32-.59,1.32-1.32-.59-1.32-1.32-1.32Z" fill="#2c3b5e"/><path d="M211.63,345.73c-.73,0-1.32.59-1.32,1.32s.59,1.32,1.32,1.32,1.32-.59,1.32-1.32-.59-1.32-1.32-1.32Z" fill="#2c3b5e"/><path d="M211.63,352.38c-.73,0-1.32.59-1.32,1.32s.59,1.32,1.32,1.32,1.32-.59,1.32-1.32-.59-1.32-1.32-1.32Z" fill="#2c3b5e"/><path d="M211.63,359.04c-.73,0-1.32.59-1.32,1.32s.59,1.32,1.32,1.32,1.32-.59,1.32-1.32-.59-1.32-1.32-1.32Z" fill="#2c3b5e"/><path d="M211.63,365.69c-.73,0-1.32.59-1.32,1.32s.59,1.32,1.32,1.32,1.32-.59,1.32-1.32-.59-1.32-1.32-1.32Z" fill="#2c3b5e"/><path d="M211.63,372.34c-.73,0-1.32.59-1.32,1.32s.59,1.32,1.32,1.32,1.32-.59,1.32-1.32-.59-1.32-1.32-1.32Z" fill="#2c3b5e"/><path d="M211.63,378.99c-.73,0-1.32.59-1.32,1.32s.59,1.32,1.32,1.32,1.32-.59,1.32-1.32-.59-1.32-1.32-1.32Z" fill="#2c3b5e"/><path d="M211.63,385.65c-.73,0-1.32.59-1.32,1.32s.59,1.32,1.32,1.32,1.32-.59,1.32-1.32-.59-1.32-1.32-1.32Z" fill="#2c3b5e"/><path d="M205.54,345.73c-.73,0-1.32.59-1.32,1.32s.59,1.32,1.32,1.32,1.32-.59,1.32-1.32-.59-1.32-1.32-1.32Z" fill="#2c3b5e"/><path d="M205.54,352.38c-.73,0-1.32.59-1.32,1.32s.59,1.32,1.32,1.32,1.32-.59,1.32-1.32-.59-1.32-1.32-1.32Z" fill="#2c3b5e"/><path d="M205.54,359.04c-.73,0-1.32.59-1.32,1.32s.59,1.32,1.32,1.32,1.32-.59,1.32-1.32-.59-1.32-1.32-1.32Z" fill="#2c3b5e"/><path d="M205.54,365.69c-.73,0-1.32.59-1.32,1.32s.59,1.32,1.32,1.32,1.32-.59,1.32-1.32-.59-1.32-1.32-1.32Z" fill="#2c3b5e"/><path d="M205.54,372.34c-.73,0-1.32.59-1.32,1.32s.59,1.32,1.32,1.32,1.32-.59,1.32-1.32-.59-1.32-1.32-1.32Z" fill="#2c3b5e"/><path d="M205.54,378.99c-.73,0-1.32.59-1.32,1.32s.59,1.32,1.32,1.32,1.32-.59,1.32-1.32-.59-1.32-1.32-1.32Z" fill="#2c3b5e"/><path d="M205.54,385.65c-.73,0-1.32.59-1.32,1.32s.59,1.32,1.32,1.32,1.32-.59,1.32-1.32-.59-1.32-1.32-1.32Z" fill="#2c3b5e"/><path d="M199.45,345.73c-.73,0-1.32.59-1.32,1.32s.59,1.32,1.32,1.32,1.32-.59,1.32-1.32-.59-1.32-1.32-1.32Z" fill="#2c3b5e"/><path d="M199.45,352.38c-.73,0-1.32.59-1.32,1.32s.59,1.32,1.32,1.32,1.32-.59,1.32-1.32-.59-1.32-1.32-1.32Z" fill="#2c3b5e"/><path d="M199.45,359.04c-.73,0-1.32.59-1.32,1.32s.59,1.32,1.32,1.32,1.32-.59,1.32-1.32-.59-1.32-1.32-1.32Z" fill="#2c3b5e"/><path d="M199.45,365.69c-.73,0-1.32.59-1.32,1.32s.59,1.32,1.32,1.32,1.32-.59,1.32-1.32-.59-1.32-1.32-1.32Z" fill="#2c3b5e"/><path d="M199.45,372.34c-.73,0-1.32.59-1.32,1.32s.59,1.32,1.32,1.32,1.32-.59,1.32-1.32-.59-1.32-1.32-1.32Z" fill="#2c3b5e"/><path d="M199.45,378.99c-.73,0-1.32.59-1.32,1.32s.59,1.32,1.32,1.32,1.32-.59,1.32-1.32-.59-1.32-1.32-1.32Z" fill="#2c3b5e"/><path d="M199.45,385.65c-.73,0-1.32.59-1.32,1.32s.59,1.32,1.32,1.32,1.32-.59,1.32-1.32-.59-1.32-1.32-1.32Z" fill="#2c3b5e"/><path d="M193.36,345.73c-.73,0-1.32.59-1.32,1.32s.59,1.32,1.32,1.32,1.32-.59,1.32-1.32-.59-1.32-1.32-1.32Z" fill="#2c3b5e"/><path d="M193.36,352.38c-.73,0-1.32.59-1.32,1.32s.59,1.32,1.32,1.32,1.32-.59,1.32-1.32-.59-1.32-1.32-1.32Z" fill="#2c3b5e"/><path d="M193.36,359.04c-.73,0-1.32.59-1.32,1.32s.59,1.32,1.32,1.32,1.32-.59,1.32-1.32-.59-1.32-1.32-1.32Z" fill="#2c3b5e"/><path d="M193.36,365.69c-.73,0-1.32.59-1.32,1.32s.59,1.32,1.32,1.32,1.32-.59,1.32-1.32-.59-1.32-1.32-1.32Z" fill="#2c3b5e"/><path d="M193.36,372.34c-.73,0-1.32.59-1.32,1.32s.59,1.32,1.32,1.32,1.32-.59,1.32-1.32-.59-1.32-1.32-1.32Z" fill="#2c3b5e"/><path d="M193.36,378.99c-.73,0-1.32.59-1.32,1.32s.59,1.32,1.32,1.32,1.32-.59,1.32-1.32-.59-1.32-1.32-1.32Z" fill="#2c3b5e"/><path d="M193.36,385.65c-.73,0-1.32.59-1.32,1.32s.59,1.32,1.32,1.32,1.32-.59,1.32-1.32-.59-1.32-1.32-1.32Z" fill="#2c3b5e"/><path d="M187.27,345.73c-.73,0-1.32.59-1.32,1.32s.59,1.32,1.32,1.32,1.32-.59,1.32-1.32-.59-1.32-1.32-1.32Z" fill="#2c3b5e"/><path d="M187.27,352.38c-.73,0-1.32.59-1.32,1.32s.59,1.32,1.32,1.32,1.32-.59,1.32-1.32-.59-1.32-1.32-1.32Z" fill="#2c3b5e"/><path d="M187.27,359.04c-.73,0-1.32.59-1.32,1.32s.59,1.32,1.32,1.32,1.32-.59,1.32-1.32-.59-1.32-1.32-1.32Z" fill="#2c3b5e"/><path d="M187.27,365.69c-.73,0-1.32.59-1.32,1.32s.59,1.32,1.32,1.32,1.32-.59,1.32-1.32-.59-1.32-1.32-1.32Z" fill="#2c3b5e"/><path d="M187.27,372.34c-.73,0-1.32.59-1.32,1.32s.59,1.32,1.32,1.32,1.32-.59,1.32-1.32-.59-1.32-1.32-1.32Z" fill="#2c3b5e"/><path d="M187.27,378.99c-.73,0-1.32.59-1.32,1.32s.59,1.32,1.32,1.32,1.32-.59,1.32-1.32-.59-1.32-1.32-1.32Z" fill="#2c3b5e"/><path d="M187.27,385.65c-.73,0-1.32.59-1.32,1.32s.59,1.32,1.32,1.32,1.32-.59,1.32-1.32-.59-1.32-1.32-1.32Z" fill="#2c3b5e"/></g><g><path d="M324.55,72.5h-45.04c-2.85,0-5.16,2.31-5.16,5.16v26.94c0,2.85,2.31,5.16,5.16,5.16h7.46l-.83,9.68,11.92-9.68h26.5c2.85,0,5.16-2.31,5.16-5.16v-26.94c0-2.85-2.31-5.16-5.16-5.16Z" fill="none" stroke="#2c3b5e" stroke-miterlimit="10" stroke-width="3"/><path d="M285.51,72.5v-7.37c0-2.21,1.79-4,4-4h46.73c2.21,0,4,1.79,4,4v32.41c0,2.21-1.79,4-4,4h-6.52" fill="none" stroke="#2c3b5e" stroke-miterlimit="10" stroke-width="3"/></g><g><line x1="292.22" y1="418.87" x2="315.19" y2="314.57" fill="none" stroke="#2c3b5e" stroke-miterlimit="10" stroke-width="3"/><line x1="375.1" y1="418.87" x2="352.14" y2="314.57" fill="none" stroke="#2c3b5e" stroke-miterlimit="10" stroke-width="3"/><rect x="302.03" y="297.07" width="61.98" height="17.49" fill="none" stroke="#2c3b5e" stroke-miterlimit="10" stroke-width="3"/><line x1="297.63" y1="394.29" x2="369.69" y2="394.29" fill="none" stroke="#2c3b5e" stroke-miterlimit="10" stroke-width="3"/><line x1="307.23" y1="350.73" x2="360.63" y2="350.73" fill="none" stroke="#2c3b5e" stroke-miterlimit="10" stroke-width="3"/></g><g><path d="M145.85,397.99h-26.82s-18.52-26.1-12.63-74.93h51.72s1.91,48.83-12.28,74.93Z" fill="none" stroke="#2c3b5e" stroke-miterlimit="10" stroke-width="3"/><path d="M126.18,238.45c-18.94,34.94-5.89,84.61-5.89,84.61h25.56c3.67-58.09-19.66-84.61-19.66-84.61Z" fill="#2c3b5e" stroke="#2c3b5e" stroke-miterlimit="10" stroke-width="3"/><path d="M145.42,293.95s3.78-16.35,15.84-25.19c0,0,9.87,22.73-5.66,54.3" fill="none" stroke="#2c3b5e" stroke-miterlimit="10" stroke-width="3"/><path d="M110.61,323.06s-7.37-14.52-5.37-28.83c0,0,9.24,1.91,11.83,10.53" fill="none" stroke="#2c3b5e" stroke-miterlimit="10" stroke-width="3"/></g><g><path d="M277.3,228.04l6.31,168.38s-29.47,10.52-58.51,0l5.89-147.33" fill="none" stroke="#2c3b5e" stroke-miterlimit="10" stroke-width="3"/><path d="M200.27,230.61l-17.26,157.9s17.68,11.79,42.52,1.68" fill="none" stroke="#2c3b5e" stroke-miterlimit="10" stroke-width="3"/><path d="M233.34,398.86s-17.63,9.62-17.63,20h64.26l-2.25-17.77" fill="none" stroke="#2c3b5e" stroke-miterlimit="10" stroke-width="3"/><path d="M178.9,398.86s-17.63,9.62-17.63,20h64.26" fill="none" stroke="#2c3b5e" stroke-miterlimit="10" stroke-width="3"/><path d="M267.01,160.5c2.51,5.33,2.46,11.79-.13,17.08s-7.66,9.3-13.41,10.59c-7.77,1.75-15.71-1.29-23.28-3.78s-16.17-4.41-23.22-.69" fill="none" stroke="#2c3b5e" stroke-miterlimit="10" stroke-width="3"/><path d="M206.48,190.97c4.41-2.57,9.86-3.3,14.79-1.96" fill="none" stroke="#2c3b5e" stroke-miterlimit="10" stroke-width="3"/><path d="M210.23,196.37c3.41-2.44,8.03-3.08,11.98-1.68" fill="none" stroke="#2c3b5e" stroke-miterlimit="10" stroke-width="3"/><path d="M214.8,199.64c7.1,2.51,14.45,4.28,21.91,5.29,7.64,1.03,15.38,1.26,23.09.88,6.17-.3,12.58-1.08,17.73-4.48,3.45-2.27,6.1-5.59,8.24-9.12,4.67-7.72,7.11-16.88,6.29-25.86-.83-8.98-5.04-17.73-11.97-23.51" fill="none" stroke="#2c3b5e" stroke-miterlimit="10" stroke-width="3"/><path d="M268.86,172.89s12.23,8.92,23.36,1.51" fill="none" stroke="#2c3b5e" stroke-miterlimit="10" stroke-width="3"/><path d="M220.84,109.89c-2.56,4.48-3.89,9.73-3.34,14.86.55,5.13,3.07,10.1,7.15,13.26s9.73,4.34,14.62,2.7" fill="none" stroke="#2c3b5e" stroke-miterlimit="10" stroke-width="3"/><path d="M230.73,114.63l-2.41,12.77s5,1.04,8.45,0" fill="none" stroke="#2c3b5e" stroke-miterlimit="10" stroke-width="3"/><path d="M218.8,109.11c8.84,1.19,18.1-.96,25.5-5.95,1.33,5.5,1.89,11,2.21,16.65,1.3-.14,2.57-.54,3.84-.22s2.48,1.18,2.84,2.44c.39,1.36-.32,2.84-1.4,3.76s-2.46,1.38-3.81,1.79c.13,4.15,1.98,8.2,5.08,10.96" fill="none" stroke="#2c3b5e" stroke-miterlimit="10" stroke-width="3"/><path d="M217.49,115.94c-3.82-4.3-4.8-10.76-2.89-16.19,1.91-5.42,6.46-9.73,11.8-11.85s11.4-2.15,16.94-.62c2.07.57,4.12,1.37,5.78,2.73,1.66,1.36,2.91,3.34,3,5.48,2.95-1.32,6.61.02,8.88,2.33s3.33,5.57,3.71,8.78c.69,5.75-.63,11.73-3.67,16.66" fill="none" stroke="#2c3b5e" stroke-miterlimit="10" stroke-width="3"/><path d="M152.15,201.11l3.04,17.17c.38,2.11,2.21,3.66,4.36,3.66h56.43c2.76,0,4.84-2.49,4.36-5.2l-2.88-16.24" fill="none" stroke="#2c3b5e" stroke-miterlimit="10" stroke-width="3"/><path d="M214.03,181.12l-6.9-38.92c-.38-2.11-2.21-3.66-4.36-3.66h-56.4c-2.76,0-4.85,2.51-4.36,5.23l7.07,38.7" fill="none" stroke="#2c3b5e" stroke-miterlimit="10" stroke-width="3"/><path d="M144.59,185.23c2.9-2.77,7.02-4.21,11.02-3.86" fill="none" stroke="#2c3b5e" stroke-miterlimit="10" stroke-width="3"/><path d="M158.12,186.67c-4.76-.24-9.58,2.14-12.28,6.06" fill="none" stroke="#2c3b5e" stroke-miterlimit="10" stroke-width="3"/><path d="M158.12,192.61c-3.6.47-7.01,2.25-9.44,4.94" fill="none" stroke="#2c3b5e" stroke-miterlimit="10" stroke-width="3"/><path d="M157.07,198.33c-2.62.84-5.07,2.22-7.17,4.01" fill="none" stroke="#2c3b5e" stroke-miterlimit="10" stroke-width="3"/><polyline points="277.53 201.33 280.54 228.04 239.26 228.04" fill="none" stroke="#2c3b5e" stroke-miterlimit="10" stroke-width="3"/><path d="M209.75,151.79c5.7-4.46,12.04-8.11,18.77-10.81" fill="none" stroke="#2c3b5e" stroke-miterlimit="10" stroke-width="3"/><path d="M229.68,149.42c5.02,2.98,11.18,3.96,16.87,2.7,5.7-1.26,10.86-4.76,14.15-9.57" fill="none" stroke="#2c3b5e" stroke-miterlimit="10" stroke-width="3"/><ellipse cx="224.04" cy="117.79" rx="1.46" ry="1.9" fill="#2c3b5e"/><ellipse cx="237.5" cy="118.04" rx="1.46" ry="1.9" fill="#2c3b5e"/></g></svg>